<?xml version="1.0" standalone="no"?>
<!DOCTYPE svg PUBLIC "-//W3C//DTD SVG 20010904//EN"
 "http://www.w3.org/TR/2001/REC-SVG-20010904/DTD/svg10.dtd">
<svg version="1.0" xmlns="http://www.w3.org/2000/svg"
 width="576.000000pt" height="250.000000pt" viewBox="0 0 576.000000 250.000000"
 preserveAspectRatio="xMidYMid meet">

<g transform="translate(0.000000,250.000000) scale(0.100000,-0.100000)"
fill="#000000" stroke="none">
<path d="M3575 1985 c-14 -13 -25 -33 -25 -45 0 -30 44 -70 78 -70 66 0 96 79
46 119 -35 28 -69 26 -99 -4z"/>
<path d="M4097 1993 c-4 -3 -7 -55 -7 -114 l0 -107 -37 19 c-72 37 -177 13
-223 -51 -71 -99 -65 -284 12 -357 18 -17 43 -36 55 -42 35 -18 114 -13 158 9
35 18 41 19 51 5 8 -10 28 -15 63 -15 l51 0 0 330 0 330 -58 0 c-32 0 -62 -3
-65 -7z m-26 -293 c17 -10 19 -22 19 -130 0 -137 -4 -143 -87 -138 -58 4 -84
34 -91 107 -6 65 4 113 29 145 17 21 29 26 65 26 25 0 54 -5 65 -10z"/>
<path d="M4492 1799 c-64 -12 -103 -39 -137 -94 -28 -44 -30 -56 -30 -139 0
-109 19 -155 84 -201 40 -28 49 -30 134 -30 117 0 152 15 152 65 0 33 -2 35
-30 33 -116 -6 -146 -5 -172 6 -30 12 -50 39 -55 75 -3 17 3 19 73 17 132 -4
199 39 199 128 0 106 -91 165 -218 140z m88 -99 c24 -24 25 -47 3 -72 -12 -14
-31 -18 -80 -18 -61 0 -63 1 -63 26 0 15 12 38 29 55 35 35 81 39 111 9z"/>
<path d="M4926 1796 c-94 -35 -143 -129 -134 -258 10 -134 90 -211 221 -210
74 0 121 17 165 63 66 68 81 220 30 312 -36 65 -93 99 -175 103 -44 3 -82 -1
-107 -10z m134 -96 c10 -5 26 -30 36 -55 21 -55 14 -147 -14 -184 -41 -55
-117 -48 -146 14 -32 66 -14 198 31 224 23 13 69 14 93 1z"/>
<path d="M3044 1787 c-4 -12 129 -377 156 -427 9 -16 21 -20 70 -20 l58 0 46
118 c90 232 124 327 119 335 -7 12 -110 8 -121 -5 -5 -7 -29 -78 -52 -158 -23
-80 -45 -151 -49 -158 -4 -7 -26 55 -50 140 -24 84 -47 161 -52 171 -12 21
-117 25 -125 4z"/>
<path d="M3565 1788 c-3 -8 -4 -110 -3 -228 l3 -215 63 -3 62 -3 -2 228 -3
228 -58 3 c-40 2 -59 -1 -62 -10z"/>
</g>
</svg>
