<?xml version="1.0" standalone="no"?>
<!DOCTYPE svg PUBLIC "-//W3C//DTD SVG 20010904//EN"
 "http://www.w3.org/TR/2001/REC-SVG-20010904/DTD/svg10.dtd">
<svg version="1.0" xmlns="http://www.w3.org/2000/svg"
 width="900.000000pt" height="370.000000pt" viewBox="0 0 900.000000 370.000000"
 preserveAspectRatio="xMidYMid meet">

<g transform="translate(0.000000,370.000000) scale(0.100000,-0.100000)"
fill="#000000" stroke="none">
<path d="M8470 3398 c-332 -369 -932 -1034 -1234 -1368 -131 -146 -413 -457
-625 -693 l-385 -427 -987 0 -986 0 -34 23 c-75 49 -91 157 -33 218 73 77 421
204 766 279 369 80 563 141 752 238 230 117 378 263 472 466 118 256 115 637
-7 879 -171 337 -503 545 -993 618 -171 26 -500 31 -641 10 -549 -80 -915
-353 -1040 -777 -36 -118 -45 -324 -21 -428 38 -162 175 -335 323 -409 246
-121 529 -75 724 118 121 120 181 261 181 430 1 183 -54 318 -182 445 -127
128 -260 183 -440 184 -140 0 -258 -36 -357 -111 -18 -13 -33 -21 -33 -17 0 4
25 38 56 76 154 191 426 333 744 389 90 16 354 28 426 19 70 -9 102 -29 130
-82 20 -39 21 -1812 0 -1861 -21 -52 -77 -94 -143 -107 -98 -19 -401 -109
-497 -147 -613 -241 -960 -674 -994 -1241 l-7 -112 1009 2 1010 3 154 170 c85
94 267 295 404 448 l250 277 734 0 734 0 2 -452 3 -453 512 -2 513 -1 2 451 3
452 128 3 127 3 0 44 0 45 -130 0 -130 0 -2 1341 -3 1340 -255 -283z m-770
-1698 l0 -700 -625 0 c-344 0 -625 3 -625 8 0 4 144 167 321 362 176 195 456
507 622 692 166 185 303 337 305 337 1 1 2 -314 2 -699z"/>
<path d="M1621 3472 c-158 -346 -270 -575 -308 -630 -63 -90 -166 -162 -273
-193 -25 -7 -49 -15 -53 -19 -4 -4 20 -67 53 -140 l62 -133 -57 -121 c-63
-133 -552 -1177 -837 -1786 -99 -212 -187 -397 -194 -412 l-15 -28 54 0 54 0
184 392 184 392 680 0 680 0 181 -390 181 -389 566 -3 c312 -1 567 0 567 3 0
4 -281 608 -624 1343 -343 735 -715 1534 -827 1774 -112 241 -206 438 -209
438 -3 0 -25 -44 -49 -98z m-142 -1917 l308 -660 -313 -3 c-172 -1 -456 -1
-632 0 l-319 3 79 170 c44 94 112 240 152 325 40 85 147 312 237 504 112 239
166 344 172 335 4 -8 147 -311 316 -674z"/>
</g>
</svg>
