<?xml version="1.0" encoding="UTF-8"?>
<svg version="1.1" xmlns="http://www.w3.org/2000/svg" width="1280" height="456">
<path d="M0 0 C0.57234375 0.4640625 1.1446875 0.928125 1.734375 1.40625 C4.07015067 3.45333429 4.95194129 4.68563431 5.42578125 7.78515625 C4.87308457 11.95826975 2.93290765 13.9572097 0.0625 16.8125 C-0.43604492 17.33166992 -0.93458984 17.85083984 -1.44824219 18.38574219 C-2.94950705 19.94058948 -4.47021458 21.47325288 -6 23 C-6.82113281 23.82371094 -7.64226562 24.64742187 -8.48828125 25.49609375 C-9.96545706 26.96816705 -11.44704872 28.43582611 -12.93359375 29.8984375 C-15.56427403 32.57387415 -17.99327387 35.39192864 -20.39453125 38.2734375 C-23.08077595 41.16229433 -24.8532725 42.80518304 -28.828125 43.48046875 C-32.98453435 42.85086487 -35.53978144 40.84822402 -38.75 38.3125 C-50.44936651 29.55871868 -62.28720675 24.89579738 -77 24 C-77.65742187 23.94714844 -78.31484375 23.89429688 -78.9921875 23.83984375 C-94.83535909 23.15230989 -109.5979778 28.46804037 -122 38 C-122.639375 38.47308594 -123.27875 38.94617188 -123.9375 39.43359375 C-137.26164458 49.93230589 -144.03612674 67.6285964 -146 84 C-147.07880234 104.76694502 -142.64396875 124.21689305 -128.9375 140.44140625 C-116.87221724 153.17458859 -100.24717342 160.66793949 -82.703125 161.30078125 C-80.88550595 161.31921585 -79.06768334 161.32280122 -77.25 161.3125 C-75.81853638 161.31056641 -75.81853638 161.31056641 -74.3581543 161.30859375 C-67.47835867 161.21570983 -61.25208839 160.39836891 -54.58203125 158.65625 C-52 158 -52 158 -49 158 C-49 146.45 -49 134.9 -49 123 C-53.35251953 123.08701172 -53.35251953 123.08701172 -57.79296875 123.17578125 C-60.60942859 123.21479684 -63.4258581 123.24514427 -66.24243164 123.2746582 C-68.19699623 123.29977281 -70.15146717 123.33387131 -72.10571289 123.37719727 C-74.91836668 123.43798434 -77.72977702 123.46623983 -80.54296875 123.48828125 C-81.41398727 123.51408768 -82.2850058 123.5398941 -83.18241882 123.56648254 C-87.33656023 123.56839465 -89.47480543 123.33293134 -93.05175781 121.06542969 C-95.76136894 116.80203654 -95.70358204 113.42331054 -95.62890625 108.46484375 C-95.63131821 107.5491713 -95.63373016 106.63349884 -95.63621521 105.69007874 C-95.63523799 103.7594061 -95.62187416 101.82870502 -95.59692383 99.89819336 C-95.56257013 96.94353153 -95.57628181 93.99185414 -95.59570312 91.03710938 C-95.58880564 89.15884144 -95.57913414 87.28058122 -95.56640625 85.40234375 C-95.57384605 84.07879128 -95.57384605 84.07879128 -95.58143616 82.72850037 C-95.56559982 81.90406937 -95.54976349 81.07963837 -95.53344727 80.23022461 C-95.52724869 79.50806259 -95.52105011 78.78590057 -95.5146637 78.04185486 C-94.72649087 74.9148915 -93.64652413 73.85331068 -91 72 C-88.02457122 71.41199672 -85.09725435 71.45357094 -82.07226562 71.48242188 C-81.17102463 71.4754126 -80.26978363 71.46840332 -79.3412323 71.46118164 C-76.36259131 71.44357856 -73.38490063 71.45523269 -70.40625 71.46875 C-68.33646462 71.46605575 -66.26668046 71.4621739 -64.19689941 71.45715332 C-59.85917103 71.45125513 -55.52177212 71.45983171 -51.18408203 71.47851562 C-45.6219078 71.50130517 -40.06050558 71.48818383 -34.49835968 71.46422577 C-30.22440771 71.44977658 -25.95063899 71.45436979 -21.67668152 71.46473694 C-19.62574675 71.46740665 -17.57479539 71.46412592 -15.52388 71.45481873 C-12.65804938 71.44466776 -9.7934716 71.460134 -6.92773438 71.48242188 C-6.07878098 71.47432495 -5.22982758 71.46622803 -4.35514832 71.45788574 C-3.1817968 71.47480469 -3.1817968 71.47480469 -1.98474121 71.49206543 C-1.30780968 71.49357353 -0.63087814 71.49508163 0.06656647 71.49663544 C2.96551502 72.25136941 4.17715503 73.66781073 6 76 C6.50615788 78.35510254 6.50615788 78.35510254 6.5146637 81.00976562 C6.52738815 82.01918213 6.54011261 83.02859863 6.55322266 84.06860352 C6.54669678 85.17002686 6.5401709 86.2714502 6.53344727 87.40625 C6.54206284 88.5708374 6.55067841 89.7354248 6.55955505 90.93530273 C6.58228484 94.79042696 6.57546308 98.64482845 6.56640625 102.5 C6.57031646 104.49921018 6.57423667 106.49842074 6.57970566 108.49762726 C6.59670294 114.78235519 6.59314028 121.06684031 6.57641602 127.3515625 C6.55948801 133.8342561 6.57533802 140.31627668 6.6076389 146.79889679 C6.63433032 152.36677278 6.64161232 157.9344392 6.63312382 163.50237274 C6.62819389 166.82703478 6.63251047 170.15120187 6.65091133 173.47583008 C6.66828033 177.18230637 6.65387599 180.88733277 6.63110352 184.59375 C6.64864182 186.24588501 6.64864182 186.24588501 6.66653442 187.93139648 C6.57323825 195.37370635 6.57323825 195.37370635 3.57946777 198.64456177 C2.72824341 199.09185638 1.87701904 199.539151 1 200 C0.372146 200.36077637 -0.25570801 200.72155273 -0.90258789 201.09326172 C-39.71173616 218.92829082 -84.92629945 225.31405209 -125.8125 210.75 C-157.44577801 198.73641926 -183.06743466 175.25058633 -197.29980469 144.49121094 C-203.8080171 129.72180011 -207.10444259 114.07634758 -208 98 C-208.04253906 97.236875 -208.08507812 96.47375 -208.12890625 95.6875 C-208.98649354 62.75614797 -196.80679307 30.07644639 -174.32421875 6.00390625 C-154.56806372 -14.5874566 -131.10411073 -26.96379971 -103 -32 C-102.26007813 -32.13277344 -101.52015625 -32.26554687 -100.7578125 -32.40234375 C-64.5028993 -37.55138784 -27.40308939 -23.2630543 0 0 Z " fill="#000000" transform="translate(785,41)"/>
<path d="M0 0 C2.06505631 -0.04397479 4.13016146 -0.08572534 6.1953125 -0.125 C7.16452637 -0.15505127 8.13374023 -0.18510254 9.13232422 -0.21606445 C10.0348291 -0.223396 10.93733398 -0.23072754 11.8671875 -0.23828125 C12.65706055 -0.25286377 13.44693359 -0.26744629 14.26074219 -0.2824707 C17.50651664 0.41579883 18.46505474 1.50669264 20.4453125 4.1875 C21.0511877 7.35552099 20.98462413 10.49110788 20.95324707 13.70823669 C20.95948703 14.68409558 20.965727 15.65995446 20.97215605 16.66538483 C20.9881461 19.94440331 20.97545793 23.22268462 20.96289062 26.50170898 C20.96830909 28.84884069 20.97543019 31.19596899 20.98413086 33.54309082 C21.00240076 39.925302 20.99528113 46.30725518 20.98261452 52.68947101 C20.97352882 58.6857149 20.98045573 64.68193489 20.9863233 70.67817808 C20.9977327 83.27933624 20.98461026 95.88037806 20.96312183 108.48151714 C20.94525462 119.29380736 20.94835107 130.10592578 20.96679688 140.91821289 C20.98820442 153.47245823 20.99662967 166.02660154 20.98434782 178.58086258 C20.97802251 185.22703712 20.97729675 191.87311587 20.99049377 198.5192852 C21.00203428 204.7680402 20.99405902 211.01647029 20.97091675 217.26519012 C20.96561986 219.56098198 20.96716007 221.8568011 20.97596741 224.15258217 C20.98686751 227.2820193 20.97322535 230.41040958 20.95324707 233.53977966 C20.96216996 234.45242362 20.97109284 235.36506758 20.98028612 236.30536741 C20.92878551 240.45277329 20.78458989 242.63714754 18.56371307 246.23970127 C16.09782635 248.50700194 14.81750728 248.94271518 11.5078125 249.1875 C10.67378906 249.27 9.83976563 249.3525 8.98046875 249.4375 C2.70193688 248.81835356 -1.64128694 243.52392452 -5.9921875 239.375 C-6.69085938 238.715 -7.38953125 238.055 -8.109375 237.375 C-13.39863235 232.35355315 -18.58580794 227.23428522 -23.68530273 222.02026367 C-26.50406516 219.15556907 -29.38285386 216.43475035 -32.4296875 213.8125 C-37.63058284 209.31832919 -42.38596525 204.40483286 -47.19921875 199.50390625 C-50.55796874 196.10831439 -53.93321174 192.80332231 -57.5546875 189.6875 C-62.72029494 185.24314748 -67.42761043 180.36242912 -72.19921875 175.50390625 C-75.55796874 172.10831439 -78.93321174 168.80332231 -82.5546875 165.6875 C-87.72029494 161.24314748 -92.42761043 156.36242912 -97.19921875 151.50390625 C-101.18581636 147.47357996 -105.26242898 143.65673353 -109.55908203 139.96044922 C-113.11337628 136.80271924 -116.41364783 133.39224378 -119.7421875 130 C-121.10822246 128.60826353 -122.47665064 127.21887138 -123.84765625 125.83203125 C-124.4408667 125.22721924 -125.03407715 124.62240723 -125.64526367 123.99926758 C-127.84202511 121.91485809 -130.18228 120.0677233 -132.5546875 118.1875 C-132.55523227 118.85287623 -132.55577703 119.51825247 -132.55633831 120.20379162 C-132.57130693 136.39539972 -132.61375668 152.58667894 -132.68677807 168.77812481 C-132.72142839 176.6082184 -132.74678362 184.43813593 -132.75024414 192.26831055 C-132.753284 199.09327636 -132.77377708 205.91792865 -132.81521207 212.74277335 C-132.83654226 216.35643622 -132.84914292 219.96965336 -132.84084129 223.58337975 C-132.83189957 227.61811914 -132.86192414 231.65166774 -132.89526367 235.6862793 C-132.88663803 236.88389893 -132.87801239 238.08151855 -132.86912537 239.31542969 C-132.9811771 247.38326501 -132.9811771 247.38326501 -135.85707092 251.4161377 C-139.42369251 253.75812324 -142.66798165 254.11314221 -146.8203125 254.33203125 C-147.61314636 254.39154465 -148.40598022 254.45105804 -149.22283936 254.51237488 C-151.74914732 254.69642772 -154.2762543 254.84827471 -156.8046875 255 C-158.48842703 255.11971171 -160.17202466 255.24143729 -161.85546875 255.36523438 C-166.42051686 255.68804185 -170.9822632 255.99164269 -175.5546875 256.1875 C-176.34951538 256.2319223 -177.14434326 256.2763446 -177.96325684 256.32211304 C-178.7523645 256.3494754 -179.54147217 256.37683777 -180.35449219 256.4050293 C-181.06402039 256.4354985 -181.77354858 256.46596771 -182.50457764 256.49736023 C-185.47703133 256.04809397 -186.49495917 255.4338849 -188.5546875 253.1875 C-189.18353296 250.02417233 -189.09344778 246.87536788 -189.06262207 243.65966797 C-189.06886203 242.67100172 -189.075102 241.68233547 -189.08153105 240.66370964 C-189.09754498 237.33546298 -189.08482371 234.00794019 -189.07226562 230.6796875 C-189.07768299 228.29990205 -189.08480347 225.92011995 -189.09350586 223.54034424 C-189.10988724 217.73837279 -189.10744079 211.93663319 -189.0958553 206.13465452 C-189.08683043 201.42029845 -189.08559285 196.70600041 -189.08995056 191.99163818 C-189.09056349 191.3212734 -189.09117643 190.65090862 -189.09180793 189.96022975 C-189.0930868 188.59849753 -189.09438365 187.23676533 -189.0956983 185.87503314 C-189.10711098 173.0989209 -189.09397966 160.32292337 -189.07249683 147.54682994 C-189.05462518 136.57868854 -189.0577291 125.61071647 -189.07617188 114.64257812 C-189.09756651 101.91293358 -189.10601228 89.18338964 -189.09372282 76.45372963 C-189.09244859 75.09694037 -189.09119111 73.7401511 -189.08995056 72.38336182 C-189.08933346 71.71575423 -189.08871636 71.04814665 -189.08808056 70.36030853 C-189.08462341 65.65031708 -189.0904638 60.94038931 -189.09986877 56.23040771 C-189.11139347 49.89385067 -189.1034632 43.55761448 -189.08029175 37.22109222 C-189.07498658 34.89059737 -189.07654908 32.56007567 -189.08534241 30.22959137 C-189.09620993 27.05780261 -189.08264038 23.88705381 -189.06262207 20.71533203 C-189.0760064 19.31909513 -189.0760064 19.31909513 -189.08966112 17.89465141 C-189.01348597 11.7084369 -189.01348597 11.7084369 -186.75731659 9.146698 C-181.75472418 6.96817568 -177.94416748 6.80409577 -172.7890625 8.2265625 C-167.75364508 10.23207594 -164.34289246 13.65669388 -160.5546875 17.4375 C-159.22265515 18.73571122 -157.88932301 20.03259014 -156.5546875 21.328125 C-155.89678223 21.97056152 -155.23887695 22.61299805 -154.56103516 23.27490234 C-151.93101645 25.78202896 -149.20002275 28.15876128 -146.45214844 30.53515625 C-143.63901553 32.98488393 -140.90954591 35.5208192 -138.1796875 38.0625 C-133.51635527 42.3861416 -128.81772574 46.66568453 -124.08203125 50.91015625 C-121.22386547 53.48559775 -118.38758489 56.08435764 -115.5546875 58.6875 C-111.90541579 62.04043117 -108.24299152 65.37748357 -104.5546875 68.6875 C-100.34707489 72.4635626 -96.17626378 76.27854007 -92.01342773 80.10375977 C-88.89835625 82.96352204 -85.76617075 85.80265359 -82.6171875 88.625 C-78.1625884 92.62198378 -73.76550271 96.67824409 -69.37353516 100.74365234 C-65.31396512 104.4972907 -61.21638381 108.20581766 -57.09765625 111.89453125 C-55.21606346 113.59114411 -53.34422727 115.29572182 -51.48046875 117.01171875 C-50.95267822 117.49761475 -50.4248877 117.98351074 -49.88110352 118.48413086 C-48.3909469 119.85797356 -46.90245317 121.2336193 -45.4140625 122.609375 C-43.425447 124.40238897 -41.434979 126.14170625 -39.37597656 127.84863281 C-37.97943848 129.00637207 -37.97943848 129.00637207 -36.5546875 130.1875 C-36.55414273 129.55304616 -36.55359797 128.91859232 -36.55303669 128.26491261 C-36.53806677 112.82435875 -36.49561183 97.3841618 -36.42259693 81.94378376 C-36.38794951 74.4768936 -36.36259176 67.010188 -36.35913086 59.54321289 C-36.35609058 53.03466634 -36.33559208 46.5264485 -36.29416293 40.01802891 C-36.27283634 36.57203395 -36.26023015 33.12650625 -36.26853371 29.68044472 C-36.27747813 25.83262236 -36.24744388 21.98563935 -36.21411133 18.13793945 C-36.22273697 16.99642426 -36.23136261 15.85490906 -36.24024963 14.67880249 C-36.12783368 6.95598197 -36.12783368 6.95598197 -33.16383362 2.98181152 C-30.35959551 1.05333511 -28.98825975 0.54390807 -25.625 0.48046875 C-24.6752832 0.45106201 -23.72556641 0.42165527 -22.74707031 0.39135742 C-21.73483398 0.38595947 -20.72259766 0.38056152 -19.6796875 0.375 C-18.10719238 0.34273315 -18.10719238 0.34273315 -16.50292969 0.30981445 C-14.30258548 0.26954822 -12.10200574 0.24071013 -9.90136719 0.22265625 C-6.59875749 0.18796295 -3.30123199 0.09928517 0 0 Z " fill="#000000" transform="translate(489.5546875,12.8125)"/>
<path d="M0 0 C0.97492086 0.03657904 1.94984173 0.07315807 2.95430565 0.11084557 C4.50975814 0.20949378 4.50975814 0.20949378 6.09663391 0.31013489 C7.13238871 0.3704571 8.1681435 0.4307793 9.23528481 0.49292946 C12.70752756 0.72090085 16.17439325 0.99174971 19.64277649 1.27229309 C20.95147705 1.37476349 22.26017761 1.47723389 23.60853577 1.58280945 C27.16431864 1.86165167 30.71962037 2.14620473 34.27480531 2.43256021 C36.50021235 2.61164419 38.72570327 2.78964833 40.95122337 2.9673214 C48.72625286 3.58829017 56.50083654 4.21457291 64.27510071 4.845047 C71.50722564 5.43138635 78.7402922 6.00492654 85.97388536 6.57283717 C92.20332219 7.06255929 98.43194304 7.56188024 104.66002768 8.0685069 C108.37191729 8.37025073 112.08402207 8.66799962 115.79702187 8.95578957 C119.9317064 9.27659384 124.06452021 9.61729154 128.19746399 9.95979309 C129.42096054 10.05186539 130.64445709 10.14393768 131.9050293 10.23880005 C142.45833456 11.14310263 142.45833456 11.14310263 147.09663391 14.31013489 C148.2588449 16.63455686 148.24120308 18.03110669 148.27363586 20.62043762 C148.29288872 21.95708717 148.29288872 21.95708717 148.31253052 23.32073975 C148.31991745 24.28532608 148.32730438 25.24991241 148.33491516 26.24372864 C148.34298691 27.23260574 148.35105865 28.22148285 148.359375 29.24032593 C148.37321802 31.33429712 148.3839392 33.4282909 148.39179993 35.52229309 C148.40904613 38.7313017 148.45293428 41.93928906 148.49702454 45.14802551 C148.5071483 47.17991896 148.51566539 49.21182118 148.52241516 51.24372864 C148.53992325 52.20629074 148.55743134 53.16885284 148.57546997 54.1605835 C148.57108162 55.50196129 148.57108162 55.50196129 148.56660461 56.87043762 C148.57247086 57.65716354 148.5783371 58.44388947 148.5843811 59.25445557 C148.09663391 61.31013489 148.09663391 61.31013489 146.57214355 63.10092163 C143.03014445 64.83108345 139.83406821 64.43554551 136.01850891 64.09724426 C135.22402344 64.03946556 134.42953796 63.98168686 133.61097717 63.92215729 C131.10454014 63.73505175 128.60088477 63.52436257 126.09663391 63.31013489 C124.56087651 63.18751941 123.02507024 63.06551441 121.48921204 62.94416809 C116.77246717 62.56264853 112.05960562 62.1416433 107.34663391 61.71638489 C105.62838523 61.56312184 103.91012322 61.41000804 102.19184875 61.2570343 C98.63551108 60.93968694 95.07938443 60.62009327 91.52339172 60.29890442 C86.9620556 59.88716718 82.40016169 59.48199763 77.83808899 59.0785141 C74.31036251 58.76567316 70.78298107 58.44907384 67.25569153 58.13134766 C65.57164181 57.98018353 63.88747815 57.83028321 62.20320129 57.68167114 C59.86783003 57.47512202 57.53298083 57.26343548 55.19819641 57.05036926 C54.50430817 56.99008041 53.81041992 56.92979156 53.09550476 56.86767578 C48.32508314 56.4243595 48.32508314 56.4243595 46.09663391 55.31013489 C46.42663391 69.17013489 46.75663391 83.03013489 47.09663391 97.31013489 C52.6692511 97.7806427 58.24186829 98.25115051 63.98335266 98.73591614 C67.51538675 99.0398561 71.04732432 99.34454297 74.57905579 99.65193176 C80.18352186 100.13965175 85.78813072 100.62460372 91.39424133 101.09309387 C95.91452104 101.47101849 100.43357534 101.86133515 104.95205116 102.26022911 C106.67521698 102.41016201 108.39877623 102.55564255 110.12270164 102.69657326 C112.53928044 102.89489786 114.9539694 103.10907903 117.36885071 103.32698059 C118.08023193 103.38164993 118.79161316 103.43631927 119.52455139 103.49264526 C123.75207885 103.89439567 126.68832126 104.74747932 130.09663391 107.31013489 C131.2588449 109.63455686 131.24120308 111.03110669 131.27363586 113.62043762 C131.29288872 114.95708717 131.29288872 114.95708717 131.31253052 116.32073975 C131.31991745 117.28532608 131.32730438 118.24991241 131.33491516 119.24372864 C131.34298691 120.23260574 131.35105865 121.22148285 131.359375 122.24032593 C131.37321802 124.33429712 131.3839392 126.4282909 131.39179993 128.52229309 C131.40904613 131.7313017 131.45293428 134.93928906 131.49702454 138.14802551 C131.5071483 140.17991896 131.51566539 142.21182118 131.52241516 144.24372864 C131.54867729 145.68757179 131.54867729 145.68757179 131.57546997 147.1605835 C131.5725444 148.05483536 131.56961884 148.94908722 131.56660461 149.87043762 C131.57247086 150.65716354 131.5783371 151.44388947 131.5843811 152.25445557 C131.09663391 154.31013489 131.09663391 154.31013489 129.52209473 156.10163879 C126.09861892 157.80740007 123.61243862 157.42147789 119.81929016 157.08576965 C119.11329178 157.02770173 118.4072934 156.96963381 117.67990112 156.90980625 C115.48379771 156.72544498 113.29054814 156.51877169 111.09663391 156.31013489 C109.8099884 156.19990997 108.5233429 156.08968506 107.19770813 155.97612 C103.30783512 155.63734621 99.42090836 155.27213795 95.53413391 154.89997864 C94.12212666 154.76666653 92.71009819 154.63357897 91.29804993 154.5007019 C87.64183125 154.15605289 83.98590223 153.80842501 80.33003235 153.46009827 C75.91126746 153.0397408 71.49213923 152.62322134 67.07307434 152.2060318 C60.41398348 151.5769487 53.75536191 150.94310118 47.09663391 150.31013489 C46.76663391 165.49013489 46.43663391 180.67013489 46.09663391 196.31013489 C55.99663391 196.80513489 55.99663391 196.80513489 66.09663391 197.31013489 C71.75017612 197.72824044 77.39816403 198.16555774 83.04585266 198.64997864 C84.56511398 198.77840422 86.0843861 198.90670215 87.60366821 199.03488159 C90.74207866 199.30056451 93.88024279 199.56895701 97.01826477 199.83918762 C101.01599789 200.18305325 105.01442527 200.5180015 109.0130949 200.85077572 C112.13202306 201.11165024 115.25045177 201.37815383 118.36876869 201.64622688 C119.84323045 201.77214018 121.31785737 201.89613653 122.79265404 202.0180645 C142.95512986 203.69137929 142.95512986 203.69137929 146.80583191 206.60211182 C148.45497853 208.78430588 148.47113174 210.01539349 148.46894836 212.73396301 C148.47517715 213.62498718 148.48140594 214.51601135 148.48782349 215.43403625 C148.47400887 216.87317383 148.47400887 216.87317383 148.45991516 218.34138489 C148.46066292 219.82257813 148.46066292 219.82257813 148.46142578 221.33369446 C148.45908498 223.42172762 148.44935615 225.50976358 148.43281555 227.59773254 C148.40922561 230.79769567 148.41225435 233.99682568 148.41889954 237.19685364 C148.41332275 239.22420237 148.40621286 241.25154758 148.39741516 243.27888489 C148.39832657 244.23830994 148.39923798 245.19773499 148.400177 246.18623352 C148.39064499 247.07725769 148.38111298 247.96828186 148.37129211 248.88630676 C148.36668472 249.67001648 148.36207733 250.4537262 148.35733032 251.26118469 C148.09663391 253.31013489 148.09663391 253.31013489 146.09663391 256.31013489 C131.79793032 258.34755608 116.10584878 255.36980013 101.78241944 254.18770957 C98.8595313 253.9470571 95.93635325 253.71002515 93.01318663 253.47278339 C86.12177685 252.91320562 79.23099278 252.34633773 72.3405304 251.77522278 C65.24644186 251.18740213 58.1512777 250.61411524 51.0554722 250.0474326 C44.93546093 249.5580528 38.81630962 249.05877584 32.69773406 248.55176288 C29.05470316 248.25004465 25.41145726 247.95227606 21.76729774 247.66448021 C17.71670183 247.34417288 13.6680912 247.0033023 9.61933899 246.66047668 C8.41880386 246.56840439 7.21826874 246.47633209 5.98135376 246.38146973 C4.32710388 246.2364502 4.32710388 246.2364502 2.63943481 246.08850098 C1.68403714 246.01014857 0.72863947 245.93179617 -0.25570965 245.85106945 C-3.33103759 245.22275864 -5.35477826 244.12301212 -7.90336609 242.31013489 C-9.62147681 238.87391344 -9.05130356 234.91899537 -9.05053711 231.1370697 C-9.0542138 230.17446476 -9.05789049 229.21185982 -9.06167859 228.22008502 C-9.07274719 224.97421744 -9.07656461 221.72838183 -9.08036804 218.48249817 C-9.08663019 216.16359861 -9.09327676 213.84470005 -9.10028076 211.52580261 C-9.11771126 205.21180774 -9.12824765 198.89782045 -9.13648629 192.58380747 C-9.14163104 188.64293059 -9.14770694 184.70205608 -9.15399742 180.76118088 C-9.17086859 169.8545845 -9.18550452 158.94799105 -9.19274616 148.04138374 C-9.19465612 145.21055729 -9.19657644 142.37973084 -9.1985321 139.54890442 C-9.19901584 138.84529958 -9.19949958 138.14169474 -9.19999798 137.41676854 C-9.20830265 126.01259511 -9.23364709 114.60852643 -9.26611278 103.20439877 C-9.29915693 91.50190559 -9.31719246 79.7994657 -9.3203904 68.09692562 C-9.32274659 61.52393466 -9.33178105 54.95110928 -9.35685158 48.37816238 C-9.38004446 42.19760027 -9.38440096 36.01731378 -9.37409019 29.83671951 C-9.37359261 27.56468288 -9.37997799 25.29263308 -9.39364624 23.02063751 C-9.41122722 19.92581244 -9.40432696 16.83199146 -9.39111328 13.73716736 C-9.40208253 12.83191917 -9.41305177 11.92667097 -9.42435342 10.99399102 C-9.38456273 7.15068405 -9.35636452 4.9853681 -7.17934227 1.74032879 C-4.49591777 0.05409965 -3.14661584 -0.13927492 0 0 Z " fill="#000000" transform="translate(887.9033660888672,18.689865112304688)"/>
<path d="M0 0 C0.61875 0.07089844 1.2375 0.14179687 1.875 0.21484375 C7.86686687 2.60498182 10.81740098 6.84811771 13.3046875 12.57421875 C13.72574265 13.52286552 13.72574265 13.52286552 14.15530396 14.49067688 C14.75947209 15.85625403 15.35658844 17.22496897 15.94726562 18.59643555 C17.22413837 21.56046041 18.53550211 24.50881766 19.84503174 27.45852661 C20.53093771 29.00405744 21.21512059 30.55035403 21.89764404 32.09738159 C25.14379508 39.44166191 28.55457024 46.70323516 31.99954224 53.9559021 C37.59259992 65.73283462 43.07189811 77.55530642 48.4375 89.4375 C53.67519052 101.03583746 59.04149679 112.56647276 64.5 124.0625 C70.27579217 136.22676217 75.93329137 148.43641302 81.47531128 160.7088623 C87.35145563 173.71482819 93.40189627 186.63486119 99.5052948 199.53553772 C100.71496875 202.09427152 101.92114736 204.6546461 103.12713623 207.21511841 C104.00329705 209.06947807 104.88651859 210.92036868 105.77001953 212.77124023 C106.58575439 214.4990271 106.58575439 214.4990271 107.41796875 216.26171875 C107.89903076 217.27322998 108.38009277 218.28474121 108.87573242 219.3269043 C110.54237581 223.38222224 110.93917225 225.75796053 110 230.0625 C105.38804956 233.94728275 101.33880278 234.87159813 95.55859375 235.546875 C94.75446548 235.65219543 93.95033722 235.75751587 93.12184143 235.86602783 C91.42422099 236.08502792 89.72559793 236.29637717 88.02612305 236.50048828 C85.46720909 236.80891911 82.91258937 237.14254236 80.35742188 237.48046875 C54.08458638 240.86628112 54.08458638 240.86628112 43.6875 234.5625 C42.03208398 233.62742826 40.37582228 232.69385223 38.71875 231.76171875 C37.914375 231.29813965 37.11 230.83456055 36.28125 230.35693359 C33.14007715 228.57456004 29.92949451 226.96416996 26.6875 225.375 C25.41529663 224.74102177 24.14316666 224.10689621 22.87109375 223.47265625 C19.41675002 221.75887925 15.95541155 220.05962136 12.49275208 218.36271667 C9.76381505 217.02313838 7.03828398 215.67671392 4.31314087 214.32943726 C2.94627866 213.65570086 1.57794341 212.9849441 0.20809937 212.31729126 C-1.73482133 211.3700097 -3.67246525 210.41262463 -5.609375 209.453125 C-7.3104541 208.6182959 -7.3104541 208.6182959 -9.04589844 207.76660156 C-11.98521267 206.07103021 -14.0305829 204.83218817 -16 202.0625 C-15.75 198.8125 -15.75 198.8125 -15 196.0625 C-5.97160626 193.71043249 3.10884187 191.73538645 12.25 189.875 C13.59249625 189.59984509 14.93494446 189.3244557 16.27734375 189.04882812 C19.51776712 188.38442477 22.758649 187.72236018 26 187.0625 C23.59231047 179.22702257 20.33718861 171.88576221 16.9375 164.4375 C15.77238798 161.86824902 14.61057544 159.29751281 13.44921875 156.7265625 C13.15886749 156.08468994 12.86851624 155.44281738 12.56936646 154.78149414 C9.28719474 147.51119625 6.12462836 140.18940471 2.98413086 132.85693359 C2.60264893 131.97086426 2.22116699 131.08479492 1.828125 130.171875 C1.4971582 129.39811523 1.16619141 128.62435547 0.82519531 127.82714844 C0.12973767 126.07857002 0.12973767 126.07857002 -1 125.0625 C-1.57778198 126.36840088 -1.57778198 126.36840088 -2.16723633 127.70068359 C-10.16546981 145.77023265 -18.21979255 163.81320765 -26.375 181.8125 C-26.96464035 183.11398987 -26.96464035 183.11398987 -27.56619263 184.44177246 C-28.36470191 186.20422752 -29.1632198 187.96667868 -29.96174622 189.72912598 C-30.35851059 190.60484253 -30.75527496 191.48055908 -31.1640625 192.3828125 C-31.56070602 193.25820679 -31.95734955 194.13360107 -32.36601257 195.03552246 C-36.45140341 204.05442526 -40.52319321 213.07943501 -44.5881958 222.10754395 C-45.3472613 223.79315985 -46.10664685 225.47863167 -46.86639404 227.16394043 C-47.58162406 228.7506117 -48.29632693 230.33752071 -49.01046753 231.92468262 C-49.69310546 233.44083391 -50.37741082 234.95623574 -51.06350708 236.4708252 C-52.7351642 240.17588581 -54.35466817 243.89253642 -55.89257812 247.65527344 C-56.19802551 248.39047211 -56.5034729 249.12567078 -56.81817627 249.88314819 C-57.38960871 251.26518389 -57.94847502 252.65251359 -58.49188232 254.04580688 C-60.28775674 258.35825643 -61.90672884 259.94803506 -66 262.0625 C-68.52156067 262.94802856 -68.52156067 262.94802856 -71.21411133 263.67236328 C-72.22899124 263.94919952 -73.24387115 264.22603577 -74.289505 264.51126099 C-75.37603867 264.79887299 -76.46257233 265.08648499 -77.58203125 265.3828125 C-79.27425056 265.83900467 -79.27425056 265.83900467 -81.00065613 266.30441284 C-83.38429019 266.94509641 -85.76894764 267.58198296 -88.15454102 268.21533203 C-91.79129853 269.18186533 -95.42411306 270.16223474 -99.05664062 271.14453125 C-101.37738187 271.76645509 -103.69833866 272.38757531 -106.01953125 273.0078125 C-107.09999222 273.29947296 -108.18045319 273.59113342 -109.2936554 273.89163208 C-123.92220412 277.75509863 -123.92220412 277.75509863 -128.4375 276.25 C-130.93848766 274.34924938 -131.01328132 272.97194554 -131.47265625 269.83984375 C-131.37294614 263.58057668 -128.16164061 258.16799789 -125.4487915 252.67346191 C-124.05477618 249.84975847 -122.6950084 247.00997381 -121.33258057 244.17092896 C-120.61960846 242.68609915 -119.90486496 241.2021187 -119.18841553 239.71896362 C-115.85571741 232.8100581 -112.68273355 225.83399077 -109.53665161 218.83859253 C-103.64639451 205.74783971 -97.57472187 192.74989001 -91.4175415 179.78283691 C-86.34175919 169.08796042 -81.36993696 158.35259994 -76.5 147.5625 C-70.93755321 135.23803723 -65.21691872 122.99610114 -59.41699219 110.78173828 C-54.02440476 99.41930813 -48.76173884 88.00541115 -43.58804321 76.5418396 C-37.87478239 63.89138879 -31.97952392 51.33150555 -26.00854492 38.80078125 C-22.89113532 32.24965064 -19.80557847 25.69809119 -16.9140625 19.04296875 C-16.46522705 18.01582764 -16.0163916 16.98868652 -15.55395508 15.93041992 C-14.75939086 14.09487501 -13.97915029 12.25302137 -13.2175293 10.40356445 C-10.75507544 4.72208841 -7.11174092 -1.08157726 0 0 Z " fill="#000000" transform="translate(131,43.9375)"/>
<path d="M0 0 C1.2772998 0.16121338 2.55459961 0.32242676 3.87060547 0.48852539 C5.08248535 0.65473389 6.29436523 0.82094238 7.54296875 0.9921875 C8.62989014 1.13769043 9.71681152 1.28319336 10.83666992 1.43310547 C15.55809197 2.53085837 18.12227265 4.08965897 20.8125 8.125 C21.00163561 10.76122357 21.07337884 13.29067527 21.05300903 15.92668152 C21.05471788 16.72962106 21.05642673 17.53256059 21.05818737 18.35983163 C21.06149029 21.05923215 21.05046541 23.75838592 21.03955078 26.45776367 C21.03898684 28.38921605 21.03930289 30.32066885 21.04043579 32.25212097 C21.04101097 37.5038793 21.0292299 42.75554676 21.01528788 48.00728393 C21.00280807 53.49258832 21.00161219 58.97789466 20.99923706 64.46321106 C20.99301419 74.85417611 20.97659247 85.2450992 20.95653808 95.63604575 C20.93420416 107.46417946 20.92319196 119.29231515 20.91314721 131.12046468 C20.89222694 155.45533307 20.85703531 179.79016419 20.8125 204.125 C22.6653275 204.34826304 22.6653275 204.34826304 24.55558586 204.57603645 C27.37028086 204.92843594 30.14646927 205.32062436 32.92312622 205.90841675 C33.63224152 206.05691071 34.34135681 206.20540466 35.07196045 206.35839844 C36.19287079 206.59840576 36.19287079 206.59840576 37.33642578 206.84326172 C38.14725616 207.01415314 38.95808655 207.18504456 39.79348755 207.3611145 C42.44905222 207.92198374 45.10349389 208.48795259 47.7578125 209.0546875 C49.61529301 209.44969497 51.4727863 209.84464233 53.33029175 210.23953247 C57.21243381 211.06587017 61.09393672 211.89514133 64.97509766 212.72607422 C69.94088014 213.78864291 74.90887224 214.84046924 79.87748909 215.88969231 C83.71001898 216.70085329 87.54094028 217.5194168 91.37145615 218.34003067 C93.20245418 218.73101987 95.03402802 219.11932289 96.86618423 219.50484848 C99.42831068 220.04477924 101.98800137 220.59508363 104.54736328 221.14794922 C105.2986853 221.30390564 106.05000732 221.45986206 106.82409668 221.62054443 C112.61332022 222.88898052 117.4325544 224.0550816 120.8125 229.125 C121.06646729 231.18067932 121.06646729 231.18067932 121.07128906 233.56469727 C121.07759338 234.45894913 121.08389771 235.35320099 121.09039307 236.27455139 C121.08432037 237.71839455 121.08432037 237.71839455 121.078125 239.19140625 C121.08003845 240.18124008 121.0819519 241.17107391 121.08392334 242.19090271 C121.08528438 244.28311416 121.08159362 246.37533407 121.07324219 248.4675293 C121.06253031 251.67841446 121.07314618 254.88874153 121.0859375 258.09960938 C121.08461611 260.13020957 121.08205415 262.16080942 121.078125 264.19140625 C121.08217346 265.15599258 121.08622192 266.12057892 121.09039307 267.11439514 C121.08093658 268.45104469 121.08093658 268.45104469 121.07128906 269.81469727 C121.06969788 270.60062759 121.06810669 271.38655792 121.06646729 272.19630432 C120.8125 274.125 120.8125 274.125 118.8125 276.125 C111.11339887 276.6986839 104.02040661 275.18652468 96.50927734 273.60229492 C95.18942805 273.33055999 93.86942101 273.0595903 92.54927063 272.7893219 C88.98777883 272.05774978 85.42870019 271.31502687 81.87004805 270.56978011 C78.13356351 269.78886366 74.39521072 269.01698515 70.65713501 268.24372864 C64.38337789 266.94443943 58.11117456 265.63785114 51.83984375 264.3269043 C44.6021868 262.81405491 37.36217515 261.31292033 30.12079465 259.81800383 C23.13601997 258.37576812 16.15301547 256.92513046 9.17076492 255.47072792 C6.20739854 254.85361755 3.24344588 254.23944636 0.27897263 253.62767601 C-3.21418753 252.90641343 -6.70573254 252.17778159 -10.19619179 251.44356346 C-12.0795264 251.04919392 -13.96437126 250.66205811 -15.84925842 250.275177 C-30.87426211 247.09485683 -30.87426211 247.09485683 -34.1875 242.125 C-34.439349 240.20414543 -34.439349 240.20414543 -34.44197559 237.98483276 C-34.44780779 237.13772799 -34.45363998 236.29062321 -34.45964891 235.41784859 C-34.45586958 234.48702398 -34.45209026 233.55619938 -34.44819641 232.59716797 C-34.45202196 231.60850172 -34.45584751 230.61983547 -34.45978898 229.60120964 C-34.47014564 226.27314889 -34.46612177 222.9452598 -34.4621582 219.6171875 C-34.46650317 217.23740478 -34.47168559 214.85762346 -34.47764587 212.47784424 C-34.48967394 206.67593337 -34.4921846 200.87407636 -34.48984561 195.07215452 C-34.48806427 190.35781049 -34.48980814 185.64348053 -34.49407005 180.92913818 C-34.49466524 180.2587734 -34.49526043 179.58840862 -34.49587366 178.89772975 C-34.49708537 177.53599755 -34.49829951 176.17426534 -34.49951603 174.81253314 C-34.51039757 162.03645711 -34.50822604 149.26040746 -34.50213119 136.48432994 C-34.49696019 124.78856776 -34.50822116 113.09288883 -34.52722941 101.39714313 C-34.54658623 89.39516406 -34.55486769 77.39322442 -34.55110615 65.39122963 C-34.54919099 58.65009446 -34.55171233 51.90903018 -34.56582069 45.16790771 C-34.57834751 38.83141255 -34.57650389 32.49508467 -34.56340981 26.15859222 C-34.56103332 23.82809138 -34.56381674 21.49757894 -34.57203293 19.16709137 C-34.5824115 15.99547429 -34.57447151 12.82442786 -34.5617218 9.65283203 C-34.56909609 8.72200743 -34.57647037 7.79118282 -34.58406812 6.83215141 C-34.57686158 5.98504663 -34.56965503 5.13794186 -34.56223011 4.26516724 C-34.56228513 3.53279406 -34.56234014 2.80042088 -34.56239682 2.04585457 C-32.60593561 -7.97844337 -6.88991098 -0.8984799 0 0 Z " fill="#000000" transform="translate(1157.1875,43.875)"/>
<path d="M0 0 C7.98463014 6.29523178 12.95269681 15.15329969 16.06640625 24.6953125 C16.25976562 25.283125 16.453125 25.8709375 16.65234375 26.4765625 C19.17345871 39.98593324 16.72555643 53.32626145 9.06640625 64.6953125 C1.62367381 74.69648422 -8.61961602 81.27954951 -20.93359375 83.6953125 C-36.33936542 84.57952898 -48.46682649 82.08894388 -60.62109375 72.0078125 C-69.59500051 63.64363111 -74.86178154 52.0672641 -75.40625 39.80932617 C-75.56923389 27.58116842 -72.37511918 17.38565056 -64.93359375 7.6953125 C-64.06734375 6.3959375 -64.06734375 6.3959375 -63.18359375 5.0703125 C-46.18311719 -12.87463498 -19.82446942 -13.37651068 0 0 Z M-52.93359375 20.6953125 C-57.2701814 27.21726716 -58.59774075 34.7526606 -57.5625 42.45703125 C-55.63862562 51.02484448 -51.31236993 57.69288587 -43.99609375 62.6328125 C-36.75109162 66.65163326 -30.04228237 67.43019472 -21.93359375 65.6953125 C-13.58581689 62.97993259 -7.42516805 58.42788494 -2.96875 50.8046875 C0.66309724 43.40394217 1.00634757 36.05511894 -1.49609375 28.2578125 C-4.84054045 19.70306988 -10.65299066 13.67341666 -18.93359375 9.6953125 C-32.66168073 5.21441924 -43.81658108 10.54557627 -52.93359375 20.6953125 Z " fill="#000000" transform="translate(849.93359375,363.3046875)"/>
<path d="M0 0 C1.05176926 -0.00287018 1.05176926 -0.00287018 2.12478638 -0.00579834 C3.61607215 -0.00716158 5.10736973 -0.00345543 6.59863281 0.00488281 C8.83947914 0.01542121 11.07949392 0.00507716 13.3203125 -0.0078125 C30.74604974 -0.02733639 44.84697774 2.43230896 57.88671875 14.9921875 C66.79063486 24.53561139 69.79785709 36.6806799 69.38671875 49.55859375 C67.98495156 63.27279026 61.8670732 73.71051626 51.39453125 82.51171875 C42.16760586 89.29222529 32.39539993 91.59166053 21.10546875 91.53125 C20.30169296 91.53316345 19.49791718 91.5350769 18.66978455 91.53704834 C16.99005821 91.53839749 15.31032099 91.53479083 13.63061523 91.52636719 C11.05233795 91.51554958 8.47474177 91.52635571 5.89648438 91.5390625 C4.25781096 91.53774261 2.61913797 91.53518376 0.98046875 91.53125 C0.20969498 91.53529846 -0.5610788 91.53934692 -1.35520935 91.54351807 C-6.76219909 91.49561341 -6.76219909 91.49561341 -8.9921875 89.265625 C-9.19078197 86.50534796 -9.26489553 83.84539231 -9.25097656 81.08398438 C-9.2544812 80.23834427 -9.25798584 79.39270416 -9.26159668 78.5214386 C-9.27042195 75.71733467 -9.26456206 72.91348164 -9.2578125 70.109375 C-9.25915892 68.16646272 -9.26109926 66.22355077 -9.26361084 64.28063965 C-9.26656318 60.20512693 -9.26226092 56.12970177 -9.25292969 52.05419922 C-9.2415351 46.82154115 -9.24809399 41.58908822 -9.26007462 36.35643768 C-9.26729024 32.34338832 -9.26500666 28.33038785 -9.25981903 24.31733704 C-9.25848171 22.38755774 -9.26013312 20.45777405 -9.26477814 18.52799988 C-9.2698385 15.83430158 -9.26214012 13.14093883 -9.25097656 10.44726562 C-9.25502502 9.64408401 -9.25907349 8.8409024 -9.26324463 8.01338196 C-9.2046207 0.40540862 -7.23364943 0.01259434 0 0 Z M9.0078125 17.265625 C9.0078125 36.075625 9.0078125 54.885625 9.0078125 74.265625 C28.03213277 75.25721531 28.03213277 75.25721531 42.8828125 67.078125 C48.78807247 60.60183753 51.44527696 52.26374152 51.28125 43.5703125 C50.27604407 35.09786252 46.47988043 27.7981992 40.0078125 22.265625 C29.5459293 15.65002239 23.06335523 17.265625 9.0078125 17.265625 Z " fill="#000000" transform="translate(625.9921875,354.734375)"/>
<path d="M0 0 C1.15371094 -0.02578125 2.30742188 -0.0515625 3.49609375 -0.078125 C6.5625 0.25 6.5625 0.25 8.23208618 1.4186554 C10.0860257 3.97064492 9.92779805 5.74149129 9.91552734 8.87963867 C9.91918304 10.03481491 9.92283875 11.18999115 9.92660522 12.38017273 C9.91730988 13.63014542 9.90801453 14.8801181 9.8984375 16.16796875 C9.9077483 18.13370956 9.91708823 20.09945072 9.92811012 22.06518269 C9.95052078 26.91138952 9.94064128 31.75755489 9.92285156 36.60375977 C9.91401112 39.32120381 9.91854859 42.03805052 9.93667603 44.75544739 C9.95252887 47.31195299 9.94801485 49.8686879 9.92050171 52.4250946 C9.98101816 59.53963255 10.5729029 64.88512184 15.5625 70.25 C19.96993386 73.15703084 24.46516007 74.8650746 29.765625 73.8125 C34.85732647 72.3288254 38.33267316 70.61976573 41.5625 66.25 C44.94918391 59.09066667 45.03197965 51.91116237 45.07421875 44.12109375 C45.09216995 42.89084976 45.11012115 41.66060577 45.12861633 40.39308167 C45.18248948 36.49125523 45.21654217 32.58954953 45.25 28.6875 C45.28158115 26.03055352 45.3176846 23.37369224 45.35351562 20.71679688 C45.43820291 14.2279729 45.50664971 7.73913285 45.5625 1.25 C48.39279148 -0.16514574 50.84629133 0.04219008 54 0 C55.15371094 -0.02578125 56.30742188 -0.0515625 57.49609375 -0.078125 C60.5625 0.25 60.5625 0.25 62.23088074 1.44932556 C64.01706731 3.86468602 63.93685435 5.39926142 63.93481445 8.38891602 C63.94415764 9.96184166 63.94415764 9.96184166 63.95368958 11.56654358 C63.94447983 12.70087326 63.93527008 13.83520294 63.92578125 15.00390625 C63.92652901 16.75984352 63.92652901 16.75984352 63.92729187 18.55125427 C63.92494866 21.03361707 63.91520577 23.51598211 63.89868164 25.99829102 C63.8752442 29.77316932 63.87810006 33.5473338 63.88476562 37.32226562 C63.8791834 39.73698333 63.87207012 42.15169808 63.86328125 44.56640625 C63.86419266 45.68656631 63.86510406 46.80672638 63.86604309 47.96083069 C63.74899453 61.10829641 61.56808195 71.59778221 52.46875 81.4296875 C45.65970026 87.93177188 36.85457865 91.26235407 27.4375 91.5625 C15.90277838 90.63228051 7.31592519 86.8531505 -0.71484375 78.359375 C-3.26780038 75.23330565 -5.05080321 72.03252442 -6.4375 68.25 C-6.77974609 67.33541016 -7.12199219 66.42082031 -7.47460938 65.47851562 C-9.12296145 59.61228255 -8.68165334 53.48015866 -8.6328125 47.44140625 C-8.62907667 46.10619825 -8.62623239 44.77098749 -8.62423706 43.43577576 C-8.61664541 39.94231434 -8.59703606 36.44902245 -8.5748291 32.95562744 C-8.55427371 29.38255099 -8.54521473 25.80944682 -8.53515625 22.23632812 C-8.51378534 15.24081632 -8.47970419 8.24541633 -8.4375 1.25 C-5.60720852 -0.16514574 -3.15370867 0.04219008 0 0 Z " fill="#000000" transform="translate(518.4375,354.75)"/>
<path d="M0 0 C2 2 2 2 2 4.125 C0.55354642 8.28355404 -1.69388948 12.05229526 -5 15 C-9.36502477 15.77972897 -12.06300986 14.12290923 -15.8125 12 C-21.01563228 9.28643532 -24.19207991 8.17029713 -30 9 C-32.69284213 9.8503712 -33.63096753 10.50795671 -35.3125 12.75 C-36.31552177 16.03261672 -36.1119194 17.72964883 -35 21 C-30.24226771 26.4539858 -24.52443371 28.6130497 -17.99267578 31.32177734 C-9.11099961 35.08568991 -1.41837761 40.67600143 3.25 49.3125 C5.45154849 57.2013821 5.58647581 63.95425212 1.80859375 71.32421875 C-2.76417363 78.86243201 -8.54116743 82.69304566 -17 85 C-19.797491 85.21285258 -22.45705804 85.33433936 -25.25 85.3125 C-26.00216797 85.30686035 -26.75433594 85.3012207 -27.52929688 85.29541016 C-38.31846029 85.06076211 -47.24977594 81.75022406 -55 74 C-54.8621 69.31140014 -52.26314605 64.32082792 -49 61 C-44.77160202 60.25546481 -42.37695018 61.66176785 -38.875 63.9375 C-32.86228983 67.80281368 -28.11012297 68.78120778 -21 68 C-17.75209236 66.73680006 -17.75209236 66.73680006 -16 64 C-15.24933355 59.87601173 -15.24933355 59.87601173 -16 56 C-19.90661901 51.12061729 -24.76699654 48.82490727 -30.25 46.125 C-48.7886166 36.62734035 -48.7886166 36.62734035 -53.1875 27.72265625 C-55.2762015 20.72349787 -55.42945488 12.20191973 -52.4375 5.4375 C-48.00570571 -1.74075836 -41.23510968 -5.74812595 -33.125 -7.6875 C-21.13739617 -8.88626038 -10.11481628 -6.87172496 0 0 Z " fill="#000000" transform="translate(397,362)"/>
<path d="M0 0 C1.828125 1.59765625 1.828125 1.59765625 2.828125 4.47265625 C1.43973316 8.81138075 -0.67608899 12.60993458 -4.171875 15.59765625 C-8.54014015 16.36938309 -11.23159107 14.72243037 -14.984375 12.59765625 C-20.19758663 9.88857944 -23.35455989 8.67913281 -29.171875 9.59765625 C-32.17343251 10.46411708 -32.17343251 10.46411708 -34.171875 12.59765625 C-35.17970755 16.22585342 -35.36344633 18.73558526 -34.546875 22.41015625 C-32.74652559 25.2743485 -31.33072791 25.40137907 -28.171875 26.59765625 C-1.51757469 38.84652216 -1.51757469 38.84652216 3.96484375 49.88671875 C6.05698526 56.45661109 6.11086512 64.8589181 3.140625 71.16015625 C-0.7130898 77.50188341 -6.3164617 82.27620624 -13.3515625 84.6875 C-25.07064667 87.47946995 -37.2116087 86.42284198 -47.58203125 80.13671875 C-52.69868447 76.58123133 -52.69868447 76.58123133 -54.06640625 73.73828125 C-54.22097622 70.60108337 -52.91562854 68.9553148 -51.234375 66.34765625 C-50.66847656 65.455625 -50.10257813 64.56359375 -49.51953125 63.64453125 C-49.07480469 62.9690625 -48.63007812 62.29359375 -48.171875 61.59765625 C-43.58238764 62.13400167 -40.41702804 63.37644039 -36.421875 65.66015625 C-30.87295067 68.52078184 -26.37106516 69.90095948 -20.171875 68.59765625 C-16.94348727 67.26749461 -16.94348727 67.26749461 -15.171875 64.59765625 C-14.63593628 60.91307752 -14.76669871 58.54356414 -16.234375 55.1171875 C-18.80979045 51.76810894 -21.91416098 50.41323531 -25.671875 48.72265625 C-27.11924322 48.03294332 -28.56455421 47.3388973 -30.0078125 46.640625 C-30.71647461 46.29821777 -31.42513672 45.95581055 -32.15527344 45.60302734 C-41.42708151 40.98059325 -49.56434525 35.86879642 -53.109375 25.78515625 C-55.02033467 18.28918944 -54.2563628 11.18952072 -50.46484375 4.4140625 C-46.01355275 -1.83926171 -40.07954245 -4.94330748 -32.859375 -7.08984375 C-21.1294075 -8.45379346 -9.99250764 -6.55959776 0 0 Z " fill="#000000" transform="translate(946.171875,361.40234375)"/>
<path d="M0 0 C1.00212524 0.00142502 2.00425049 0.00285004 3.03674316 0.00431824 C4.17131958 0.00124161 5.305896 -0.00183502 6.47485352 -0.00500488 C7.70506226 0.00218063 8.935271 0.00936615 10.20275879 0.01676941 C12.08916077 0.01745674 12.08916077 0.01745674 14.01367188 0.01815796 C16.67693489 0.02118374 19.33985394 0.02801291 22.00305176 0.04142761 C25.41965098 0.05841752 28.83610243 0.06224195 32.25273895 0.06148243 C35.50692689 0.06181949 38.76108374 0.07065683 42.01525879 0.07926941 C43.8605719 0.08093864 43.8605719 0.08093864 45.74316406 0.0826416 C47.44502869 0.09221138 47.44502869 0.09221138 49.18127441 0.10197449 C50.18339966 0.10578629 51.1855249 0.10959808 52.21801758 0.11352539 C54.60900879 0.24723816 54.60900879 0.24723816 56.60900879 1.24723816 C56.63585974 3.72647617 56.65577426 6.20542656 56.67150879 8.68473816 C56.6798877 9.39178894 56.6882666 10.09883972 56.69689941 10.82731628 C56.70554467 12.63417375 56.6612089 14.44111419 56.60900879 16.24723816 C55.60900879 17.24723816 55.60900879 17.24723816 53.6595459 17.36076355 C52.82689209 17.35552673 51.99423828 17.35028992 51.13635254 17.34489441 C50.23723145 17.34167175 49.33811035 17.3384491 48.41174316 17.33512878 C47.46621582 17.32674988 46.52068848 17.31837097 45.54650879 17.30973816 C44.59711426 17.30522644 43.64771973 17.30071472 42.66955566 17.29606628 C40.31597814 17.28423926 37.96252402 17.26775841 35.60900879 17.24723816 C35.61345001 18.14481842 35.61789124 19.04239868 35.62246704 19.96717834 C35.66249119 28.41361071 35.69296637 36.86001136 35.71263313 45.30651665 C35.72308379 49.64926565 35.73726626 53.99193649 35.7598877 58.3346405 C35.78157053 62.52322791 35.79356775 66.71174 35.79876328 70.90037918 C35.80246726 72.50082206 35.80969992 74.10126067 35.8204689 75.7016716 C35.83492342 77.93814348 35.8369893 80.17430153 35.83605957 82.41081238 C35.84050079 83.68544342 35.84494202 84.96007446 35.84951782 86.27333069 C35.60900879 89.24723816 35.60900879 89.24723816 33.60900879 91.24723816 C31.04608562 91.41887547 28.60555022 91.47988374 26.04650879 91.43473816 C25.34848145 91.43409363 24.6504541 91.4334491 23.93127441 91.43278503 C18.74932037 91.38754974 18.74932037 91.38754974 17.60900879 90.24723816 C17.51460901 87.97731929 17.49158652 85.70441849 17.4954834 83.43254089 C17.49533737 82.72038422 17.49519135 82.00822754 17.49504089 81.27449036 C17.49574008 78.90990704 17.50353273 76.54540154 17.51135254 74.18083191 C17.5132167 72.54558353 17.51464061 70.91033459 17.51564026 69.27508545 C17.51946561 64.96289031 17.52929604 60.65072863 17.54034424 56.33854675 C17.55055799 51.9415787 17.5551378 47.54460527 17.56018066 43.14762878 C17.5709183 34.51414985 17.58799492 25.88069816 17.60900879 17.24723816 C17.01362305 17.25771179 16.4182373 17.26818542 15.80480957 17.27897644 C13.11458536 17.32047765 10.42442842 17.3465452 7.73400879 17.37223816 C6.32828613 17.39737488 6.32828613 17.39737488 4.89416504 17.42301941 C3.55031738 17.43268738 3.55031738 17.43268738 2.17932129 17.44255066 C1.3519043 17.45302429 0.5244873 17.46349792 -0.32800293 17.47428894 C-2.39099121 17.24723816 -2.39099121 17.24723816 -4.39099121 15.24723816 C-4.65661621 12.27848816 -4.65661621 12.27848816 -4.64099121 8.74723816 C-4.64614746 7.58192566 -4.65130371 6.41661316 -4.65661621 5.21598816 C-4.32885065 1.55272602 -3.75207333 0.38797955 0 0 Z " fill="#000000" transform="translate(426.3909912109375,354.7527618408203)"/>
<path d="M0 0 C1.8871875 0.00773437 1.8871875 0.00773437 3.8125 0.015625 C5.070625 0.01046875 6.32875 0.0053125 7.625 0 C10.8125 0.265625 10.8125 0.265625 12.8125 2.265625 C13.00588632 5.06162853 13.0747249 7.75820024 13.05541992 10.55493164 C13.05731827 11.41193161 13.05921661 12.26893158 13.06117249 13.15190125 C13.06488647 15.99328673 13.05416805 18.83441836 13.04296875 21.67578125 C13.04177729 23.6435086 13.04132372 25.61123653 13.0415802 27.57896423 C13.04001431 31.70575513 13.03171596 35.83245941 13.01831055 39.95922852 C13.00130943 45.26144015 12.99749646 50.56355658 12.99825573 55.86579227 C12.99798443 59.92940691 12.99250995 63.99300053 12.98525429 68.0566082 C12.98206185 70.01233193 12.98009888 71.96805806 12.97936058 73.92378426 C12.97720372 76.65113548 12.96847407 79.37838364 12.95776367 82.10571289 C12.95844345 83.32990433 12.95844345 83.32990433 12.95913696 84.5788269 C12.92697441 90.15115059 12.92697441 90.15115059 11.8125 91.265625 C9.32011431 91.39215698 6.86779559 91.45082325 4.375 91.453125 C3.68083984 91.46537109 2.98667969 91.47761719 2.27148438 91.49023438 C0.45029099 91.49552342 -1.3703692 91.38731707 -3.1875 91.265625 C-5.75124619 88.70187881 -5.43162423 87.01310906 -5.45855713 83.51786804 C-5.45450867 82.71468643 -5.45046021 81.91150482 -5.44628906 81.08398438 C-5.4497937 80.23834427 -5.45329834 79.39270416 -5.45690918 78.5214386 C-5.46573445 75.71733467 -5.45987456 72.91348164 -5.453125 70.109375 C-5.45447142 68.16646272 -5.45641176 66.22355077 -5.45892334 64.28063965 C-5.46187568 60.20512693 -5.45757342 56.12970177 -5.44824219 52.05419922 C-5.4368476 46.82154115 -5.44340649 41.58908822 -5.45538712 36.35643768 C-5.46260274 32.34338832 -5.46031916 28.33038785 -5.45513153 24.31733704 C-5.45379421 22.38755774 -5.45544562 20.45777405 -5.46009064 18.52799988 C-5.465151 15.83430158 -5.45745262 13.14093883 -5.44628906 10.44726562 C-5.45033752 9.64408401 -5.45438599 8.8409024 -5.45855713 8.01338196 C-5.40027698 0.45002308 -5.40027698 0.45002308 0 0 Z " fill="#000000" transform="translate(731.1875,354.734375)"/>
</svg>
