<?xml version="1.0" encoding="UTF-8"?>
<svg version="1.1" xmlns="http://www.w3.org/2000/svg" width="1000" height="604">
<path d="M0 0 C-1.31817495 2.6363499 -3.06410723 3.07420818 -5.66015625 4.2565918 C-17.57344831 9.69493623 -24.07815581 16.65281301 -29 29 C-31.37709937 38.43592495 -30.4103642 47.33725479 -26 56 C-19.48598252 66.48774959 -8.48949473 69.89744837 2.9375 72.625 C8.51497312 73.90570449 14.11155387 75.03771789 19.7421875 76.05859375 C20.67554932 76.22858887 21.60891113 76.39858398 22.57055664 76.57373047 C24.34341154 76.88975357 26.11860212 77.19305457 27.89624023 77.48095703 C34.9223845 78.7033184 40.57783176 80.83550923 45.9375 85.625 C48.66729141 90.0919314 49.27309727 93.80287621 49 99 C47.08185357 105.65709645 43.3903514 111.06834605 37.33984375 114.515625 C27.56721814 119.09284399 16.62035194 121.12892339 6.0078125 118.1640625 C-3.61420504 113.80637067 -7.30541839 105.92889343 -11.41015625 96.63671875 C-13.25245522 93.58130892 -14.79669688 92.50154834 -18 91 C-22.01961286 90.40133425 -23.66878655 90.81528481 -27.25 92.8125 C-30.20274837 95.16127711 -31.79094959 96.71554606 -32.40625 100.49609375 C-32.73679025 110.86679409 -29.27997836 118.82169011 -22.25 126.4375 C-11.25887374 136.45209898 3.26541368 138.7370892 17.65625 138.28515625 C35.37727698 137.33638263 52.10340258 131.81309831 64.375 118.5 C67.44778701 114.87361372 69.84104242 111.2279586 72 107 C72.33 107 72.66 107 73 107 C73.67790352 114.11334381 72.38223435 118.25693523 68.4375 124.125 C67.70853516 125.26291992 67.70853516 125.26291992 66.96484375 126.42382812 C65.33047161 128.96323384 63.66659991 131.48164466 62 134 C60.77081557 135.88195111 59.5429897 137.76479014 58.31640625 139.6484375 C56.40134534 142.58695072 54.48424986 145.52399077 52.55932617 148.45605469 C48.21258813 155.08650329 44.01983717 161.79147609 39.91967773 168.57641602 C36.44946416 174.30552395 32.84390224 179.93578457 29.18774414 185.54760742 C25.81096026 190.73408519 22.48582763 195.95080067 19.1875 201.1875 C14.8496634 208.07297733 10.49604464 214.94804891 6.125 221.8125 C5.54000732 222.73119873 4.95501465 223.64989746 4.35229492 224.59643555 C3.1623553 226.46489671 1.97233223 228.33330475 0.78222656 230.20166016 C-2.14654812 234.80023761 -5.07320348 239.40016338 -8 244 C-11.52236094 249.53584258 -15.04520379 255.07137537 -18.5703125 260.60546875 C-24.06159314 269.22774274 -29.54608279 277.85403331 -35 286.5 C-42.22867326 297.95944572 -49.5115652 309.38429455 -56.79101562 320.81152344 C-58.56929936 323.60333173 -60.34717984 326.39539649 -62.125 329.1875 C-62.70241943 330.0937915 -63.27983887 331.00008301 -63.87475586 331.93383789 C-66.69635455 336.36584543 -69.50861351 340.80328931 -72.30078125 345.25390625 C-77.35400174 353.30558784 -82.39176323 361.31829541 -88 369 C-93.37007993 368.33769726 -98.47604722 367.21005323 -103.70483398 365.83300781 C-104.55447723 365.61253658 -105.40412048 365.39206535 -106.2795105 365.16491318 C-109.10267611 364.43132682 -111.92437401 363.69225164 -114.74609375 362.953125 C-116.75781604 362.4291249 -118.76962325 361.9054507 -120.7815094 361.38208008 C-126.20447783 359.97027023 -131.6261656 358.55359974 -137.04760742 357.13594055 C-141.59374207 355.94781882 -146.14061651 354.76254269 -150.68750572 353.57731247 C-186.42750604 344.26092208 -222.15370514 334.89183391 -257.87400246 325.50021935 C-276.61433451 320.57317821 -295.35912312 315.66318526 -314.10445023 310.75518799 C-317.63208364 309.83154281 -321.15968713 308.9077834 -324.68729115 307.98402596 C-339.54997501 304.09202082 -354.41284473 300.2007257 -369.27587891 296.31005859 C-379.53817478 293.62371169 -389.80037756 290.93700936 -400.0625 288.25 C-400.91623199 288.02646851 -401.76996399 287.80293701 -402.64956665 287.57263184 C-424.16832191 281.93831729 -445.68520279 276.29691706 -467.19921875 270.64453125 C-468.22289614 270.3755817 -469.24657352 270.10663216 -470.30127144 269.82953262 C-478.67027125 267.63071117 -487.03922172 265.43170195 -495.40816116 263.23265076 C-524.70869298 255.53368302 -554.01390148 247.85295659 -583.32603836 240.19829178 C-616.03813381 231.6556908 -648.74473425 223.09231353 -681.44604492 214.5085144 C-684.79850672 213.62867249 -688.15106939 212.74921595 -691.50366211 211.86987305 C-696.74277198 210.49566857 -701.98161787 209.12046239 -707.22025108 207.74444199 C-709.15543653 207.23628643 -711.09070876 206.72846128 -713.02607155 206.2209816 C-715.67363251 205.52667028 -718.32086696 204.83112781 -720.96801758 204.13525391 C-721.74492447 203.93180611 -722.52183136 203.72835831 -723.32228088 203.51874542 C-726.24565017 202.74912824 -729.13119848 201.95626717 -732 201 C-732 198.69 -732 196.38 -732 194 C-731.00794556 194.48774902 -731.00794556 194.48774902 -729.99584961 194.98535156 C-726.30362162 196.2358527 -722.9155846 196.28788916 -719.06640625 196.234375 C-718.28447403 196.22823181 -717.50254181 196.22208862 -716.69691467 196.21575928 C-707.692765 196.07800694 -698.73994182 195.34262507 -689.77709961 194.51074219 C-686.93778843 194.25002648 -684.09717948 194.0111312 -681.25585938 193.7734375 C-655.12937754 191.70847643 -655.12937754 191.70847643 -633 179 C-625.12028416 169.55513512 -621.19370628 159.54973806 -621.609375 147.18359375 C-622.4632401 140.2245932 -624.72942787 132.84322844 -630 128 C-635.64680857 124.32274361 -641.80882776 121.61990504 -648 119 C-645.75691912 116.61450129 -643.36151133 114.81715909 -640.6875 112.9375 C-633.59649129 107.44023592 -629.53064729 100.37779501 -628.18359375 91.50390625 C-627.48808208 82.01831098 -629.91783651 74.57921433 -635.1875 66.75 C-638.73718581 63.27919609 -642.5723064 61.18008443 -647 59 C-647 58.34 -647 57.68 -647 57 C-628.52 55.35 -610.04 53.7 -591 52 C-592.32 55.3 -593.64 58.6 -595 62 C-595.56921268 64.90925238 -595.56921268 64.90925238 -595.50120544 67.51455688 C-595.51595665 68.9692765 -595.51595665 68.9692765 -595.53100586 70.4533844 C-595.51650391 71.99360512 -595.51650391 71.99360512 -595.50170898 73.56494141 C-595.50711197 74.67521194 -595.51251495 75.78548248 -595.51808167 76.92939758 C-595.53050834 80.570397 -595.51411951 84.21059641 -595.49609375 87.8515625 C-595.49624886 90.39643393 -595.49773975 92.9413056 -595.50050354 95.48617554 C-595.50188475 100.8069804 -595.4898133 106.12750724 -595.46655273 111.44824219 C-595.43992164 117.58207112 -595.43820819 123.71552173 -595.4499411 129.84938872 C-595.4607525 135.77611025 -595.45440378 141.70271732 -595.44038582 147.62943649 C-595.43587956 150.14038065 -595.43552728 152.6513359 -595.43945122 155.16228104 C-595.44237029 158.67303321 -595.42582305 162.18317299 -595.40405273 165.69384766 C-595.40855438 166.72470993 -595.41305603 167.7555722 -595.41769409 168.81767273 C-595.35532735 174.88880681 -594.67050937 179.50816957 -592 185 C-587.73595522 187.84269652 -584.00431583 187.62359076 -579 187 C-573.94067455 184.60831888 -571.9764449 182.16570026 -570 177 C-569.53654594 173.08785909 -569.51147293 169.19425811 -569.48828125 165.2578125 C-569.47033005 164.13430389 -569.45237885 163.01079529 -569.43388367 161.85324097 C-569.37985386 158.27719841 -569.34590754 154.70128881 -569.3125 151.125 C-569.27932056 148.69529403 -569.24483033 146.26560559 -569.20898438 143.8359375 C-569.12413146 137.89074422 -569.05575044 131.94553358 -569 126 C-559.73262654 124.03084491 -548.68283365 123.09911862 -540.28515625 128.16015625 C-531.24494887 135.43868219 -525.5924178 145.60632994 -519.74609375 155.43359375 C-517.12881324 159.82305921 -514.38807107 164.11708012 -511.5625 168.375 C-511.16160156 168.98706299 -510.76070312 169.59912598 -510.34765625 170.22973633 C-506.2540704 176.44180836 -506.2540704 176.44180836 -500 180 C-493.57357028 180.53553581 -490.25860535 179.78619585 -485 176 C-482.68581585 173.30011849 -483.00359854 171.9473151 -483.25 168.33984375 C-483.86102382 163.86540936 -485.41531056 160.28595875 -487.5 156.3125 C-488.03403442 155.27766479 -488.03403442 155.27766479 -488.57885742 154.22192383 C-495.58272531 140.96661927 -504.98032016 126.54251726 -519 120 C-519 119.34 -519 118.68 -519 118 C-517.96101562 117.5875 -516.92203125 117.175 -515.8515625 116.75 C-503.90628618 111.86864098 -494.00496234 106.91568721 -488.12109375 94.78125 C-484.44884504 85.67100232 -483.84511597 75.84252275 -486.82421875 66.3828125 C-487.76776525 64.16752942 -488.81936844 62.09700624 -490 60 C-490.53625 58.948125 -491.0725 57.89625 -491.625 56.8125 C-494.52698831 53.37593489 -497.65448308 51.55704671 -501.5625 49.39453125 C-503.86667357 48.0762781 -505.89469367 46.60985832 -508 45 C-496.90523539 43.64354914 -485.81082743 42.46624181 -474.67578125 41.4921875 C-473.18986295 41.36066376 -471.70395725 41.22899761 -470.21806335 41.09719849 C-467.14364347 40.82506746 -464.06907555 40.55469698 -460.99438477 40.28564453 C-457.06603032 39.94173504 -453.13810589 39.59315594 -449.21027851 39.24328423 C-446.15891463 38.97201691 -443.10733496 38.70324362 -440.05568504 38.435215 C-438.60641804 38.30761607 -437.15721927 38.17923961 -435.70809364 38.05004501 C-433.69014197 37.87050044 -431.67185862 37.69469567 -429.65356445 37.51904297 C-428.51015091 37.41848602 -427.36673737 37.31792908 -426.18867493 37.21432495 C-423.11428427 37.00768155 -420.08020132 36.96133266 -417 37 C-417.27803467 37.54301758 -417.55606934 38.08603516 -417.8425293 38.64550781 C-424.43828083 52.06238774 -429.39189947 66.29121299 -434.6875 80.25 C-436.31314789 84.52929818 -437.93932957 88.80839341 -439.56554794 93.08747482 C-440.27965052 94.96700898 -440.99324357 96.84673608 -441.70681763 98.72647095 C-444.51587536 106.1222945 -447.34809108 113.50885446 -450.20246887 120.8873291 C-451.97073332 125.45953116 -453.73117845 130.03472431 -455.49087524 134.61022949 C-456.32456513 136.77189468 -457.16189856 138.9321585 -458.00302124 141.09094238 C-459.17326133 144.09601928 -460.33018505 147.10591657 -461.484375 150.1171875 C-461.82815689 150.9898526 -462.17193878 151.8625177 -462.52613831 152.7616272 C-464.52623127 158.02725612 -466.18494566 163.3035492 -466 169 C-464.33742365 172.51698842 -463.01871389 174.34915502 -459.75 176.4375 C-456.05574438 177.1931432 -452.59163449 177.2424342 -449 176 C-445.41616021 173.10718414 -443.87330224 170.02521697 -442.125 165.8125 C-441.87451904 165.21606689 -441.62403809 164.61963379 -441.3659668 164.00512695 C-439.91735291 160.48758025 -438.61346747 156.93667906 -437.38671875 153.3359375 C-437.12294434 152.5627417 -436.85916992 151.7895459 -436.58740234 150.99291992 C-436.07676356 149.47371322 -435.57806859 147.95043176 -435.09228516 146.4230957 C-434.48104738 144.58446337 -433.74954069 142.78672024 -433 141 C-430.27895125 140.09298375 -428.19467735 139.7554779 -425.36425781 139.51928711 C-424.42608215 139.43927963 -423.48790649 139.35927216 -422.52130127 139.27684021 C-421.5088031 139.19450638 -420.49630493 139.11217255 -419.453125 139.02734375 C-418.4085614 138.93997452 -417.3639978 138.85260529 -416.28778076 138.7625885 C-414.07546663 138.57844908 -411.86299773 138.39616113 -409.65039062 138.21557617 C-406.2769113 137.93970074 -402.90407249 137.65682748 -399.53125 137.37304688 C-397.38024315 137.19489164 -395.22920249 137.01714409 -393.078125 136.83984375 C-391.57152313 136.71330666 -391.57152313 136.71330666 -390.03448486 136.58421326 C-385.0031062 136.17750882 -380.04771835 135.90562961 -375 136 C-374.65743164 136.82725586 -374.31486328 137.65451172 -373.96191406 138.50683594 C-372.6800551 141.58900998 -371.38942862 144.66720143 -370.09277344 147.74316406 C-369.53455274 149.07241497 -368.97981504 150.40313439 -368.42871094 151.73535156 C-367.63358425 153.65571168 -366.82586853 155.57035229 -366.015625 157.484375 C-365.53383789 158.63647461 -365.05205078 159.78857422 -364.55566406 160.97558594 C-363.0094942 163.98154204 -361.59364692 165.85550154 -359 168 C-356.55835737 168.59076943 -356.55835737 168.59076943 -354 168.4375 C-352.7315625 168.43556641 -352.7315625 168.43556641 -351.4375 168.43359375 C-348.57644394 167.92465589 -347.22683185 166.80930088 -345 165 C-344.34 165 -343.68 165 -343 165 C-340.3067508 159.78182967 -340.11415285 154.27613648 -341.63525391 148.65063477 C-342.61360001 145.97733511 -343.69252526 143.36722058 -344.8125 140.75 C-345.24481934 139.70481201 -345.67713867 138.65962402 -346.12255859 137.58276367 C-347.42378598 134.45180838 -348.74115195 131.3284703 -350.06536865 128.20721436 C-351.44669235 124.94509662 -352.81714961 121.67843287 -354.18896484 118.41230774 C-357.8008652 109.81471009 -361.43181954 101.22534088 -365.07421875 92.640625 C-368.29119321 85.05790891 -371.48091137 77.4644997 -374.64453125 69.859375 C-375.7302497 67.25577296 -376.81635763 64.65233369 -377.90252686 62.04891968 C-378.58592804 60.40711654 -379.26716528 58.76441078 -379.94610596 57.12075806 C-380.88420942 54.85024566 -381.82997625 52.5830656 -382.77734375 50.31640625 C-383.04633987 49.65908508 -383.315336 49.00176392 -383.59248352 48.32452393 C-385.3232485 44.20949355 -387.44953791 40.65589652 -390 37 C-390.33 36.34 -390.66 35.68 -391 35 C-388.23823488 33.61911744 -385.73748641 33.60822218 -382.65771484 33.33569336 C-382.00703033 33.27702591 -381.35634583 33.21835846 -380.6859436 33.15791321 C-378.52795003 32.9644701 -376.36948449 32.77700289 -374.2109375 32.58984375 C-372.70836154 32.4570075 -371.20580852 32.32391158 -369.70327759 32.19056702 C-366.54768921 31.91144853 -363.39186362 31.63523426 -360.23583984 31.36108398 C-356.20733053 31.01095047 -352.17945052 30.65410823 -348.15172386 30.2950964 C-345.04454976 30.01882984 -341.93708259 29.74598202 -338.82951736 29.47415352 C-337.3456002 29.34398236 -335.86176984 29.21281741 -334.37803268 29.08061028 C-320.10397956 27.81257049 -320.10397956 27.81257049 -313 28 C-313.28875 28.680625 -313.5775 29.36125 -313.875 30.0625 C-316.67305892 37.36854274 -317.29734103 43.42416898 -317.29052734 51.22436523 C-317.29724457 52.33419769 -317.30396179 53.44403015 -317.31088257 54.5874939 C-317.32983108 58.24457311 -317.33378493 61.90146855 -317.3359375 65.55859375 C-317.34236659 68.10775324 -317.34909503 70.656912 -317.35610962 73.20606995 C-317.3680738 78.54470834 -317.37187708 83.88327861 -317.37060547 89.22192383 C-317.36940381 95.37787656 -317.39051894 101.53347885 -317.4220928 107.68934292 C-317.45147029 113.6304453 -317.45857965 119.57144133 -317.45738602 125.51262093 C-317.45974309 128.03195694 -317.46857252 130.55129568 -317.48405075 133.07058525 C-317.50368677 136.59609831 -317.49788152 140.12071212 -317.48583984 143.64624023 C-317.49707886 144.68181564 -317.50831787 145.71739105 -317.51989746 146.78434753 C-317.46787461 152.79039488 -316.91090069 158.18179947 -313 163 C-308.78074907 165.28419842 -305.86935725 165.2318286 -301.25 164 C-297.44198999 161.65660922 -296.10452608 159.9337359 -294 156 C-293.44166739 153.07291059 -293.43543352 150.21437972 -293.45410156 147.24072266 C-293.44376389 146.38153229 -293.43342621 145.52234192 -293.42277527 144.63711548 C-293.39340549 141.81257186 -293.39184933 138.98874665 -293.390625 136.1640625 C-293.37563942 134.19964231 -293.35891148 132.23523471 -293.34051514 130.27084351 C-293.29687194 125.11207492 -293.27684917 119.9534763 -293.26177979 114.79455566 C-293.24219785 109.52569543 -293.20022901 104.25701844 -293.16015625 98.98828125 C-293.0848869 88.65891073 -293.03457552 78.32958129 -293 68 C-289.57204048 69.14265317 -289.18500441 69.78652165 -287.25 72.69140625 C-286.47015747 73.84817871 -286.47015747 73.84817871 -285.67456055 75.02832031 C-285.12195557 75.86459961 -284.56935059 76.70087891 -284 77.5625 C-282.81922508 79.31915473 -281.63823245 81.07566313 -280.45703125 82.83203125 C-279.87002441 83.71068848 -279.28301758 84.5893457 -278.67822266 85.49462891 C-276.37553801 88.93224162 -274.03569147 92.34338066 -271.6875 95.75 C-271.25356934 96.38131836 -270.81963867 97.01263672 -270.37255859 97.66308594 C-265.63235499 104.55270045 -260.84788669 111.41161773 -256.0612793 118.26904297 C-252.79749044 122.95111125 -249.55328388 127.64355079 -246.3671875 132.37890625 C-237.780762 146.96554786 -237.780762 146.96554786 -225 157 C-220.11441485 157.56064092 -215.53769432 157.67274127 -211 155.6875 C-210.34 155.130625 -209.68 154.57375 -209 154 C-208.443125 153.5875 -207.88625 153.175 -207.3125 152.75 C-203.00383539 147.00511385 -203.70957264 139.2715502 -203.7253418 132.46850586 C-203.72023087 131.3262001 -203.71511993 130.18389435 -203.70985413 129.00697327 C-203.69598918 125.24287635 -203.69691224 121.47896311 -203.69921875 117.71484375 C-203.69533088 115.09363233 -203.69099603 112.47242153 -203.68623352 109.85121155 C-203.67803572 104.36294939 -203.6789192 98.87473876 -203.68432617 93.38647461 C-203.69037187 87.05104216 -203.67803437 80.71583147 -203.6567561 74.38043684 C-203.63699709 68.27165661 -203.63396828 62.1629799 -203.63749123 56.05417061 C-203.63697776 53.46062257 -203.63173531 50.867071 -203.62167931 48.2735424 C-203.60934922 44.6495538 -203.61608597 41.02607991 -203.62768555 37.40209961 C-203.62004181 36.33128143 -203.61239807 35.26046326 -203.60452271 34.15719604 C-203.64379851 28.60819872 -204.02578053 24.85864883 -207 20 C-207 19.34 -207 18.68 -207 18 C-202.50231585 17.56611753 -198.00403805 17.13918456 -193.50512695 16.71826172 C-191.97956209 16.57459217 -190.45416465 16.42913179 -188.92895508 16.28173828 C-180.26492445 15.44576027 -171.71722649 14.74489623 -163 15 C-164.52994792 16.72526042 -166.05989583 18.45052083 -167.58984375 20.17578125 C-169.98245928 23.27093762 -170.12630735 25.99717355 -170.13371277 29.76889038 C-170.13797775 30.7502446 -170.14224274 31.73159882 -170.14663696 32.74269104 C-170.14618378 33.8180864 -170.14573059 34.89348175 -170.14526367 36.00146484 C-170.14862228 37.13503922 -170.1519809 38.26861359 -170.15544128 39.4365387 C-170.16496276 43.19468269 -170.16689501 46.95278219 -170.16796875 50.7109375 C-170.17118051 53.31784077 -170.17454452 55.92474385 -170.17805481 58.53164673 C-170.18445126 64.00091848 -170.18593716 69.47017813 -170.18530273 74.93945312 C-170.18470212 81.25773004 -170.195251 87.57592154 -170.2110464 93.89417684 C-170.22570615 99.97517081 -170.22929057 106.05612383 -170.22869301 112.13713455 C-170.22987461 114.72313409 -170.23430644 117.30913424 -170.24202538 119.89512253 C-170.25180505 123.51006947 -170.24895506 127.12479572 -170.24291992 130.73974609 C-170.25134918 132.34676643 -170.25134918 132.34676643 -170.25994873 133.98625183 C-170.25575424 134.9732457 -170.25155975 135.96023956 -170.24723816 136.97714233 C-170.24805531 138.25858155 -170.24805531 138.25858155 -170.24888897 139.56590843 C-169.96143076 142.37720053 -169.25446395 144.47154537 -168 147 C-160.76312524 152.2467342 -150.36344202 149.99773069 -141.92578125 149.265625 C-140.99887985 149.18632751 -140.07197845 149.10703003 -139.11698914 149.02532959 C-137.1680265 148.85628289 -135.21928052 148.68472084 -133.27075195 148.51074219 C-130.33833104 148.25227676 -127.404747 148.01267 -124.47070312 147.7734375 C-104.92189315 146.09289836 -86.29006904 142.88166533 -72.28125 127.78125 C-56.99946632 109.15003429 -53.42402688 86.04371447 -55.27734375 62.47265625 C-56.75331613 49.97609012 -60.14429 38.01550089 -68 28 C-68.721875 26.96875 -69.44375 25.9375 -70.1875 24.875 C-78.82572055 14.90354927 -91.6071869 11.96895161 -104 10 C-104 9.67 -104 9.34 -104 9 C-91.17859876 7.82388946 -78.35697761 6.65020919 -65.53506947 5.47963715 C-59.58145613 4.93602678 -53.627922 4.39157732 -47.67456055 3.84521484 C-41.93002123 3.31804781 -36.1852849 2.79307891 -30.44040489 2.26963806 C-28.2478792 2.06947723 -26.05542584 1.8685224 -23.86304665 1.66676331 C-20.7940576 1.38446833 -17.72482427 1.10498893 -14.65551758 0.82617188 C-13.74777084 0.74201523 -12.84002411 0.65785858 -11.9047699 0.57115173 C-7.92305117 0.21213961 -4.00315266 -0.10899155 0 0 Z " fill="#12ACEC" transform="translate(828,204)"/>
<path d="M0 0 C2.6875 2.125 2.6875 2.125 3.6875 4.125 C3.59210938 4.89070313 3.49671875 5.65640625 3.3984375 6.4453125 C3.01779226 9.62325761 2.96164794 11.99502524 3.6875 15.125 C6.85509821 18.66878457 10.3306812 21.21999421 14.6875 23.125 C18.53979828 22.93906705 20.92305745 21.51202405 24.0625 19.375 C39.29333087 9.8700454 59.42394942 7.41038994 76.92578125 10.80859375 C92.83646084 15.07385936 106.21858184 24.68190625 115.2265625 38.5234375 C124.61297046 55.23827093 126.67167873 74.91356299 121.66455078 93.43432617 C118.11925108 104.97795188 111.71456702 115.17867787 103.6875 124.125 C102.91212891 125.03958984 102.91212891 125.03958984 102.12109375 125.97265625 C90.17720595 139.11392629 70.90425382 147.36192 53.42578125 148.4453125 C36.24719368 149.08748529 20.63190355 145.26043313 7.4375 133.75 C5.83607942 132.22713011 4.25147733 130.68629929 2.6875 129.125 C2.0378125 128.48691406 1.388125 127.84882813 0.71875 127.19140625 C-8.94432771 116.99855454 -14.51825767 101.67193954 -14.5625 87.625 C-14.48 86.47 -14.3975 85.315 -14.3125 84.125 C-15.5190625 83.75375 -15.5190625 83.75375 -16.75 83.375 C-20.40359555 82.09303665 -23.85304814 80.56358811 -27.359375 78.9296875 C-29.2686344 77.9980214 -29.2686344 77.9980214 -31.3125 78.125 C-31.910625 78.90875 -32.50875 79.6925 -33.125 80.5 C-35.52664288 83.38197146 -36.69284935 84.28322078 -40.3125 85.125 C-44.33601275 84.98382411 -46.54121687 84.75420466 -49.6875 82.1875 C-52.63922452 78.44108042 -52.70918004 75.88516042 -52.3125 71.125 C-50.6843054 68.04306022 -49.28240938 65.86079333 -46.5 63.75 C-42.12001818 62.49857662 -38.55642218 62.5300807 -34.4375 64.5 C-32.3125 66.125 -32.3125 66.125 -31.3125 68.125 C-29.56109857 67.67205135 -27.81142656 67.21241252 -26.0625 66.75 C-25.08796875 66.49476562 -24.1134375 66.23953125 -23.109375 65.9765625 C-20.64430535 65.22602453 -18.58809415 64.3054112 -16.3125 63.125 C-24.82442479 53.9632308 -33.38554548 44.88492211 -42.3125 36.125 C-45.85768884 37.52259905 -45.85768884 37.52259905 -49.3125 39.125 C-54.01108808 39.69822775 -57.46222255 39.54240893 -61.75 37.4375 C-64.56026752 34.90140492 -65.57413017 33.81684916 -66.3125 30.125 C-66.45325237 25.37460737 -66.01366892 21.48249049 -63 17.6875 C-59.15829756 14.02448139 -57.7158702 13.23637859 -52.375 12.8125 C-47.59832961 12.94567854 -44.8630798 14.5744202 -41.5 17.9375 C-39.95747146 20.77899994 -40.0954826 22.94207811 -40.3125 26.125 C-39.68883545 26.28137939 -39.0651709 26.43775879 -38.42260742 26.59887695 C-30.31869795 28.71175804 -22.49083127 31.4533955 -14.625 34.3125 C-13.32631225 34.78098826 -12.02748485 35.2490896 -10.72851562 35.71679688 C-7.58847604 36.84907881 -4.45029352 37.98650855 -1.3125 39.125 C-2.3025 33.185 -3.2925 27.245 -4.3125 21.125 C-7.2825 21.125 -10.2525 21.125 -13.3125 21.125 C-16.06819447 18.94340855 -17.74838747 17.25322506 -19.3125 14.125 C-19.35642128 9.65381344 -18.86398273 6.05070315 -16.5625 2.1875 C-11.49504776 -2.45766455 -6.04886754 -3.42388729 0 0 Z M62.6875 107.125 C61.24319145 110.01361709 61.31061494 111.92147701 61.6875 115.125 C63.60416667 118.20833333 63.60416667 118.20833333 66.6875 120.125 C70.62729054 120.19411913 72.80882553 119.72619832 76.0625 117.5 C78.27057908 114.2728075 78.6875 112.02657776 78.6875 108.125 C77.36588573 105.05626102 77.36588573 105.05626102 74.6875 103.125 C69.23288275 102.23242627 66.56009501 103.25240499 62.6875 107.125 Z M32.6875 108.125 C30.28241911 110.99558042 29.6875 112.43360534 29.6875 116.1875 C30.96589086 119.94277316 32.23066038 121.20453354 35.6875 123.125 C39.68017443 123.20818072 41.34928496 122.37498503 44.5625 120 C46.95186191 117.23016159 46.95186191 117.23016159 47.25 113.5625 C46.60394542 109.6143887 45.89444829 108.44112932 42.6875 106.125 C38.76423926 104.16336963 36.18327791 105.8936524 32.6875 108.125 Z " fill="#12ACEC" transform="translate(615.3125,49.875)"/>
<path d="M0 0 C5.55563665 5.11614409 9.18802428 12.57906732 10.75 19.9375 C10.86495632 22.82381991 10.92786105 25.68704286 10.94287109 28.57397461 C10.95513733 29.8795356 10.95513733 29.8795356 10.96765137 31.21147156 C10.9924362 34.08758869 11.00900025 36.96365683 11.0234375 39.83984375 C11.02876118 40.82286531 11.03408485 41.80588688 11.03956985 42.81869698 C11.06626646 48.01803939 11.08565584 53.21735804 11.10009766 58.41674805 C11.11345807 62.72067416 11.14135437 67.02412854 11.18212891 71.32788086 C11.23137559 76.52615159 11.25620821 81.7239932 11.26332474 86.92248726 C11.27004556 88.90286508 11.28528914 90.88323302 11.30921555 92.86347771 C11.34078406 95.6333726 11.34091699 98.4016038 11.33349609 101.17163086 C11.34990143 101.98893677 11.36630676 102.80624268 11.38320923 103.64831543 C11.33702258 107.85898907 11.10471793 109.47722139 8.44741821 112.92530823 C5.0415985 115.46594592 1.99333177 115.96609826 -2.125 116.3125 C-2.80691406 116.39371094 -3.48882813 116.47492188 -4.19140625 116.55859375 C-9.10214279 117.07305186 -14.57189949 117.59530551 -18.92468262 114.90083313 C-21.03252441 111.77826363 -20.66331539 108.43794771 -20.63476562 104.79760742 C-20.6401384 103.96800003 -20.64551117 103.13839264 -20.65104675 102.28364563 C-20.66083329 100.4814048 -20.66376626 98.67911681 -20.66069031 96.87685204 C-20.65621795 94.02251546 -20.67019702 91.1688008 -20.68908691 88.31452942 C-20.72590926 82.2513632 -20.73958017 76.18826157 -20.75 70.125 C-20.76207994 63.10905444 -20.78366177 56.09341062 -20.83000183 49.07760048 C-20.84356357 46.26907607 -20.83940195 43.46093379 -20.83459473 40.65238953 C-20.84393827 38.92344682 -20.85410783 37.19450832 -20.86523438 35.46557617 C-20.85908615 34.68769745 -20.85293793 33.90981873 -20.84660339 33.10836792 C-20.90068421 28.31170803 -21.67848703 24.9991254 -24.25 20.9375 C-31.37397757 15.72483348 -40.73349699 17.87496909 -49 18.6875 C-49.72098877 18.74897217 -50.44197754 18.81044434 -51.18481445 18.8737793 C-57.38407944 19.56529365 -61.3491273 21.61643524 -65.38876343 26.54904175 C-67.62502569 30.62024979 -67.81177393 33.92683888 -67.76416016 38.44970703 C-67.77484779 39.69959412 -67.77484779 39.69959412 -67.78575134 40.97473145 C-67.80497203 43.71516908 -67.79676537 46.45483023 -67.7890625 49.1953125 C-67.79897165 51.10530726 -67.81091372 53.01529246 -67.82479858 54.92526245 C-67.85713025 59.94443842 -67.86755051 64.96339616 -67.87164307 69.98266602 C-67.88040704 78.02320953 -67.91586532 86.06357416 -67.9638176 94.10396957 C-67.97641053 96.91143207 -67.9756443 99.71866853 -67.97354126 102.52615356 C-67.98012094 104.24546483 -67.98712707 105.96477454 -67.99462891 107.68408203 C-67.99050491 108.46443817 -67.98638092 109.24479431 -67.98213196 110.04879761 C-68.0329497 116.85029316 -68.0329497 116.85029316 -70.25 119.9375 C-75.22792236 123.27409502 -80.06417488 123.59339847 -85.875 123.875 C-86.720625 123.94267578 -87.56625 124.01035156 -88.4375 124.08007812 C-89.25476563 124.12455078 -90.07203125 124.16902344 -90.9140625 124.21484375 C-91.65092285 124.25859131 -92.3877832 124.30233887 -93.14697266 124.34741211 C-96.30601539 123.73166649 -97.30219521 122.48488929 -99.25 119.9375 C-99.63757921 117.08768005 -99.78427755 114.62350161 -99.74829102 111.77587891 C-99.75380981 110.95587906 -99.75932861 110.13587921 -99.76501465 109.29103088 C-99.77433119 107.51281757 -99.77444264 105.73453753 -99.76642036 103.9563179 C-99.7537966 101.13959694 -99.76507469 98.32385687 -99.78245544 95.50717163 C-99.80917769 90.54132323 -99.8147505 85.57571477 -99.81335449 80.60980225 C-99.81112769 72.66855686 -99.82528117 64.72760913 -99.86894035 56.78647995 C-99.87876785 54.01558513 -99.87006595 51.24515878 -99.86024475 48.47427368 C-99.86639088 46.76881607 -99.87330326 45.063361 -99.88110352 43.35791016 C-99.87338425 42.59095322 -99.86566498 41.82399628 -99.85771179 41.03379822 C-99.90272191 36.25356937 -100.71356522 32.99363399 -103.25 28.9375 C-106.6367991 25.8447643 -109.1333337 24.68953886 -113.640625 24.6953125 C-115.26210221 24.79286991 -116.88218995 24.9162248 -118.5 25.0625 C-119.34393311 25.12598633 -120.18786621 25.18947266 -121.05737305 25.25488281 C-133.92629651 26.01217413 -133.92629651 26.01217413 -144.25 32.9375 C-146.56199573 37.28465836 -146.53085266 41.51110987 -146.50537109 46.3203125 C-146.51080177 47.56757111 -146.51080177 47.56757111 -146.51634216 48.84002686 C-146.52321974 50.64006455 -146.52574468 52.44012302 -146.52439499 54.24017334 C-146.52342813 57.0901089 -146.53638995 59.93966901 -146.55337524 62.78955078 C-146.59960595 70.89027021 -146.62426155 78.99095001 -146.63085938 87.09179688 C-146.63587243 92.05142501 -146.66010845 97.0106591 -146.69618607 101.97015381 C-146.7059856 103.85835404 -146.70831517 105.74660844 -146.70301437 107.63482666 C-146.69594793 110.27520942 -146.71321561 112.91441592 -146.73583984 115.5546875 C-146.72766739 116.33301941 -146.71949493 117.11135132 -146.71107483 117.91326904 C-146.76719555 121.59575243 -147.13405508 123.7518047 -149.10195923 126.90356445 C-153.21469245 130.7978268 -158.82365068 130.48270838 -164.25 130.9375 C-165.21808594 131.02128906 -166.18617188 131.10507813 -167.18359375 131.19140625 C-173.48273402 131.48155981 -173.48273402 131.48155981 -176.35021973 129.44825745 C-179.04022482 125.89313562 -178.8099067 122.58729 -178.76757812 118.30444336 C-178.7745874 117.43395355 -178.78159668 116.56346375 -178.78881836 115.66659546 C-178.80643165 112.7865208 -178.79475667 109.9074286 -178.78125 107.02734375 C-178.78394566 105.01916821 -178.7878287 103.01099395 -178.79284668 101.00282288 C-178.79874767 96.78862106 -178.79016567 92.57475813 -178.77148438 88.3605957 C-178.74879728 82.98294493 -178.76174896 77.60609723 -178.78577423 72.22847652 C-178.80030385 68.07691015 -178.79559176 63.92553055 -178.78526306 59.77395821 C-178.78261017 57.79300401 -178.78581446 55.81203239 -178.79518127 53.83109856 C-178.85265925 38.2457285 -177.30624758 25.73193078 -166.28515625 13.8125 C-150.47643262 -1.28154354 -127.95883264 -3.02742292 -107.078125 -3.13671875 C-99.85646666 -2.85587648 -94.30218729 -1.23498472 -87.87109375 2.07421875 C-85.29895423 3.18498654 -85.29895423 3.18498654 -82.83203125 2.30078125 C-81.97996094 1.85089844 -81.12789063 1.40101562 -80.25 0.9375 C-79.18265625 0.3909375 -78.1153125 -0.155625 -77.015625 -0.71875 C-74.68004074 -1.94363419 -72.34668368 -3.172775 -70.015625 -4.40625 C-62.58063181 -7.94012374 -54.41200436 -8.50176819 -46.3125 -9.1875 C-45.38759766 -9.27386719 -44.46269531 -9.36023438 -43.50976562 -9.44921875 C-27.44541319 -10.86765491 -13.21540367 -10.2814336 0 0 Z " fill="#12ACEC" transform="translate(542.25,92.0625)"/>
<path d="M0 0 C7.84378198 7.02178706 11.70991252 14.91420186 12.37060547 25.47409058 C12.57694716 30.80393366 12.55716816 36.13197197 12.53125 41.46484375 C12.53394937 43.43111869 12.53783549 45.39739232 12.54284668 47.36366272 C12.54871106 51.46107845 12.54027161 55.55814297 12.52148438 59.65551758 C12.49859064 64.90349668 12.51190293 70.15066206 12.53577423 75.39861202 C12.55022516 79.44869633 12.54563127 83.49858734 12.53526306 87.54867744 C12.5325993 89.48435119 12.53585319 91.42004262 12.54518127 93.35569572 C12.55534695 96.05523204 12.53985077 98.75344325 12.51757812 101.45288086 C12.52567505 102.24826767 12.53377197 103.04365448 12.54211426 103.86314392 C12.48477142 107.61705171 12.14047128 109.78114237 10.09265137 112.97169495 C7.09065518 115.88138365 5.16948554 116.18131608 1.1015625 116.57250977 C0.07869141 116.67253799 -0.94417969 116.77256622 -1.99804688 116.87562561 C-3.11244141 116.97983322 -4.22683594 117.08404083 -5.375 117.19140625 C-6.52806641 117.30097153 -7.68113281 117.4105368 -8.86914062 117.52342224 C-11.3236908 117.75499392 -13.77845157 117.98434223 -16.23339844 118.21166992 C-19.92995023 118.5559754 -23.62508207 118.91331373 -27.3203125 119.27148438 C-70.71623603 123.37934024 -70.71623603 123.37934024 -86 112 C-93.23134012 105.32172605 -97.48890519 97.7112613 -98.23828125 87.87109375 C-98.52955016 74.39607431 -95.18357008 64.04170695 -86 54 C-72.37971468 41.30747324 -56.96608368 39.16707457 -39.125 37.6875 C-37.26156595 37.51926205 -35.39828217 37.34935097 -33.53515625 37.17773438 C-29.02493359 36.76589136 -24.5132974 36.37658724 -20 36 C-19.95586154 34.57059304 -19.92448684 33.1407885 -19.8984375 31.7109375 C-19.87958496 30.91478027 -19.86073242 30.11862305 -19.84130859 29.29833984 C-20.09506013 25.62323689 -21.57141183 23.68422903 -24 21 C-29.40379287 17.36971696 -33.649932 17.86871546 -39.8125 18.625 C-40.73160156 18.72256592 -41.65070312 18.82013184 -42.59765625 18.9206543 C-49.32611981 19.6763286 -55.9850536 20.76068961 -62.58129883 22.29736328 C-65.9967634 23.01492301 -67.70034311 23.14056486 -70.90625 21.63671875 C-73 20 -73 20 -74 19 C-74.20785733 16.23252818 -74.32462012 13.52089342 -74.375 10.75 C-74.41238281 9.98558594 -74.44976563 9.22117187 -74.48828125 8.43359375 C-74.55198505 4.33531612 -74.36426504 2.50630122 -71.90625 -0.91015625 C-54.33597647 -13.54469434 -16.61260411 -13.64927473 0 0 Z M-35.45874023 64.06201172 C-36.93510542 64.18653808 -38.41201465 64.30478645 -39.8894043 64.41650391 C-52.93690279 65.21505754 -52.93690279 65.21505754 -63.91015625 71.82421875 C-66.71445262 76.3586234 -67.6173186 79.65170009 -66.6484375 84.953125 C-65.46064965 88.7025276 -63.5056582 91.08504779 -60.16796875 93.11328125 C-49.35634487 97.53533282 -30.25585288 93.25117058 -19 91 C-19 81.76 -19 72.52 -19 63 C-24.50095554 63 -29.98095805 63.58894428 -35.45874023 64.06201172 Z " fill="#12ACEC" transform="translate(956,54)"/>
<path d="M0 0 C5.554933 5.11549611 9.18958198 12.57935733 10.75 19.9375 C10.85993684 22.82400021 10.91752756 25.68705259 10.92700195 28.57397461 C10.93357315 29.4443486 10.94014435 30.3147226 10.94691467 31.21147156 C10.96660332 34.08759653 10.97829809 36.9636695 10.98828125 39.83984375 C10.99235678 40.82286531 10.9964323 41.80588688 11.00063133 42.81869698 C11.02146941 48.01804518 11.03578303 53.21736714 11.04516602 58.41674805 C11.05624825 63.78817252 11.09067553 69.15918477 11.13033772 74.53046322 C11.15646191 78.66114581 11.16485393 82.79172932 11.16844749 86.92248726 C11.17332138 88.90284585 11.1849581 90.88319979 11.20348549 92.86347771 C11.22779599 95.63319711 11.22692721 98.40183775 11.2199707 101.17163086 C11.23278076 101.98893677 11.24559082 102.80624268 11.25878906 103.64831543 C11.22290885 107.56695994 11.01108108 109.51147682 8.9147644 112.93217468 C5.95690798 115.67217926 3.88877759 115.76710249 -0.10546875 116.1171875 C-0.79714645 116.18445038 -1.48882416 116.25171326 -2.20146179 116.3210144 C-3.72762178 116.46692 -5.25478972 116.60254713 -6.78265381 116.72937012 C-9.35894217 116.94668968 -11.93006179 117.19862498 -14.50244141 117.45800781 C-19.21671115 117.92928283 -23.93321467 118.36954074 -28.65161133 118.79736328 C-31.57622837 119.06375044 -34.50000279 119.33835621 -37.42382812 119.61328125 C-73.71328742 122.96628134 -73.71328742 122.96628134 -88.25 110.9375 C-96.9600121 101.90843984 -99.60009583 92.63850936 -99.4609375 80.28125 C-98.76176948 69.19814208 -93.56945747 59.80040708 -85.625 52.1875 C-71.55579152 40.26658383 -55.15357878 38.53570951 -37.5 37.25 C-35.82023985 37.12007649 -34.14055132 36.98922354 -32.4609375 36.85742188 C-28.39136991 36.54007803 -24.32104506 36.23526458 -20.25 35.9375 C-20.5209321 34.00224388 -20.80624339 32.06899694 -21.09765625 30.13671875 C-21.25500244 29.05994873 -21.41234863 27.98317871 -21.57446289 26.8737793 C-22.52988662 22.72094911 -23.81703893 21.36569198 -27.25 18.9375 C-30.90690055 17.71853315 -34.09141748 17.95396645 -37.875 18.1875 C-38.62193115 18.23124756 -39.3688623 18.27499512 -40.13842773 18.32006836 C-46.30533794 18.74383784 -52.3112143 19.67897923 -58.36376953 20.92089844 C-63.14597733 21.87427976 -67.40568406 22.38348464 -72.25 21.9375 C-74.22265625 20.43359375 -74.22265625 20.43359375 -75.25 17.9375 C-75.57053742 15.19127402 -75.71496807 12.73931538 -75.6875 10 C-75.7174707 8.94522461 -75.7174707 8.94522461 -75.74804688 7.86914062 C-75.74477377 4.37674242 -75.35039412 2.11403032 -73.6171875 -0.93359375 C-57.11348291 -15.77603434 -16.35283618 -12.72232036 0 0 Z M-41.8125 64.25 C-43.76446289 64.42692383 -43.76446289 64.42692383 -45.75585938 64.60742188 C-47.64208008 64.79594727 -47.64208008 64.79594727 -49.56640625 64.98828125 C-50.70537354 65.09825439 -51.84434082 65.20822754 -53.01782227 65.3215332 C-58.5436702 66.37461231 -62.80304814 68.60613928 -66.265625 73.13671875 C-68.16618889 76.61354396 -68.59071979 80.01922236 -68.25 83.9375 C-67.02720796 87.85496339 -65.11412611 90.37219594 -61.640625 92.64453125 C-57.34565795 94.28235855 -54.08205282 94.1262797 -49.5625 93.75 C-48.74612061 93.69465088 -47.92974121 93.63930176 -47.08862305 93.58227539 C-38.11943151 92.9375211 -29.18428962 91.94512665 -20.25 90.9375 C-20.25 81.6975 -20.25 72.4575 -20.25 62.9375 C-27.5343392 62.9375 -34.57436702 63.52726541 -41.8125 64.25 Z " fill="#12ACEC" transform="translate(132.25,129.0625)"/>
<path d="M0 0 C8.08287696 7.44580292 11.14663862 16.69594758 11.65103149 27.55639648 C11.79494041 32.71594055 11.77020435 37.87420078 11.7421875 43.03515625 C11.74166788 44.93656412 11.74218951 46.83797254 11.74369812 48.73937988 C11.74360895 52.69970854 11.73328496 56.65983128 11.71508789 60.62011719 C11.69227801 65.69536596 11.69188489 70.77031787 11.69860554 75.84560394 C11.70194391 79.76093182 11.69531995 83.67619193 11.6854763 87.59150696 C11.68163106 89.46380764 11.68047328 91.33611585 11.68206215 93.2084198 C11.6824327 95.81682793 11.6698196 98.4248526 11.65356445 101.03320312 C11.65604187 101.804133 11.65851929 102.57506287 11.66107178 103.36935425 C11.62386702 107.10712368 11.55486009 110.06368044 9.37890625 113.19140625 C4.17997941 116.84991033 -3.27447841 116.36795305 -9.37109375 116.44140625 C-10.6653125 116.4671875 -11.95953125 116.49296875 -13.29296875 116.51953125 C-16.62109375 116.19140625 -16.62109375 116.19140625 -18.30505371 115.1729126 C-20.37481156 112.05656493 -20.03462987 108.77655637 -20.00585938 105.15917969 C-20.01123215 104.34093216 -20.01660492 103.52268463 -20.0221405 102.67964172 C-20.03192702 100.90195834 -20.03486001 99.12422713 -20.03178406 97.34651947 C-20.02731029 94.52971091 -20.04129535 91.7135321 -20.06018066 88.89678955 C-20.09700256 82.91167218 -20.11067093 76.9266202 -20.12109375 70.94140625 C-20.13317984 64.01885736 -20.15480642 57.09661392 -20.20109558 50.17420197 C-20.21463944 47.40505394 -20.21049867 44.63629448 -20.20568848 41.86712646 C-20.21503412 40.15848299 -20.2252042 38.44984376 -20.23632812 36.74121094 C-20.2301799 35.97627823 -20.22403168 35.21134552 -20.21769714 34.42323303 C-20.27591228 29.30984294 -21.2354986 25.73785093 -23.62109375 21.19140625 C-29.90799633 15.92371142 -38.9964939 17.85838095 -46.66015625 18.5078125 C-55.83477024 19.49052786 -55.83477024 19.49052786 -63.62109375 24.19140625 C-66.64051643 28.97852432 -67.04968643 33.16510421 -67.00585938 38.68774414 C-67.01123215 39.5193959 -67.01660492 40.35104767 -67.0221405 41.207901 C-67.03188941 43.00518032 -67.03487142 44.80250654 -67.03178406 46.59980965 C-67.02729382 49.44570913 -67.04133928 52.29099086 -67.06018066 55.13682556 C-67.10313577 62.20167993 -67.1142139 69.26651989 -67.12640381 76.33148193 C-67.13793406 82.30878771 -67.16149644 88.28581088 -67.20109558 94.26299858 C-67.21466363 97.06437437 -67.21049599 99.86536757 -67.20568848 102.66676331 C-67.21502903 104.38600146 -67.22519784 106.10523539 -67.23632812 107.82446289 C-67.2301799 108.60122375 -67.22403168 109.37798462 -67.21769714 110.17828369 C-67.26873777 114.66976499 -67.7409563 117.67429925 -70.62109375 121.19140625 C-77.85087179 123.91962438 -88.04220744 125.56569682 -95.484375 123.33203125 C-97.62109375 122.19140625 -97.62109375 122.19140625 -98.62109375 120.19140625 C-98.73533033 117.3511023 -98.78895517 114.53476822 -98.7980957 111.69360352 C-98.8046669 110.81365219 -98.8112381 109.93370087 -98.81800842 109.02708435 C-98.83777558 106.10399289 -98.84941596 103.18095307 -98.859375 100.2578125 C-98.86345053 99.25838057 -98.86752605 98.25894863 -98.87172508 97.22923088 C-98.89260738 91.93220093 -98.90689576 86.635197 -98.91625977 81.33813477 C-98.92728622 75.88429024 -98.9616363 70.430858 -99.00143147 64.97715855 C-99.02768051 60.77073956 -99.0359593 56.56441717 -99.03954124 52.35792351 C-99.04439135 50.34903133 -99.05595999 48.340143 -99.07457924 46.33133125 C-99.21277431 30.42367633 -97.70996062 18.49370131 -86.62109375 6.19140625 C-75.70133644 -3.79285784 -63.04926982 -7.35222856 -48.62109375 -8.80859375 C-47.25210938 -8.97488281 -47.25210938 -8.97488281 -45.85546875 -9.14453125 C-29.08253639 -11.00261058 -13.85351023 -10.94971769 0 0 Z " fill="#12ACEC" transform="translate(268.62109375,116.80859375)"/>
<path d="M0 0 C1.49357569 2.98715138 1.22503435 6.03887936 1.25 9.3125 C1.27578125 10.62863281 1.3015625 11.94476563 1.328125 13.30078125 C0.98788068 17.1366309 0.33103099 18.9843701 -2 22 C-4.99021296 23.49510648 -8.04105797 23.10104479 -11.31640625 23.0625 C-12.41214211 23.05682007 -12.41214211 23.05682007 -13.53001404 23.05102539 C-16.65492672 23.03471698 -19.77970849 23.00685442 -22.90454102 22.97949219 C-38.95054115 21.95515669 -38.95054115 21.95515669 -53 28 C-58.03501694 33.58780929 -57.58227426 39.13871978 -57.53125 46.40625 C-57.53699036 48.20334412 -57.53699036 48.20334412 -57.54284668 50.03674316 C-57.54556376 52.56503135 -57.53821699 55.09334775 -57.52148438 57.62158203 C-57.500074 61.48664148 -57.52129525 65.34984197 -57.546875 69.21484375 C-57.54423169 71.67448326 -57.53910665 74.13412162 -57.53125 76.59375 C-57.53934692 77.74701782 -57.54744385 78.90028564 -57.55578613 80.08850098 C-57.48306797 86.32483854 -57.2919734 90.31073174 -53 95 C-42.79651276 100.94084619 -23.85621419 94.46632047 -13 92 C-12.01 91.67 -11.02 91.34 -10 91 C-3.80824742 90.4371134 -3.80824742 90.4371134 -0.8125 92.5234375 C1.66040301 95.90236101 1.62496361 98.90676018 1.5625 102.9375 C1.59827148 103.99227539 1.59827148 103.99227539 1.63476562 105.06835938 C1.62390956 108.92950047 1.15530772 110.79973479 -1.2265625 113.87109375 C-11.13494213 121.47682177 -25.79542188 122.72162186 -37.875 124.1875 C-38.90874756 124.31342529 -38.90874756 124.31342529 -39.96337891 124.44189453 C-53.00690442 125.89536079 -65.50240153 124.18659619 -76.3125 116.31640625 C-82.89794937 110.93323464 -86.33264144 105.00207569 -89 97 C-89.10911799 94.957791 -89.15894453 92.91222986 -89.17700195 90.8671875 C-89.18983719 89.60156982 -89.20267242 88.33595215 -89.21589661 87.03198242 C-89.22406889 85.64632562 -89.23151168 84.26066436 -89.23828125 82.875 C-89.24235678 82.17436432 -89.2464323 81.47372864 -89.25063133 80.75186157 C-89.27148886 77.0368886 -89.28578683 73.32195243 -89.29516602 69.60693359 C-89.30617557 65.79530601 -89.34051176 61.98427109 -89.38033772 58.17285156 C-89.40667613 55.22144599 -89.41487339 52.27017727 -89.41844749 49.31866455 C-89.42327631 47.91542601 -89.4347827 46.51219203 -89.45348549 45.10906982 C-89.61216216 32.40595821 -87.45202371 22.67126429 -79 13 C-78.54496094 12.41734375 -78.08992187 11.8346875 -77.62109375 11.234375 C-70.59824331 3.09300269 -57.64172247 -2.94121142 -47 -4 C-45.95714844 -4.10699219 -44.91429687 -4.21398438 -43.83984375 -4.32421875 C-10.03830219 -7.20652074 -10.03830219 -7.20652074 0 0 Z " fill="#12ACEC" transform="translate(842,60)"/>
<path d="M0 0 C0.7520874 0.00821777 1.5041748 0.01643555 2.27905273 0.02490234 C11.88970189 0.21901471 19.19800445 1.62182325 26.5 8.25 C34.8373122 18.45821232 36.00576697 30.96678022 35.875 43.6875 C35.88660156 44.81220703 35.89820313 45.93691406 35.91015625 47.09570312 C35.86018458 61.59581499 32.65755707 75.67905215 22.49609375 86.49609375 C15.23650318 92.87487294 6.85323853 94.29581434 -2.5 95.25 C-3.51449219 95.36085938 -4.52898438 95.47171875 -5.57421875 95.5859375 C-12.61913763 96.26740678 -19.37133839 96.25 -26.5 96.25 C-26.5 65.23 -26.5 34.21 -26.5 2.25 C-6.59223545 -0.09208995 -6.59223545 -0.09208995 0 0 Z " fill="#12ACEC" transform="translate(710.5,235.75)"/>
<path d="M0 0 C1.73979662 2.34564453 1.69959485 3.76529855 1.70334435 6.67240047 C1.71180382 7.68044231 1.72026329 8.68848415 1.72897911 9.72707272 C1.72290642 10.83209133 1.71683372 11.93710995 1.71057701 13.07561398 C1.71583397 14.24005535 1.72109093 15.40449673 1.72650719 16.60422421 C1.73974255 20.46469579 1.73095566 24.32475712 1.72083092 28.18523312 C1.72285077 30.86179781 1.72575664 33.53834992 1.72952843 36.21491146 C1.73498799 41.82965721 1.72778998 47.44428463 1.7135067 53.05901241 C1.69718763 59.54891737 1.70246228 66.03853948 1.71898592 72.52843755 C1.73260463 78.10051357 1.73451835 83.67250449 1.72666991 89.24459177 C1.72199443 92.57250109 1.72254375 95.90024845 1.73127937 99.22815418 C1.73888163 102.93922179 1.72730555 106.64974338 1.71057701 110.36077023 C1.7166497 111.46376461 1.7227224 112.566759 1.72897911 113.70317745 C1.72051964 114.71403912 1.71206017 115.72490078 1.70334435 116.76639462 C1.70221327 117.64373225 1.70108219 118.52106989 1.69991684 119.42499352 C1.2392121 122.30241445 0.30381503 123.67275099 -1.67760658 125.78288937 C-8.76090235 128.13290298 -18.31640904 129.09105399 -25.67760658 127.78288937 C-28.14224552 125.79562807 -29.50677537 124.58129135 -30.17817783 121.4434042 C-30.17849176 120.14040749 -30.17849176 120.14040749 -30.17881203 118.81108761 C-30.18864616 117.81008526 -30.1984803 116.80908291 -30.20861244 115.77774715 C-30.19894447 114.68567455 -30.1892765 113.59360195 -30.17931557 112.46843624 C-30.18471855 111.31360241 -30.19012154 110.15876858 -30.19568825 108.96893978 C-30.20820987 105.14624674 -30.19166061 101.32430176 -30.17370033 97.50163937 C-30.17385524 94.84891896 -30.17528885 92.19622558 -30.17811012 89.54350948 C-30.18081153 83.98177488 -30.16734285 78.42025618 -30.14415932 72.85857296 C-30.1175498 66.43055152 -30.11580262 60.00289104 -30.12754768 53.57483339 C-30.13833094 47.38860969 -30.13213416 41.20251642 -30.1179924 35.01630306 C-30.11347003 32.38482703 -30.11314793 29.75334038 -30.1170578 27.12186337 C-30.11996195 23.44680025 -30.10350001 19.77233069 -30.08165932 16.09734249 C-30.08616096 15.00526989 -30.09066261 13.91319729 -30.09530067 12.78803158 C-30.08539604 11.78702923 -30.07549141 10.78602688 -30.06528664 9.75469112 C-30.06285674 8.88602665 -30.06042685 8.01736217 -30.05792332 7.12237453 C-29.59443072 4.27124032 -28.61543633 2.89436492 -26.67760658 0.78288937 C-20.66096552 -1.76816644 -5.5065706 -3.99504014 0 0 Z " fill="#12ACEC" transform="translate(335.6776065826416,100.2171106338501)"/>
<path d="M0 0 C-0.48608231 1.13655029 -0.97216461 2.27310059 -1.47297668 3.4440918 C-3.17474982 8.00588057 -3.44120866 12.0629406 -3.43237305 16.89453125 C-3.4425647 17.7442601 -3.45275635 18.59398895 -3.46325684 19.46946716 C-3.49321328 22.25054669 -3.50262605 25.03128082 -3.51171875 27.8125 C-3.52857832 29.75163909 -3.54673028 31.69076734 -3.56611633 33.62988281 C-3.61348361 38.71295788 -3.64337872 43.79598896 -3.66955566 48.87921143 C-3.6994283 54.07451052 -3.74593555 59.26965829 -3.79101562 64.46484375 C-3.87689767 74.64314979 -3.94430997 84.8214871 -4 95 C-9.50664728 89.5453111 -9.50664728 89.5453111 -11.62109375 86.49609375 C-12.07403809 85.84858154 -12.52698242 85.20106934 -12.99365234 84.53393555 C-13.47012207 83.84211182 -13.9465918 83.15028809 -14.4375 82.4375 C-14.9526416 81.69862549 -15.4677832 80.95975098 -15.99853516 80.19848633 C-17.10144141 78.61613461 -18.20229751 77.03235227 -19.30126953 75.44726562 C-21.56677275 72.18348231 -23.84816637 68.93095261 -26.12915039 65.67797852 C-27.89775726 63.15503646 -29.6640717 60.63050478 -31.4296875 58.10546875 C-33.7882509 54.7325041 -36.14751876 51.36003531 -38.5078125 47.98828125 C-39.08499023 47.16376465 -39.66216797 46.33924805 -40.25683594 45.48974609 C-41.41356151 43.837605 -42.57046093 42.1855856 -43.72753906 40.53369141 C-46.77406015 36.18360256 -49.81602447 31.83041782 -52.8515625 27.47265625 C-53.79902344 26.11430664 -53.79902344 26.11430664 -54.765625 24.72851562 C-55.97274715 22.99771548 -57.17855415 21.26599708 -58.3828125 19.53320312 C-60.6451771 16.29172554 -62.89899586 13.12386989 -65.3984375 10.05859375 C-67 8 -67 8 -67 6 C-55.37673351 4.29461157 -43.72768126 3.16264989 -32.02685547 2.14013672 C-28.97708995 1.8729932 -25.92799889 1.59892497 -22.87890625 1.32421875 C-20.9193071 1.15063174 -18.95967287 0.97744029 -17 0.8046875 C-15.64829712 0.68285599 -15.64829712 0.68285599 -14.26928711 0.55856323 C-9.49072772 0.14560759 -4.79630117 -0.08390269 0 0 Z " fill="#12ACEC" transform="translate(604,224)"/>
<path d="M0 0 C0.67289063 -0.01611328 1.34578125 -0.03222656 2.0390625 -0.04882812 C7.81588429 -0.05440421 12.5471375 1.24215017 17.00390625 5.00390625 C17.51824219 5.62136719 18.03257812 6.23882812 18.5625 6.875 C19.14128906 7.56980469 19.72007812 8.26460937 20.31640625 8.98046875 C22.10447383 11.45721201 23.53773536 14.00732793 25 16.6875 C27.03394586 20.18890813 27.73521661 21.17288694 31.4375 23.125 C35.90393058 23.36007529 38.17362809 22.62276229 42 20.3125 C45.07129586 16.57714017 46.67715552 12.94245567 48 8.3125 C48.99 8.6425 49.98 8.9725 51 9.3125 C51 25.4825 51 41.6525 51 58.3125 C50.34 58.3125 49.68 58.3125 49 58.3125 C48.46375 57.44625 47.9275 56.58 47.375 55.6875 C41.88923143 47.17855241 31.81951109 42.9130476 22.28710938 40.67578125 C15.88985584 39.3111441 9.46226522 38.10636348 3.03466797 36.89453125 C-1.20176685 36.08200827 -5.41741179 35.2000083 -9.625 34.25 C-10.89601563 33.97027344 -12.16703125 33.69054687 -13.4765625 33.40234375 C-18.49122881 31.85124408 -23.68206842 29.55207925 -27 25.3125 C-28.66331237 20.3225629 -28.53652699 16.64215384 -26.5625 11.75 C-20.78436244 2.65250683 -10.15910177 -0.0486547 0 0 Z " fill="#12ACEC" transform="translate(850,219.6875)"/>
<path d="M0 0 C4.54871155 5.59841422 5.46655026 9.88510848 5 17 C3.88130417 22.89111384 1.97445149 27.08935924 -2.88671875 30.72265625 C-17.79703583 39.73499208 -38.22303851 38.32892154 -55 39 C-55 25.47 -55 11.94 -55 -2 C-8.61904063 -6.88220625 -8.61904063 -6.88220625 0 0 Z " fill="#12ACEC" transform="translate(175,341)"/>
<path d="M0 0 C6.5804035 -0.20078901 13.45193163 0.05396032 18.63671875 4.59375 C23.18619971 9.81915384 23.3616093 14.50739631 23.2734375 21.15234375 C22.81909888 26.22908402 21.30675069 29.18632551 17.34375 32.58984375 C7.62446212 39.35542607 -4.5677107 39.87049948 -15.99609375 40.8515625 C-17.41414242 40.981553 -18.83211217 41.11240732 -20.25 41.24414062 C-30.30739641 42.1640625 -30.30739641 42.1640625 -33.99609375 42.1640625 C-33.99609375 29.2940625 -33.99609375 16.4240625 -33.99609375 3.1640625 C-22.61473133 1.82507869 -11.41295201 0.62495956 0 0 Z " fill="#12ACEC" transform="translate(292.99609375,268.8359375)"/>
<path d="M0 0 C3.51692774 4.68923698 3.03550693 10.40777761 2.5 16 C1.08187848 21.08302592 -1.60282966 25.11914135 -6.14038086 27.89086914 C-15.77000951 32.41724296 -27.42977993 32.60667051 -37.875 33.1875 C-42.37125 33.455625 -46.8675 33.72375 -51.5 34 C-51.5 21.79 -51.5 9.58 -51.5 -3 C-9.11516854 -7.29213483 -9.11516854 -7.29213483 0 0 Z " fill="#12ACEC" transform="translate(171.5,286)"/>
<path d="M0 0 C0.66 0 1.32 0 2 0 C14.82029855 33.39987095 14.82029855 33.39987095 19.3125 45.4375 C19.59552979 46.18555908 19.87855957 46.93361816 20.17016602 47.7043457 C21.24925121 50.62014198 22 52.86271316 22 56 C16.98317981 56.43047111 11.96609122 56.85761405 6.94873047 57.28173828 C5.2435754 57.42634164 3.53849582 57.57183811 1.83349609 57.71826172 C-0.62382797 57.92913541 -3.08140977 58.13674627 -5.5390625 58.34375 C-6.29555084 58.40937134 -7.05203918 58.47499268 -7.83145142 58.54260254 C-11.90029634 58.88188628 -15.91724944 59.06776349 -20 59 C-18.02345072 51.3297712 -15.66272504 43.87917831 -12.98828125 36.42578125 C-12.61519333 35.37593552 -12.24210541 34.32608978 -11.85771179 33.24443054 C-10.67974669 29.93242929 -9.49622606 26.62244604 -8.3125 23.3125 C-7.50679137 21.05026198 -6.70144939 18.78789335 -5.89648438 16.52539062 C-3.93522226 11.01541117 -1.96941041 5.50707194 0 0 Z " fill="#12ACEC" transform="translate(423,265)"/>
<path d="M0 0 C2.44715983 3.11315058 1.85417006 6.76769222 1.84204102 10.58227539 C1.87040039 11.38536133 1.89875977 12.18844727 1.92797852 13.01586914 C1.94156603 17.13967929 1.68312613 19.1986397 -0.66186523 22.69555664 C-4.5223504 25.28766858 -7.53062524 25.70092786 -12.09545898 26.01977539 C-12.8844458 26.08970703 -13.67343262 26.15963867 -14.48632812 26.23168945 C-33.97787988 27.82732813 -33.97787988 27.82732813 -38.65795898 24.70727539 C-39.85463102 21.1172593 -39.86334779 18.11679149 -39.90795898 14.33227539 C-39.93374023 13.02516602 -39.95952148 11.71805664 -39.98608398 10.37133789 C-39.63684122 6.4714604 -39.20924251 4.65518702 -36.65795898 1.70727539 C-31.43692597 -0.87473313 -25.44886906 -0.98790955 -19.72045898 -1.48022461 C-18.27509766 -1.62234375 -18.27509766 -1.62234375 -16.80053711 -1.76733398 C-3.76380387 -2.93466963 -3.76380387 -2.93466963 0 0 Z " fill="#12ACEC" transform="translate(340.657958984375,53.292724609375)"/>
<path d="M0 0 C2 1 2 1 2 1 Z " fill="#12ACEC" transform="translate(665,218)"/>
</svg>
