<?xml version="1.0" encoding="UTF-8"?>
<svg version="1.1" xmlns="http://www.w3.org/2000/svg" width="2560" height="972">
<path d="M0 0 C0.90579803 0.00215515 1.81159607 0.0043103 2.74484253 0.00653076 C16.33309977 0.05839148 29.60648393 0.44544997 42.9375 3.3125 C43.89285645 3.51649414 44.84821289 3.72048828 45.83251953 3.93066406 C86.70521128 12.9319589 123.66879526 31.05683683 154.21875 59.8046875 C156.14451075 61.58103578 158.06337294 63.26203692 160.0859375 64.91796875 C162.31871586 66.79289085 164.19334613 68.53867861 166.0625 70.75 C166.63871094 71.42675781 167.21492187 72.10351562 167.80859375 72.80078125 C168.51113281 73.62964844 169.21367188 74.45851563 169.9375 75.3125 C170.92723391 76.45282338 171.91821845 77.59206196 172.91015625 78.73046875 C173.98195215 79.96598857 175.0535657 81.20166659 176.125 82.4375 C176.63627441 83.02329834 177.14754883 83.60909668 177.67431641 84.21264648 C185.87068654 93.7205966 185.87068654 93.7205966 186.02734375 97.453125 C184.3967085 100.2351407 182.23079101 101.3788021 179.5 103.0625 C173.64089935 106.81674117 168.27399484 110.85504877 162.9375 115.3125 C162.41961914 115.7348291 161.90173828 116.1571582 161.36816406 116.59228516 C122.25067332 148.50512422 97.20729861 194.22286263 86.9375 243.3125 C86.75960937 244.13621094 86.58171875 244.95992187 86.3984375 245.80859375 C81.04919949 271.66324415 82.21348822 300.68378992 87.9375 326.3125 C88.11941895 327.14797363 88.30133789 327.98344727 88.48876953 328.84423828 C94.84934096 357.25933801 106.92910448 383.73095266 123.9375 407.3125 C124.3691748 407.91384766 124.80084961 408.51519531 125.24560547 409.13476562 C131.51546956 417.78184098 138.55691836 425.6109072 145.9375 433.3125 C146.64777344 434.06402344 147.35804688 434.81554687 148.08984375 435.58984375 C153.31133051 440.98217671 159.00111318 445.72984717 164.9375 450.3125 C165.56382324 450.79879883 166.19014648 451.28509766 166.83544922 451.78613281 C180.70562467 462.45242749 195.69686046 471.69182889 211.9375 478.3125 C209.38437438 487.7378482 206.43357469 496.87449151 202.9375 506 C202.70239716 506.61612152 202.46729431 507.23224304 202.22506714 507.86703491 C190.44356437 538.66003483 176.02718514 568.12685955 158.9375 596.3125 C158.45909668 597.10333984 157.98069336 597.89417969 157.48779297 598.70898438 C140.7809008 626.14195201 122.63833936 653.81921851 101.25439453 677.83251953 C100.05469412 679.18079241 98.86839108 680.54095618 97.68359375 681.90234375 C95.47444542 684.41255465 93.2222328 686.87082868 90.9375 689.3125 C90.45120117 689.83279785 89.96490234 690.3530957 89.46386719 690.88916016 C67.69126072 713.97344964 37.6916861 734.93132159 4.91333008 736.45288086 C-27.4522899 737.36244801 -53.57507665 729.9274468 -83.06411743 716.8928833 C-129.43981957 696.44838259 -179.53773796 692.78344238 -227.30078125 711.13598633 C-237.01224109 714.94533514 -246.62642883 718.9543159 -256.1875 723.125 C-274.83597397 731.22121872 -294.57430898 737.57639733 -315.0625 738.3125 C-316.10921875 738.3640625 -317.1559375 738.415625 -318.234375 738.46875 C-353.48447808 739.42576637 -382.23858689 720.64995125 -407.0625 697.3125 C-409.14239175 695.30893456 -411.20119722 693.2853217 -413.25 691.25 C-413.72493896 690.77973389 -414.19987793 690.30946777 -414.68920898 689.82495117 C-433.36483326 671.06562301 -449.09558851 649.07227934 -464.1875 627.4140625 C-466.05233018 624.73903921 -467.94624268 622.09020877 -469.875 619.4609375 C-485.93363164 597.44560358 -498.95548561 573.66450046 -511.0625 549.3125 C-511.59713867 548.24966797 -512.13177734 547.18683594 -512.68261719 546.09179688 C-521.1474922 529.22565268 -528.38792435 511.94849196 -535.0625 494.3125 C-535.30011047 493.68559265 -535.53772095 493.0586853 -535.78253174 492.41278076 C-557.42079896 435.14415371 -573.03926076 372.422747 -573.265625 310.9375 C-573.27417511 309.07061523 -573.27417511 309.07061523 -573.28289795 307.16601562 C-573.29228697 304.54069857 -573.29885744 301.91537005 -573.30273438 299.29003906 C-573.31233911 295.37803037 -573.34338083 291.46657117 -573.375 287.5546875 C-573.47188483 264.70967563 -571.9236313 241.97415263 -567.3125 219.5625 C-567.05573486 218.28431396 -566.79896973 217.00612793 -566.53442383 215.68920898 C-557.44353484 171.2576053 -539.64238802 127.82954228 -511.0625 92.3125 C-510.63324219 91.76899902 -510.20398438 91.22549805 -509.76171875 90.66552734 C-498.18693189 76.06714097 -484.78056614 62.50796199 -469.71728516 51.52294922 C-468.07005869 50.31802907 -466.44678859 49.08550818 -464.82421875 47.84765625 C-421.86275493 15.57239457 -362.36237548 -2.65593157 -308.69824219 4.89404297 C-277.51470098 9.84482007 -247.90949951 22.23100499 -218.71875 33.8203125 C-198.5063505 41.81809014 -178.73995081 48.08117069 -157.1328125 42.19140625 C-156.31353775 41.97131393 -155.494263 41.75122162 -154.65016174 41.52445984 C-145.89052237 39.09836382 -137.46031099 35.92519047 -129 32.625 C-127.38018725 32.00273823 -125.75998188 31.38149762 -124.1394043 30.76123047 C-117.01384279 28.02865686 -109.90488077 25.25477624 -102.8046875 22.45703125 C-69.43566976 9.34475988 -36.03872436 -0.15428843 0 0 Z " fill="#000000" transform="translate(573.0625,233.6875)"/>
<path d="M0 0 C46.86 0 93.72 0 142 0 C143.99646915 5.32391774 145.87690785 10.58529074 147.54931641 16.00585938 C147.90460198 17.14740195 147.90460198 17.14740195 148.26706505 18.312006 C149.0475357 20.82187799 149.82460613 23.33278811 150.6015625 25.84375 C151.15559584 27.62854068 151.7097988 29.41327871 152.26416016 31.19796753 C153.74660985 35.97311839 155.2258181 40.74926736 156.70417023 45.52568817 C157.62929194 48.51386311 158.55531929 51.50175594 159.48162842 54.48956299 C166.92641896 78.50448489 174.32904396 102.53091516 181.59893799 126.59942627 C187.9787813 147.71845798 194.4817051 168.79838951 201 189.875 C209.62750435 217.77208327 218.18905956 245.68833345 226.6875 273.625 C234.38825155 298.93873607 242.14702071 324.23307105 250 349.5 C258.40191443 376.53378801 266.69198929 403.60037985 274.93331909 430.68353271 C283.09714359 457.51155291 291.30932997 484.32432768 299.5625 511.125 C299.96308247 512.42587996 299.96308247 512.42587996 300.37175751 513.75304031 C303.57935404 524.16925395 306.78865408 534.5849417 310 545 C310.66 545 311.32 545 312 545 C312.39652267 543.69554176 312.39652267 543.69554176 312.80105591 542.36473083 C324.49350478 503.90520522 336.20141348 465.45109728 348.125 427.0625 C349.93406696 421.23712604 351.74279269 415.41164626 353.55078125 409.5859375 C353.88631736 408.50477913 353.88631736 408.50477913 354.22863197 407.40177917 C359.62560521 390.0079794 364.97453738 372.5994873 370.3125 355.1875 C370.66609274 354.03425106 370.66609274 354.03425106 371.02682877 352.85770416 C376.82776246 333.93672253 382.60995633 315.0100723 388.375 296.078125 C388.64085592 295.20511057 388.90671185 294.33209614 389.18062401 293.43262672 C390.52235685 289.02660387 391.86401047 284.6205569 393.20565796 280.21450806 C393.47084103 279.34363682 393.73602409 278.47276558 394.00924301 277.5755043 C394.54501784 275.81594751 395.08076661 274.05638278 395.61648941 272.29681015 C402.69623777 249.0442016 409.82622111 225.80898666 417.05862427 202.60333252 C424.15452156 179.82738771 431.10611721 157.00844636 438.04915619 134.18554306 C446.88902473 105.12907911 455.81794538 76.10145681 464.83300781 47.09887695 C465.47558422 45.03116807 466.11814946 42.96345571 466.76071167 40.89574242 C467.17154794 39.57413973 467.5825753 38.25259644 467.99380493 36.9311161 C470.06371227 30.27936455 472.12016749 23.62421052 474.13183594 16.95458984 C474.45876434 15.87126877 474.78569275 14.78794769 475.12252808 13.67179871 C475.72688299 11.66351812 476.32839866 9.65438006 476.92654419 7.64424133 C477.18781097 6.77510605 477.44907776 5.90597076 477.71826172 5.01049805 C477.94343475 4.25463913 478.16860779 3.49878021 478.40060425 2.72001648 C479 1 479 1 480 0 C481.79694038 -0.09639184 483.59770893 -0.12187425 485.39723206 -0.12025452 C487.15364517 -0.12231651 487.15364517 -0.12231651 488.94554138 -0.12442017 C490.88977745 -0.11902725 490.88977745 -0.11902725 492.87329102 -0.11352539 C494.24287921 -0.11324352 495.61246756 -0.11340125 496.98205566 -0.1139679 C500.71122948 -0.11425588 504.44037141 -0.10835909 508.16953778 -0.10139394 C512.06264413 -0.09516047 515.95575113 -0.09455661 519.84886169 -0.09336853 C527.22598146 -0.09025519 534.60308649 -0.08204178 541.98019975 -0.07201904 C550.37667543 -0.06085797 558.77315179 -0.05534747 567.16963303 -0.05032361 C584.44643056 -0.03985916 601.72321372 -0.02225968 619 0 C616.98379511 9.45527861 616.98379511 9.45527861 615.48217773 13.75805664 C615.19616196 14.5853981 614.91014618 15.41273956 614.61546326 16.26515198 C614.30794632 17.13800339 614.00042938 18.0108548 613.68359375 18.91015625 C613.35557266 19.85378525 613.02755157 20.79741425 612.68959045 21.76963806 C611.61057109 24.86903214 610.52416072 27.96577759 609.4375 31.0625 C608.67155118 33.25704847 607.90593189 35.45171197 607.140625 37.64648438 C601.27690841 54.44142287 595.33403221 71.20833552 589.37866211 87.97094727 C583.99041723 103.14715062 578.69914491 118.35562806 573.43649292 133.57577515 C568.21263327 148.67903173 562.91559866 163.75459199 557.5625 178.8125 C551.6254555 195.51352131 545.78027244 212.24408564 540 229 C533.87661922 246.7505204 527.66998847 264.46886036 521.38037109 282.16113281 C516.01754206 297.25044279 510.7331277 312.36524028 505.5 327.5 C499.55575842 344.69093441 493.52853793 361.85030435 487.4375 378.98974609 C482.05640873 394.13642994 476.75295766 409.30842714 471.5 424.5 C465.5557071 441.69091693 459.52853811 458.85030385 453.4375 475.98974609 C447.69322589 492.15871619 442.04380012 508.35884867 436.43649292 524.57577515 C431.21263316 539.67903207 425.91557032 554.75458165 420.5625 569.8125 C413.80280596 588.82807143 407.16144871 607.8826471 400.59008789 626.96411133 C394.48324649 644.67631865 388.23622475 662.33069655 382 680 C334.48 680 286.96 680 238 680 C220.96072194 632.29002144 220.96072194 632.29002144 212.79006958 608.78717041 C210.66855518 602.6875123 208.54124957 596.58986913 206.4140625 590.4921875 C206.18045769 589.82244652 205.94685287 589.15270554 205.70616913 588.46266937 C201.34460271 575.96070162 196.93330154 563.47669969 192.5 551 C185.97975544 532.64648615 179.53840623 514.26604556 173.125 495.875 C171.24373548 490.48038296 169.36239442 485.08579269 167.48046875 479.69140625 C167.24885355 479.02749815 167.01723835 478.36359005 166.77860451 477.67956352 C161.63948699 462.95092964 156.46228687 448.23577343 151.27844238 433.52282715 C146.7546577 420.68251289 142.23948146 407.83926667 137.74609375 394.98828125 C137.52526878 394.35674385 137.30444382 393.72520645 137.07692719 393.07453156 C135.95784447 389.8739272 134.83890635 386.67327232 133.72003174 383.47259521 C133.27168937 382.19006294 132.82334546 380.9075312 132.375 379.625 C132.15308739 378.99019966 131.93117477 378.35539932 131.70253754 377.70136261 C125.36026166 359.55987567 118.97720183 341.43346785 112.54534912 323.32354736 C106.05990847 305.05660356 99.66755579 286.75770773 93.28676224 268.45403671 C87.06946666 250.61992009 80.82292199 232.79702101 74.5 215 C67.97996144 196.64641156 61.53848216 178.26602076 55.125 159.875 C53.24504233 154.48428754 51.36498379 149.09361035 49.484375 143.703125 C49.25288128 143.03958134 49.02138756 142.37603767 48.78287888 141.69238663 C43.24303624 125.81555394 37.66105956 109.95360946 32.07421875 94.09326172 C31.30467053 91.90853462 30.53513934 89.72380153 29.765625 87.5390625 C29.38378052 86.45499115 29.00193604 85.3709198 28.60852051 84.2539978 C25.58183366 75.65846229 22.56292345 67.06020992 19.546875 58.4609375 C19.31916538 57.81172962 19.09145576 57.16252174 18.85684586 56.4936409 C16.43156002 49.57889851 14.00716672 42.66384387 11.58349609 35.74853516 C11.18268829 34.60550934 10.78188049 33.46248352 10.368927 32.28482056 C9.59973664 30.09097693 8.83106151 27.89695258 8.06295776 25.70272827 C6.50395813 21.25492287 4.93924353 16.81026737 3.32324219 12.3828125 C3.08258026 11.721604 2.84191833 11.06039551 2.59396362 10.37915039 C1.99150784 8.73156516 1.38259542 7.08634442 0.77294922 5.44140625 C0 3 0 3 0 0 Z " fill="#000000" transform="translate(1292,284)"/>
<path d="M0 0 C45.54 0 91.08 0 138 0 C138 53.46 138 106.92 138 162 C180.57 162 223.14 162 267 162 C267 197.64 267 233.28 267 270 C224.43 270 181.86 270 138 270 C138.06143486 320.52389055 138.13352052 371.04771461 138.22898628 421.57154991 C138.2402539 427.54184036 138.25139244 433.51213104 138.26245117 439.48242188 C138.2657567 441.26522243 138.2657567 441.26522243 138.269129 443.08403917 C138.30446232 462.30655515 138.32934882 481.52907109 138.35034702 500.75160746 C138.37214068 520.48851688 138.4052249 540.22538431 138.44870156 559.96225798 C138.47515688 572.13237514 138.49289729 584.30244002 138.49934604 596.4725845 C138.50461868 604.82799728 138.52089836 613.18334437 138.54566566 621.5387219 C138.55961655 626.35301728 138.5688756 631.16719524 138.56500816 635.98151207 C138.56156552 640.40136413 138.5721466 644.82096663 138.59323552 649.24076767 C138.59844817 650.82787908 138.59879754 652.4150168 138.59339563 654.00212757 C138.56802974 662.3101533 139.00670374 670.3414411 140.34913921 678.55076027 C140.46687854 679.27137637 140.58461786 679.99199247 140.70592504 680.73444542 C143.75895358 697.78586627 151.90533204 714.686279 165.9765625 725.23046875 C190.87039265 741.37208854 219.98313472 740.36073689 248.40087891 737.7121582 C249.37847168 737.621521 250.35606445 737.53088379 251.36328125 737.4375 C252.21188721 737.35371094 253.06049316 737.26992188 253.93481445 737.18359375 C258.28251437 736.92318193 262.64450819 737 267 737 C267 772.64 267 808.28 267 845 C262.38846253 846.31758214 258.74310175 847.29426119 254.12109375 847.81640625 C253.03376953 847.94080078 251.94644531 848.06519531 250.82617188 848.19335938 C249.1487793 848.37608398 249.1487793 848.37608398 247.4375 848.5625 C246.34630859 848.68818359 245.25511719 848.81386719 244.13085938 848.94335938 C240.7560846 849.32230234 237.37981403 849.66912962 234 850 C232.99976807 850.10006348 231.99953613 850.20012695 230.96899414 850.30322266 C218.5315797 851.37101831 206.03611999 851.24383931 193.5625 851.25 C192.33690369 851.25067474 191.11130737 851.25134949 189.84857178 851.25204468 C171.06243062 851.23562403 152.59848729 850.85223594 134 848 C132.91315918 847.83371094 131.82631836 847.66742187 130.70654297 847.49609375 C101.41943005 842.77729889 72.3641761 833.13353362 50 813 C48.54207031 811.69095703 48.54207031 811.69095703 47.0546875 810.35546875 C12.17287691 777.17402497 4.70907057 726.89186324 3 681 C2.85278726 675.07590404 2.86814223 669.15139896 2.87974548 663.22590637 C2.87930795 661.52658961 2.8784297 659.82727291 2.87715632 658.12795657 C2.87494718 653.51903325 2.8788828 648.91013369 2.88393438 644.30121338 C2.88829086 639.30831735 2.8867888 634.31542243 2.8860321 629.32252502 C2.88551014 620.69207764 2.88862259 612.06163787 2.89426994 603.4311924 C2.90242951 590.95332726 2.90500471 578.47546577 2.90625793 565.99759825 C2.90844148 545.74847813 2.91508259 525.49936206 2.92456055 505.25024414 C2.93375275 485.59106466 2.94082473 465.93188628 2.94506836 446.27270508 C2.94533108 445.05900263 2.94559381 443.84530018 2.94586449 442.59481887 C2.94716962 436.50545986 2.9484333 430.41610084 2.94967639 424.32674181 C2.96002727 373.88449094 2.97845382 323.44224757 3 273 C-30.33 273 -63.66 273 -98 273 C-98 237.36 -98 201.72 -98 165 C-65.66 165 -33.32 165 0 165 C0 110.55 0 56.1 0 0 Z " fill="#000000" transform="translate(953,119)"/>
<path d="M0 0 C40.92 0 81.84 0 124 0 C124 91.74 124 183.48 124 278 C210.79 278 297.58 278 387 278 C387 318.92 387 359.84 387 402 C300.21 402 213.42 402 124 402 C124 493.74 124 585.48 124 680 C83.41 680 42.82 680 1 680 C1 588.26 1 496.52 1 402 C-86.12 402 -173.24 402 -263 402 C-263 361.08 -263 320.16 -263 278 C-176.21 278 -89.42 278 0 278 C0 186.26 0 94.52 0 0 Z " fill="#000000" transform="translate(2173,284)"/>
<path d="M0 0 C0.98108963 43.03587385 -5.37209689 82.69986437 -26 121 C-26.90298828 122.71509766 -26.90298828 122.71509766 -27.82421875 124.46484375 C-51.31466496 167.45679248 -90.69155029 202.85269336 -137.98657227 217.08569336 C-140.31793188 217.75155424 -142.65468793 218.38517592 -145 219 C-145.7542627 219.19819336 -146.50852539 219.39638672 -147.28564453 219.60058594 C-157.0213748 222.07255684 -166.74773733 223.44016105 -176.75 224.3125 C-177.76215576 224.40112305 -178.77431152 224.48974609 -179.81713867 224.58105469 C-185.09406338 224.97851324 -189.74763398 224.84883864 -195 224 C-196.09985513 161.71435792 -177.51558925 108.33402495 -134 63 C-133.51418457 62.48695312 -133.02836914 61.97390625 -132.52783203 61.4453125 C-100.6030542 27.82456418 -47.24053564 -1.57632653 0 0 Z " fill="#000000" transform="translate(587,0)"/>
</svg>
