<?xml version="1.0" standalone="no"?>
<!DOCTYPE svg PUBLIC "-//W3C//DTD SVG 20010904//EN"
 "http://www.w3.org/TR/2001/REC-SVG-20010904/DTD/svg10.dtd">
<svg version="1.0" xmlns="http://www.w3.org/2000/svg"
 width="2000.000000pt" height="1333.000000pt" viewBox="0 0 2000.000000 1333.000000"
 preserveAspectRatio="xMidYMid meet">

<g transform="translate(0.000000,1333.000000) scale(0.100000,-0.100000)"
fill="#000000" stroke="none">
<path d="M9920 10825 c-231 -19 -546 -59 -690 -90 -14 -3 -38 -8 -55 -11 -16
-2 -44 -9 -62 -13 -17 -5 -35 -6 -39 -3 -4 4 -4 2 0 -5 5 -9 -2 -11 -24 -8
-16 2 -32 0 -35 -5 -3 -5 -13 -7 -23 -4 -13 5 -14 4 -3 -4 11 -8 10 -12 -8
-21 -12 -7 -19 -17 -15 -23 4 -7 9 -6 14 2 5 8 9 7 13 -5 4 -9 3 -13 -3 -10
-6 3 -10 2 -10 -3 0 -17 13 -22 27 -11 10 9 10 15 2 25 -8 10 -7 19 5 36 9 12
16 18 16 12 0 -5 -5 -15 -12 -22 -8 -8 -8 -15 1 -25 9 -11 8 -17 -4 -27 -8 -7
-12 -16 -9 -21 3 -5 1 -8 -4 -7 -6 2 -10 -1 -11 -7 -1 -5 3 -10 8 -10 18 0 21
-12 6 -25 -14 -12 -14 -15 2 -34 l18 -21 -23 20 c-33 27 -46 54 -34 68 13 17
7 45 -15 70 -10 11 -12 17 -4 12 10 -6 12 -4 6 5 -5 9 -4 11 3 6 7 -4 12 -2
12 3 0 14 -1 14 -39 -5 -17 -9 -40 -17 -49 -19 -9 -2 -19 -4 -22 -5 -3 -1 -8
-2 -11 -2 -3 1 -6 -4 -7 -11 -4 -45 -16 -66 -25 -43 -4 9 -2 18 3 21 6 4 10
12 10 18 0 7 -5 4 -11 -6 -6 -9 -14 -15 -18 -12 -5 2 -15 -3 -22 -13 -13 -15
-12 -16 3 -4 14 11 18 10 28 -8 6 -11 16 -17 22 -14 8 5 9 1 5 -10 -4 -10 -7
-20 -7 -24 0 -3 -7 3 -16 14 -15 19 -15 19 -6 -1 11 -26 8 -83 -6 -97 -9 -9
-10 0 -7 32 2 23 2 40 -1 37 -10 -10 -13 -76 -4 -82 5 -3 6 -13 3 -23 -3 -9
-3 -14 1 -10 6 5 9 14 15 48 1 3 5 -1 10 -9 14 -22 -17 -65 -35 -50 -8 6 -12
15 -9 19 2 4 -2 16 -11 26 -14 18 -15 18 -5 -2 6 -12 8 -23 6 -26 -3 -3 4 -13
15 -23 22 -20 28 -41 8 -28 -21 13 -35 12 -35 -3 0 -9 4 -11 12 -4 15 12 25 3
18 -16 -3 -8 -10 -11 -17 -7 -6 4 -4 -2 4 -13 22 -29 24 -30 17 -13 -3 9 1 26
9 38 8 12 13 25 9 30 -3 5 -1 12 4 15 16 11 20 -21 4 -43 -8 -12 -12 -25 -9
-28 3 -4 6 -1 6 7 0 10 4 10 18 -1 15 -12 16 -12 5 1 -7 9 -8 21 -3 29 4 8 6
21 2 29 -3 10 -1 13 7 8 6 -4 10 -19 9 -33 -2 -17 2 -27 13 -28 14 -3 15 1 5
29 -12 33 -25 48 -38 40 -9 -6 -11 10 -2 19 7 7 49 -19 49 -31 1 -4 4 -19 8
-33 l7 -26 72 19 c40 10 84 20 98 23 14 3 36 7 50 10 487 100 780 130 1295
130 383 0 492 -6 770 -41 1072 -134 2083 -546 2945 -1200 247 -187 393 -315
641 -563 299 -300 487 -523 709 -841 211 -303 425 -683 570 -1015 66 -151 57
-145 220 -145 152 0 170 7 170 65 0 60 -226 538 -385 815 -1038 1805 -2865
3000 -4930 3224 -348 38 -861 47 -1195 21z m-874 -175 c0 -12 -4 -16 -9 -11
-5 5 -6 14 -3 20 10 15 12 14 12 -9z m-101 -17 c13 -30 14 -46 4 -64 -6 -12
-5 -20 2 -24 7 -5 5 -13 -6 -25 -9 -10 -12 -21 -7 -24 6 -3 13 2 16 11 6 14
10 13 34 -10 23 -22 31 -25 42 -14 12 10 12 9 1 -6 -10 -12 -17 -14 -26 -7 -6
5 -16 6 -20 2 -5 -4 -5 -2 -2 4 4 7 -1 18 -10 25 -15 12 -16 12 -10 -3 4 -13
1 -16 -14 -13 -15 3 -19 0 -15 -11 3 -9 1 -12 -4 -9 -11 7 -13 -15 -4 -39 3
-9 10 -13 16 -10 5 3 4 13 -4 22 -12 16 -11 16 6 2 18 -14 18 -13 12 8 -4 12
-3 22 2 22 11 0 12 -31 1 -45 -4 -6 -4 -17 1 -25 6 -8 10 -13 11 -10 6 34 9
43 15 48 4 4 5 0 1 -9 -3 -9 0 -22 6 -28 19 -19 17 -40 -4 -36 -10 2 -21 0
-24 -6 -10 -14 -25 -11 -25 7 0 8 -4 13 -10 9 -5 -3 -6 -13 -3 -23 3 -9 3 -14
-1 -11 -4 4 -8 16 -11 28 -2 11 -7 27 -12 34 -11 17 -13 38 -3 32 8 -5 22 47
14 54 -2 2 -8 -7 -13 -20 -6 -14 -10 -18 -11 -9 -1 8 -4 26 -6 40 -4 24 -4 24
11 5 14 -19 15 -19 8 -1 -5 16 -3 18 13 13 17 -6 17 -6 3 5 -9 7 -16 16 -15
20 1 3 -3 10 -8 15 -5 5 -6 3 -2 -4 8 -15 -10 -18 -18 -4 -6 9 18 34 25 26 3
-2 5 4 5 15 0 10 -4 17 -7 14 -4 -2 -10 0 -14 6 -3 5 -1 10 5 10 6 0 9 4 6 9
-6 9 9 19 30 20 7 1 15 -7 19 -16z m-68 -7 c-3 -7 0 -19 6 -25 8 -8 6 -16 -6
-29 -9 -10 -14 -22 -10 -26 5 -4 9 -22 10 -39 2 -59 17 -139 28 -157 3 -6 1
-10 -4 -10 -6 0 -12 7 -12 15 -3 34 -19 66 -30 60 -14 -9 -37 38 -35 70 1 17
7 40 14 51 6 12 10 31 7 42 -2 11 3 29 11 41 17 24 29 28 21 7z m173 -10 c0
-2 -8 -10 -17 -17 -16 -13 -17 -12 -4 4 13 16 21 21 21 13z m9 -43 c14 11 14
10 2 -6 -10 -13 -17 -15 -27 -6 -8 6 -14 14 -14 17 0 3 5 1 12 -6 9 -9 15 -9
27 1z m-27 -40 c-10 -4 -10 -8 0 -21 12 -15 11 -16 -4 -3 -19 14 -15 32 5 30
8 0 8 -2 -1 -6z m-27 -84 c11 -16 1 -19 -13 -3 -7 8 -8 14 -3 14 5 0 13 -5 16
-11z m22 -46 c0 -9 -4 -10 -14 -2 -7 6 -13 12 -13 14 0 1 6 2 13 2 8 0 14 -6
14 -14z"/>
<path d="M8913 10625 c0 -10 6 -14 16 -10 14 4 14 4 1 -7 -8 -7 -16 -22 -17
-33 -2 -26 16 -57 28 -49 8 4 8 9 0 17 -6 6 -7 16 -1 27 10 18 9 38 -3 58 -11
17 -24 15 -24 -3z"/>
<path d="M8907 10424 c-7 -11 18 -46 26 -37 4 3 9 -2 13 -11 3 -9 11 -13 18
-9 6 4 14 8 19 8 4 0 7 3 7 8 0 4 0 10 0 13 0 4 -7 1 -15 -6 -12 -10 -16 -9
-21 4 -3 9 -10 14 -14 11 -5 -3 -13 2 -18 11 -5 9 -12 13 -15 8z"/>
<path d="M8855 10599 c-6 -8 -4 -10 5 -4 10 6 12 4 6 -11 -6 -15 -5 -17 5 -6
9 9 10 15 2 23 -8 8 -13 7 -18 -2z"/>
<path d="M8853 10544 c3 -6 -1 -23 -9 -39 -11 -21 -11 -25 -1 -16 8 6 16 9 18
6 3 -2 4 7 4 20 -1 14 -5 28 -10 32 -4 5 -5 3 -2 -3z"/>
<path d="M8857 10463 c6 -16 5 -17 -12 -3 -17 13 -18 13 -10 0 6 -8 10 -18 10
-22 0 -20 19 -5 22 17 2 14 -1 25 -6 25 -6 0 -7 -8 -4 -17z"/>
<path d="M8970 10564 c0 -5 4 -15 9 -22 6 -10 11 -9 22 5 7 10 9 15 5 11 -5
-4 -15 -3 -23 3 -7 6 -13 8 -13 3z"/>
<path d="M8766 10527 c3 -10 9 -15 12 -12 3 3 0 11 -7 18 -10 9 -11 8 -5 -6z"/>
<path d="M8745 10511 c-3 -5 -2 -12 3 -15 5 -3 9 1 9 9 0 17 -3 19 -12 6z"/>
<path d="M8733 10415 c0 -8 4 -12 9 -9 5 3 6 10 3 15 -9 13 -12 11 -12 -6z"/>
<path d="M8735 10301 c-3 -5 -2 -12 3 -15 5 -3 9 1 9 9 0 17 -3 19 -12 6z"/>
<path d="M3180 7744 c-266 -32 -501 -85 -615 -139 -94 -45 -164 -116 -215
-218 -53 -104 -54 -155 -7 -202 41 -41 116 -59 242 -59 110 0 155 18 155 63 0
53 -52 84 -160 95 -123 13 -114 32 31 70 151 40 279 51 579 51 347 -1 536 -20
885 -90 1072 -215 2128 -812 2600 -1470 136 -190 237 -397 276 -562 18 -78 21
-113 16 -215 -5 -138 -22 -209 -73 -317 -70 -150 -169 -260 -326 -364 -307
-203 -694 -297 -1218 -297 -203 0 -316 9 -486 36 l-101 17 -7 131 c-5 112 -21
872 -21 1005 l0 44 85 -2 c335 -7 919 -122 1041 -204 91 -61 61 -136 -89 -219
-41 -22 -76 -47 -79 -55 -17 -43 111 -88 231 -81 128 6 251 91 319 221 28 55
32 71 32 143 0 73 -4 88 -38 156 -99 201 -332 327 -763 412 -209 42 -351 56
-553 56 l-188 0 -7 143 c-17 340 -68 554 -164 683 -33 45 -92 79 -121 69 -60
-19 -119 -326 -142 -740 -6 -104 -14 -193 -17 -197 -4 -4 -61 -16 -127 -27
-208 -36 -507 -128 -683 -212 -263 -124 -382 -252 -382 -411 0 -86 22 -143 93
-250 79 -118 178 -221 346 -361 212 -178 409 -304 696 -447 l50 -25 12 -110
c23 -193 56 -270 135 -315 71 -40 211 -32 268 16 35 30 60 103 60 176 0 26 2
48 5 48 2 0 42 -9 87 -19 642 -148 1325 -78 1863 191 217 109 366 231 505 416
90 120 179 291 213 412 63 219 53 482 -27 693 -37 99 -149 314 -213 412 -265
401 -736 825 -1258 1130 -663 389 -1432 651 -2108 720 -176 18 -484 17 -637
-1z m1092 -2946 c2 -282 3 -514 2 -516 -3 -8 -289 115 -374 162 -263 146 -428
265 -571 413 -159 163 -155 217 21 289 136 55 479 122 755 148 83 7 153 14
157 15 3 0 8 -230 10 -511z"/>
<path d="M8135 7419 c-159 -19 -346 -93 -510 -200 -97 -64 -268 -233 -314
-311 -68 -117 -85 -173 -86 -283 0 -118 17 -178 76 -269 45 -69 46 -74 52
-171 5 -81 26 -133 74 -182 58 -58 110 -40 168 58 20 33 38 52 46 50 234 -68
428 -47 677 71 198 94 479 326 562 464 110 183 106 365 -11 485 -51 52 -141
100 -212 113 -24 5 -43 16 -54 32 -26 40 -122 103 -187 123 -77 23 -190 32
-281 20z m-216 -395 c-114 -91 -333 -334 -420 -465 l-16 -23 -13 24 c-24 43
-18 120 15 184 63 124 276 284 406 304 30 5 56 7 58 6 2 -2 -12 -15 -30 -30z
m719 -18 c54 -28 75 -62 80 -125 8 -109 -66 -213 -230 -321 -172 -114 -334
-162 -550 -164 -75 -1 -139 2 -143 6 -23 23 264 338 410 449 187 143 346 200
433 155z"/>
<path d="M16230 6312 c-29 -23 -28 -31 8 -247 38 -221 58 -382 75 -587 l13
-158 -452 0 c-289 0 -462 -4 -481 -10 -44 -16 -53 -46 -53 -176 0 -109 1 -116
25 -139 l24 -25 477 0 477 0 -7 -287 c-3 -159 -13 -360 -21 -448 -19 -206 -19
-211 5 -235 18 -18 33 -20 149 -20 175 0 169 -5 187 176 14 138 24 403 27 669
l2 140 479 3 c582 3 526 -15 526 168 0 67 -3 130 -6 139 -17 43 -38 45 -539
45 l-475 0 0 23 c0 99 -47 508 -86 747 -29 181 -39 217 -64 230 -10 6 -75 10
-143 10 -106 0 -128 -3 -147 -18z"/>
<path d="M11004 6035 c-22 -54 -18 -86 45 -315 103 -376 185 -761 197 -920 6
-81 -8 -119 -39 -107 -20 8 -90 111 -239 356 -169 277 -281 433 -397 554 -65
68 -97 87 -144 87 -111 0 -201 -175 -272 -525 -42 -209 -56 -343 -62 -590 -8
-336 11 -426 100 -499 33 -26 46 -31 97 -31 63 0 96 17 132 66 31 42 47 156
58 404 13 291 28 517 36 539 3 9 11 16 18 16 14 0 79 -105 136 -220 178 -357
368 -628 477 -681 64 -31 152 -31 215 0 169 81 252 325 252 731 -1 328 -72
612 -210 840 -104 173 -269 330 -347 330 -34 0 -40 -4 -53 -35z"/>
<path d="M13815 5864 c-72 -38 -264 -252 -368 -409 -117 -179 -213 -414 -238
-584 -25 -177 1 -372 67 -503 l24 -47 -46 -103 c-159 -357 -274 -715 -315
-983 -19 -124 -17 -308 5 -380 58 -195 228 -379 335 -363 41 5 59 45 76 163
60 423 174 852 329 1235 44 110 58 135 73 133 215 -30 384 9 569 129 117 76
293 257 387 398 109 165 152 278 178 470 14 103 6 292 -16 375 -49 188 -169
305 -309 305 -112 -1 -263 -80 -435 -229 -137 -119 -374 -404 -536 -645 -64
-94 -81 -113 -88 -100 -14 25 1 154 29 251 29 102 53 151 203 418 61 110 118
223 127 250 21 70 30 186 15 213 -14 26 -25 27 -66 6z m834 -533 c38 -38 36
-186 -5 -309 -65 -195 -239 -387 -430 -473 -72 -33 -224 -79 -261 -79 l-24 0
37 68 c189 341 566 812 650 812 8 0 23 -9 33 -19z"/>
<path d="M9090 5824 c-14 -2 -65 -9 -115 -15 -290 -36 -548 -141 -672 -272
-58 -62 -87 -113 -108 -194 -50 -193 27 -304 241 -342 32 -6 187 -22 344 -36
399 -36 565 -61 699 -108 90 -32 148 -71 168 -112 16 -33 16 -37 0 -70 -20
-42 -77 -85 -182 -135 -172 -84 -371 -123 -625 -123 -164 -1 -180 1 -257 26
-130 44 -178 97 -147 162 21 44 83 75 150 75 64 0 127 -19 294 -88 l135 -56
105 0 c86 0 119 5 185 27 129 43 188 98 158 146 -27 43 -196 109 -376 147
-162 33 -389 43 -495 20 -143 -30 -238 -89 -288 -178 -25 -46 -29 -63 -29
-128 1 -91 29 -154 109 -238 256 -272 761 -378 1154 -243 109 38 182 82 263
161 107 104 152 217 152 380 0 211 -93 374 -256 450 -123 58 -233 79 -750 140
-356 42 -407 51 -427 75 -53 64 267 122 770 140 369 13 534 31 600 65 74 38
130 135 103 179 -27 47 -241 118 -418 140 -82 10 -425 13 -485 5z"/>
<path d="M12660 5810 c-176 -12 -364 -35 -580 -71 -270 -45 -320 -64 -320
-119 0 -38 71 -141 120 -175 40 -28 123 -55 167 -55 13 0 23 -2 23 -4 0 -3
-30 -65 -66 -138 l-65 -133 -66 -16 c-43 -11 -73 -24 -85 -39 -24 -30 -24
-110 2 -194 l21 -65 -35 -104 c-63 -187 -80 -348 -51 -462 29 -111 131 -232
242 -287 61 -30 64 -30 180 -26 98 4 135 11 218 38 257 83 580 281 629 385 21
44 12 95 -25 149 -39 58 -82 80 -151 78 -73 -2 -342 -43 -532 -82 -78 -15
-144 -26 -148 -24 -16 10 -12 27 58 260 l24 81 182 7 c262 10 435 24 458 36
32 17 40 44 43 144 2 87 0 97 -21 118 -22 23 -25 23 -277 23 -140 0 -255 2
-255 5 0 3 16 52 34 110 l35 105 183 12 c358 23 607 58 637 88 53 52 -66 260
-188 328 -49 28 -63 31 -155 33 -55 1 -162 -2 -236 -6z"/>
<path d="M7782 5748 c-93 -117 -151 -625 -139 -1203 9 -359 25 -448 96 -508
44 -37 93 -50 176 -45 62 3 78 7 100 28 66 62 73 128 56 570 -33 850 -70 1081
-184 1150 -36 23 -90 26 -105 8z"/>
</g>
</svg>
