<?xml version="1.0" encoding="UTF-8"?>
<svg version="1.1" xmlns="http://www.w3.org/2000/svg" width="2100" height="1009">
<path d="M0 0 C693 0 1386 0 2100 0 C2100 332.97 2100 665.94 2100 1009 C1407 1009 714 1009 0 1009 C0 676.03 0 343.06 0 0 Z " fill="#E4BB39" transform="translate(0,0)"/>
<path d="M0 0 C67.98 0 135.96 0 206 0 C210.53858025 24.96219136 210.53858025 24.96219136 211.75 34 C212.07897778 36.37654518 212.40989604 38.75282213 212.7421875 41.12890625 C212.83424469 41.78798477 212.92630188 42.44706329 213.02114868 43.12611389 C213.91671316 49.49464876 214.86681146 55.85476017 215.8203125 62.21484375 C219.00892728 83.50010305 222.16148524 104.78155824 224.9375 126.125 C227.66772387 147.07527962 230.79527794 167.95926201 233.95861816 188.84796143 C234.15145386 190.12145447 234.34428955 191.39494751 234.54296875 192.70703125 C234.73838257 193.99712097 234.93379639 195.28721069 235.13513184 196.61639404 C237.54545074 212.54991242 239.88369816 228.49408732 242.22325134 244.4381218 C242.56225428 246.74832549 242.90140582 249.05850732 243.24060059 251.36868286 C244.49496599 259.91227472 245.74819304 268.45603285 247 277 C248.37188829 271.21729949 249.43922599 265.48911568 250.15405273 259.59057617 C250.25395067 258.79583389 250.35384861 258.00109161 250.45677376 257.18226624 C250.78633675 254.55297757 251.10990541 251.92298654 251.43359375 249.29296875 C251.66924119 247.40565185 251.90533121 245.51839016 252.14183044 243.63117981 C252.64713186 239.5938304 253.15004903 235.55619436 253.65106201 231.51831055 C254.98707428 220.7543497 256.33969929 209.99246783 257.69140625 199.23046875 C257.82896835 198.1342004 257.96653046 197.03793205 258.10826111 195.90844345 C260.95101402 173.26176873 263.89545113 150.62902954 266.875 128 C267.67131378 121.94837718 268.46739036 115.89672314 269.26338577 109.84505844 C269.47960811 108.20130736 269.6958729 106.55756186 269.91218185 104.91382217 C271.78555935 90.67572541 273.6264742 76.43367292 275.4375 62.1875 C275.55482483 61.26553833 275.67214966 60.34357666 275.79302979 59.39367676 C276.73089224 52.02216765 277.6655868 44.65026093 278.59619141 37.27783203 C279.06050888 33.60024671 279.52749837 29.92300974 279.99636841 26.2460022 C280.23604284 24.35983852 280.47249142 22.47326574 280.70874023 20.58666992 C280.92252319 18.91181519 280.92252319 18.91181519 281.140625 17.203125 C281.25954102 16.26114258 281.37845703 15.31916016 281.50097656 14.34863281 C282.21656274 9.54678352 283.13153339 4.77656633 284 0 C352.64 0 421.28 0 492 0 C492 201.63 492 403.26 492 611 C446.13 611 400.26 611 353 611 C352.505 408.545 352.505 408.545 352 202 C350.68 213.55 349.36 225.1 348 237 C345.9375 250.5625 345.9375 250.5625 344.93359375 256.81640625 C343.76927443 264.26923196 342.964277 271.75522725 342.14428711 279.25219727 C341.17064779 287.96256978 339.86377008 296.59656609 338.48046875 305.25 C337.28909301 312.81660011 336.33308779 320.38613792 335.5 328 C334.43568822 337.69722437 333.08307166 347.3147014 331.55517578 356.94897461 C330.21199246 365.47223465 329.01201947 374.00936627 327.875 382.5625 C327.71652588 383.75004883 327.55805176 384.93759766 327.39477539 386.16113281 C326.64833085 391.82705834 325.93683953 397.49503135 325.28457642 403.17247009 C324.11159215 413.37816219 322.6697738 423.53456602 321.17724609 433.69775391 C320.01653974 441.6219085 318.90783104 449.54247997 318 457.5 C316.92430808 466.92889106 315.55601059 476.30922289 314.17724609 485.69775391 C313.01653974 493.6219085 311.90783104 501.54247997 311 509.5 C309.92430808 518.92889106 308.55601059 528.30922289 307.17724609 537.69775391 C306.85584257 539.8919792 306.53726954 542.08660447 306.21875 544.28125 C306.03248047 545.55033203 305.84621094 546.81941406 305.65429688 548.12695312 C304.67693188 555.40613417 303.85814085 562.70580276 303 570 C301.02 583.53 299.04 597.06 297 611 C264.33 611 231.66 611 198 611 C191.19080503 570.14483018 191.19080503 570.14483018 189.69677734 557.81982422 C188.06658084 544.41291622 186.10556202 531.09688209 183.87695312 517.77587891 C182.03071778 506.57548093 180.56039183 495.34005908 179.12011719 484.08154297 C177.91572287 474.68689444 176.6422376 465.3303671 175 456 C173.21320438 445.84832698 171.87015357 435.65932738 170.5625 425.4375 C169.0675047 413.75311277 167.44397157 402.11961363 165.5 390.5 C163.41838101 378.05763268 161.72069393 365.59312823 160.12011719 353.08154297 C158.91572287 343.68689444 157.6422376 334.3303671 156 325 C154.06894326 314.02870797 152.65861492 303.00721213 151.24563599 291.96017456 C149.83394116 280.95644125 148.25181733 270.00717238 146.4375 259.0625 C143.96087186 243.75820819 141.98398928 228.37591692 140 213 C139.505 410.01 139.505 410.01 139 611 C93.13 611 47.26 611 0 611 C0 409.37 0 207.74 0 0 Z " fill="#000000" transform="translate(503,199)"/>
<path d="M0 0 C247.89319372 0 247.89319372 0 290 18 C290.69673828 18.29745117 291.39347656 18.59490234 292.11132812 18.90136719 C319.82999987 31.0529176 339.331259 53.04240022 350.6328125 80.8828125 C361.87495676 112.05115258 360.15652657 148.91679629 360.14538372 181.53848958 C360.1451767 185.33296514 360.15072686 189.12743347 360.15544128 192.92190552 C360.16368555 200.33142804 360.16649332 207.74094259 360.16705366 215.15046932 C360.16753202 221.18803043 360.16960253 227.22558897 360.17275429 233.26314926 C360.18154561 250.45941405 360.18617631 267.65567264 360.18542381 284.85193969 C360.18536388 286.2374146 360.18536388 286.2374146 360.18530273 287.65087891 C360.18526185 288.57568459 360.18522097 289.50049027 360.18517885 290.45332037 C360.18477331 305.40556579 360.19432363 320.35778592 360.2084411 335.31002404 C360.22289215 350.74001249 360.22970646 366.16998868 360.22884732 381.59998405 C360.22851824 390.23152415 360.23113642 398.86303777 360.24202538 407.49457169 C360.25124646 414.85001654 360.25321273 422.20542293 360.24651595 429.56087114 C360.24330738 433.29579059 360.24298089 437.03063678 360.2518692 440.76554871 C360.29826298 461.58246749 359.43863661 482.23846373 358 503 C357.91363765 504.29017288 357.8272753 505.58034577 357.73829591 506.9096148 C357.65376779 508.14553675 357.56923966 509.38145871 357.48215008 510.65483284 C357.40762511 511.74904867 357.33310014 512.84326451 357.25631684 513.97063839 C355.09039083 539.56931967 346.36588607 564.4906292 327 582 C249.56099406 647.32468867 38.76182135 611 0 611 C0 409.37 0 207.74 0 0 Z " fill="#000000" transform="translate(1049,199)"/>
<path d="M0 0 C50.49 0 100.98 0 153 0 C153.33 65.01 153.66 130.02 154 197 C158.62 192.38 163.24 187.76 168 183 C193.93164466 162.51617985 220.99362189 154.83503192 253.9375 154.6875 C255.12142334 154.68186035 256.30534668 154.6762207 257.52514648 154.67041016 C286.4830103 154.90861357 315.14186301 163.23374931 336.50390625 183.4140625 C350.49042624 197.90400966 357.20251123 216.33399798 359 236 C359.12652435 237.31072825 359.12652435 237.31072825 359.25560474 238.64793587 C360.26046676 250.5658369 360.14818516 262.48160431 360.14526367 274.43310547 C360.14826034 276.88880972 360.15166403 279.3445135 360.15544128 281.80021667 C360.16332474 287.75136657 360.16649381 293.70250713 360.16705366 299.65366118 C360.16753148 304.50104373 360.16959936 309.34842306 360.17275429 314.1958046 C360.18154834 327.99191094 360.18617586 341.78800955 360.18542381 355.58411871 C360.18536388 356.69635202 360.18536388 356.69635202 360.18530273 357.83105469 C360.18526185 358.57346775 360.18522097 359.31588082 360.18517885 360.08079125 C360.18477318 372.0882071 360.19432606 384.09559148 360.2084411 396.10299824 C360.22287831 408.48397543 360.22970721 420.86493736 360.22884732 433.24592316 C360.22851778 440.17590359 360.2311568 447.10585106 360.24202538 454.03582382 C360.25220034 460.56455077 360.25172083 467.09322654 360.24450874 473.62195778 C360.24347454 475.99847453 360.24575516 478.37499579 360.2518692 480.7515049 C360.34491198 519.47036769 359.33129255 559.49061419 330.875 588.6875 C316.36678904 603.02620548 298.98234548 612.43245095 279.02978516 616.57421875 C277.60798485 616.87246505 276.19113975 617.19488038 274.77880859 617.53515625 C246.39500595 624.00308279 211.93415525 618.08835051 187.05053711 603.01831055 C174.91434158 595.32007297 164.97604021 585.24770242 155 575 C154.34 574.34 153.68 573.68 153 573 C152.86948242 573.58265625 152.73896484 574.1653125 152.60449219 574.765625 C151.98832313 577.51086858 151.36915783 580.25542901 150.75 583 C150.54503906 583.91523437 150.34007812 584.83046875 150.12890625 585.7734375 C148.21911454 594.22281899 146.10290904 602.58836382 144 611 C96.48 611 48.96 611 0 611 C0 409.37 0 207.74 0 0 Z " fill="#000000" transform="translate(1463,199)"/>
<path d="M0 0 C52.47 0 104.94 0 159 0 C159 201.63 159 403.26 159 611 C106.53 611 54.06 611 0 611 C0 409.37 0 207.74 0 0 Z " fill="#000000" transform="translate(290,199)"/>
<path d="M0 0 C76.89 0 153.78 0 233 0 C235.25187085 10.13341882 235.25187085 10.13341882 236.03051758 15.04760742 C236.20911316 16.16848755 236.38770874 17.28936768 236.57171631 18.44421387 C236.76074524 19.65242798 236.94977417 20.86064209 237.14453125 22.10546875 C237.35275545 23.4275385 237.56102935 24.74960042 237.76934814 26.07165527 C238.33701971 29.68432737 238.89926537 33.29782376 239.45955276 36.9116478 C239.81393117 39.19672837 240.16950552 41.48162088 240.52511597 43.76651001 C245.6613596 76.82802715 250.23825547 109.96554962 254.7590332 143.1159668 C254.89437532 144.10731691 255.02971745 145.09866703 255.16916084 146.12005806 C255.80624866 150.78715743 256.44155338 155.45447935 257.07232666 160.12243652 C258.24630012 168.77365437 259.48086083 177.40088178 261 186 C261.33 186 261.66 186 262 186 C262.08134941 185.36954206 262.16269882 184.73908413 262.24651337 184.08952141 C270.16434224 122.72634761 278.08217112 61.3631738 286 0 C363.55 0 441.1 0 521 0 C521.6638704 87.01619748 521.6638704 87.01619748 521.80419922 115.90966797 C521.80913725 116.9162037 521.81407527 117.92273944 521.81916294 118.95977625 C522.09362198 175.48495389 522.00122384 232.00966414 521.87890625 288.53515625 C521.87475957 290.46148648 521.87475957 290.46148648 521.87052912 292.42673248 C521.79953717 325.26700724 521.71549044 358.10724411 521.62664449 390.94747484 C521.57527497 409.9818216 521.52754949 429.01617514 521.48217773 448.05053711 C521.48055215 448.73200952 521.47892657 449.41348193 521.47725173 450.11560502 C521.46091419 456.96595052 521.44463659 463.81629616 521.42840267 470.6666419 C521.29463528 527.11111871 521.15107294 583.55556699 521 640 C499.24317719 640.02332684 477.48635643 640.04097812 455.72952366 640.05181217 C445.62819057 640.05697559 435.52686523 640.06401915 425.42553711 640.07543945 C416.62455536 640.0853849 407.82357922 640.09185309 399.02259201 640.09408849 C394.35953733 640.09539584 389.69649872 640.09848318 385.03344917 640.10573006 C380.64967634 640.11248809 376.26592629 640.11461741 371.88214874 640.11310768 C370.26839766 640.11338411 368.65464587 640.11539052 367.04089928 640.11920547 C364.8473111 640.12413934 362.6538103 640.12299944 360.46022034 640.12025452 C358.61432989 640.12163721 358.61432989 640.12163721 356.73114872 640.12304783 C354 640 354 640 353 639 C352.90220705 636.39498464 352.87005364 633.81649978 352.87974548 631.21104431 C352.87846385 629.97244631 352.87846385 629.97244631 352.87715632 628.70882612 C352.87549898 625.9203645 352.88102701 623.13196201 352.88647461 620.34350586 C352.88675645 618.3532359 352.8865988 616.36296583 352.8860321 614.37269592 C352.88574402 608.9514314 352.89164254 603.5301888 352.89860606 598.1089294 C352.90483776 592.4501079 352.90544325 586.79128595 352.90663147 581.13246155 C352.90974533 570.40853508 352.91795946 559.68461875 352.92798096 548.96069676 C352.9391404 536.75534487 352.94465212 524.54999251 352.94967639 512.3446368 C352.96014203 487.22975223 352.97774252 462.11487668 353 437 C352.67784947 438.41952973 352.35755999 439.83948187 352.0380373 441.25960541 C351.85947297 442.05029466 351.68090865 442.84098392 351.49693328 443.65563345 C350.78814126 446.99947931 350.32422203 450.35604986 349.87768555 453.74414062 C349.78096621 454.46942868 349.68424686 455.19471674 349.58459663 455.94198322 C349.26491038 458.3462616 348.95082637 460.75123697 348.63671875 463.15625 C348.40634046 464.89715767 348.1755918 466.63801636 347.94450378 468.37882996 C347.44816569 472.12306495 346.95421814 475.86760467 346.46209717 479.61239624 C345.68068111 485.55707182 344.89289541 491.50089253 344.10400391 497.44458008 C342.98499118 505.87899089 341.86781697 514.31364258 340.75244141 522.74853516 C340.46242303 524.9415894 340.17240431 527.1346436 339.88238525 529.32769775 C339.73736824 530.42428963 339.59235123 531.5208815 339.44293976 532.65070343 C337.35791533 548.41665136 335.2709466 564.18232931 333.17086315 579.94627953 C332.31059588 586.40543703 331.45517798 592.86521222 330.60340977 599.32549572 C330.07077467 603.35692718 329.53375013 607.38776497 328.99550819 611.41845131 C328.74639063 613.29069318 328.49906898 615.16317503 328.25368309 617.03590965 C327.91730087 619.60102872 327.57442929 622.16520155 327.22998047 624.72924805 C327.08666558 625.84023739 327.08666558 625.84023739 326.94045544 626.97367096 C326.31700899 631.54950268 325.28948114 635.48681601 324 640 C283.41 640 242.82 640 201 640 C199.56909165 634.99182077 198.48334185 630.36146159 197.7824707 625.25610352 C197.67623257 624.51187795 197.56999443 623.76765238 197.46053696 623.00087452 C197.11099239 620.54418224 196.76839378 618.08657402 196.42578125 615.62890625 C196.17919866 613.88678694 195.93215427 612.14473294 195.68467712 610.40274048 C195.16066825 606.70803726 194.6396162 603.01293439 194.12097168 599.31747437 C193.30860128 593.5297087 192.48950151 587.74290894 191.66894531 581.95629883 C191.39558836 580.02812351 191.12224238 578.09994663 190.84890747 576.17176819 C190.71440311 575.22296343 190.57989876 574.27415867 190.44131851 573.29660225 C190.03588917 570.43486086 189.6311064 567.57302875 189.22653198 564.71116638 C187.2687017 550.8648508 185.27942161 537.02352551 183.25 523.1875 C182.98450719 521.37459758 182.71904478 519.5616907 182.45361328 517.7487793 C182.05807501 515.04805921 181.66240403 512.34735885 181.26635742 509.64671326 C179.57647322 498.12092672 177.90072637 486.59308014 176.22424316 475.06533813 C175.70409259 471.48908113 175.18361552 467.91287178 174.66308594 464.33666992 C174.50149994 463.22565414 174.33991394 462.11463837 174.1734314 460.96995544 C173.86224692 458.83134571 173.55059664 456.6928037 173.23843384 454.55433655 C172.59728667 450.15444689 171.96128437 445.75441371 171.36181641 441.34863281 C171.09957275 439.43195801 171.09957275 439.43195801 170.83203125 437.4765625 C170.69128174 436.41775879 170.55053223 435.35895508 170.40551758 434.26806641 C170.23004855 432.03951009 170.23004855 432.03951009 169 431 C169.00138269 432.03382734 169.00138269 432.03382734 169.00279331 433.08854008 C169.02531345 450.2099546 169.04162997 467.33136417 169.05181217 484.45279026 C169.05687261 492.73407601 169.06370714 501.01535164 169.07543945 509.29663086 C169.08571298 516.55196944 169.09192679 523.80730068 169.09408849 531.06264633 C169.09534316 534.87030608 169.09806196 538.67794493 169.10573006 542.48559761 C169.16277034 574.66912615 168.51093593 606.81103647 168 639 C112.56 639 57.12 639 0 639 C0 428.13 0 217.26 0 0 Z M15 14 C15 215.63 15 417.26 15 625 C60.87 625 106.74 625 154 625 C154.495 427.99 154.495 427.99 155 227 C156.65 239.54 158.3 252.08 160 265 C161.43014825 273.53841761 161.43014825 273.53841761 162.8984375 282.0703125 C164.85908835 293.90437274 166.27920368 305.83061181 167.80639648 317.72680664 C168.87862112 326.01761987 169.98342636 334.27744833 171.5 342.5 C173.19104096 351.66847772 174.37442087 360.89224143 175.5612793 370.13745117 C177.97522746 389.11413881 177.97522746 389.11413881 181 408 C183.21572022 420.44772129 184.75763896 432.98695697 186.39450073 445.52078247 C187.90709508 457.08212327 189.49588146 468.59916042 191.53125 480.08203125 C193.28286374 490.18638161 194.5202693 500.35795294 195.82403564 510.52752686 C197.02923157 519.90600577 198.28671579 529.24987717 199.9375 538.5625 C201.28356564 546.16759784 202.39956548 553.78900145 203.40625 561.4453125 C203.53189835 562.40072433 203.65754669 563.35613617 203.78700256 564.34049988 C204.41208658 569.11641523 205.02720529 573.89341939 205.63061523 578.67211914 C207.63956687 594.23959256 210.32442259 609.481651 213 625 C245.67 625 278.34 625 312 625 C316.74262516 594.24212433 316.74262516 594.24212433 320.82250977 563.39794922 C321.62163748 556.84241283 322.50182025 550.30001036 323.40234375 543.7578125 C324.49215584 535.82969814 325.53550812 527.8970169 326.53515625 519.95703125 C326.66115204 518.95783157 326.78714783 517.9586319 326.91696167 516.92915344 C327.43013882 512.85365418 327.94208616 508.7780083 328.45043945 504.7019043 C328.83014838 501.66160102 329.2136435 498.62179351 329.59765625 495.58203125 C329.70916519 494.67975296 329.82067413 493.77747467 329.93556213 492.84785461 C330.63521608 487.33428249 331.53637566 481.88631431 332.55714417 476.42329407 C333.04153657 473.7727131 333.42776605 471.12471907 333.74609375 468.44921875 C333.91915039 467.02706055 333.91915039 467.02706055 334.09570312 465.57617188 C334.20849609 464.62291016 334.32128906 463.66964844 334.4375 462.6875 C335.35933011 454.98012756 336.36331325 447.28726794 337.421875 439.59765625 C338.45478384 432.08572671 339.45014569 424.57045336 340.39453125 417.046875 C340.50898087 416.13553802 340.62343048 415.22420105 340.74134827 414.2852478 C340.9768417 412.40852925 341.2122481 410.53179978 341.4475708 408.65505981 C343.63700087 391.22585621 345.97793003 373.82640128 348.50592041 356.44317627 C350.28757812 344.18250122 351.93427592 331.91447295 353.43218994 319.61599731 C354.44586773 311.29624009 355.55755328 303.00866306 356.85620117 294.72900391 C358.17893776 286.14056877 359.20269494 277.51440258 360.25823975 268.89004517 C361.26982158 260.63720537 362.34853471 252.40428095 363.625 244.1875 C365.02562413 234.82878422 366.00937375 225.4109494 367 216 C367.495 418.455 367.495 418.455 368 625 C413.87 625 459.74 625 507 625 C507 423.37 507 221.74 507 14 C438.36 14 369.72 14 299 14 C296.47444471 29.92072601 296.47444471 29.92072601 294.29914856 45.88186646 C293.90076611 49.0678204 293.50007266 52.25345307 293.09599304 55.43869019 C292.63859177 59.04554068 292.182441 62.65254634 291.72698975 66.25964355 C290.57083702 75.40298188 289.39403488 84.54368074 288.21962738 93.68468857 C287.65372646 98.09010128 287.08851296 102.4956021 286.52326202 106.90109825 C285.7865727 112.64242853 285.04954478 118.38371534 284.3125 124.125 C284.16113838 125.30407173 284.00977676 126.48314346 283.85382843 127.69794464 C279.32866957 162.94558145 274.78361012 198.19054225 270.1965332 233.43017578 C270.10289962 234.14970995 270.00926603 234.86924412 269.91279507 235.61058235 C269.46178055 239.07598765 269.01023532 242.54132195 268.55747986 246.00650024 C267.74614595 252.22188793 266.94191602 258.43799711 266.15814018 264.65691948 C265.79127534 267.56749798 265.42201456 270.47777088 265.05278397 273.38805008 C264.87851586 274.76814674 264.70557632 276.14841188 264.53403854 277.52885056 C264.29884927 279.42149054 264.05897035 281.31354601 263.81884766 283.20556641 C263.68435211 284.27980865 263.54985657 285.3540509 263.4112854 286.46084595 C263 289 263 289 262 291 C257.59933884 261.18265283 253.20435178 231.36447332 248.81616211 201.54528809 C248.2133792 197.44934744 247.61020016 193.35346535 247.00677109 189.25761986 C245.91697688 181.8598596 244.83052863 174.46161949 243.75 167.0625 C243.60091187 166.04170349 243.45182373 165.02090698 243.29821777 163.96917725 C241.28653785 150.16450645 239.34724538 136.35031908 237.4375 122.53125 C237.32626045 121.72694487 237.2150209 120.92263973 237.10041046 120.09396172 C235.99674976 112.11360606 234.89527298 104.13297424 233.80584145 96.15066242 C231.70655429 80.78241906 229.51522668 65.44902354 226.86669922 50.16333008 C225.78096499 43.84223413 224.89447212 37.4940513 224.04107666 31.13792419 C223.247759 25.34347127 222.15284638 19.76423192 221 14 C153.02 14 85.04 14 15 14 Z " fill="#F3E5A0" transform="translate(488,185)"/>
<path d="M0 0 C60.06 0 120.12 0 182 0 C182 58.74 182 117.48 182 178 C189.42685112 173.95365842 189.42685112 173.95365842 196.8359375 169.875 C207.42205331 164.17603274 218.31141767 160.71463967 230 158 C230.76135254 157.82065918 231.52270508 157.64131836 232.30712891 157.45654297 C269.72107375 149.14141552 312.38236813 154.69581563 345 175 C348.57697745 177.44514346 351.81101791 180.07077902 355 183 C355.81597656 183.72445312 356.63195313 184.44890625 357.47265625 185.1953125 C367.39455762 194.48846896 375.24372988 206.25388043 380 219 C380.44085937 220.17691406 380.88171875 221.35382813 381.3359375 222.56640625 C392.83141187 255.10877207 388.16344292 294.80541329 388.16725707 328.78247619 C388.16797584 332.39104533 388.1701254 335.99961086 388.17275429 339.60817909 C388.18195705 352.26393494 388.18609538 364.91968037 388.18530273 377.57543945 C388.18470257 389.26672869 388.19525558 400.9579717 388.2110464 412.64924926 C388.2242282 422.779335 388.22948225 432.90940583 388.22884732 443.03950006 C388.22859554 449.0490316 388.23126613 455.05852188 388.24202538 461.06804466 C388.43676412 578.14465876 388.43676412 578.14465876 354.25 613.1875 C330.61105519 636.55183944 298.41790434 647.20119382 265.58325195 647.25366211 C249.50389694 647.01934561 233.41027981 644.55894667 218 640 C216.92621094 639.69191406 215.85242187 639.38382813 214.74609375 639.06640625 C199.6360834 634.41568787 186.13587425 624.98046801 174 615 C173.9175 616.175625 173.835 617.35125 173.75 618.5625 C173.24905371 623.16678574 172.19230742 627.53628581 171 632 C170.82178711 632.6710376 170.64357422 633.3420752 170.45996094 634.03344727 C169.13391279 638.86608721 169.13391279 638.86608721 168 640 C112.56 640 57.12 640 0 640 C0 428.8 0 217.6 0 0 Z M14 14 C14 215.63 14 417.26 14 625 C61.52 625 109.04 625 158 625 C163.00855554 606.10577306 163.00855554 606.10577306 167 587 C169.72168855 589.70141526 172.41241357 592.42375448 175.05859375 595.19921875 C182.7762655 603.21548408 190.66977658 609.94296685 200 616 C200.96164062 616.64582031 201.92328125 617.29164063 202.9140625 617.95703125 C228.65892348 634.23374088 265.30599411 637.27454504 294.43432617 630.76879883 C320.12641781 624.41675975 345.19554898 608.14644717 359.26171875 585.28515625 C374.35389662 556.76263583 374.31837337 522.92418998 374.25878906 491.39990234 C374.26150793 488.93947751 374.26507383 486.4790535 374.26940918 484.01863098 C374.27749751 478.0949089 374.27643158 472.1712337 374.2705839 466.24751304 C374.26602395 461.42418647 374.26547295 456.60087405 374.26763153 451.77754593 C374.26809123 450.73870183 374.26809123 450.73870183 374.26856022 449.67887098 C374.26919981 448.27095289 374.26984824 446.86303479 374.2705054 445.4551167 C374.27617608 432.3268994 374.26970204 419.19871027 374.25890467 406.07049759 C374.24996816 394.85850777 374.2515284 383.64655939 374.26074219 372.43457031 C374.27149607 359.34277214 374.27563121 346.25099848 374.26951766 333.1591965 C374.26888071 331.75773851 374.26825196 330.35628053 374.26763153 328.95482254 C374.26732298 328.26567801 374.26701443 327.57653349 374.26669653 326.86650579 C374.26498516 322.06001891 374.26785053 317.25354787 374.27259064 312.44706345 C374.27885443 305.95431799 374.27426275 299.46163171 374.26280212 292.96889305 C374.26018641 290.60443054 374.2608668 288.23996138 374.26532745 285.87550163 C374.32137937 253.11164465 373.17407575 220.26399914 348.76953125 195.61328125 C323.98162487 172.22384632 289.06709899 168.20110982 256.60791016 168.86816406 C219.976756 170.20669588 193.49628142 185.50371858 168 211 C167.67 145.99 167.34 80.98 167 14 C116.51 14 66.02 14 14 14 Z " fill="#EED884" transform="translate(1449,185)"/>
<path d="M0 0 C24.95074169 -0.04703989 49.90147658 -0.08214366 74.85225391 -0.10362434 C86.44131275 -0.11387007 98.03034379 -0.12779952 109.61938477 -0.15087891 C119.73840455 -0.1710209 129.85740419 -0.1837649 139.97644347 -0.18817699 C145.31800347 -0.19074976 150.65950589 -0.19665064 156.00104713 -0.21146011 C278.88167102 -0.53848727 278.88167102 -0.53848727 325 26 C325.5995752 26.34111816 326.19915039 26.68223633 326.81689453 27.03369141 C336.31509055 32.52887515 344.27742195 39.23386846 352 47 C353.10794922 48.10794922 353.10794922 48.10794922 354.23828125 49.23828125 C387.46963017 84.60069864 388.45112076 133.3973416 389.54418945 179.12451172 C389.57602984 180.4420131 389.57602984 180.4420131 389.60851347 181.78613067 C390.22448929 208.14181538 390.16485826 234.50468923 390.16725707 260.86599588 C390.16775997 265.25093461 390.17007085 269.6358713 390.17275429 274.02080917 C390.18150226 288.62184967 390.18618202 303.22288297 390.18542381 317.82392611 C390.18536388 318.99123649 390.18536388 318.99123649 390.18530273 320.18212891 C390.18526185 320.96133264 390.18522097 321.74053638 390.18517885 322.54335235 C390.18477223 335.17513119 390.19436143 347.80688026 390.2084411 360.4386505 C390.22293342 373.54831924 390.22970457 386.65797356 390.22884732 399.76765049 C390.22852013 407.07219592 390.23110973 414.37670966 390.24202538 421.68124771 C390.38704723 523.65415677 390.38704723 523.65415677 381 559 C380.72671875 560.04542969 380.4534375 561.09085938 380.171875 562.16796875 C376.42801276 574.77797747 369.6345385 587.10286389 361 597 C360.4946875 597.64710938 359.989375 598.29421875 359.46875 598.9609375 C338.45174028 625.02615054 302.02256594 633.82731507 270.3923645 637.26640129 C257.11289599 638.64605388 243.84243918 639.28130908 230.5 639.57373047 C229.63284615 639.59391227 228.76569229 639.61409408 227.87226105 639.63488746 C205.94206124 640.137672 184.01132292 640.14748404 162.07645798 640.1343255 C156.38764148 640.13173801 150.69882635 640.13415548 145.01000977 640.13571167 C135.51399436 640.13750925 126.01798685 640.13518525 116.52197266 640.13037109 C105.54381125 640.12486989 94.56566825 640.12674256 83.58750725 640.1321975 C74.09714538 640.13672338 64.60678906 640.13738366 55.11642647 640.13475883 C49.47365134 640.13320117 43.83088492 640.13298959 38.18811035 640.13629532 C32.92145725 640.13916842 27.65482834 640.13720892 22.38817787 640.13140106 C20.4534948 640.13007313 18.51880971 640.13046814 16.58412743 640.13266373 C13.9570172 640.13537231 11.32998597 640.13199851 8.70288086 640.12698364 C7.92833431 640.12921436 7.15378777 640.13144509 6.35577011 640.13374341 C1.11415411 640.11415411 1.11415411 640.11415411 0 639 C-0.09696731 637.59557293 -0.12447394 636.18628537 -0.1241985 634.7785148 C-0.12644579 633.86031392 -0.12869308 632.94211303 -0.13100848 631.99608788 C-0.12838146 630.97353816 -0.12575445 629.95098843 -0.12304783 628.89745235 C-0.12420167 627.81742773 -0.12535552 626.7374031 -0.12654433 625.62465045 C-0.1292196 621.95669679 -0.12468139 618.28878585 -0.12025452 614.62083435 C-0.12069003 611.98422271 -0.12152219 609.34761395 -0.12284368 606.71100289 C-0.12492326 600.95330018 -0.12326374 595.19560778 -0.11920547 589.43790627 C-0.11318762 580.87632205 -0.11286807 572.31474437 -0.11374746 563.75315842 C-0.11506356 549.35346206 -0.11171163 534.95377027 -0.10573006 520.55407524 C-0.09981982 506.28965673 -0.09596548 492.02524012 -0.09487724 477.76082039 C-0.0948085 476.87501354 -0.09473976 475.98920668 -0.09466894 475.0765572 C-0.09433062 470.57827746 -0.09402923 466.07999772 -0.09374207 461.58171798 C-0.09163978 429.69257956 -0.08489719 397.80344365 -0.07543945 365.91430664 C-0.06626005 334.92797865 -0.05917398 303.94165134 -0.05493164 272.95532227 C-0.05480011 272.00075206 -0.05466859 271.04618186 -0.05453308 270.06268529 C-0.05321459 260.47679237 -0.05193877 250.89089943 -0.05069422 241.3050065 C-0.04815778 221.776178 -0.04533652 202.24734955 -0.04234314 182.71852112 C-0.04220585 181.82055099 -0.04206856 180.92258085 -0.04192711 179.99739951 C-0.03272123 119.9982653 -0.01687543 59.99913248 0 0 Z M15 14 C15 215.63 15 417.26 15 625 C164.43348787 644.83936743 164.43348787 644.83936743 347.1953125 590.96484375 C369.20475513 568.20225408 372.14742355 536.00458939 373.8794235 506.07078695 C373.95966772 504.69266857 374.04186086 503.31466226 374.12602293 501.93677759 C375.07759318 486.07082887 375.15081599 470.21998736 375.14538372 454.33078575 C375.1451765 450.53498356 375.15072861 446.73918857 375.15544128 442.94338989 C375.16368086 435.53367159 375.16649309 428.12396124 375.16705366 420.71423873 C375.16753216 414.67716968 375.16960335 408.64010321 375.17275429 402.60303497 C375.18154362 385.40761267 375.18617652 368.21219656 375.18542381 351.016772 C375.18538386 350.09342474 375.1853439 349.17007748 375.18530273 348.21875 C375.18526185 347.29424751 375.18522097 346.36974502 375.18517885 345.4172273 C375.18477317 330.46436989 375.19432769 315.51153776 375.2084411 300.55868766 C375.22288851 285.12754237 375.22970668 269.69640933 375.22884732 254.26525712 C375.22851816 245.63320486 375.23114008 237.00117908 375.24202538 228.369133 C375.25124152 221.01478172 375.25321652 213.66046891 375.24651595 206.30611429 C375.24330526 202.57131178 375.24298924 198.83658257 375.2518692 195.10178757 C375.2859202 179.79175033 375.00680526 164.54502547 374.070755 149.26275635 C374.02922167 148.58127917 373.98768834 147.899802 373.94489642 147.19767401 C371.63030334 110.04914539 363.8760128 77.1905685 335.75 50.8125 C324.92484525 41.69860417 313.18545545 35.02748053 300 30 C299.32694824 29.73735352 298.65389648 29.47470703 297.96044922 29.20410156 C213.56875381 -3.19109729 90.18179313 14 15 14 Z " fill="#F3E7A1" transform="translate(1034,185)"/>
<path d="M0 0 C61.71 0 123.42 0 187 0 C187 210.87 187 421.74 187 639 C125.29 639 63.58 639 0 639 C0 428.13 0 217.26 0 0 Z M14 14 C14 215.63 14 417.26 14 625 C66.47 625 118.94 625 173 625 C173 423.37 173 221.74 173 14 C120.53 14 68.06 14 14 14 Z " fill="#EED57F" transform="translate(276,185)"/>
<path d="M0 0 C30.68627451 0 30.68627451 0 41 9 C51.88100465 21.08747587 50.1519829 39.00254035 50.14044189 54.24617004 C50.14341302 55.50231053 50.14638414 56.75845101 50.1494453 58.05265635 C50.15740928 61.49585063 50.15929884 64.93902395 50.16004276 68.38222635 C50.1619121 72.11324187 50.16946857 75.84424698 50.17617798 79.57525635 C50.18968631 87.71427462 50.1957743 95.85328792 50.20018864 103.99231553 C50.20296392 109.08789755 50.20720353 114.1834777 50.21169281 119.27905846 C50.22387587 133.42614656 50.23417695 147.57323319 50.2375679 161.72032642 C50.23789725 163.07514312 50.23789725 163.07514312 50.23823325 164.45732985 C50.23856067 165.81512842 50.23856067 165.81512842 50.2388947 167.20035726 C50.23933814 169.03420627 50.23978471 170.86805528 50.24023438 172.7019043 C50.2404558 173.61152948 50.24067723 174.52115466 50.24090537 175.45834424 C50.24484759 190.17456854 50.26228832 204.89074316 50.2855939 219.60694829 C50.30940522 234.76663054 50.32177418 249.92628795 50.32293582 265.08598918 C50.32384713 273.57706108 50.32946067 282.06806821 50.34775543 290.55912209 C50.36328921 297.79347708 50.36819979 305.02774728 50.36001733 312.26211581 C50.35615709 315.94123328 50.35680811 319.62018072 50.37107468 323.29927635 C50.57830281 380.09088854 50.57830281 380.09088854 36.8125 394.25 C25.61917999 401.21473245 12.85041496 402 0 402 C0 269.34 0 136.68 0 0 Z " fill="#F4EAAF" transform="translate(1207,303)"/>
<path d="M0 0 C4.84117526 4.19026094 6.4732782 8.8845535 7.546875 15.046875 C7.89298828 16.93212891 7.89298828 16.93212891 8.24609375 18.85546875 C10.1421735 32.03966775 10.00870926 45.39153269 10.00463867 58.67724609 C10.00763774 60.65185102 10.01104196 62.62645536 10.01481628 64.60105896 C10.02358244 69.92139357 10.0259912 75.24171206 10.02663207 80.5620532 C10.02734655 83.89587919 10.02948831 87.22970117 10.03212929 90.56352615 C10.04135684 102.22171536 10.04546725 113.8798932 10.04467773 125.53808594 C10.04407699 136.36203094 10.05463491 147.1859261 10.0704214 158.00985849 C10.08354151 167.34198659 10.08885979 176.67409848 10.08822232 186.00623572 C10.08796874 191.56273192 10.09074258 197.11918371 10.10140038 202.67567062 C10.11115754 207.90429211 10.11110891 213.13282739 10.10388374 218.3614521 C10.10284745 220.26681839 10.10514309 222.17219027 10.1112442 224.07754707 C10.23624206 265.85938001 10.23624206 265.85938001 0.859375 275.609375 C-7.94984573 280.82536096 -18.1209441 282.17326491 -28.140625 280.609375 C-33.52475592 277.58279253 -37.81525674 273.87989321 -40.18096924 268.04219055 C-46.45682622 245.59262029 -44.55517869 220.67857278 -44.47773838 197.61513162 C-44.46247761 192.17361798 -44.46387117 186.73210457 -44.46307373 181.29057312 C-44.45940402 172.16365126 -44.44455377 163.03680564 -44.421875 153.90991211 C-44.39298242 142.2599635 -44.38264368 130.61007597 -44.3781929 118.96009541 C-44.37418744 108.85488844 -44.36169498 98.74969428 -44.34784603 88.64449668 C-44.34378538 85.43809587 -44.34084066 82.23169549 -44.33805084 79.02529335 C-44.33308752 73.95494356 -44.32277018 68.8846289 -44.30861282 63.81429672 C-44.30416517 61.97391643 -44.30126956 60.13353149 -44.30020523 58.29314613 C-44.29323887 48.43916731 -44.11702136 38.61104596 -43.6774292 28.76603699 C-43.61636297 27.39635787 -43.61636297 27.39635787 -43.55406308 25.99900848 C-42.52606787 4.79527278 -42.52606787 4.79527278 -34.140625 -3.328125 C-23.87961275 -8.77928776 -9.39673122 -5.66910231 0 0 Z " fill="#ECDA94" transform="translate(1660.140625,448.390625)"/>
<path d="M0 0 C12.61168385 1.26116838 12.61168385 1.26116838 17.8125 7 C26.66548785 21.91029533 22.27412045 52.08635169 22.19156539 68.83820224 C22.1764104 72.3896535 22.17349921 75.94112184 22.16879272 79.49259949 C22.15769367 86.40574622 22.13548974 93.31881126 22.10880206 100.23191372 C22.08722159 105.85984552 22.06950453 111.4877775 22.05438805 117.11573029 C22.05220787 117.92373878 22.0500277 118.73174728 22.04778146 119.56424089 C22.04335488 121.20681537 22.03893202 122.84938987 22.03451284 124.49196437 C21.99277204 139.80732357 21.93770131 155.12261277 21.87832262 170.43791226 C21.82463035 184.39082987 21.78738315 198.34373448 21.757924 212.2967225 C21.72736472 226.70316776 21.68584986 241.10954378 21.63263911 255.51592374 C21.6030618 263.5724513 21.5775567 271.62893768 21.56351662 279.68550873 C21.55144811 286.53788324 21.52883423 293.3901301 21.49336074 300.24242488 C21.47560118 303.72503467 21.46216815 307.20749429 21.46190834 310.69015312 C21.4520588 323.67049526 21.21483583 336.49834733 19.65849304 349.39752197 C19.54257083 350.37102466 19.42664861 351.34452735 19.3072136 352.34753013 C17.62317961 364.72467682 17.62317961 364.72467682 13.203125 368.55859375 C12.55859375 368.84863281 11.9140625 369.13867188 11.25 369.4375 C10.61578125 369.74558594 9.9815625 370.05367187 9.328125 370.37109375 C7 371 7 371 0 371 C0 248.57 0 126.14 0 0 Z " fill="#F7E999" transform="translate(1222,318)"/>
<path d="M0 0 C0.33 0 0.66 0 1 0 C1.12004395 0.56283691 1.24008789 1.12567383 1.36376953 1.70556641 C7.23523191 28.80929727 18.4227866 52.73870613 42 69 C51.87622896 75.25949984 61.9948868 80.13180051 73.125 83.6875 C73.79450684 83.90237061 74.46401367 84.11724121 75.15380859 84.33862305 C75.80687988 84.54011963 76.45995117 84.74161621 77.1328125 84.94921875 C77.70918457 85.12799561 78.28555664 85.30677246 78.87939453 85.4909668 C86.28541278 87.26871813 93.61799568 87.14158322 101.19709516 87.12995183 C102.55472522 87.13144706 103.91235487 87.13337925 105.26998376 87.13570711 C109.01329216 87.14085147 112.75657706 87.13976733 116.49988747 87.13769349 C120.58276316 87.13653212 124.66563298 87.14116242 128.74850643 87.14505023 C135.93609829 87.15108734 143.12368396 87.15338618 150.31127825 87.15327708 C161.07156932 87.15312663 171.83185227 87.15867384 182.59214101 87.16532399 C200.92935175 87.17647802 219.26656139 87.18280159 237.60377502 87.18649673 C256.19363793 87.19024959 274.7834983 87.19612099 293.37335968 87.20457458 C295.13291634 87.20537123 295.13291634 87.20537123 296.9280196 87.20618396 C301.70544215 87.20835064 306.4828647 87.21052726 311.26028724 87.2127179 C369.20015507 87.23923104 427.14002468 87.25479051 485.07989681 87.26788078 C503.19777761 87.27197736 521.31565831 87.27635742 539.43353899 87.28095509 C545.46051607 87.28248394 551.48749315 87.28400609 557.51447023 87.28552675 C558.51014608 87.28577797 558.51014608 87.28577797 559.5259366 87.28603427 C627.62821164 87.30320424 695.73048726 87.31894474 834.47382411 87.34038653 C842.39667029 87.34137055 850.31951648 87.34237494 858.24236266 87.34338222 C859.31394917 87.34351838 859.31394917 87.34351838 860.4071839 87.3436573 C874.88149139 87.34549715 889.35579888 87.34735743 903.83010636 87.34924662 C907.45846532 87.34972013 911.08682427 87.35019193 914.71518323 87.35065953 C983.23777873 87.35949432 1051.76036871 87.37264817 1120.28295898 87.40161133 C1121.36486511 87.40206832 1121.36486511 87.40206832 1122.46862792 87.40253455 C1146.45450916 87.41267725 1170.44039015 87.42334836 1194.42627113 87.43407464 C1216.0990267 87.44376501 1237.77178231 87.45333136 1259.44453812 87.4624691 C1260.15652092 87.46276947 1260.86850373 87.46306984 1261.60206177 87.46337931 C1306.19699126 87.482162 1350.79191929 87.49490217 1395.38685226 87.50135231 C1396.42010941 87.50150288 1396.42010941 87.50150288 1397.47424044 87.50165649 C1427.72750499 87.50605795 1457.98076955 87.50915059 1488.23403437 87.51077643 C1500.40534761 87.51143479 1512.57666082 87.51226291 1524.74797404 87.51317524 C1526.76602688 87.51332464 1528.78407972 87.51346775 1530.80213256 87.51360988 C1561.66429386 87.51582074 1592.52644759 87.52199789 1623.38860416 87.53990126 C1624.05397214 87.54028703 1624.71934011 87.5406728 1625.40487075 87.54107026 C1636.77268832 87.54768527 1648.14050566 87.5546694 1659.50832299 87.56167471 C1702.71835479 87.58821475 1745.9283601 87.59896958 1789.13839953 87.58793872 C1795.10887551 87.58641717 1801.07935153 87.58507175 1807.04982758 87.58383179 C1808.22021033 87.58358206 1809.39059309 87.58333233 1810.59644198 87.58307503 C1829.13154942 87.57957951 1847.66660519 87.59289343 1866.20170022 87.61320952 C1884.42579551 87.63283695 1902.64982023 87.63464539 1920.8739188 87.61748323 C1931.5588747 87.60795669 1942.24361341 87.61209857 1952.92854689 87.63650558 C1960.02828912 87.65135471 1967.12787361 87.64800438 1974.22760808 87.62997501 C1978.25012726 87.62026633 1982.2722225 87.61815221 1986.2947114 87.63852822 C2015.92743788 87.77901536 2042.95809857 83.29001659 2066 63 C2066.71285156 62.26007812 2067.42570312 61.52015625 2068.16015625 60.7578125 C2070 59 2070 59 2072 59 C2072.25523437 58.41992188 2072.51046875 57.83984375 2072.7734375 57.2421875 C2074.12224635 54.77653057 2075.66357664 53.13330997 2077.625 51.125 C2089.57690434 37.91500046 2095.1291984 21.04017688 2099 4 C2099.33 4 2099.66 4 2100 4 C2100 32.05 2100 60.1 2100 89 C1407 89 714 89 0 89 C0 59.63 0 30.26 0 0 Z " fill="#FAF4E4" transform="translate(0,920)"/>
<path d="M0 0 C6.68038113 -0.32616689 12.1904016 -0.58464582 18 3 C20.06647257 6.97505476 20.61448691 11.11774951 21.10882568 15.5173645 C21.19308044 16.258561 21.2773352 16.9997575 21.36414313 17.7634145 C22.32856869 27.07053273 22.28017721 36.37548341 22.25878906 45.72216797 C22.26150638 47.74308396 22.26507142 49.76399895 22.26940918 51.78491211 C22.27844864 57.2230494 22.27502381 62.66110995 22.26865101 68.09924841 C22.26354552 73.82382744 22.26829512 79.54840041 22.27142334 85.27297974 C22.27505042 94.88398402 22.27029766 104.49495745 22.26074219 114.10595703 C22.2498663 125.1718922 22.25338205 136.2377536 22.264395 147.30368698 C22.2735113 156.85075088 22.27473184 166.39779276 22.26951766 175.94485962 C22.26642093 181.62658083 22.26592458 187.30826752 22.27259064 192.98998642 C22.27842682 198.3368393 22.27425418 203.68359839 22.26280212 209.03044128 C22.26018845 210.97689281 22.26086315 212.92335241 22.26532745 214.86980057 C22.28531793 224.48219944 22.06989574 233.99123046 21.10882568 243.56130981 C21.03135424 244.35341382 20.95388279 245.14551782 20.87406373 245.96162498 C20.08606195 252.97799845 20.08606195 252.97799845 18 256 C14.22429492 258.10275694 10.95222657 258.21873025 6.6875 258.125 C5.61886719 258.10695313 4.55023437 258.08890625 3.44921875 258.0703125 C2.23685547 258.03550781 2.23685547 258.03550781 1 258 C-2.65000486 250.22390268 -3.14882115 242.95929176 -3.13371277 234.45585632 C-3.13597833 233.51363041 -3.13824388 232.5714045 -3.14057809 231.60062629 C-3.14689215 228.45338347 -3.14609039 225.30618399 -3.14526367 222.15893555 C-3.14825677 219.89829452 -3.15165965 217.637654 -3.15544128 215.37701416 C-3.16426995 209.24265262 -3.16661892 203.10830503 -3.16725707 196.97393775 C-3.1679682 193.13969067 -3.17010371 189.30544714 -3.17275429 185.47120094 C-3.18152667 172.78024244 -3.18617447 160.08929556 -3.18542381 147.39833476 C-3.18536388 146.37321838 -3.18536388 146.37321838 -3.18530273 145.32739258 C-3.18526185 144.64314218 -3.18522097 143.95889178 -3.18517885 143.25390653 C-3.18477251 132.16776646 -3.19434053 121.08166039 -3.2084411 109.99553015 C-3.22282282 98.59795089 -3.22952738 87.20039508 -3.22884732 75.80280524 C-3.22859257 69.40972199 -3.23143151 63.0166772 -3.24202538 56.62360191 C-3.25171914 50.60962931 -3.25177671 44.59573187 -3.24450874 38.58175659 C-3.24346451 36.37835899 -3.2458162 34.17495669 -3.2518692 31.97156715 C-3.25961486 28.95598856 -3.25492725 25.94066786 -3.24723816 22.9250946 C-3.2549535 21.6277359 -3.2549535 21.6277359 -3.26282471 20.30416793 C-3.22358016 13.30436696 -2.21716601 6.65149803 0 0 Z " fill="#EDD273" transform="translate(1634,457)"/>
<path d="M0 0 C0.33 0 0.66 0 1 0 C1 28.05 1 56.1 1 85 C-32 85 -65 85 -99 85 C-99 84.67 -99 84.34 -99 84 C-98.20980469 83.98582031 -97.41960937 83.97164062 -96.60546875 83.95703125 C-73.03823585 82.96047397 -47.42808738 73.97598943 -30.83984375 56.7578125 C-29 55 -29 55 -27 55 C-26.74476563 54.41992188 -26.48953125 53.83984375 -26.2265625 53.2421875 C-24.87775365 50.77653057 -23.33642336 49.13330997 -21.375 47.125 C-9.42309566 33.91500046 -3.8708016 17.04017688 0 0 Z " fill="#FEFEFD" transform="translate(2099,924)"/>
<path d="M0 0 C26.4 0 52.8 0 80 0 C76.8034249 1.59828755 74.12792796 2.61539583 70.75 3.625 C58.41157289 7.69261333 47.0752175 13.79230724 37 22 C36.17242187 22.66386719 35.34484375 23.32773437 34.4921875 24.01171875 C14.97457307 40.56192158 5.46045565 62.26474594 1 87 C0.67 87 0.34 87 0 87 C0 58.29 0 29.58 0 0 Z " fill="#FEFEFD" transform="translate(0,0)"/>
<path d="M0 0 C26.73 0 53.46 0 81 0 C81 27.39 81 54.78 81 83 C80.67 83 80.34 83 80 83 C79.84144531 82.12859375 79.68289062 81.2571875 79.51953125 80.359375 C76.23551841 63.59458017 69.1569684 48.03208914 58 35 C57.34515625 34.20078125 56.6903125 33.4015625 56.015625 32.578125 C45.91802338 20.71160047 34.05064361 13.31455159 20 7 C19.04738281 6.566875 18.09476563 6.13375 17.11328125 5.6875 C11.53771189 3.30672313 5.97730658 1.96654319 0 1 C0 0.67 0 0.34 0 0 Z " fill="#FEFEFD" transform="translate(2019,0)"/>
</svg>
