<?xml version="1.0" encoding="UTF-8"?>
<svg version="1.1" xmlns="http://www.w3.org/2000/svg" width="3334" height="1000">
<path d="M0 0 C43.23 0 86.46 0 131 0 C151.93784057 39.78189709 151.93784057 39.78189709 160.00024414 56.01977539 C162.88083785 61.80631741 165.84041139 67.54286962 168.875 73.25 C172.87425464 80.77290488 176.70751634 88.37091479 180.5 96 C184.65128225 104.35080016 188.88141009 112.64620886 193.26171875 120.87890625 C197.15283798 128.2218248 200.84402464 135.66073253 204.54150391 143.10253906 C207.59661534 149.23624021 210.71886551 155.32564462 213.9375 161.375 C218.50817359 169.96727275 222.84905534 178.66731261 227.18115234 187.38183594 C230.7782698 194.60148469 234.47311792 201.7583112 238.26171875 208.87890625 C242.09304339 216.10898661 245.74378325 223.42616185 249.36352539 230.76416016 C251.90325509 235.89012983 254.50578013 240.97615129 257.18717957 246.02908325 C264.92238907 260.60832792 272.30646623 275.36433572 279.6875 290.125 C280.04407433 290.83800137 280.40064865 291.55100273 280.76802826 292.2856102 C290.88716912 312.52775703 300.95355615 332.75652862 309.93499756 353.53686523 C311.19669171 356.45490804 312.46288769 359.37098259 313.72900391 362.28710938 C320.18929123 377.17570941 326.60931311 392.08140289 333 407 C337.62836467 397.26243598 342.00036537 387.44452796 346.19436646 377.51275635 C361.04809937 342.3947227 377.82374462 308.158523 394.89697266 274.07568359 C396.45466736 270.96605162 398.00865674 267.85458389 399.56175995 264.74265671 C405.87971025 252.08717777 412.27049312 239.47880109 418.89941406 226.98291016 C421.6959251 221.70295838 424.35693491 216.3580632 427 211 C430.56097525 203.82777422 434.17621419 196.69425704 437.9375 189.625 C441.91690436 182.14423661 445.72820204 174.58741582 449.5 167 C453.65128499 158.64920132 457.88141008 150.35379115 462.26171875 142.12109375 C465.61215571 135.79849496 468.81622018 129.40789894 472 123 C475.56304219 115.82877097 479.17618477 108.69431233 482.9375 101.625 C486.91690437 94.14423658 490.72819953 86.58741451 494.5 79 C498.62803622 70.69603157 502.83424222 62.44747282 507.19140625 54.26171875 C511.32119614 46.46690632 515.23099331 38.56475477 519.15722656 30.66601562 C523.95768195 21.03079546 528.94570346 11.50380546 534 2 C534.33 1.34 534.66 0.68 535 0 C578.56 0 622.12 0 667 0 C667 208.56 667 417.12 667 632 C628.06 632 589.12 632 549 632 C548.95565934 592.13604329 548.91882879 552.2721104 548.89786934 512.40813597 C548.89536882 507.66963292 548.89278009 502.93112992 548.89013672 498.19262695 C548.88934979 496.77798554 548.88934979 496.77798554 548.88854696 495.33476552 C548.87991541 480.1936246 548.8641869 465.05249935 548.84569441 449.91136763 C548.8267909 434.29999136 548.81584085 418.68862312 548.81182301 403.07723588 C548.8093582 394.34027193 548.80352904 385.60334052 548.78853989 376.86638832 C548.70397598 326.03448422 549.3319644 275.35294879 553.39685059 224.65185547 C553.62667541 221.75304799 553.84619792 218.8534909 554.06573582 215.95388889 C554.33307323 212.42860591 554.60564719 208.90373441 554.87890625 205.37890625 C555.0258065 203.47643883 555.0258065 203.47643883 555.17567444 201.53553772 C555.31603371 199.78073341 555.31603371 199.78073341 555.45922852 197.99047852 C555.53979996 196.97341324 555.6203714 195.95634796 555.7033844 194.90846252 C556.00920388 191.90975143 556.47314582 188.96718247 557 186 C556.01 186 555.02 186 554 186 C553.47599609 187.68802734 553.47599609 187.68802734 552.94140625 189.41015625 C550.32839776 197.23094082 547.07937446 204.81824218 543.9375 212.4375 C543.59085297 213.28003326 543.24420593 214.12256653 542.88705444 214.9906311 C530.99534922 243.87483182 518.90019334 272.68797507 505.47509766 300.8984375 C504.0294308 303.93811836 502.59780885 306.98409857 501.16796875 310.03125 C490.64675164 332.32646832 479.22988124 354.20075837 467.69482422 375.98583984 C463.91441945 383.1319827 460.20865284 390.31646843 456.5 397.5 C451.96051248 406.29198145 447.40056979 415.07198579 442.77734375 423.8203125 C439.1490361 430.69500068 435.5736446 437.59676923 432 444.5 C428.02427164 452.17964835 424.03867915 459.85325473 420 467.5 C415.39345809 476.22355509 410.8537076 484.98122891 406.31689453 493.74121094 C401.05424266 503.90131032 395.76524137 514.04747377 390.46777344 524.18945312 C387.9770138 528.95885182 385.48864238 533.7294963 383 538.5 C382.00001112 540.41667247 381.00001113 542.33333914 380 544.25 C379.505 545.19875 379.01 546.1475 378.5 547.125 C373 557.66666667 367.5 568.20833333 362 578.75 C361.50459717 579.69955566 361.00919434 580.64911133 360.4987793 581.62744141 C359.50295965 583.53602815 358.50702941 585.44455719 357.51098633 587.35302734 C354.94609764 592.26783942 352.38338361 597.18376728 349.82421875 602.1015625 C344.61642414 612.10461333 339.3977345 622.09781805 334 632 C331.03606566 629.42780205 329.54695387 626.5065929 327.77734375 623.03125 C327.47594482 622.44366913 327.1745459 621.85608826 326.86401367 621.2507019 C325.88333461 619.33639752 324.91052094 617.41820645 323.9375 615.5 C323.25596088 614.16713707 322.57374578 612.83461957 321.89086914 611.50244141 C320.86852633 609.507931 319.84653099 607.51325449 318.8266449 605.51748657 C316.23614801 600.44900687 313.60241836 595.40477155 310.9375 590.375 C306.34949273 581.69410109 301.83211679 572.97710738 297.31665039 564.25830078 C292.05406199 554.09837345 286.76515714 543.95236497 281.46777344 533.81054688 C278.9770138 529.04114818 276.48864238 524.2705037 274 519.5 C273.00001112 517.58332753 272.00001113 515.66666086 271 513.75 C265 502.25 259 490.75 253 479.25 C252.2577417 477.8273584 252.2577417 477.8273584 251.50048828 476.37597656 C250.49881619 474.4560779 249.49718871 472.53615596 248.49560547 470.61621094 C246.02155056 465.87380364 243.54676427 461.13178116 241.0703125 456.390625 C235.65433193 446.01944519 230.25574775 435.63950754 224.875 425.25 C220.55453932 416.90841232 216.2131229 408.57893521 211.82324219 400.27368164 C209.42490518 395.72897865 207.0515704 391.17214657 204.6953125 386.60546875 C199.3014004 376.15266551 193.88884604 365.72634972 188.1875 355.4375 C174.82788458 331.1809752 163.01353875 306.15359769 151.73486328 280.87548828 C150.11122308 277.24054193 148.46256941 273.61734869 146.80859375 269.99609375 C140.15235313 255.37565396 133.83236689 240.62823699 127.625 225.8125 C127.24604584 224.90929016 126.86709167 224.00608032 126.47665405 223.07550049 C119.80485383 207.15380861 119.80485383 207.15380861 116.97558594 199.73193359 C116.49670425 198.47675179 116.49670425 198.47675179 116.00814819 197.19621277 C115.40709377 195.60952177 114.812544 194.02034674 114.22549438 192.42842102 C112.99948183 188.49694168 112.99948183 188.49694168 110 186 C110.05819916 186.71883865 110.11639832 187.43767731 110.17636108 188.17829895 C114.62088398 243.20447662 114.62088398 243.20447662 115.7421875 263.16796875 C115.78546173 263.93385818 115.82873596 264.69974762 115.87332153 265.48884583 C118.29975678 311.6107959 118.14743673 357.83703597 118.10353849 404.007397 C118.09620491 411.93552552 118.0948719 419.86365237 118.09374207 427.7917838 C118.09157983 441.91807701 118.08499863 456.04436429 118.07543945 470.1706543 C118.06619064 483.85294567 118.05914689 497.53523541 118.05493164 511.2175293 C118.05466892 512.06789757 118.05440619 512.91826584 118.05413551 513.79440285 C118.05283001 518.06253834 118.05156641 522.33067385 118.05032361 526.59880936 C118.04003956 561.73254486 118.02165068 596.86626931 118 632 C79.06 632 40.12 632 0 632 C0 423.44 0 214.88 0 0 Z " fill="#000000" transform="translate(0,354)"/>
<path d="M0 0 C80.0353125 -0.061875 80.0353125 -0.061875 161.6875 -0.125 C178.51580811 -0.14320801 195.34411621 -0.16141602 212.68237305 -0.18017578 C233.28088379 -0.18920898 233.28088379 -0.18920898 242.9334259 -0.19088745 C249.65418408 -0.1927457 256.37490867 -0.20005302 263.09565735 -0.21115112 C270.86196169 -0.22395663 278.62823404 -0.22965454 286.394549 -0.2268899 C290.36028907 -0.22569428 294.32595779 -0.22747863 298.29168451 -0.23843026 C318.25543597 -0.29090335 338.12744658 -0.02922992 357.8125 3.6875 C358.70445068 3.85483643 359.59640137 4.02217285 360.51538086 4.19458008 C394.58350221 10.92185862 427.19471715 24.87420048 452.671875 48.82421875 C454.48568315 50.51933811 456.3022971 52.09246535 458.25 53.625 C470.35407515 64.07851945 479.69308153 78.92851695 487 93 C487.33628418 93.64130859 487.67256836 94.28261719 488.01904297 94.94335938 C507.33160029 132.28036545 510.78755093 179.19482377 499.15234375 219.45703125 C491.89834389 241.76000709 479.53028433 259.57227256 464 277 C463.39542969 277.67933594 462.79085938 278.35867188 462.16796875 279.05859375 C457.87981128 283.58558531 452.91468146 287.31454118 447.97314453 291.09448242 C444.76087494 293.558525 441.78834941 296.04559504 439 299 C439.70769531 299.25523437 440.41539062 299.51046875 441.14453125 299.7734375 C454.24821999 305.40210817 465.69637131 316.35666347 476 326 C476.93714844 326.87140625 477.87429688 327.7428125 478.83984375 328.640625 C511.18618857 359.42242904 526.70848713 400.8658879 528 445 C528.77666094 490.9486976 516.35237495 536.64056784 484.2265625 570.59765625 C481.99229088 572.92730518 481.99229088 572.92730518 480.2109375 575.37109375 C450.0744833 611.20472215 396.57562285 627.37675614 351.69527531 631.28800106 C336.97109703 632.31436449 322.21749115 632.13559389 307.46618168 632.11607273 C303.27213272 632.11166429 299.07808481 632.11317007 294.88403416 632.11389065 C286.76545055 632.11441946 278.64687812 632.10983004 270.52829737 632.10338932 C261.12534985 632.09615479 251.72240892 632.09539268 242.31945801 632.09460449 C217.52547025 632.08936626 192.73148495 632.07540503 167.9375 632.0625 C112.518125 632.041875 57.09875 632.02125 0 632 C0 423.44 0 214.88 0 0 Z M118 100 C118 151.81 118 203.62 118 257 C151.83885674 257.08748109 151.83885674 257.08748109 185.67773438 257.14648438 C199.48790856 257.16424763 213.29802762 257.18506821 227.1081543 257.22631836 C237.16842274 257.25635338 247.22864622 257.27560628 257.28895825 257.28226548 C262.60880078 257.28615399 267.92851475 257.29520119 273.24831581 257.31719017 C278.27074952 257.33777888 283.29300355 257.34378931 288.31547546 257.33932304 C290.14420745 257.34013836 291.97294639 257.34596913 293.80164146 257.35761642 C319.65884769 257.51401947 345.28320963 253.80415174 364.76171875 235.2265625 C365.50035156 234.49179687 366.23898437 233.75703125 367 233 C367.62519531 232.40960937 368.25039062 231.81921875 368.89453125 231.2109375 C383.22722343 216.52235454 387.25843186 194.26687258 387.2487793 174.57177734 C387.01541109 157.07419866 382.92008996 140.96339372 372 127 C371.278125 125.989375 370.55625 124.97875 369.8125 123.9375 C356.04303863 108.21366347 334.30168509 102.13219663 314.23038101 100.20471382 C306.88267167 99.73907907 299.5074201 99.87114295 292.14794922 99.88647461 C290.24502056 99.88675703 288.3420918 99.88659768 286.43916321 99.8860321 C281.29734774 99.88574627 276.1555558 99.89160841 271.01374578 99.89860606 C265.63124557 99.90487522 260.24874476 99.90544621 254.86624146 99.90663147 C244.68447871 99.9097343 234.50272675 99.91793353 224.32096875 99.92798096 C210.55474103 99.94126947 196.78851035 99.94665047 183.02227783 99.95248318 C161.34817715 99.96187414 139.67409923 99.98180007 118 100 Z M118 357 C118 414.75 118 472.5 118 532 C154.10058158 532.05832424 154.10058158 532.05832424 190.20117188 532.09765625 C204.93515423 532.10949669 219.66911362 532.12337223 234.40307617 532.15087891 C245.13650192 532.17090735 255.86990893 532.18373872 266.60335284 532.18817699 C272.27869509 532.19076846 277.95398375 532.1967944 283.6293087 532.21146011 C288.98823922 532.22519397 294.34709489 532.22919126 299.70604134 532.22621536 C301.65648177 532.22675855 303.60692513 532.23064071 305.55735016 532.23841095 C333.80403825 532.34527244 363.27036563 531.02877172 385.54296875 511.4609375 C404.1792261 492.79505176 409.2761217 468.80833394 409.3190918 443.26977539 C409.17578622 428.46122443 406.56510883 415.37904102 400 402 C399.54753906 401.06800781 399.09507812 400.13601563 398.62890625 399.17578125 C389.61403788 381.6590858 375.90138459 368.77202249 357.33984375 362.0625 C346.30844198 358.55309499 335.41658809 356.83840932 323.87573242 356.87974548 C322.99093327 356.87889106 322.10613411 356.87803663 321.19452286 356.87715632 C318.24815048 356.87551736 315.30183583 356.88099682 312.35546875 356.88647461 C310.23608908 356.88675685 308.11670932 356.88659803 305.99732971 356.8860321 C300.25624241 356.88574557 294.51517607 356.89161914 288.77409363 356.89860606 C282.76964423 356.90486346 276.76519434 356.90544529 270.76074219 356.90663147 C259.39602008 356.90973774 248.03130761 356.91794166 236.66658974 356.92798096 C221.30550933 356.94125557 205.94442629 356.94664769 190.5833416 356.95248318 C166.38888718 356.96188201 142.1944531 356.98180564 118 357 Z " fill="#000000" transform="translate(1350,354)"/>
<path d="M0 0 C38.94 0 77.88 0 118 0 C118.01981934 12.47731934 118.03963867 24.95463867 118.06005859 37.81005859 C118.1249167 77.76887849 118.19945266 117.72767512 118.28005161 157.68646624 C118.29256993 163.89709714 118.30500279 170.1077282 118.31738281 176.31835938 C118.31984881 177.55474292 118.3223148 178.79112646 118.32485552 180.06497617 C118.36453934 200.0634748 118.39730603 220.06197904 118.42749982 240.06049399 C118.45865431 260.59292307 118.49728073 281.12532837 118.54279006 301.6577307 C118.57061983 314.31918932 118.59267668 326.98063063 118.60726251 339.64211155 C118.61783459 348.33390688 118.63568857 357.0256686 118.65916704 365.71743856 C118.67248481 370.72613696 118.68268963 375.73478843 118.68421364 380.74350548 C118.68568386 385.3409471 118.69642284 389.93827599 118.71413441 394.53568287 C118.71893281 396.18739898 118.72050466 397.8391288 118.71827881 399.49085037 C118.70155316 414.35685428 119.6185536 429.21468527 123.25 443.6875 C123.46688477 444.56631836 123.68376953 445.44513672 123.90722656 446.35058594 C128.73811208 465.18622918 137.59799987 483.01334485 150 498 C150.68449219 498.84820313 151.36898437 499.69640625 152.07421875 500.5703125 C174.42965404 526.93402362 210.1489378 540.79077879 243.90234375 543.7890625 C275.73325612 545.95661517 306.18700553 542.0535541 335 528 C335.99257812 527.51789062 336.98515625 527.03578125 338.0078125 526.5390625 C368.0504567 511.04698671 387.62047322 483.56212306 397.75 452 C402.79109598 435.58412334 404.14869828 419.08808285 404.15821838 402.010849 C404.16278876 400.274789 404.16778948 398.53873009 404.17318195 396.80267245 C404.18671823 392.04574955 404.1941683 387.28883378 404.20060861 382.53189671 C404.20863243 377.39702914 404.22232336 372.26217629 404.23532104 367.12731934 C404.25705571 358.2353302 404.27521118 349.34333955 404.29092598 340.45133781 C404.31365205 327.59504308 404.34179107 314.73876466 404.37124526 301.88248379 C404.41888763 281.02330695 404.46216089 260.16412343 404.50268555 239.30493164 C404.54205755 219.04385865 404.58348786 198.78279158 404.62768555 178.52172852 C404.63177196 176.64794856 404.63177196 176.64794856 404.63594092 174.73631447 C404.64962068 168.46942425 404.66334089 162.20253412 404.67708123 155.93564403 C404.7909933 103.95710766 404.89700921 51.97855938 405 0 C443.94 0 482.88 0 523 0 C523.06621077 53.62359652 523.12157463 107.24715429 523.15319599 160.87078002 C523.15694784 167.21015876 523.16083083 173.54953741 523.16479492 179.88891602 C523.16558185 181.15090354 523.16636878 182.41289106 523.16717956 183.71312063 C523.18021215 204.11242019 523.20385411 224.51169423 523.23145839 244.91097868 C523.25957243 265.86264807 523.27618891 286.81430415 523.28226548 307.76599163 C523.2863695 320.68082194 523.29930349 333.5955801 523.3237494 346.51038819 C523.33968073 355.38208663 523.34438372 364.25374811 523.34050413 373.1254598 C523.33859404 378.23405573 523.34139695 383.34252613 523.35761642 388.4510994 C523.47790881 428.3625617 523.47790881 428.3625617 520 447 C519.81843491 447.98267038 519.63686982 448.96534077 519.44980276 449.97778904 C511.39824816 493.066578 492.70267957 532.29055141 463.08984375 564.6875 C461.31643159 566.64985514 459.61849755 568.64661409 457.9375 570.6875 C454.63965932 574.54991667 450.87516541 577.73232752 447 581 C446.07445312 581.81339844 445.14890625 582.62679687 444.1953125 583.46484375 C430.32915588 595.5850065 415.37063933 605.58436841 399 614 C398.1961084 614.41491699 397.3922168 614.82983398 396.56396484 615.25732422 C354.64602454 636.63966639 309.27974044 645.22139684 262.5 645.25 C261.50511566 645.25067474 260.51023132 645.25134949 259.48519897 645.25204468 C225.69032449 645.21578081 193.10331509 640.81879197 161 630 C160.29294922 629.76732422 159.58589844 629.53464844 158.85742188 629.29492188 C140.06111733 623.04193079 121.4954626 613.96883845 105 603 C103.98848877 602.32783447 103.98848877 602.32783447 102.95654297 601.64208984 C81.18038609 587.01409631 61.45642333 569.28058285 46 548 C45.25878906 547.00355469 44.51757812 546.00710938 43.75390625 544.98046875 C13.76061475 503.33203011 -0.43435419 452.77621872 -0.24050903 401.77033997 C-0.24138399 400.02152513 -0.24314027 398.27271055 -0.24568737 396.52389735 C-0.25010799 391.77812942 -0.24223112 387.03245371 -0.23213124 382.28669751 C-0.22342175 377.14656105 -0.22642216 372.006429 -0.22793579 366.86628723 C-0.22897994 357.98045959 -0.22275276 349.09466153 -0.21146011 340.20884132 C-0.19514394 327.36174589 -0.18999087 314.51466462 -0.18748413 301.66755994 C-0.18311659 280.81946221 -0.16983311 259.97138021 -0.15087891 239.12329102 C-0.13249569 218.88208087 -0.11835116 198.64087502 -0.10986328 178.3996582 C-0.10933783 177.15011181 -0.10881239 175.90056541 -0.10827102 174.61315397 C-0.10566077 168.34398613 -0.1031334 162.07481825 -0.10064721 155.80565035 C-0.07994402 103.87041959 -0.04309014 51.93521796 0 0 Z " fill="#000000" transform="translate(748,354)"/>
<path d="M0 0 C38.94 0 77.88 0 118 0 C118 208.56 118 417.12 118 632 C79.06 632 40.12 632 0 632 C0 423.44 0 214.88 0 0 Z " fill="#000000" transform="translate(1952,354)"/>
<path d="M0 0 C1.2694043 0.00491455 2.53880859 0.0098291 3.84667969 0.01489258 C13.78130786 0.13815884 23.16154179 0.97528663 32.8125 3.3125 C33.49070801 3.4681543 34.16891602 3.62380859 34.86767578 3.78417969 C52.59019368 7.96547541 69.44716278 16.16357757 83.8125 27.3125 C84.7509375 28.03050781 85.689375 28.74851562 86.65625 29.48828125 C115.54997058 52.33542266 134.26508487 85.20471632 138.61401367 121.89306641 C141.61438692 158.46588176 133.69149608 195.12526967 110.3125 224.125 C108.82319096 225.86338314 107.32343841 227.59288304 105.8125 229.3125 C105.11640625 230.14136719 104.4203125 230.97023438 103.703125 231.82421875 C80.81915737 258.42474317 46.56968595 274.47396739 11.8125 277.3125 C-26.2509184 279.19689982 -61.88011083 269.03550138 -90.75 243.5 C-93.96836274 240.50702749 -97.12117649 237.46169712 -100.1875 234.3125 C-100.93 233.63767578 -100.93 233.63767578 -101.6875 232.94921875 C-124.1903109 211.95701321 -136.81371869 178.06181966 -138.3137207 147.76293945 C-139.38828346 110.63082643 -129.52177708 76.81295682 -105.1875 48.3125 C-104.52492188 47.51585937 -103.86234375 46.71921875 -103.1796875 45.8984375 C-77.46727147 16.01131186 -39.14469992 -0.18078877 0 0 Z " fill="#000000" transform="translate(2839.1875,353.6875)"/>
<path d="M0 0 C0.77601563 0.66257812 1.55203125 1.32515625 2.3515625 2.0078125 C3.14820312 2.67039062 3.94484375 3.33296875 4.765625 4.015625 C30.98168669 26.56976061 46.47527894 58.88542827 50.3515625 93.0078125 C50.63166965 97.74128987 50.68595859 102.4543327 50.6640625 107.1953125 C50.65914795 108.4647168 50.6542334 109.73412109 50.64916992 111.04199219 C50.52590366 120.97662036 49.68877587 130.35685429 47.3515625 140.0078125 C47.1959082 140.68602051 47.04025391 141.36422852 46.87988281 142.06298828 C42.69858709 159.78550618 34.50048493 176.64247528 23.3515625 191.0078125 C22.63355469 191.94625 21.91554688 192.8846875 21.17578125 193.8515625 C-1.67136016 222.74528308 -34.54065382 241.46039737 -71.22900391 245.80932617 C-107.80181926 248.80969942 -144.46120717 240.88680858 -173.4609375 217.5078125 C-175.19932064 216.01850346 -176.92882054 214.51875091 -178.6484375 213.0078125 C-179.47730469 212.31171875 -180.30617188 211.615625 -181.16015625 210.8984375 C-207.76068067 188.01446987 -223.80990489 153.76499845 -226.6484375 119.0078125 C-228.53283732 80.9443941 -218.37143888 45.31520167 -192.8359375 16.4453125 C-189.84296499 13.22694976 -186.79763462 10.07413601 -183.6484375 7.0078125 C-183.15359863 6.49468506 -182.65875977 5.98155762 -182.14892578 5.45288086 C-134.75125452 -43.35666524 -50.74383459 -42.14878769 0 0 Z " fill="#000000" transform="translate(2927.6484375,738.9921875)"/>
<path d="M0 0 C27.80362699 23.67873068 44.25562131 58.40695655 47.28417969 94.56884766 C49.31758471 132.65184414 37.7688102 168.9370188 12.28417969 197.56884766 C-12.29918076 224.43719994 -45.6186454 241.9505387 -82.37524414 243.69506836 C-124.40216726 244.8487486 -158.90078344 231.56283197 -189.95019531 203.55322266 C-206.73200307 187.57694167 -218.7037024 165.93638776 -225.09082031 143.81884766 C-225.32945801 142.99255859 -225.5680957 142.16626953 -225.81396484 141.31494141 C-229.05684208 129.40328823 -230.08256191 117.70106581 -230.02832031 105.38134766 C-230.02583282 104.70187073 -230.02334534 104.0223938 -230.02078247 103.32232666 C-229.81310191 66.53643557 -215.94263175 34.30041627 -190.71582031 7.56884766 C-190.04292969 6.83150391 -189.37003906 6.09416016 -188.67675781 5.33447266 C-138.85040561 -47.29111282 -53.32327701 -44.47652957 0 0 Z " fill="#000000" transform="translate(3286.7158203125,387.43115234375)"/>
<path d="M0 0 C4.21162101 3.4494827 8.10910961 7.19703933 12 11 C12.85078125 11.78890625 13.7015625 12.5778125 14.578125 13.390625 C40.15860664 37.68403838 52.67621904 72.27062521 54.125 106.99609375 C54.88534133 145.06068162 40.43220516 180.55094978 14.35864258 208.04370117 C-10.78568209 233.73754515 -45.81572724 248.49864228 -81.62866211 249.28125 C-121.35009473 249.67893036 -156.58438636 235.03565336 -185 207.375 C-209.97248802 182.29778864 -223.52930584 147.48966448 -224.0390625 112.30371094 C-223.96755111 87.14064076 -217.96155001 64.09332286 -206 42 C-205.50628906 41.08476562 -205.01257812 40.16953125 -204.50390625 39.2265625 C-187.2670602 9.04987452 -158.08666001 -13.00057701 -125 -23 C-81.64461558 -34.58253336 -35.95096832 -27.49072922 0 0 Z " fill="#000000" transform="translate(2569,382)"/>
<path d="M0 0 C0.92941406 0.70769531 1.85882812 1.41539062 2.81640625 2.14453125 C31.75300232 24.98921236 50.30223378 57.33565732 54.984375 93.93798828 C59.07212325 129.51792938 50.63672459 166.86595009 28.2421875 195.3046875 C24.61729123 199.66214121 20.89707047 203.88392062 17 208 C16.16855469 208.89589844 15.33710938 209.79179688 14.48046875 210.71484375 C-7.38987481 233.54581734 -39.5807602 248.60337317 -71.27880859 250.16113281 C-101.20437628 250.5340641 -101.20437628 250.5340641 -115 247 C-115.68771484 246.82839355 -116.37542969 246.65678711 -117.08398438 246.47998047 C-151.02543796 237.85589179 -181.28943557 216.84837999 -200 187 C-200.38881348 186.38044434 -200.77762695 185.76088867 -201.17822266 185.12255859 C-220.83849915 153.21409995 -226.61146879 115.25525361 -218.22265625 78.74609375 C-209.27720128 42.75215762 -186.6276635 11.85220591 -155.015625 -7.4765625 C-107.34015614 -35.68459664 -44.38773243 -34.13982642 0 0 Z " fill="#000000" transform="translate(2567,735)"/>
<path d="M0 0 C0.77146362 0.00021149 1.54292725 0.00042297 2.33776855 0.00064087 C14.61786236 0.03419565 26.15302477 0.92246914 38 4.375 C38.66257812 4.55691895 39.32515625 4.73883789 40.0078125 4.92626953 C61.1320394 10.81222817 81.10112178 22.58148935 96.60400391 37.99804688 C97.850486 39.22752554 99.1321049 40.4211454 100.41796875 41.609375 C121.264186 61.23802558 133.05167503 88.58610157 138 116.375 C138.19078125 117.40753906 138.3815625 118.44007812 138.578125 119.50390625 C142.54840998 155.93494717 134.46996803 192.9795149 111.7734375 222.24609375 C109.54981137 224.98658281 107.28556664 227.68609807 105 230.375 C104.46375 231.035 103.9275 231.695 103.375 232.375 C99.66051284 236.89698437 95.52324958 240.67144969 91 244.375 C90.06285156 245.14972656 89.12570313 245.92445313 88.16015625 246.72265625 C68.4478544 262.65370664 44.20871579 273.29114572 19 276.375 C18.12472656 276.48585938 17.24945312 276.59671875 16.34765625 276.7109375 C-19.54084108 280.61071548 -55.62612955 270.7764329 -84.19140625 248.66015625 C-88.61920565 245.05756564 -92.84572536 241.28814759 -97 237.375 C-97.72574219 236.7253125 -98.45148437 236.075625 -99.19921875 235.40625 C-122.50162696 213.6517576 -136.62742941 179.26787583 -138.12646484 147.71289062 C-139.23679649 107.17517735 -127.0627539 71.58708655 -99.44921875 41.60546875 C-82.03027189 23.58152229 -61.18816342 11.8611049 -37.3125 4.625 C-36.66023438 4.42608154 -36.00796875 4.22716309 -35.3359375 4.0222168 C-23.66212341 0.65443702 -12.07370622 -0.03056757 0 0 Z " fill="#000000" transform="translate(2839,-0.375)"/>
<path d="M0 0 C0.74523926 0.20367188 1.49047852 0.40734375 2.25830078 0.6171875 C18.87193521 5.23465913 34.5997269 13.11479317 48 24 C48.76038574 24.60448975 48.76038574 24.60448975 49.53613281 25.22119141 C76.87561088 47.02553219 95.84364454 78.36035264 100.69921875 113.28125 C100.79847656 114.1784375 100.89773438 115.075625 101 116 C101.10957031 116.9796875 101.21914062 117.959375 101.33203125 118.96875 C104.7740403 154.58207033 95.35386317 191.99998358 72.5546875 220.01953125 C71.71164063 221.00308594 70.86859375 221.98664063 70 223 C69.57106445 223.5057959 69.14212891 224.0115918 68.70019531 224.53271484 C45.14268069 252.09797566 11.83352111 269.27998197 -24.3125 272.75 C-26.20712002 272.85744042 -28.10326955 272.94048458 -30 273 C-31.05832031 273.03996094 -32.11664062 273.07992188 -33.20703125 273.12109375 C-55.83776305 273.56077654 -77.71124423 269.04538293 -98 259 C-98.63776367 258.69191406 -99.27552734 258.38382812 -99.93261719 258.06640625 C-109.49849162 253.41143252 -117.88637339 247.87223919 -126 241 C-126.51159668 240.56816406 -127.02319336 240.13632813 -127.55029297 239.69140625 C-154.70651675 216.47124154 -172.59829171 182.84600641 -175.40234375 147.0859375 C-177.77684115 112.02148439 -169.42963094 76.71182874 -147 49 C-146.55253418 48.44715332 -146.10506836 47.89430664 -145.64404297 47.32470703 C-125.87383269 23.09942429 -101.10439529 7.34166756 -71 -1 C-70.32952637 -1.19207031 -69.65905273 -1.38414063 -68.96826172 -1.58203125 C-47.88340379 -7.32596967 -20.79477327 -6.02504497 0 0 Z " fill="#000000" transform="translate(2521,4)"/>
</svg>
