<?xml version="1.0" encoding="UTF-8"?>
<svg version="1.1" xmlns="http://www.w3.org/2000/svg" width="3842" height="868">
<path d="M0 0 C28.38 0 56.76 0 86 0 C85.0859462 4.57026902 83.68661618 8.36637987 81.81640625 12.578125 C81.48956848 13.32491013 81.16273071 14.07169525 80.82598877 14.84111023 C79.74284912 17.31282833 78.65268322 19.78138143 77.5625 22.25 C76.79666564 23.99402294 76.03129288 25.73824863 75.26635742 27.48266602 C73.66147815 31.1402297 72.05365644 34.79647854 70.44335938 38.45166016 C68.07685082 43.82357812 65.71716618 49.19846994 63.359375 54.57421875 C60.72378066 60.58241221 58.08686561 66.5900204 55.44746399 72.59654236 C48.94699882 87.38984911 42.47303011 102.19466518 36 117 C53.49 117.33 70.98 117.66 89 118 C85.92681851 127.21954446 81.94695643 136.11934803 78 145 C59.52 145 41.04 145 22 145 C21.01 147.97 20.02 150.94 19 154 C17.75079035 156.99413741 16.47745902 159.95651348 15.1484375 162.9140625 C14.77739395 163.74921387 14.4063504 164.58436523 14.02406311 165.44482422 C13.22678894 167.23835822 12.42769078 169.03108234 11.62692261 170.82305908 C9.47062754 175.64908533 7.32822256 180.48128111 5.18359375 185.3125 C4.74618362 186.29683014 4.3087735 187.28116028 3.85810852 188.2953186 C-0.32695259 197.7191204 -4.45151514 207.16870359 -8.5625 216.625 C-9.96312156 219.84393293 -11.36428633 223.0626292 -12.765625 226.28125 C-13.2865699 227.47784241 -13.2865699 227.47784241 -13.81803894 228.6986084 C-24.3048956 252.77829141 -34.89626456 276.81177497 -45.5625 300.8125 C-45.9720694 301.7342804 -46.38163879 302.65606079 -46.80361938 303.60577393 C-47.99471514 306.28565671 -49.18667749 308.96515235 -50.37890625 311.64453125 C-50.95486038 312.94034874 -50.95486038 312.94034874 -51.54244995 314.26234436 C-53.46146503 318.57319774 -55.39556409 322.87625318 -57.35864258 327.16723633 C-62.15511707 337.66920469 -66.58907421 348.22215636 -70.5625 359.0625 C-70.97263336 360.1743013 -70.97263336 360.1743013 -71.39105225 361.30856323 C-88.06709925 402.4750464 -88.06709925 402.4750464 -85 445 C-81.27230891 451.70984397 -76.78388797 455.29103658 -69.49609375 457.45703125 C-54.65595591 460.68516765 -38.54939289 454.59071042 -26 447 C-16.92625927 440.94378715 -8.83579762 433.55569762 -1 426 C-0.39333496 425.41524902 0.21333008 424.83049805 0.83837891 424.22802734 C8.76945291 416.53759276 16.19704581 408.72112516 23 400 C23.93917197 398.83673425 24.88072836 397.67539096 25.82421875 396.515625 C32.83457585 387.8774795 39.49681622 379.02508772 46 370 C50.02221525 370.5302011 51.77236223 372.4885614 54.5 375.375 C57.1947438 378.20817242 59.7998277 380.74533315 63 383 C62.45019202 386.77099239 61.50946971 389.11290425 59.2265625 392.15234375 C58.36877197 393.30633667 58.36877197 393.30633667 57.49365234 394.48364258 C56.56866943 395.698302 56.56866943 395.698302 55.625 396.9375 C54.99158691 397.78143311 54.35817383 398.62536621 53.70556641 399.49487305 C51.81470049 402.00516056 49.91023753 404.504433 48 407 C47.23526367 408.00305176 47.23526367 408.00305176 46.45507812 409.02636719 C16.27557978 448.47737577 -22.37525785 489.17180668 -74.109375 496.53125 C-96.86170894 499.08725688 -120.6697673 498.09204987 -139.62890625 483.92578125 C-155.42791514 471.09396678 -162.39969089 454.69020474 -164.6875 434.671875 C-166.05244563 418.63376383 -164.02592176 402.57350506 -160.5859375 386.90625 C-159.90118191 384.0039836 -159.90118191 384.0039836 -160 381 C-161.52183555 382.66575159 -163.0424085 384.33265671 -164.5625 386 C-165.25194702 386.75603516 -165.25194702 386.75603516 -165.95532227 387.52734375 C-168.49239705 390.31683951 -170.98862444 393.13302373 -173.4375 396 C-180.41756996 403.99356958 -187.96507312 411.23442509 -196.27734375 417.828125 C-198.04824367 419.24077974 -199.79264453 420.68753566 -201.50390625 422.171875 C-225.62840593 442.94472663 -255.99428979 455.87281735 -288 454 C-299.09028497 452.55689939 -309.35411582 448.39763778 -317 440 C-327.72636563 425.21023469 -328.52778324 408.40043723 -325.875 390.875 C-322.38032793 369.99533378 -314.69040763 351.21617345 -306 332 C-305.51756836 330.93152832 -305.03513672 329.86305664 -304.53808594 328.76220703 C-301.62284194 322.3336432 -298.65402879 315.93114705 -295.65869141 309.53955078 C-294.51009108 307.08850463 -293.36358516 304.636586 -292.22021484 302.18310547 C-284.40688812 285.4196487 -276.44050969 268.73820769 -268.3125 252.125 C-243.28750052 208.93274923 -243.28750052 208.93274923 -234.375 162.125 C-236.77502374 158.98650742 -239.26369551 158.66813685 -243.0859375 158.08984375 C-256.03007767 157.69076168 -267.50362672 164.94197586 -277 173 C-278.16982422 173.96873047 -278.16982422 173.96873047 -279.36328125 174.95703125 C-321.46418156 211.14903327 -343.85366418 271.19370746 -365.46734619 320.89463806 C-369.75068521 330.73914368 -374.09303986 340.55735387 -378.4375 350.375 C-379.22980721 352.1667167 -380.02204342 353.9584648 -380.81420898 355.75024414 C-382.40633579 359.35134305 -383.99871175 362.9523316 -385.59130859 366.55322266 C-389.25432369 374.83581745 -392.91468824 383.11958352 -396.57498169 391.40338135 C-397.68063899 393.90553295 -398.78646636 396.40760932 -399.89233398 398.90966797 C-407.269341 415.60301982 -414.63327627 432.30209287 -422 449 C-450.71 449 -479.42 449 -509 449 C-506.95718881 442.87156642 -504.84811453 437.09683927 -502.20703125 431.24609375 C-501.68069344 430.06660912 -501.68069344 430.06660912 -501.14372253 428.86329651 C-500.03727198 426.38623814 -498.92500203 423.91184549 -497.8125 421.4375 C-497.05494979 419.74431451 -496.29778483 418.05095659 -495.54101562 416.35742188 C-493.6984522 412.23627721 -491.85067 408.11751025 -490 404 C-490.33 403.67 -490.66 403.34 -491 403 C-491.38744385 403.41773682 -491.7748877 403.83547363 -492.17407227 404.26586914 C-493.96883381 406.19936653 -495.7656558 408.130938 -497.5625 410.0625 C-498.47612305 411.04766602 -498.47612305 411.04766602 -499.40820312 412.05273438 C-520.79637332 435.02521347 -547.39839577 455.34823562 -579.85546875 457.22265625 C-592.51042014 457.61612184 -604.84120804 456.17353508 -615 448 C-625.37005849 437.76953845 -627.99722644 423.46546358 -628.18261719 409.39819336 C-628.19969945 401.22689124 -627.80474271 393.13364958 -627 385 C-627.44988281 385.58265625 -627.89976563 386.1653125 -628.36328125 386.765625 C-639.99184932 401.58680595 -653.07730069 415.47148328 -668 427 C-668.81911865 427.64171143 -668.81911865 427.64171143 -669.65478516 428.29638672 C-691.77288088 445.53521687 -717.28861399 458.84197283 -746 457 C-759.40079283 455.29261847 -771.38531357 450.73938488 -780 440 C-790.34213109 426.62738399 -791.34219685 409.67547192 -789.52734375 393.47265625 C-786.98730283 373.83799664 -780.17405702 355.90507728 -772 338 C-771.54436676 337.00039246 -771.54436676 337.00039246 -771.07952881 335.98059082 C-759.10661199 309.7246224 -746.81664085 283.61616669 -734.46611023 257.53620911 C-732.88157448 254.18978854 -731.29811433 250.84285941 -729.71463013 247.49594116 C-728.58389705 245.10769322 -727.45108591 242.72043902 -726.31811523 240.33325195 C-725.62996424 238.87975856 -724.94189044 237.42622861 -724.25390625 235.97265625 C-723.93805573 235.30872864 -723.6222052 234.64480103 -723.29678345 233.96075439 C-722.05267046 231.32804241 -720.92201002 228.76603006 -720 226 C-721.61068359 226.52400391 -721.61068359 226.52400391 -723.25390625 227.05859375 C-724.69001026 227.51852249 -726.12621352 227.97814142 -727.5625 228.4375 C-728.26697266 228.66759766 -728.97144531 228.89769531 -729.69726562 229.13476562 C-742.92133295 233.33965339 -759.81352375 234.2787684 -773.0390625 229.65625 C-775.1295133 228.84131951 -775.1295133 228.84131951 -778 229 C-778.08451416 229.58563721 -778.16902832 230.17127441 -778.25610352 230.7746582 C-783.60228562 267.00055618 -794.96370056 300.14826643 -811 333 C-811.66636475 334.37961914 -811.66636475 334.37961914 -812.34619141 335.78710938 C-821.44879952 354.47843705 -832.75903958 371.97001198 -846 388 C-846.78080933 388.94854858 -846.78080933 388.94854858 -847.57739258 389.91625977 C-871.18532605 418.33610316 -900.37276691 440.24789801 -935.875 451.25 C-936.61588867 451.48420654 -937.35677734 451.71841309 -938.12011719 451.9597168 C-951.94719022 456.03621856 -965.97579338 457.50802171 -980.34204102 457.39111328 C-982.69801005 457.3749278 -985.05228289 457.3911392 -987.40820312 457.41015625 C-1010.29937091 457.44129097 -1032.61870369 451.49905779 -1050 436 C-1050.71027344 435.37222656 -1051.42054687 434.74445313 -1052.15234375 434.09765625 C-1070.08602629 417.26546669 -1076.22520386 391.74750158 -1077 368 C-1078.21623047 369.50626953 -1078.21623047 369.50626953 -1079.45703125 371.04296875 C-1086.53138406 379.78807296 -1093.65893309 388.4770895 -1101 397 C-1101.68835937 397.80179688 -1102.37671875 398.60359375 -1103.0859375 399.4296875 C-1125.96696123 425.4667145 -1153.48184212 449.7878744 -1189 455 C-1193.37316201 455.23732009 -1197.74599088 455.23091935 -1202.125 455.25 C-1203.86523438 455.2809375 -1203.86523438 455.2809375 -1205.640625 455.3125 C-1219.54974295 455.37473319 -1232.71219502 452.33708592 -1243 442.4375 C-1252.10630821 432.94417369 -1253.60376166 419.9541437 -1253.47192383 407.38598633 C-1253.25031977 400.57818821 -1252.47544757 393.90640617 -1251.375 387.1875 C-1251.23513672 386.30650635 -1251.09527344 385.4255127 -1250.95117188 384.51782227 C-1248.32759996 370.26978855 -1241.85133779 357.10724304 -1235.59933472 344.15667725 C-1233.99190292 340.82696994 -1232.39933058 337.49021941 -1230.80567932 334.15390015 C-1230.00078471 332.46915971 -1229.19515665 330.78476948 -1228.38877869 329.10073853 C-1225.01499647 322.05124657 -1221.71229062 314.97107897 -1218.4375 307.875 C-1213.57118858 297.35086868 -1208.6432699 286.85723117 -1203.6875 276.375 C-1202.96231652 274.84057827 -1202.23713748 273.30615444 -1201.51196289 271.77172852 C-1198.6505267 265.71806933 -1195.78818823 259.66483817 -1192.92333984 253.61279297 C-1188.92644192 245.16714638 -1184.94606899 236.71401773 -1180.98925781 228.24951172 C-1179.63476652 225.3526708 -1178.27407453 222.4588476 -1176.90917969 219.56689453 C-1175.170884 215.88141476 -1173.44802224 212.18904641 -1171.73492432 208.49179077 C-1171.09348222 207.113209 -1170.44734942 205.73679698 -1169.7958374 204.36294556 C-1160.67918847 185.17820153 -1160.67918847 185.17820153 -1161 164.6875 C-1163.22604232 161.69625564 -1164.8958004 160.71089097 -1168.57421875 160.05859375 C-1185.13586103 159.65855408 -1199.08333305 171.37879648 -1210.37890625 182.04663086 C-1227.15817728 198.34672884 -1239.95697179 218.86383554 -1249.96630859 239.87402344 C-1251.04130562 242.08495261 -1252.16404815 244.26552023 -1253.30078125 246.4453125 C-1261.86429534 262.97399472 -1269.14574524 280.06071268 -1276.56469727 297.12324524 C-1280.00915192 305.03892588 -1283.50810272 312.92961035 -1287.02471924 320.81344604 C-1293.37971155 335.06117257 -1299.6721088 349.33566822 -1305.93530273 363.6239624 C-1312.3340205 378.22099391 -1318.76744738 392.8024232 -1325.21786499 407.37667847 C-1330.30454173 418.87061273 -1335.37460402 430.37051297 -1340.32421875 441.92431641 C-1342.89519478 447.89519478 -1342.89519478 447.89519478 -1344 449 C-1346.7388842 449.09516211 -1349.45247941 449.12554594 -1352.19165039 449.11352539 C-1353.05011063 449.11367142 -1353.90857086 449.11381744 -1354.79304504 449.1139679 C-1357.64460738 449.11326847 -1360.49610525 449.1054747 -1363.34765625 449.09765625 C-1365.31920842 449.09579218 -1367.29076105 449.09436822 -1369.26231384 449.09336853 C-1374.46226267 449.08954251 -1379.66218375 449.07971152 -1384.86212158 449.06866455 C-1390.16393661 449.05845222 -1395.4657561 449.05387129 -1400.76757812 449.04882812 C-1411.17839763 449.03808933 -1421.58919651 449.02101191 -1432 449 C-1431.53766558 447.58813483 -1431.0731271 446.17699133 -1430.60769653 444.7661438 C-1430.3492502 443.98023424 -1430.09080387 443.19432468 -1429.82452583 442.38459969 C-1428.52019772 438.61237052 -1426.95326828 434.9654177 -1425.3671875 431.3046875 C-1425.01829468 430.49159622 -1424.66940186 429.67850494 -1424.30993652 428.84077454 C-1423.16862711 426.18392064 -1422.0219462 423.52942484 -1420.875 420.875 C-1420.06700622 418.99789476 -1419.25922982 417.12069594 -1418.45166016 415.2434082 C-1412.43212058 401.26359953 -1406.35907146 387.30707247 -1400.26611328 373.35913086 C-1395.40396409 362.22865929 -1390.56704622 351.08756484 -1385.75 339.9375 C-1385.2501358 338.78053116 -1385.2501358 338.78053116 -1384.74017334 337.60018921 C-1383.42521143 334.55651239 -1382.11030307 331.51281246 -1380.79556274 328.46903992 C-1377.70294066 321.31013386 -1374.60212485 314.15479229 -1371.5 307 C-1366.66022947 295.83611186 -1361.82847689 284.6687768 -1357 273.5 C-1352.37330427 262.7981644 -1347.74480327 252.09712167 -1343.10842896 241.3994751 C-1342.31788441 239.57492702 -1341.52795862 237.75011088 -1340.73803711 235.92529297 C-1338.30008151 230.29538272 -1335.85694879 224.66795323 -1333.3966217 219.04779053 C-1320.05240785 193.49314579 -1320.05240785 193.49314579 -1316 166 C-1317.75555502 162.94403386 -1318.94511411 161.45209395 -1322.1875 160.0625 C-1335.6172195 159.76406179 -1347.34216399 168.50468129 -1357 177 C-1357.9796875 177.85851562 -1358.959375 178.71703125 -1359.96875 179.6015625 C-1378.93348517 196.47079665 -1393.25824343 217.1912127 -1406 239 C-1406.72751465 240.23049072 -1406.72751465 240.23049072 -1407.46972656 241.48583984 C-1416.48791051 256.86675195 -1423.56188501 273.06907665 -1430.6725769 289.38623047 C-1434.58140505 298.35230878 -1438.56462309 307.28495536 -1442.54592896 316.21902466 C-1453.59874464 341.03279959 -1464.5644806 365.88514795 -1475.53173828 390.73681641 C-1477.6547926 395.54758677 -1479.77850998 400.35806402 -1481.90255737 405.168396 C-1483.40158733 408.56403172 -1484.89945569 411.96017933 -1486.39698792 415.35647583 C-1491.21686981 426.2607363 -1496.10715256 437.12700568 -1501 448 C-1529.38 448 -1557.76 448 -1587 448 C-1586.30678691 444.53393456 -1585.83226144 442.28093154 -1584.44946289 439.22290039 C-1584.13566177 438.52189713 -1583.82186066 437.82089386 -1583.49855042 437.09864807 C-1582.9907328 435.98440712 -1582.9907328 435.98440712 -1582.47265625 434.84765625 C-1581.94918861 433.68102699 -1581.94918861 433.68102699 -1581.41514587 432.49082947 C-1580.30244878 430.01250227 -1579.18299218 427.53731154 -1578.0625 425.0625 C-1576.94637176 422.59091824 -1575.83178988 420.11867296 -1574.7205658 417.6448822 C-1574.03021681 416.10865082 -1573.33697374 414.57371563 -1572.64039612 413.04029846 C-1570.85869468 409.08200296 -1569.29049972 405.15337469 -1568 401 C-1568.88300781 401.95519531 -1569.76601562 402.91039062 -1570.67578125 403.89453125 C-1573.82938097 407.29792543 -1576.99969636 410.68522426 -1580.1796875 414.06396484 C-1581.27911356 415.23328467 -1582.37618962 416.40482905 -1583.46875 417.58056641 C-1601.49792442 436.91766084 -1625.23638534 453.04615826 -1652.3828125 454.23828125 C-1665.60577767 454.54463153 -1677.06148132 453.05996113 -1688 445 C-1688.86625 444.4225 -1689.7325 443.845 -1690.625 443.25 C-1699.84493977 434.51532022 -1704.86678341 421.56817651 -1705.31640625 409.04296875 C-1705.35830078 407.93115234 -1705.40019531 406.81933594 -1705.44335938 405.67382812 C-1705.48267578 404.52333984 -1705.52199219 403.37285156 -1705.5625 402.1875 C-1705.60568359 401.01767578 -1705.64886719 399.84785156 -1705.69335938 398.64257812 C-1705.79918279 395.76182969 -1705.90126825 392.88099877 -1706 390 C-1707.83444647 391.97814478 -1709.66771991 393.95734978 -1711.5 395.9375 C-1712.04881836 396.52998535 -1712.59763672 397.1224707 -1713.16308594 397.73291016 C-1716.24589217 401.06975409 -1719.27462814 404.44142087 -1722.25 407.875 C-1725.88213001 411.97507314 -1729.80956804 415.48429861 -1734 419 C-1734.94617187 419.83402344 -1735.89234375 420.66804688 -1736.8671875 421.52734375 C-1761.21797785 442.88082153 -1788.14217266 455.66489865 -1821 454 C-1836.11205209 452.70293042 -1849.83297428 446.3331362 -1860 435 C-1875.02258419 416.20704174 -1874.86905713 390.40817961 -1872.5390625 367.5390625 C-1871.00083453 355.74719933 -1867.62979647 344.29430693 -1864 333 C-1863.72591309 332.14100098 -1863.45182617 331.28200195 -1863.16943359 330.39697266 C-1851.68895089 295.13312138 -1832.26946498 263.13328333 -1811 233 C-1814.23751121 233.73148973 -1816.99464329 234.90317373 -1819.97460938 236.37451172 C-1836.57136346 244.56628063 -1854.98408216 249.20826475 -1873.26953125 244.0390625 C-1880.52898591 241.27652324 -1884.77693821 236.96181346 -1888 230 C-1893.11833129 214.36645748 -1886.00765596 198.46621281 -1879.13671875 184.70703125 C-1877.74189025 181.87466107 -1877.74189025 181.87466107 -1878 178 C-1890.71383756 179.83841205 -1900.37836399 194.35894627 -1907.69238281 204.0456543 C-1927.00140913 230.31768543 -1940.67577769 260.10721676 -1953.40634155 289.9646759 C-1956.74913763 297.78463066 -1960.22132816 305.54666576 -1963.6875 313.3125 C-1969.43809505 326.21079514 -1975.14312245 339.12830346 -1980.8125 352.0625 C-1987.82040622 368.04962454 -1994.86042371 384.02224917 -2001.92895508 399.98266602 C-2009.00216717 415.96728584 -2015.99355308 431.98526419 -2023 448 C-2050.72 448 -2078.44 448 -2107 448 C-2106.30825625 444.54128126 -2105.80347573 442.21263209 -2104.44946289 439.13110352 C-2104.13566177 438.4100795 -2103.82186066 437.68905548 -2103.49855042 436.94618225 C-2102.9907328 435.79913063 -2102.9907328 435.79913063 -2102.47265625 434.62890625 C-2102.12367783 433.82895737 -2101.7746994 433.02900848 -2101.41514587 432.20481873 C-2100.30224815 429.65531443 -2099.18284531 427.10873933 -2098.0625 424.5625 C-2096.94654369 422.01948834 -2095.83205897 419.47585865 -2094.7205658 416.93089294 C-2094.0299643 415.35029547 -2093.33670721 413.77085479 -2092.64039612 412.19276428 C-2090.88378588 408.17925385 -2089.3085848 404.18838268 -2088 400 C-2088.53254395 400.54825439 -2089.06508789 401.09650879 -2089.61376953 401.66137695 C-2110.16043871 422.73199283 -2110.16043871 422.73199283 -2122 431 C-2122.55816406 431.391875 -2123.11632813 431.78375 -2123.69140625 432.1875 C-2145.10071708 447.01308199 -2169.14859681 457.34171057 -2195.6328125 453.46875 C-2206.27833379 450.96392146 -2215.23685494 446.6950042 -2221.1875 437.25 C-2225.603431 429.49322067 -2228.1477083 421.43978499 -2228.09765625 412.48046875 C-2228.09443359 411.45888672 -2228.09121094 410.43730469 -2228.08789062 409.38476562 C-2228.07951172 408.32966797 -2228.07113281 407.27457031 -2228.0625 406.1875 C-2228.05798828 405.11306641 -2228.05347656 404.03863281 -2228.04882812 402.93164062 C-2228.03707729 400.28770317 -2228.02064787 397.64388048 -2228 395 C-2228.73089844 395.94746094 -2228.73089844 395.94746094 -2229.4765625 396.9140625 C-2239.80259407 409.94363688 -2251.53198521 421.25842939 -2265 431 C-2265.90685547 431.65742187 -2265.90685547 431.65742187 -2266.83203125 432.328125 C-2291.06160793 449.67140094 -2319.03021191 457.89010027 -2348.8125 453 C-2362.28495102 449.82392876 -2375.55294366 443.17447649 -2383.14013672 431.20068359 C-2384.29998651 429.22311231 -2385.38426102 427.22376203 -2386.4375 425.1875 C-2386.91509766 424.26517578 -2386.91509766 424.26517578 -2387.40234375 423.32421875 C-2392.58479054 412.42320999 -2393.53170011 400.97507609 -2393.4375 389.0625 C-2393.43445862 388.38946838 -2393.43141724 387.71643677 -2393.42828369 387.02301025 C-2393.34642586 374.68794415 -2391.9694851 362.98176855 -2389 351 C-2388.80164551 350.16452637 -2388.60329102 349.32905273 -2388.39892578 348.46826172 C-2378.82864597 308.94612768 -2357.97548699 272.19131531 -2335 239 C-2334.57654297 238.38753418 -2334.15308594 237.77506836 -2333.71679688 237.14404297 C-2324.23770506 223.50752063 -2314.31798021 210.1679471 -2303 198 C-2301.82877852 196.64977087 -2300.66192767 195.29573509 -2299.5 193.9375 C-2293.20655792 186.7283839 -2286.32723506 180.14504538 -2279 174 C-2278.48147461 173.5570459 -2277.96294922 173.1140918 -2277.42871094 172.65771484 C-2238.35437312 139.37580399 -2186.81822358 112.03985796 -2134.4140625 111.796875 C-2133.4075061 111.78986069 -2132.40094971 111.78284637 -2131.3638916 111.77561951 C-2128.11754883 111.75814473 -2124.87138813 111.75176405 -2121.625 111.75 C-2120.52041443 111.74932526 -2119.41582886 111.74865051 -2118.277771 111.74795532 C-2055.57957766 111.80895355 -2055.57957766 111.80895355 -2038.375 127.375 C-2036.34667885 131.24724947 -2036.31980561 134.80000988 -2037.61932373 139.00311279 C-2038.52317299 141.25225054 -2039.50507831 143.44876219 -2040.5234375 145.6484375 C-2041.08226875 146.89720673 -2041.08226875 146.89720673 -2041.65238953 148.17120361 C-2042.88153787 150.91124888 -2044.12838638 153.64286241 -2045.375 156.375 C-2046.24419245 158.30583239 -2047.11192744 160.23732148 -2047.97827148 162.16943359 C-2049.76794632 166.15877678 -2051.56308402 170.14559256 -2053.36181641 174.13085938 C-2056.95103773 182.09804489 -2060.4585337 190.10068462 -2063.96051025 198.10650635 C-2065.44329461 201.49527017 -2066.92963903 204.88246766 -2068.41595459 208.26968384 C-2069.53299637 210.8153902 -2070.64959794 213.36128927 -2071.76611328 215.90722656 C-2075.88329047 225.29443559 -2080.00524061 234.6795503 -2084.12628174 244.06506348 C-2085.25218567 246.62930038 -2086.37805844 249.19355096 -2087.50390625 251.7578125 C-2087.87535767 252.60384033 -2088.24680908 253.44986816 -2088.6295166 254.3215332 C-2090.87041893 259.42587828 -2093.11025912 264.5306879 -2095.34919739 269.63589478 C-2096.8392853 273.03345418 -2098.32980486 276.43082414 -2099.82034302 279.82818604 C-2100.5632892 281.52190118 -2101.30602705 283.21570772 -2102.04855347 284.90960693 C-2106.3524436 294.72758669 -2110.67728173 304.53571293 -2115.0390625 314.328125 C-2127.22151365 341.37532529 -2127.22151365 341.37532529 -2138 369 C-2138.26973633 369.75684082 -2138.53947266 370.51368164 -2138.81738281 371.29345703 C-2143.7860516 384.72591912 -2143.7860516 384.72591912 -2143.25390625 398.67578125 C-2141.78286302 401.40248131 -2140.92086541 402.06382519 -2138 403 C-2127.80391897 403.77363261 -2119.57986444 397.82170611 -2112.1875 391.5625 C-2087.35933136 369.81938909 -2069.44671977 341.30739012 -2053 313 C-2052.57509277 312.2687793 -2052.15018555 311.53755859 -2051.71240234 310.78417969 C-2037.79505529 286.65636518 -2026.52120334 261.40529919 -2015.44360352 235.89332581 C-2011.87168429 227.67854098 -2008.21943451 219.50092687 -2004.5473938 211.33050537 C-1998.23736542 197.2903659 -1991.99484808 183.22183115 -1985.8125 169.125 C-1985.47025391 168.34463379 -1985.12800781 167.56426758 -1984.77539062 166.76025391 C-1977.50568821 150.17844235 -1970.25697154 133.58736353 -1963 117 C-1937.26 117 -1911.52 117 -1885 117 C-1885.69498459 120.47492296 -1886.27515391 122.98797048 -1887.58227539 126.14770508 C-1887.90253189 126.92813675 -1888.22278839 127.70856842 -1888.55274963 128.51264954 C-1888.89756882 129.3399205 -1889.242388 130.16719147 -1889.59765625 131.01953125 C-1889.95137802 131.87810226 -1890.30509979 132.73667328 -1890.66954041 133.6212616 C-1891.79630246 136.35344153 -1892.92930665 139.0829821 -1894.0625 141.8125 C-1894.82918966 143.66844898 -1895.59547041 145.52456694 -1896.36132812 147.38085938 C-1898.23615245 151.92254472 -1900.11657792 156.46187376 -1902 161 C-1899.15246735 158.76972884 -1896.43448301 156.55539494 -1893.94140625 153.93359375 C-1886.13356925 145.85133033 -1878.10818203 138.58805324 -1869 132 C-1868.39542969 131.56171875 -1867.79085937 131.1234375 -1867.16796875 130.671875 C-1851.8169622 119.6837861 -1834.90563782 110.76653839 -1815.625 110.5625 C-1814.88789795 110.55226807 -1814.1507959 110.54203613 -1813.39135742 110.53149414 C-1807.33715563 110.62913154 -1801.68081667 111.76174699 -1796.94140625 115.71875 C-1796.48636719 116.3065625 -1796.03132813 116.894375 -1795.5625 117.5 C-1795.08941406 118.0878125 -1794.61632813 118.675625 -1794.12890625 119.28125 C-1789.79978224 125.87230385 -1791.31139425 136.48319204 -1792.765625 143.91015625 C-1797.30879993 159.63530048 -1805.71522985 174.0294301 -1813.77612305 188.17724609 C-1817.023694 193.89589612 -1819.31393834 198.25032574 -1819 205 C-1815.09471403 206.95264298 -1812.48017153 207.14547528 -1808.375 206 C-1787.55079951 198.83101295 -1769.76052838 183.89337181 -1752.97949219 170.06738281 C-1718.55339221 141.72147218 -1676.60460872 119.33299019 -1632 113 C-1630.81446533 112.82637939 -1629.62893066 112.65275879 -1628.4074707 112.47387695 C-1623.40099299 111.85906473 -1618.41781734 111.82013402 -1613.37890625 111.796875 C-1612.36952499 111.78990601 -1611.36014374 111.78293701 -1610.32017517 111.77575684 C-1607.06757428 111.75839922 -1603.81514532 111.7520341 -1600.5625 111.75 C-1599.45696777 111.74899292 -1598.35143555 111.74798584 -1597.21240234 111.74694824 C-1581.30147634 111.75678409 -1565.67664911 111.98586674 -1550 115 C-1549.18289551 115.1551709 -1548.36579102 115.3103418 -1547.52392578 115.47021484 C-1536.50210817 117.64618648 -1525.26791407 119.94408373 -1517 128 C-1515.47053935 131.0589213 -1515.7996454 133.61391957 -1516 137 C-1517.06298828 140.13256836 -1517.06298828 140.13256836 -1518.5703125 143.33984375 C-1518.84255142 143.92997757 -1519.11479034 144.52011139 -1519.39527893 145.12812805 C-1519.9845285 146.40185433 -1520.57972493 147.6728432 -1521.18026733 148.94128418 C-1522.48372916 151.69549308 -1523.75714643 154.46327651 -1525.03282166 157.23043823 C-1525.69986437 158.67669189 -1526.36839053 160.12226221 -1527.03834534 161.56716919 C-1530.0702121 168.1133359 -1532.97848376 174.70947248 -1535.8520813 181.32635498 C-1537.29335047 184.64503849 -1538.7404948 187.96115812 -1540.1875 191.27734375 C-1540.4885817 191.96757629 -1540.78966339 192.65780884 -1541.09986877 193.36895752 C-1545.09940191 202.52987529 -1549.1448401 211.67055499 -1553.1875 220.8125 C-1553.58745178 221.71711975 -1553.98740356 222.6217395 -1554.3994751 223.55377197 C-1556.85689928 229.11194121 -1559.31506881 234.66978049 -1561.77355957 240.22747803 C-1568.12821513 254.59297165 -1574.47919296 268.96007791 -1580.82171631 283.33093262 C-1582.0051019 286.01155691 -1583.18925493 288.69184116 -1584.37353516 291.37207031 C-1611.52451907 341.02747572 -1611.52451907 341.02747572 -1621.5078125 393.23828125 C-1620.45456287 395.94741303 -1619.65264311 397.67367844 -1617 399 C-1606.44372241 400.19183779 -1598.5997106 395.28240795 -1590.5 388.875 C-1579.68348466 379.56595878 -1570.5396201 369.40572044 -1562 358 C-1561.33750244 357.12867432 -1561.33750244 357.12867432 -1560.66162109 356.23974609 C-1547.63431769 339.1030633 -1536.31262987 320.87999555 -1526 302 C-1525.4735791 301.03900391 -1524.9471582 300.07800781 -1524.40478516 299.08789062 C-1509.71593301 272.05233237 -1497.73210562 243.67670027 -1485.45996094 215.48925781 C-1480.44986121 203.98693979 -1475.35374649 192.52352345 -1470.25 181.0625 C-1460.75656933 159.74159197 -1451.36660798 138.37701659 -1442 117 C-1415.93 117 -1389.86 117 -1363 117 C-1364.125 123.75 -1364.125 123.75 -1365.58227539 127.26123047 C-1365.90253189 128.04158661 -1366.22278839 128.82194275 -1366.55274963 129.62594604 C-1366.89756882 130.44805573 -1367.242388 131.27016541 -1367.59765625 132.1171875 C-1367.95137802 132.97434357 -1368.30509979 133.83149963 -1368.66954041 134.71463013 C-1369.79465033 137.43723066 -1370.92843104 140.15612077 -1372.0625 142.875 C-1372.82935218 144.72632396 -1373.59563456 146.57788405 -1374.36132812 148.4296875 C-1376.23429769 152.95588619 -1378.11504914 157.47877859 -1380 162 C-1376.73546191 159.4216537 -1373.75312731 156.81647698 -1370.875 153.8125 C-1365.89025953 148.78669906 -1360.59332907 144.33244755 -1355 140 C-1353.98550781 139.20722656 -1352.97101563 138.41445313 -1351.92578125 137.59765625 C-1330.86575257 121.60498861 -1305.81536965 110.58202726 -1279.125 110.625 C-1278.07650879 110.62661133 -1277.02801758 110.62822266 -1275.94775391 110.62988281 C-1265.91744349 110.78842793 -1255.82317484 112.1081555 -1248 119 C-1240.12931314 127.4801427 -1236.13487006 136.97975138 -1235.68359375 148.51953125 C-1235.64169922 149.54111328 -1235.59980469 150.56269531 -1235.55664062 151.61523438 C-1235.49766602 153.19788086 -1235.49766602 153.19788086 -1235.4375 154.8125 C-1235.37272461 156.42415039 -1235.37272461 156.42415039 -1235.30664062 158.06835938 C-1235.20089017 160.71212082 -1235.09879767 163.3559711 -1235 166 C-1234.53529297 165.53166748 -1234.07058594 165.06333496 -1233.59179688 164.58081055 C-1232.97369141 163.95988525 -1232.35558594 163.33895996 -1231.71875 162.69921875 C-1231.10966797 162.08651123 -1230.50058594 161.47380371 -1229.87304688 160.8425293 C-1226.71234035 157.7333202 -1223.39306598 154.85190713 -1220 152 C-1219.51096191 151.58121582 -1219.02192383 151.16243164 -1218.51806641 150.73095703 C-1202.76657823 137.31021538 -1185.31553491 126.48037157 -1166 119 C-1165.35369629 118.74782715 -1164.70739258 118.4956543 -1164.04150391 118.23583984 C-1150.2748061 112.98075288 -1136.80194759 110.76366302 -1122.125 110.625 C-1121.1865625 110.61106201 -1120.248125 110.59712402 -1119.28125 110.58276367 C-1105.63671635 110.67524863 -1094.26806319 115.08464243 -1084.3359375 124.375 C-1075.07508236 134.78184725 -1073.2006385 147.50266471 -1073.84765625 160.93798828 C-1076.84668635 201.53062965 -1100.15396636 241.49855019 -1117.42321777 277.52272034 C-1122.04472135 287.16774086 -1126.59452137 296.84615078 -1131.13598633 306.52905273 C-1131.78329494 307.9087247 -1132.4306744 309.28836342 -1133.078125 310.66796875 C-1133.39730392 311.34818588 -1133.71648285 312.02840302 -1134.04533386 312.72923279 C-1136.42054772 317.78410627 -1138.82409582 322.82505223 -1141.234375 327.86328125 C-1158.84253311 359.67129511 -1158.84253311 359.67129511 -1165 394 C-1163.90153295 397.18570146 -1163.90153295 397.18570146 -1161 399 C-1152.66090247 401.25503726 -1145.14398966 397.51933371 -1138 393.5390625 C-1132.09392545 389.97104529 -1127.2541148 385.36504523 -1122.44335938 380.4609375 C-1121.11052285 379.11186887 -1119.73652022 377.80380612 -1118.359375 376.5 C-1111.46465603 369.90882211 -1105.69547938 362.61962782 -1100 355 C-1099.2280127 353.97060303 -1099.2280127 353.97060303 -1098.44042969 352.92041016 C-1092.11700569 344.44363514 -1086.10170555 335.8069827 -1080.4375 326.875 C-1079.70478882 325.72124878 -1079.70478882 325.72124878 -1078.95727539 324.54418945 C-1073.3467339 315.56085954 -1069.75916428 306.69008318 -1066.4375 296.625 C-1052.22415833 254.38945792 -1032.55733032 210.82733864 -1003 177 C-1002.34386719 176.23429688 -1001.68773438 175.46859375 -1001.01171875 174.6796875 C-972.50971763 142.15198001 -936.60487153 117.99566983 -893 112 C-891.2675 111.72736328 -891.2675 111.72736328 -889.5 111.44921875 C-863.01982156 108.23786057 -832.83158834 110.28820892 -811 127 C-791.1763184 142.95627085 -781.78905248 164.59109707 -777.9375 189.375 C-777.21253679 193.60068646 -776.34324321 196.09665721 -773 199 C-762.5934518 205.27390663 -750.28251816 205.5361989 -738.50390625 203.3515625 C-717.12405315 196.70762409 -702.30251764 180.1521178 -691.375 161.375 C-683.68409196 146.52975889 -676.95116563 131.20567481 -670 116 C-641.29 116 -612.58 116 -583 116 C-583.94149371 120.70746855 -585.45049135 124.50160982 -587.47265625 128.7890625 C-587.82706787 129.55202637 -588.18147949 130.31499023 -588.54663086 131.10107422 C-589.31274384 132.74876459 -590.08131681 134.39531292 -590.8520813 136.04083252 C-592.49975716 139.55851641 -594.13570928 143.08161243 -595.77256775 146.6043396 C-596.61557097 148.41813172 -597.459215 150.23162614 -598.30348206 152.04483032 C-602.26411813 160.55296971 -606.16929474 169.08584842 -610.0625 177.625 C-611.37581125 180.50282838 -612.68974122 183.38037391 -614.00390625 186.2578125 C-614.32996353 186.97180206 -614.65602081 187.68579163 -614.99195862 188.42141724 C-618.81404101 196.78734361 -622.65727771 205.14353978 -626.5 213.5 C-632.34669292 226.21503145 -638.17775573 238.93706663 -643.98974609 251.66799927 C-647.71864547 259.83599346 -651.45670399 267.99955561 -655.21875 276.15234375 C-663.06586728 293.16452178 -670.81179355 310.21440506 -678.38037109 327.35253906 C-681.7575339 334.99401689 -685.18673418 342.60409725 -688.71972656 350.17529297 C-699.43131147 371.16419156 -699.43131147 371.16419156 -702 394 C-700.20636089 396.8100346 -698.98119065 398.50940468 -696 400 C-684.46795128 401.02964721 -674.13227707 394.92399074 -665.45800781 387.71923828 C-661.86440884 384.59015597 -658.4250217 381.31167566 -655 378 C-654.34128906 377.38125 -653.68257812 376.7625 -653.00390625 376.125 C-619.05350055 343.50752016 -595.80472704 296.17849425 -577.79734802 253.58302307 C-574.16661236 245.00525015 -570.43569537 236.4710165 -566.71481323 227.93206787 C-564.56001333 222.98573254 -562.40917735 218.03767384 -560.2578125 213.08984375 C-559.38054442 211.07274931 -558.50326576 209.05565947 -557.62597656 207.03857422 C-555.03891395 201.0898657 -552.45294814 195.1406808 -549.8671875 189.19140625 C-548.58953922 186.2520298 -547.31187628 183.31265973 -546.03421021 180.37329102 C-545.25165442 178.57286342 -544.46915787 176.77241008 -543.68673706 174.97192383 C-535.14112858 155.30734988 -526.56758067 135.65503802 -518 116 C-489.29 116 -460.58 116 -431 116 C-431.77631204 120.65787221 -432.4757087 123.54593379 -434.30859375 127.70703125 C-434.79851807 128.82851563 -435.28844238 129.95 -435.79321289 131.10546875 C-436.34122325 132.34118368 -436.88932219 133.57685934 -437.4375 134.8125 C-438.01811976 136.13514335 -438.59809756 137.45806866 -439.17749023 138.78125 C-440.43960224 141.66010761 -441.70594886 144.5370509 -442.97558594 147.41259766 C-445.04477453 152.09910011 -447.1052196 156.78941369 -449.1640625 161.48046875 C-449.8874376 163.12850531 -450.61082646 164.77653582 -451.33422852 166.42456055 C-451.69944611 167.25660004 -452.0646637 168.08863953 -452.44094849 168.94589233 C-453.57699957 171.53301984 -454.71405569 174.11970371 -455.85131836 176.70629883 C-462.02897213 190.7609814 -468.15575387 204.83745084 -474.26757812 218.92086792 C-478.68741715 229.10482146 -483.11537696 239.28475148 -487.59765625 249.44140625 C-496.06416339 268.62937257 -504.38420609 287.86909952 -512.50585938 307.20581055 C-516.78556653 317.39345135 -521.08898236 327.5702444 -525.43848991 337.72830391 C-526.23849687 339.5968487 -527.03797549 341.46561867 -527.83729553 343.3344574 C-532.02107168 353.11513446 -532.02107168 353.11513446 -534.10653687 357.96786499 C-535.55515214 361.33900148 -536.99871208 364.71226371 -538.44140625 368.0859375 C-538.87383636 369.08807785 -539.30626648 370.0902182 -539.75180054 371.12272644 C-543.24459726 379.31073142 -546.2291322 386.93908952 -545 396 C-543.70558862 398.79504081 -543.70558862 398.79504081 -541 400 C-532.89722982 401.6505643 -525.65182655 397.30678765 -519 393 C-504.03920782 382.17425966 -492.88772304 367.70222334 -482 353 C-481.54592773 352.38721191 -481.09185547 351.77442383 -480.62402344 351.14306641 C-465.53598128 330.66153533 -452.37109839 308.71377538 -440.27734375 286.35351562 C-439.42231093 284.77811112 -438.56025888 283.20649699 -437.69140625 281.63867188 C-427.62354793 263.4435714 -419.53367569 244.39109031 -411.29931641 225.3203125 C-408.06780074 217.83683833 -404.80523018 210.36693665 -401.54501343 202.89593506 C-400.50010358 200.50023749 -399.45650599 198.10397258 -398.41333008 195.70751953 C-392.75310791 182.70661564 -387.05234497 169.72369422 -381.34280396 156.74438477 C-376.62223218 146.01167919 -371.91969031 135.27339081 -367.37109375 124.46630859 C-365.10197863 119.10197863 -365.10197863 119.10197863 -364 118 C-361.47458998 117.90495749 -358.97662874 117.87442842 -356.45092773 117.88647461 C-355.66074249 117.88632858 -354.87055725 117.88618256 -354.056427 117.8860321 C-351.43212178 117.88673143 -348.80788664 117.89452473 -346.18359375 117.90234375 C-344.36898335 117.90420786 -342.55437244 117.9056318 -340.73976135 117.90663147 C-335.9540977 117.91045721 -331.1684642 117.92028796 -326.3828125 117.93133545 C-321.50325936 117.94154837 -316.62370136 117.94612883 -311.74414062 117.95117188 C-302.16274714 117.96191018 -292.58137607 117.97898727 -283 118 C-283.56266321 121.12276708 -284.26088663 123.94815896 -285.49047852 126.87231445 C-285.94083214 127.95286858 -285.94083214 127.95286858 -286.40028381 129.05525208 C-286.72322922 129.8169017 -287.04617462 130.57855133 -287.37890625 131.36328125 C-287.87619484 132.55125557 -287.87619484 132.55125557 -288.38352966 133.76322937 C-289.4388512 136.28149836 -290.50057498 138.7970095 -291.5625 141.3125 C-292.28102363 143.02391031 -292.99912735 144.73549698 -293.71679688 146.44726562 C-295.47300644 150.63356919 -297.2349611 154.81741186 -299 159 C-296.12155493 156.70764903 -293.29337323 154.40348483 -290.5625 151.9375 C-272.34016182 135.97158644 -252.18411232 122.58439362 -229 115 C-228.03191406 114.6803125 -227.06382812 114.360625 -226.06640625 114.03125 C-217.76745556 111.79333071 -209.49280192 111.65945822 -200.9375 111.5625 C-199.76630615 111.54018311 -198.5951123 111.51786621 -197.38842773 111.49487305 C-183.06608162 111.53198537 -170.3912137 115.92922495 -159.75 125.625 C-150.85807315 135.10972198 -147.14035355 148.07705359 -146.625 160.875 C-148.06859976 195.29930202 -167.43332292 229.18382961 -182.34489441 259.57917786 C-185.61552452 266.24596464 -188.83914963 272.93525955 -192.0625 279.625 C-195.42857256 286.61045404 -198.79767868 293.59411808 -202.20703125 300.55859375 C-229.91373088 348.31745873 -229.91373088 348.31745873 -238 399 C-228.42824365 401.64567648 -221.81869193 399.22968119 -213.41015625 394.5625 C-205.69423853 389.95730377 -199.41936421 384.21199711 -193 378 C-192.2678125 377.30777344 -191.535625 376.61554688 -190.78125 375.90234375 C-185.36277823 370.6666379 -180.65269017 364.91481918 -176 359 C-175.28650391 358.10112061 -175.28650391 358.10112061 -174.55859375 357.18408203 C-156.83543279 334.78649402 -141.86345324 310.47183699 -128.28613281 285.37548828 C-127.41530693 283.76707221 -126.53950202 282.16134362 -125.65917969 280.55810547 C-117.58638571 265.8148739 -110.71281058 250.63439227 -103.9644165 235.25671387 C-103.62682312 234.4875061 -103.28922974 233.71829834 -102.94140625 232.92578125 C-102.60558533 232.16044067 -102.2697644 231.3951001 -101.92376709 230.60656738 C-98.88088846 223.69068123 -95.71031004 216.83990131 -92.5 210 C-86.707845 197.63988179 -81.15007129 185.1824141 -75.64257812 172.69335938 C-75.15868118 171.59801628 -75.15868118 171.59801628 -74.66500854 170.48054504 C-74.07543771 169.14548373 -73.48713268 167.80986196 -72.90066528 166.47343445 C-69.71469959 159.25876262 -66.33790059 152.15264412 -63 145 C-75.87 145 -88.74 145 -102 145 C-101.19938721 140.99693607 -100.38407407 138.31236285 -98.71484375 134.69921875 C-98.31128662 133.81838623 -97.90772949 132.93755371 -97.49194336 132.0300293 C-96.97897705 130.92699463 -96.46601074 129.82395996 -95.9375 128.6875 C-94.308125 125.160625 -92.67875 121.63375 -91 118 C-77.8 118 -64.6 118 -51 118 C-50.01 115.03 -49.02 112.06 -48 109 C-46.80026128 106.19180199 -45.57621718 103.4227161 -44.2890625 100.65625 C-43.54125865 99.02481469 -42.79362696 97.39330046 -42.04614258 95.76171875 C-41.45538437 94.4785376 -41.45538437 94.4785376 -40.85269165 93.16943359 C-31.9793552 73.8756782 -23.51870594 54.41850361 -15.20751953 34.87695312 C-14.57527214 33.39153015 -14.57527214 33.39153015 -13.93025208 31.87609863 C-13.15950412 30.06387709 -12.39017006 28.25105293 -11.62284851 26.43737793 C-7.85748192 17.57292236 -3.91374036 8.80591581 0 0 Z M-2208 184 C-2208.73347656 184.6909375 -2209.46695313 185.381875 -2210.22265625 186.09375 C-2215.63231296 191.34208494 -2220.32950229 197.09342417 -2225 203 C-2225.75925781 203.94230469 -2226.51851562 204.88460937 -2227.30078125 205.85546875 C-2239.50392722 221.29414606 -2249.99271863 238.07781606 -2260 255 C-2260.47115234 255.79277344 -2260.94230469 256.58554687 -2261.42773438 257.40234375 C-2282.84645962 293.60542274 -2307.90402534 338.63632336 -2308.4375 381.8125 C-2308.44789307 382.54799072 -2308.45828613 383.28348145 -2308.46899414 384.04125977 C-2308.36933802 389.96220772 -2306.94499554 394.10757191 -2302.6875 398.25 C-2296.6522811 402.17990998 -2290.62971178 402.91669834 -2283.65234375 401.53515625 C-2270.97462015 398.1396962 -2261.49839173 390.66916706 -2252 382 C-2251.195625 381.2678125 -2250.39125 380.535625 -2249.5625 379.78125 C-2242.96333521 373.46490656 -2237.47100976 366.28338209 -2232 359 C-2231.4838916 358.31760254 -2230.9677832 357.63520508 -2230.43603516 356.93212891 C-2221.77904113 345.42899986 -2214.15515419 333.48693869 -2207 321 C-2206.57122559 320.25282715 -2206.14245117 319.5056543 -2205.70068359 318.73583984 C-2202.72898196 313.52869507 -2199.8497506 308.27468027 -2197 303 C-2196.32831787 301.76733398 -2196.32831787 301.76733398 -2195.64306641 300.50976562 C-2186.18329256 283.08300116 -2178.05534593 265.10236116 -2170 247 C-2169.62147888 246.14996399 -2169.24295776 245.29992798 -2168.85296631 244.4241333 C-2165.10899054 236.01577887 -2161.36972979 227.60533775 -2157.6394043 219.19091797 C-2151.91088319 206.27245475 -2146.12745624 193.37975876 -2140.3125 180.5 C-2134.39595297 167.39344808 -2128.55889886 154.26333763 -2123 141 C-2156.19410859 141 -2184.98282033 162.29170295 -2208 184 Z M-1629.94140625 145.76904297 C-1647.35783535 151.74750228 -1663.20533431 161.93713216 -1677 174 C-1677.96550781 174.84304688 -1678.93101562 175.68609375 -1679.92578125 176.5546875 C-1704.50936657 198.38007541 -1723.58916478 226.46686588 -1739.80078125 254.89746094 C-1740.69868337 256.47171442 -1741.60347276 258.04204309 -1742.51171875 259.61035156 C-1755.96630029 282.87360532 -1767.85181731 306.70712731 -1777 332 C-1777.29487305 332.81291504 -1777.58974609 333.62583008 -1777.89355469 334.46337891 C-1788.86743877 363.85932972 -1788.86743877 363.85932972 -1786.4375 393.6875 C-1783.71154608 398.14991567 -1779.85490838 399.89487418 -1775.0625 401.75 C-1762.33900481 403.29224184 -1751.02470164 398.69601741 -1741 391 C-1736.82849438 387.51252435 -1732.90869803 383.77657303 -1729 380 C-1728.29101562 379.34257813 -1727.58203125 378.68515625 -1726.8515625 378.0078125 C-1707.9875673 360.06776808 -1694.27715833 335.684592 -1682 313 C-1681.52143555 312.11586426 -1681.04287109 311.23172852 -1680.54980469 310.32080078 C-1666.90361571 284.93561201 -1654.88613433 258.8209132 -1643.28514099 232.45680237 C-1639.32498019 223.4579802 -1635.33123811 214.4741328 -1631.33660889 205.49057007 C-1630.06981741 202.64145742 -1628.80365414 199.79206627 -1627.53759766 196.94262695 C-1619.39186448 178.61344492 -1611.20236293 160.30389828 -1603 142 C-1609.74778586 138.62610707 -1622.97621795 143.5304749 -1629.94140625 145.76904297 Z M-908.72875977 171.75805664 C-938.09996511 209.85867218 -960.5137104 253.30014912 -978 298 C-978.24407593 298.62392639 -978.48815186 299.24785278 -978.73962402 299.89068604 C-1002.21454188 354.71445094 -1002.21454188 354.71445094 -1002 412 C-999.18703814 418.28645727 -995.34722804 422.25780837 -989 425 C-978.07311683 427.64360077 -968.34463034 423.65277509 -959 418 C-898.18780782 375.02057228 -863.0314834 262.44121907 -848 193 C-847.5978125 191.14375 -847.5978125 191.14375 -847.1875 189.25 C-845.99844728 182.77626852 -845.78212064 176.31655291 -845.6875 169.75 C-845.66067139 168.50706177 -845.66067139 168.50706177 -845.63330078 167.23901367 C-845.64439853 159.30967549 -847.22937337 151.77062663 -853 146 C-873.79543048 131.44319867 -896.70690461 156.61548392 -908.72875977 171.75805664 Z M-159 378 C-158 380 -158 380 -158 380 Z " fill="#0064FE" transform="translate(3162,273)"/>
<path d="M0 0 C2.51789995 -0.0045871 5.03579866 -0.0098999 7.55369568 -0.0158844 C12.78462872 -0.0247191 18.01540835 -0.02250586 23.24633789 -0.01245117 C28.52547074 -0.00327516 33.80416072 -0.0101659 39.08325195 -0.03295898 C116.2685964 -0.36442745 191.43678025 10.41478472 261.62109375 44.43359375 C262.40323242 44.8109668 263.18537109 45.18833984 263.99121094 45.57714844 C285.55327858 56.11239204 305.76316721 70.39878172 323.09423828 86.97412109 C324.1242515 87.95867802 325.15921834 88.93807515 326.19873047 89.91259766 C358.37829171 120.15492779 379.07896585 163.74807129 380.75952148 208.08569336 C381.4890328 235.11835319 379.64817056 260.71692145 370.62109375 286.43359375 C370.193125 287.67367188 369.76515625 288.91375 369.32421875 290.19140625 C360.16458408 314.70689904 346.04092104 336.09130804 328.62109375 355.43359375 C328.10482422 356.01157715 327.58855469 356.58956055 327.05664062 357.18505859 C321.23845977 363.68274818 315.33161007 369.84543491 308.62109375 375.43359375 C307.64140625 376.30113281 306.66171875 377.16867187 305.65234375 378.0625 C244.79464819 431.853717 136.82206157 478.85025636 53.62109375 477.43359375 C53.49347656 478.76390625 53.49347656 478.76390625 53.36328125 480.12109375 C52.50515707 486.05966937 50.54029665 491.72504392 48.74609375 497.43359375 C48.54857513 498.06407623 48.35105652 498.69455872 48.14755249 499.34414673 C24.97269814 573.14015803 -8.31174826 645.41648829 -56.37890625 706.43359375 C-57.09949219 707.35269531 -57.82007813 708.27179687 -58.5625 709.21875 C-60.48221089 711.63990584 -62.42643221 714.03882457 -64.37890625 716.43359375 C-65.07242188 717.30113281 -65.7659375 718.16867187 -66.48046875 719.0625 C-71.31081346 725.06202709 -76.35868264 730.78125159 -81.60546875 736.4140625 C-83.65653696 738.62110548 -85.63067162 740.88244406 -87.59375 743.16796875 C-91.94774582 748.163338 -96.62198325 752.82280094 -101.31640625 757.49609375 C-102.17169922 758.35525391 -103.02699219 759.21441406 -103.90820312 760.09960938 C-108.90346711 765.08725282 -114.01426366 769.84802764 -119.37890625 774.43359375 C-120.42726943 775.35899389 -121.47422211 776.28599523 -122.51953125 777.21484375 C-142.13406824 794.45147985 -163.72935914 809.46473201 -186.37890625 822.43359375 C-187.15621094 822.8817041 -187.93351562 823.32981445 -188.734375 823.79150391 C-218.85520697 841.04093384 -250.92242886 853.39746762 -284.37890625 862.43359375 C-285.83478149 862.83780265 -285.83478149 862.83780265 -287.32006836 863.25017738 C-306.44307451 868.45707828 -324.53750583 869.32364275 -344.18406487 869.20661521 C-348.31237512 869.18728257 -352.44063485 869.19891988 -356.56896973 869.20552063 C-363.48396433 869.21180039 -370.39856487 869.19389995 -377.31347656 869.16088867 C-385.25221603 869.12329777 -393.19021422 869.1252437 -401.12899351 869.14792985 C-408.85139141 869.1690263 -416.5735211 869.16152922 -424.2959137 869.1416111 C-427.5458618 869.13372704 -430.79557665 869.13549089 -434.04551697 869.1456356 C-450.73217688 869.18780136 -466.4468807 869.05970666 -482.37890625 863.43359375 C-484.23177998 862.86167968 -486.08559638 862.29278227 -487.94140625 861.73046875 C-489.4243036 861.22567314 -490.90365111 860.71030568 -492.37890625 860.18359375 C-493.6011792 859.74926025 -493.6011792 859.74926025 -494.84814453 859.30615234 C-529.18171779 846.76538381 -561.46339539 824.1140922 -577.6640625 790.4765625 C-578.59285778 788.47191268 -579.4932317 786.45763951 -580.37890625 784.43359375 C-580.6610498 783.79341309 -580.94319336 783.15323242 -581.23388672 782.49365234 C-592.83516865 755.56527903 -596.71745798 719.71543739 -586.12890625 691.93359375 C-582.24227294 683.47581558 -577.09187583 676.23805821 -568.37890625 672.43359375 C-557.12011543 668.43801712 -544.47043191 667.39199118 -533.37890625 672.43359375 C-524.87588025 677.31636897 -519.64717704 684.23826368 -516.82421875 693.55078125 C-515.47626153 702.27703065 -516.86674373 710.74589704 -518.1472168 719.40731812 C-519.90885248 731.54085799 -521.2328284 743.22883791 -519.37890625 755.43359375 C-519.20029053 756.63218018 -519.20029053 756.63218018 -519.01806641 757.85498047 C-514.72999439 785.06151779 -503.45802656 808.71748005 -481.6015625 826.08984375 C-462.37713953 840.07124228 -439.99352202 848.00724135 -416.37890625 850.43359375 C-414.86876953 850.59988281 -414.86876953 850.59988281 -413.328125 850.76953125 C-354.89129164 856.26422714 -295.40796033 838.71001298 -249.37890625 802.43359375 C-248.38632812 801.65242187 -247.39375 800.87125 -246.37109375 800.06640625 C-236.31195914 791.96866279 -226.9464839 783.18196304 -217.81640625 774.05859375 C-216.93533203 773.18976562 -216.05425781 772.3209375 -215.14648438 771.42578125 C-209.11690899 765.40955548 -203.68586997 759.08952534 -198.37890625 752.43359375 C-197.29448347 751.12807807 -196.20638068 749.8256032 -195.11328125 748.52734375 C-187.45158199 739.3393444 -180.5845533 729.76275879 -173.9609375 719.80517578 C-172.42594375 717.50410644 -170.8739888 715.21550996 -169.31640625 712.9296875 C-161.90771903 702.01370901 -155.01671307 690.83321361 -148.37890625 679.43359375 C-147.8674707 678.55638672 -147.35603516 677.67917969 -146.82910156 676.77539062 C-137.81593964 661.24242746 -129.490004 645.36906202 -121.35931396 629.36187744 C-120.37411844 627.42417701 -119.38586582 625.48806172 -118.39697266 623.55224609 C-109.25632987 605.64125511 -100.62775814 587.55001896 -92.41320801 569.19670105 C-89.85308621 563.47860266 -87.26628986 557.77292417 -84.671875 552.0703125 C-77.12491642 535.47196774 -69.6368881 518.85750029 -62.42993164 502.10839844 C-44.01681862 459.37689163 -24.80826009 416.98177339 -4.26306152 375.23120117 C-3.41248916 373.50187235 -2.56410941 371.77146561 -1.71582031 370.04101562 C22.11087353 321.50352056 49.47899145 272.36859641 85.09375 231.36328125 C87.58439063 228.47613988 89.98291616 225.53072708 92.37109375 222.55859375 C95.38927355 218.84762891 98.51472821 215.41803027 101.953125 212.09765625 C103.71164324 210.34325632 105.3200031 208.5092581 106.93359375 206.62109375 C112.89637304 199.72245224 119.39865707 193.29949899 126.3359375 187.3828125 C128.09410146 185.88311367 129.83265625 184.36040359 131.5625 182.828125 C143.33152379 172.45738374 155.87473504 162.9427742 169.05859375 154.43359375 C170.04730469 153.79421875 171.03601563 153.15484375 172.0546875 152.49609375 C174.62109375 151.43359375 174.62109375 151.43359375 176.79296875 152.0703125 C179.65925476 154.20777792 181.60119862 156.49031799 183.62109375 159.43359375 C183.44200959 164.09756827 181.1334947 166.6677049 178.24609375 170.18359375 C172.09540293 177.88453138 166.83010336 186.07673594 161.62109375 194.43359375 C161.23598633 195.04928223 160.85087891 195.6649707 160.45410156 196.29931641 C135.85966389 235.8392707 117.7746386 278.71773397 102.30285645 322.50872803 C101.61452894 324.45212862 100.92066724 326.39347835 100.22558594 328.33447266 C87.77405339 363.17286999 77.51132475 398.7506124 67.50146484 434.35546875 C67.31046204 435.03299194 67.11945923 435.71051514 66.92266846 436.40856934 C66.418034 438.20087414 65.91617546 439.99395988 65.41455078 441.78710938 C64.62109375 444.43359375 64.62109375 444.43359375 63.62109375 446.43359375 C116.3007878 438.46478724 164.34062208 420.67880782 203.62109375 383.43359375 C204.90803124 382.34464665 206.19947266 381.2609923 207.49609375 380.18359375 C249.95903978 342.996085 274.3743772 286.11364943 278.30859375 230.5859375 C278.69249812 224.50345261 278.93334403 218.52579604 278.62109375 212.43359375 C278.58000488 211.61938965 278.53891602 210.80518555 278.49658203 209.96630859 C276.184273 168.04185565 264.12257819 129.56298756 236.62109375 97.43359375 C236.08871094 96.77875 235.55632813 96.12390625 235.0078125 95.44921875 C231.29163162 90.9216884 227.11153922 87.18084702 222.62109375 83.43359375 C221.81929687 82.74394531 221.0175 82.05429688 220.19140625 81.34375 C167.3393654 36.72533569 94.28992506 26.16749254 27.30859375 26.24609375 C26.34854431 26.246698 25.38849487 26.24730225 24.39935303 26.2479248 C-79.34396614 26.42412879 -185.6586803 58.73030931 -278.37890625 133.43359375 C-279.22324219 134.17867187 -280.06757813 134.92375 -280.9375 135.69140625 C-283.43477285 137.92097145 -285.90850306 140.17430447 -288.37890625 142.43359375 C-289.4660097 143.41551532 -290.55325757 144.39727702 -291.640625 145.37890625 C-296.92708578 150.17488625 -302.0927342 154.92913433 -306.671875 160.421875 C-307.90308988 161.87284906 -309.18337724 163.28267496 -310.4921875 164.6640625 C-350.22792877 206.61095795 -374.79209003 262.77134024 -383.37890625 319.43359375 C-383.55679688 320.58384033 -383.55679688 320.58384033 -383.73828125 321.75732422 C-390.64940102 368.82904322 -384.98538237 422.84742143 -356.50366211 462.22460938 C-347.6072137 473.98663662 -337.19925661 483.21002032 -324.37890625 490.43359375 C-323.40566406 490.995625 -322.43242187 491.55765625 -321.4296875 492.13671875 C-305.54320319 500.71932146 -287.57918872 503.83122079 -269.69140625 503.74609375 C-268.46333252 503.7411792 -267.23525879 503.73626465 -265.9699707 503.73120117 C-236.50460939 503.35291784 -210.22479953 492.82354843 -189.00390625 472.43359375 C-184.5211937 467.77735684 -180.80271562 462.90856911 -177.37890625 457.43359375 C-176.72019531 456.38429688 -176.06148438 455.335 -175.3828125 454.25390625 C-162.02265459 432.30101071 -158.22989218 408.49994251 -158.03710938 383.14257812 C-157.84638744 374.58670359 -156.98928361 367.90864132 -151.51953125 361.12890625 C-142.63075522 353.74607988 -133.75818367 351.86322214 -122.22265625 352.6484375 C-114.28559142 353.70069988 -108.66410093 356.05961003 -103.06640625 361.80859375 C-98.63431951 368.7029509 -97.88585401 374.1061225 -98.00390625 382.18359375 C-98.02022095 383.70605713 -98.02022095 383.70605713 -98.03686523 385.25927734 C-98.7700801 420.61406817 -113.12758938 452.82974654 -138.37890625 477.43359375 C-172.89714072 509.94283045 -221.53039291 521.69533956 -267.75390625 521.62109375 C-268.45344421 521.6204895 -269.15298218 521.61988525 -269.87371826 521.6192627 C-321.96592511 521.49784599 -372.27432654 508.22058772 -410.37890625 471.43359375 C-411.03246094 470.84320313 -411.68601562 470.2528125 -412.359375 469.64453125 C-437.30822746 446.53276769 -449.77807429 409.13591011 -454.37890625 376.43359375 C-454.56324219 375.14839844 -454.74757813 373.86320312 -454.9375 372.5390625 C-455.72993884 365.0606698 -455.62334495 357.50846882 -455.62890625 349.99609375 C-455.62958099 349.17646149 -455.63025574 348.35682922 -455.63095093 347.51235962 C-455.53901923 276.87015244 -427.2710883 210.77721639 -380.37890625 158.43359375 C-379.51136719 157.45519531 -378.64382813 156.47679687 -377.75 155.46875 C-367.49534077 144.08317456 -356.86833451 132.83847379 -344.80078125 123.359375 C-342.50100279 121.53068019 -340.3497942 119.61313977 -338.19140625 117.62109375 C-270.32307593 57.09628259 -175.69103478 23.49377969 -75.12890625 6.18359375 C-74.39934723 6.06448639 -73.66978821 5.94537903 -72.91812134 5.82266235 C-48.69427398 1.90592823 -24.53098379 -0.0403626 0 0 Z " fill="#0064FE" transform="translate(606.37890625,-0.43359375)"/>
<path d="M0 0 C31.02 0 62.04 0 94 0 C91.97582089 6.07253733 89.89400692 11.81018616 87.296875 17.6171875 C86.94283096 18.41824921 86.58878693 19.21931091 86.22401428 20.04464722 C85.46487892 21.76158908 84.70401447 23.47776732 83.94155884 25.1932373 C81.8880731 29.8148819 79.84884953 34.44281587 77.80859375 39.0703125 C77.39594772 40.00552734 76.9833017 40.94074219 76.55815125 41.90429688 C72.91876784 50.16192391 69.35187197 58.4491182 65.8125 66.75 C58.47749304 83.93869612 51.0346981 101.08012449 43.58862305 118.22094727 C42.60985192 120.47411616 41.63109207 122.72728995 40.65234375 124.98046875 C39.93355293 126.63511894 39.93355293 126.63511894 39.20024109 128.32319641 C33.98609619 140.32921046 28.79330335 152.34444185 23.60766602 164.36279297 C23.00146758 165.76660274 22.39526658 167.17041141 21.7890625 168.57421875 C21.27037598 169.77651123 20.75168945 170.97880371 20.21728516 172.2175293 C19.51300611 173.82737051 18.78582412 175.42835176 18 177 C81.36 177 144.72 177 210 177 C209.3034711 180.48264448 208.80007239 182.79323675 207.42456055 185.88696289 C207.10259705 186.61799225 206.78063354 187.34902161 206.44891357 188.10220337 C205.92312714 189.27557755 205.92312714 189.27557755 205.38671875 190.47265625 C204.83760834 191.7149147 204.83760834 191.7149147 204.27740479 192.98226929 C203.08513736 195.67763788 201.88624068 198.370005 200.6875 201.0625 C199.04455931 204.77241488 197.40514381 208.48388437 195.765625 212.1953125 C195.1542997 213.57731087 195.1542997 213.57731087 194.53062439 214.98722839 C190.42594482 224.27555748 186.4222092 233.6052283 182.44213867 242.94750977 C181.99588135 243.99479248 181.54962402 245.0420752 181.08984375 246.12109375 C180.70691162 247.0227124 180.32397949 247.92433105 179.92944336 248.85327148 C179.32371542 250.25231687 178.68179679 251.63640641 178 253 C82.465 253.495 82.465 253.495 -15 254 C-26.5419363 280.09420891 -26.5419363 280.09420891 -37.85220337 306.2845459 C-39.70990468 310.64902155 -41.57552014 315.01011223 -43.44140625 319.37109375 C-43.81937851 320.25455475 -44.19735077 321.13801575 -44.58677673 322.04824829 C-48.62091175 331.4667543 -52.71167811 340.86037633 -56.8125 350.25 C-57.16628723 351.06011536 -57.52007446 351.87023071 -57.88458252 352.70489502 C-59.27571406 355.89006633 -60.66694824 359.07519275 -62.05847168 362.26019287 C-65.03603534 369.07739886 -67.99914305 375.9008094 -70.95529175 382.72732544 C-71.73755442 384.53376013 -72.52026287 386.34000176 -73.30297852 388.14624023 C-75.78299027 393.87136958 -78.25881749 399.5982482 -80.72723389 405.3283844 C-81.9406604 408.14441323 -83.15584239 410.95968281 -84.37121582 413.77487183 C-84.95308064 415.12403602 -85.53406652 416.47357966 -86.11413574 417.82351685 C-86.91250898 419.68143545 -87.71398635 421.53801925 -88.515625 423.39453125 C-88.97227539 424.45518799 -89.42892578 425.51584473 -89.89941406 426.60864258 C-91 429 -91 429 -92 430 C-94.89143151 430.09523905 -97.75892064 430.12553027 -100.65063477 430.11352539 C-102.0114769 430.11374443 -102.0114769 430.11374443 -103.39981079 430.1139679 C-106.41369985 430.11326841 -109.42752793 430.10547434 -112.44140625 430.09765625 C-114.52505967 430.0957922 -116.60871354 430.09436824 -118.69236755 430.09336853 C-124.18823446 430.08954234 -129.68407513 430.0797112 -135.17993164 430.06866455 C-140.78336227 430.0584526 -146.38679713 430.05387137 -151.99023438 430.04882812 C-162.99350114 430.03808902 -173.99674839 430.02101139 -185 430 C-184.53401035 428.57928595 -184.06602169 427.15922748 -183.59721375 425.73944092 C-183.33682155 424.94857464 -183.07642935 424.15770836 -182.80814648 423.34287643 C-181.63008602 419.927592 -180.22256032 416.63373004 -178.76953125 413.328125 C-178.46225098 412.62045486 -178.1549707 411.91278473 -177.83837891 411.18367004 C-176.83324636 408.87090838 -175.82286229 406.56048113 -174.8125 404.25 C-174.09880025 402.61011966 -173.38551037 400.97006088 -172.67260742 399.32983398 C-171.19086115 395.92151411 -169.70735796 392.51396702 -168.22265625 389.10693359 C-165.07187669 381.87260499 -161.94418071 374.62831403 -158.81552124 367.38439941 C-157.14508247 363.51749148 -155.47299768 359.65129572 -153.80078125 355.78515625 C-153.47745316 355.03761078 -153.15412506 354.29006531 -152.82099915 353.51986694 C-149.71738037 346.34511187 -146.60905411 339.17240103 -143.5 332 C-142.1827434 328.96028788 -140.86552627 325.92055867 -139.54841614 322.88078308 C-138.05321747 319.43010013 -136.55761268 315.97959381 -135.06152344 312.52929688 C-133.33740305 308.5528664 -131.61454877 304.57588896 -129.89233398 300.59863281 C-129.2363157 299.08413896 -128.57993053 297.56980396 -127.9230957 296.05566406 C-121.85842759 282.07425311 -115.93863464 268.03677279 -110 254 C-173.03 253.67 -236.06 253.34 -301 253 C-300.30468397 249.52341985 -299.77246917 247.13799095 -298.42456055 244.02124023 C-297.9416153 242.89468018 -297.9416153 242.89468018 -297.44891357 241.74536133 C-296.92312714 240.53916138 -296.92312714 240.53916138 -296.38671875 239.30859375 C-295.83760834 238.03290527 -295.83760834 238.03290527 -295.27740479 236.73144531 C-294.08532335 233.96480649 -292.88651515 231.20114004 -291.6875 228.4375 C-290.86811769 226.53999059 -290.04919066 224.64228452 -289.23071289 222.74438477 C-287.59388997 218.94984601 -285.95483232 215.15628381 -284.31445312 211.36328125 C-282.25287728 206.59187802 -280.20760428 201.81372967 -278.171875 197.03125 C-277.74833488 196.03726952 -277.74833488 196.03726952 -277.3162384 195.02320862 C-276.02283168 191.98760643 -274.73116253 188.95128471 -273.44213867 185.91381836 C-272.99588135 184.86846924 -272.54962402 183.82312012 -272.08984375 182.74609375 C-271.70691162 181.84560303 -271.32397949 180.9451123 -270.92944336 180.01733398 C-270 178 -270 178 -269 177 C-266.50886337 176.88989101 -264.04485175 176.84504023 -261.55271912 176.84178162 C-260.76373909 176.83684364 -259.97475906 176.83190566 -259.16187054 176.82681805 C-256.49780851 176.81136602 -253.83377072 176.80306171 -251.16967773 176.79467773 C-249.26807438 176.78510525 -247.36647318 176.77509556 -245.46487427 176.76467896 C-240.28536034 176.73755551 -235.10583723 176.71658636 -229.92629123 176.69667697 C-224.51969638 176.67486313 -219.11313008 176.64745201 -213.70655823 176.62062073 C-203.46076778 176.5706314 -193.21496154 176.5257158 -182.96914011 176.48259836 C-171.30789311 176.4332792 -159.64667473 176.3783414 -147.98545539 176.32291877 C-123.99033028 176.20900297 -99.99517773 176.10218494 -76 176 C-73.14676393 169.42649372 -70.29365134 162.85293386 -67.44068235 156.27931166 C-66.11490532 153.22455383 -64.78907893 150.16981746 -63.46318054 147.1151123 C-55.26007598 128.21607665 -47.07196428 109.31063636 -38.90039062 90.39794922 C-35.87929535 83.40603076 -32.85644441 76.41487135 -29.83346558 69.42376709 C-28.82383498 67.08871529 -27.81437606 64.75358932 -26.80493164 62.41845703 C-23.67056521 55.16870498 -20.53295452 47.92039092 -17.38671875 40.67578125 C-16.80818009 39.34302051 -16.22964807 38.01025689 -15.65112305 36.67749023 C-14.60557487 34.26893908 -13.5587189 31.86097236 -12.51098633 29.45336914 C-8.26181248 19.66659001 -4.14131265 9.83561754 0 0 Z " fill="#0063FE" transform="translate(3601,214)"/>
<path d="M0 0 C3 1 3 1 3 1 Z " fill="#006BFC" transform="translate(1159,0)"/>
</svg>
