<?xml version="1.0" standalone="no"?>
<!DOCTYPE svg PUBLIC "-//W3C//DTD SVG 20010904//EN"
 "http://www.w3.org/TR/2001/REC-SVG-20010904/DTD/svg10.dtd">
<svg version="1.0" xmlns="http://www.w3.org/2000/svg"
 width="600.000000pt" height="600.000000pt" viewBox="0 0 600.000000 600.000000"
 preserveAspectRatio="xMidYMid meet">

<g transform="translate(0.000000,600.000000) scale(0.100000,-0.100000)"
fill="#000000" stroke="none">
<path d="M2940 5694 c-19 -2 -80 -9 -135 -15 -351 -36 -750 -167 -976 -319
-401 -271 -633 -692 -716 -1305 -25 -180 -24 -765 0 -1005 29 -281 54 -428
107 -641 104 -413 289 -704 522 -817 111 -54 172 -67 303 -66 189 2 326 63
461 206 115 123 192 256 356 618 129 285 193 392 304 510 151 159 331 249 694
345 91 24 194 54 230 68 312 117 560 339 696 622 60 124 88 216 109 355 59
381 -66 730 -360 1008 -242 229 -539 354 -996 417 -108 15 -521 28 -599 19z"/>
<path d="M1626 788 c-17 -27 -176 -437 -176 -455 0 -17 35 -34 54 -27 8 3 23
26 32 50 9 25 25 49 35 54 10 6 56 10 102 10 93 0 98 -3 130 -73 9 -21 24 -40
32 -43 19 -8 45 13 45 36 0 18 -140 392 -163 435 -21 41 -68 48 -91 13z m61
-140 c6 -7 18 -37 29 -66 24 -68 14 -86 -49 -90 -37 -2 -48 1 -56 17 -11 19
-7 35 28 124 11 29 32 35 48 15z"/>
<path d="M3361 796 c-48 -17 -108 -71 -133 -119 -33 -63 -32 -175 3 -242 89
-174 339 -174 428 0 35 67 36 179 4 241 -57 108 -190 161 -302 120z m167 -86
c49 -30 76 -97 69 -173 -9 -98 -63 -152 -152 -152 -89 0 -143 54 -152 152 -11
117 49 193 152 193 33 0 62 -7 83 -20z"/>
<path d="M3807 792 c-15 -16 -17 -48 -17 -245 0 -213 1 -227 19 -237 25 -13
27 -13 45 6 13 12 16 40 16 137 0 197 21 198 137 7 44 -74 92 -141 106 -149
22 -13 28 -13 51 2 l26 17 0 228 c0 236 -3 252 -42 252 -30 0 -38 -34 -38
-158 0 -94 -3 -122 -15 -132 -23 -19 -36 -4 -125 145 -44 73 -87 136 -96 139
-28 11 -50 7 -67 -12z"/>
<path d="M1118 794 c-5 -4 -8 -112 -8 -239 0 -200 2 -234 16 -246 31 -26 49 1
54 84 3 41 11 82 18 90 7 8 39 17 72 20 109 12 168 59 177 141 4 32 -1 49 -19
75 -45 66 -67 76 -191 79 -62 2 -115 0 -119 -4z m223 -83 c31 -25 32 -86 1
-111 -28 -23 -83 -33 -116 -20 -44 16 -59 96 -25 137 18 21 112 17 140 -6z"/>
<path d="M1871 786 c-7 -8 -11 -23 -9 -33 3 -14 16 -19 66 -23 92 -7 92 -8 92
-221 0 -148 3 -180 16 -193 19 -19 38 -20 52 -3 6 7 12 87 14 199 2 137 7 191
16 200 7 7 41 15 75 18 61 5 62 5 62 35 l0 30 -186 3 c-154 2 -188 0 -198 -12z"/>
<path d="M2352 788 c-9 -9 -12 -75 -12 -234 0 -189 2 -225 16 -238 40 -40 64
-10 64 80 0 90 5 104 39 104 32 0 51 -19 111 -110 41 -63 66 -90 81 -90 10 0
39 29 39 40 0 4 -20 37 -45 73 -25 37 -45 75 -45 85 0 10 18 33 39 50 88 71
76 188 -23 233 -49 22 -243 28 -264 7z m243 -83 c31 -30 32 -56 2 -91 -19 -22
-34 -28 -79 -32 -70 -5 -98 16 -98 77 0 56 19 71 91 71 50 0 64 -4 84 -25z"/>
<path d="M2810 780 c-7 -14 -10 -94 -8 -236 2 -178 6 -216 18 -224 8 -5 78
-10 156 -10 153 0 182 8 170 48 -7 21 -13 22 -112 22 -98 0 -107 2 -129 25
-27 26 -31 54 -14 88 18 33 28 37 111 37 88 0 108 5 108 29 0 33 -22 41 -111
41 -79 0 -89 2 -103 22 -21 29 -20 61 2 87 15 18 29 21 126 23 89 3 111 6 119
20 8 12 7 21 -2 32 -11 13 -39 16 -167 16 -144 0 -154 -1 -164 -20z"/>
</g>
</svg>
