<?xml version="1.0" standalone="no"?>
<!DOCTYPE svg PUBLIC "-//W3C//DTD SVG 20010904//EN"
 "http://www.w3.org/TR/2001/REC-SVG-20010904/DTD/svg10.dtd">
<svg version="1.0" xmlns="http://www.w3.org/2000/svg"
 width="800.000000pt" height="800.000000pt" viewBox="0 0 800.000000 800.000000"
 preserveAspectRatio="xMidYMid meet">

<g transform="translate(0.000000,800.000000) scale(0.100000,-0.100000)"
fill="#000000" stroke="none">
<path d="M1757 4541 c-15 -53 -55 -211 -91 -351 -36 -140 -83 -324 -105 -408
-21 -83 -36 -154 -33 -156 6 -4 286 -76 815 -211 103 -27 189 -46 191 -44 9
11 259 1000 254 1005 -3 3 -109 32 -234 64 -126 32 -351 90 -500 128 l-272 70
-25 -97z m438 -442 c44 -12 82 -23 84 -25 9 -8 -44 -194 -56 -194 -11 0 -141
33 -180 45 -8 3 -4 33 14 105 21 81 29 100 42 96 9 -3 52 -15 96 -27z"/>
<path d="M330 4000 l0 -520 235 0 235 0 0 195 c0 149 3 195 13 195 6 0 31 -9
54 -19 69 -32 114 -135 129 -299 l7 -72 238 0 c191 0 239 3 239 13 0 31 -23
137 -42 197 -27 84 -77 184 -121 241 l-34 45 44 48 c79 87 93 209 38 321 -31
64 -79 109 -155 144 l-55 26 -412 3 -413 3 0 -521z m560 295 c52 -27 64 -120
20 -160 -11 -10 -40 -20 -65 -22 l-45 -6 0 102 0 101 30 0 c17 0 44 -7 60 -15z"/>
<path d="M2910 4000 l0 -521 423 3 c418 3 423 3 481 27 74 30 147 99 164 157
18 61 15 162 -7 209 -17 38 -59 82 -111 116 l-24 16 43 38 c63 58 85 106 84
190 0 123 -61 208 -182 257 -54 22 -68 23 -463 26 l-408 3 0 -521z m571 300
c35 -19 51 -98 29 -141 -15 -26 -62 -49 -105 -49 l-35 0 0 106 0 107 45 -7
c25 -3 55 -11 66 -16z m-29 -370 c51 -14 78 -52 78 -107 0 -24 -5 -53 -10 -64
-15 -27 -63 -49 -110 -49 l-40 0 0 115 c0 129 -1 128 82 105z"/>
<path d="M4140 4000 l0 -520 435 0 435 0 0 130 0 130 -202 2 -203 3 -3 388 -2
387 -230 0 -230 0 0 -520z"/>
<path d="M5150 4000 l0 -520 525 0 525 0 0 520 0 520 -525 0 -525 0 0 -520z
m628 3 l3 -103 -106 0 -105 0 0 98 c0 54 3 102 7 106 4 4 50 5 103 4 l95 -3 3
-102z"/>
<path d="M6346 4508 c5 -7 95 -123 201 -257 171 -215 192 -246 180 -260 -38
-44 -387 -500 -387 -505 0 -4 111 -5 247 -4 l247 3 74 95 c41 52 78 96 82 98
4 2 43 -42 86 -97 l79 -99 253 -1 254 -1 -33 43 c-151 193 -337 427 -356 448
-13 14 -23 31 -23 38 0 7 82 119 182 249 100 130 186 243 191 250 7 9 -42 12
-241 12 l-250 0 -67 -90 c-37 -49 -71 -90 -75 -90 -5 0 -41 41 -80 90 l-72 90
-249 0 c-198 0 -249 -3 -243 -12z"/>
</g>
</svg>
