<?xml version="1.0" standalone="no"?>
<!DOCTYPE svg PUBLIC "-//W3C//DTD SVG 20010904//EN"
 "http://www.w3.org/TR/2001/REC-SVG-20010904/DTD/svg10.dtd">
<svg version="1.0" xmlns="http://www.w3.org/2000/svg"
 width="1200.000000pt" height="1105.000000pt" viewBox="0 0 1200.000000 1105.000000"
 preserveAspectRatio="xMidYMid meet">

<g transform="translate(0.000000,1105.000000) scale(0.100000,-0.100000)"
fill="#000000" stroke="none">
<path d="M1955 11043 c-628 -55 -1185 -363 -1557 -860 -188 -252 -312 -544
-375 -883 -17 -89 -18 -306 -21 -3690 -2 -2578 0 -3630 8 -3720 42 -473 232
-892 560 -1233 170 -178 346 -306 575 -417 164 -80 275 -121 441 -160 268 -65
-33 -61 4479 -57 l4100 3 110 22 c297 58 538 151 766 292 439 272 769 722 894
1219 64 251 58 -75 62 3896 3 2537 1 3644 -7 3725 -14 151 -52 334 -96 468
-43 132 -152 357 -231 477 -341 518 -907 852 -1547 914 -76 8 -1350 10 -4115
9 -2203 -1 -4024 -3 -4046 -5z m8135 -234 c904 -83 1585 -758 1670 -1654 14
-150 14 -6974 0 -7170 -12 -163 -23 -232 -57 -370 -103 -417 -377 -799 -753
-1050 -262 -174 -590 -281 -935 -305 -198 -13 -7831 -13 -8038 0 -921 60
-1625 715 -1727 1610 -8 67 -10 1162 -7 3725 3 3345 4 3636 20 3709 28 136 57
236 92 329 256 661 856 1107 1585 1176 133 13 8012 13 8150 0z"/>
<path d="M4270 9008 c-62 -289 -930 -4400 -930 -4408 0 -7 198 -9 592 -8 l593
3 166 785 c91 432 169 797 172 813 l7 27 434 0 c481 0 560 -7 674 -60 75 -35
159 -112 196 -179 55 -101 69 -186 69 -401 0 -107 -5 -278 -12 -380 -25 -364
-13 -557 40 -665 11 -23 202 -233 448 -493 l429 -454 -69 -146 c-414 -886
-666 -1428 -663 -1431 1 -2 353 205 781 459 428 255 781 465 786 467 4 2 271
-199 593 -447 323 -248 588 -449 589 -448 2 2 -45 336 -105 743 -59 407 -106
743 -104 746 2 4 305 217 673 475 369 258 670 472 671 477 0 4 -337 7 -749 7
l-748 0 -6 28 c-3 15 -56 347 -117 737 -62 391 -116 713 -119 717 -3 3 -202
-326 -441 -733 l-435 -739 -86 0 -86 0 -26 58 c-32 72 -60 163 -83 272 -20 95
-23 237 -15 890 5 345 4 370 -16 464 -51 235 -174 380 -376 447 -37 12 -66 23
-65 24 2 1 50 12 107 24 263 56 456 156 613 319 219 227 318 508 318 907 0
251 -33 422 -115 591 -123 254 -348 420 -677 499 -253 61 -195 59 -1605 62
l-1291 4 -12 -53z m2181 -905 c261 -73 373 -226 355 -486 -21 -312 -205 -488
-566 -543 -130 -19 -1174 -21 -1168 -1 2 6 54 247 114 535 l109 523 540 -3
c515 -4 544 -5 616 -25z m2150 -3748 l14 -90 499 -3 498 -2 -338 -237 c-187
-130 -387 -270 -446 -311 -77 -53 -108 -81 -108 -95 0 -11 34 -252 76 -534 41
-283 74 -520 72 -527 -2 -7 -192 135 -423 315 -231 180 -426 328 -432 328 -7
1 -254 -143 -549 -319 -296 -176 -539 -319 -541 -317 -2 2 107 240 242 528
135 287 245 528 245 534 0 6 -134 152 -298 325 l-299 315 500 5 499 5 316 534
316 534 71 -449 c40 -247 78 -489 86 -539z"/>
<path d="M11625 534 c-58 -20 -106 -64 -140 -125 -26 -47 -30 -64 -30 -134 0
-90 14 -126 74 -188 47 -50 101 -77 167 -84 107 -11 211 46 268 147 27 48 31
64 31 130 -1 91 -22 138 -90 198 -77 68 -186 90 -280 56z m201 -48 c85 -40
126 -109 126 -212 -1 -130 -102 -234 -227 -234 -159 0 -269 153 -224 313 12
46 69 111 118 137 53 28 142 26 207 -4z"/>
<path d="M11610 280 l0 -150 30 0 c30 0 30 1 30 55 l0 55 44 0 c56 0 76 -19
76 -71 0 -35 3 -39 25 -39 23 0 25 3 25 50 0 40 -4 52 -24 67 l-23 18 28 26
c37 35 39 80 4 114 -22 23 -32 25 -120 25 l-95 0 0 -150z m174 94 c41 -40 7
-84 -65 -84 l-49 0 0 50 0 50 49 0 c32 0 55 -6 65 -16z"/>
</g>
</svg>
