<?xml version="1.0" standalone="no"?>
<!DOCTYPE svg PUBLIC "-//W3C//DTD SVG 20010904//EN"
 "http://www.w3.org/TR/2001/REC-SVG-20010904/DTD/svg10.dtd">
<svg version="1.0" xmlns="http://www.w3.org/2000/svg"
 width="866.000000pt" height="650.000000pt" viewBox="0 0 866.000000 650.000000"
 preserveAspectRatio="xMidYMid meet">

<g transform="translate(0.000000,650.000000) scale(0.100000,-0.100000)"
fill="#000000" stroke="none">
<path d="M1182 4060 c-163 -43 -295 -143 -363 -275 -48 -91 -64 -160 -63 -270
1 -207 106 -370 299 -461 79 -38 190 -64 271 -64 l54 0 0 111 0 112 60 -6 c78
-9 126 -29 172 -74 45 -44 61 -88 61 -164 -2 -145 -118 -233 -305 -231 -128 1
-239 52 -275 127 l-17 35 -168 0 -168 0 6 -27 c46 -191 185 -340 381 -408 199
-69 448 -46 620 57 295 177 340 621 87 858 -105 97 -266 160 -414 160 l-61 0
2 -117 1 -118 -33 3 c-93 8 -150 33 -197 86 -76 87 -66 226 22 303 54 48 97
62 202 70 66 5 95 2 151 -15 75 -23 138 -72 149 -117 l6 -25 159 0 159 0 0 24
c0 44 -37 143 -75 200 -70 106 -195 189 -341 226 -104 27 -280 27 -382 0z"/>
<path d="M4000 4065 c-274 -56 -482 -239 -569 -501 -107 -318 -42 -652 172
-880 141 -151 318 -237 530 -258 l67 -7 0 80 c0 86 3 91 64 91 52 0 146 28
226 67 98 48 210 158 263 260 40 77 77 203 77 264 0 67 3 69 92 69 l81 0 -5
78 c-15 216 -123 425 -297 575 -71 60 -213 131 -315 157 -94 24 -283 26 -386
5z m372 -354 c165 -64 285 -226 299 -401 l4 -45 -76 -3 -76 -3 -6 -53 c-15
-152 -136 -275 -288 -293 l-50 -6 2 -71 2 -71 -55 1 c-157 3 -327 157 -382
343 -19 64 -21 206 -5 283 34 160 153 290 308 334 73 21 252 13 323 -15z"/>
<path d="M2050 3885 l0 -165 245 0 245 0 0 -630 0 -630 185 0 185 0 0 630 0
630 245 0 245 0 0 165 0 165 -675 0 -675 0 0 -165z"/>
<path d="M7711 4040 l-194 -5 -175 -327 c-96 -181 -177 -326 -181 -323 -5 2
-86 151 -182 329 l-174 325 -192 1 c-106 0 -193 -3 -193 -7 0 -5 83 -161 184
-348 l184 -340 176 -3 c97 -1 176 -6 176 -10 0 -4 -16 -36 -35 -72 l-35 -64 0
-368 0 -368 175 0 175 0 0 335 0 335 231 422 c127 233 239 437 249 455 11 18
16 34 12 35 -4 2 -94 1 -201 -2z"/>
<path d="M5150 3250 l0 -790 175 0 c96 0 175 3 175 8 0 4 1 111 3 237 l2 230
180 2 180 3 122 -238 121 -237 191 -3 c105 -1 191 0 191 2 0 3 -68 133 -150
289 l-150 283 58 60 c127 131 180 336 138 536 -21 96 -60 171 -127 242 -69 74
-147 119 -255 146 -70 18 -112 20 -466 20 l-388 0 0 -790z m741 456 c113 -26
162 -90 162 -212 0 -53 -5 -82 -22 -117 -46 -94 -97 -111 -341 -112 l-185 0
-3 215 c-1 118 0 220 2 227 7 18 310 18 387 -1z"/>
</g>
</svg>
