<?xml version="1.0" standalone="no"?>
<!DOCTYPE svg PUBLIC "-//W3C//DTD SVG 20010904//EN"
 "http://www.w3.org/TR/2001/REC-SVG-20010904/DTD/svg10.dtd">
<svg version="1.0" xmlns="http://www.w3.org/2000/svg"
 width="1122.000000pt" height="845.000000pt" viewBox="0 0 1122.000000 845.000000"
 preserveAspectRatio="xMidYMid meet">

<g transform="translate(0.000000,845.000000) scale(0.100000,-0.100000)"
fill="#000000" stroke="none">
<path d="M0 4225 l0 -4225 5610 0 5610 0 0 4225 0 4225 -5610 0 -5610 0 0
-4225z m5420 2915 c0 -5 -4 -10 -9 -10 -6 0 -13 5 -16 10 -3 6 1 10 9 10 9 0
16 -4 16 -10z m108 3 c-10 -2 -26 -2 -35 0 -10 3 -2 5 17 5 19 0 27 -2 18 -5z
m617 -14 c17 -5 67 -18 113 -30 45 -12 82 -25 82 -29 0 -10 -107 8 -139 24
-14 7 -46 19 -71 26 -25 7 -49 18 -55 23 -6 6 -1 6 15 2 14 -5 39 -12 55 -16z
m-982 -57 c-28 -10 -55 -20 -59 -24 -4 -5 -16 -8 -28 -8 -12 0 -16 4 -10 9 15
16 86 39 119 39 24 0 20 -3 -22 -16z m962 -22 c3 -6 -1 -7 -9 -4 -18 7 -21 14
-7 14 6 0 13 -4 16 -10z m295 1 c0 -5 -9 -7 -20 -4 -11 3 -20 7 -20 9 0 2 9 4
20 4 11 0 20 -4 20 -9z m-900 -11 c0 -11 -14 -11 -50 0 -22 7 -21 8 13 9 20 1
37 -3 37 -9z m193 -47 c-7 -2 -21 -2 -30 0 -10 3 -4 5 12 5 17 0 24 -2 18 -5z
m-313 -54 c25 -5 106 -13 180 -19 161 -12 317 -34 328 -45 4 -4 -5 -5 -19 -2
-14 4 -41 2 -59 -3 -23 -7 -38 -6 -47 2 -26 21 -408 31 -438 11 -23 -15 -49
-17 -40 -3 3 6 14 10 25 10 10 0 20 6 22 13 8 20 -3 37 -24 37 -25 0 -127 -28
-151 -41 -10 -5 -27 -7 -38 -4 -20 7 -85 -12 -109 -31 -8 -7 -37 -15 -65 -19
-27 -4 -68 -12 -90 -17 -82 -22 -105 -26 -100 -18 3 4 27 13 54 20 103 25 85
61 -20 41 -34 -7 -63 -10 -66 -7 -13 13 51 27 167 36 69 5 166 17 215 26 131
24 198 32 215 26 8 -3 35 -9 60 -13z m1270 1 c0 -5 -2 -10 -4 -10 -3 0 -8 5
-11 10 -3 6 -1 10 4 10 6 0 11 -4 11 -10z m-630 -70 c41 -18 93 -38 115 -45
87 -29 329 -144 321 -153 -3 -3 -29 7 -57 22 -89 46 -335 138 -434 163 -51 12
-63 19 -54 29 8 10 3 17 -20 29 -46 23 -38 28 12 6 23 -10 76 -33 117 -51z
m736 12 c-4 -3 -14 2 -24 12 -16 18 -16 18 6 6 13 -6 21 -14 18 -18z m-1501
-22 c-11 -5 -36 -8 -55 -8 -32 0 -33 1 -10 8 14 4 39 8 55 8 25 1 27 -1 10 -8z
m1590 -16 c28 -14 57 -33 65 -41 14 -13 2 -9 -117 38 -25 9 -31 29 -10 29 6 0
35 -12 62 -26z m-1755 7 c0 -8 -52 -31 -69 -31 -9 0 53 40 62 40 4 0 7 -4 7
-9z m1520 -11 c8 -5 11 -12 7 -16 -4 -4 -15 0 -24 9 -18 18 -8 23 17 7z
m-1965 -40 c-4 -14 -1 -22 10 -27 15 -5 14 -8 -6 -19 -13 -7 -31 -13 -40 -14
-15 0 -78 -33 -121 -63 -9 -6 -20 -8 -24 -4 -4 4 -5 8 -3 10 2 1 31 16 64 34
43 23 60 38 60 52 0 21 31 50 53 51 9 0 11 -7 7 -20z m1825 10 c0 -5 -2 -10
-4 -10 -3 0 -8 5 -11 10 -3 6 -1 10 4 10 6 0 11 -4 11 -10z m-1755 -20 c-3 -5
-12 -10 -18 -10 -7 0 -6 4 3 10 19 12 23 12 15 0z m1095 -19 c158 -31 229 -43
260 -46 20 -1 51 -9 70 -18 122 -54 154 -67 166 -67 16 0 104 -47 181 -97 28
-18 87 -52 130 -74 43 -23 92 -54 108 -69 17 -15 40 -31 53 -35 12 -3 22 -11
22 -18 0 -6 10 -22 23 -35 l22 -24 -32 18 c-18 11 -34 27 -37 36 -2 10 -13 18
-25 18 -11 0 -31 5 -45 12 -19 8 -23 14 -15 24 7 8 6 14 -2 19 -6 4 -15 2 -19
-5 -6 -10 -16 -7 -41 12 -40 29 -245 142 -274 150 -11 4 -45 16 -75 28 -125
48 -210 72 -298 83 -72 10 -90 15 -81 24 18 18 -18 29 -147 43 -183 20 -485
-4 -566 -46 -15 -8 -38 -14 -51 -14 -13 0 -55 -12 -93 -26 -38 -14 -87 -33
-108 -41 -80 -29 -247 -115 -253 -129 -3 -7 -11 -14 -18 -14 -28 0 -25 21 5
46 21 18 29 32 25 45 -5 16 -1 18 37 15 46 -4 108 20 108 41 0 7 8 13 19 13
10 0 43 10 72 23 30 13 74 29 99 36 25 7 63 19 85 27 68 23 177 46 239 50 33
2 62 7 65 10 8 9 334 -4 391 -15z m-955 -21 c-3 -5 -11 -10 -17 -10 -20 0
-103 -44 -130 -69 -15 -13 -31 -21 -35 -16 -5 4 -2 10 5 12 6 3 12 13 12 24 0
12 7 19 18 19 10 0 45 11 78 25 66 27 78 30 69 15z m1880 -20 c14 -16 15 -20
4 -20 -16 0 -39 19 -39 32 0 14 16 9 35 -12z m75 -12 c0 -6 -6 -5 -15 2 -8 7
-15 14 -15 16 0 2 7 1 15 -2 8 -4 15 -11 15 -16z m-2376 -25 c0 -16 -12 -35
-30 -50 -16 -13 -33 -28 -39 -34 -5 -5 -19 -18 -29 -27 -89 -80 -146 -141
-146 -156 0 -22 -27 -45 -55 -46 -16 0 -15 5 13 29 17 17 32 35 32 41 0 6 54
65 120 130 66 64 120 123 120 129 0 6 4 11 8 11 4 0 7 -12 6 -27z m2686 -38
c24 -25 40 -45 34 -45 -5 0 -30 20 -54 45 -24 25 -40 45 -34 45 5 0 30 -20 54
-45z m-1287 28 c-13 -2 -33 -2 -45 0 -13 2 -3 4 22 4 25 0 35 -2 23 -4z
m-1188 -53 c-3 -5 -12 -10 -19 -10 -6 0 -34 -14 -60 -31 -27 -16 -50 -28 -52
-26 -2 1 22 20 54 40 55 36 90 48 77 27z m-671 -22 c-9 -22 -63 -60 -74 -53
-7 4 5 19 27 36 41 31 55 36 47 17z m496 -22 c0 -2 -7 -7 -16 -10 -8 -3 -12
-2 -9 4 6 10 25 14 25 6z m1329 -17 c292 -49 499 -113 671 -210 39 -22 84 -44
115 -55 18 -6 18 -8 2 -11 -9 -3 -54 13 -100 35 -133 65 -279 129 -322 141
-97 29 -185 50 -250 61 -38 6 -92 16 -120 22 -27 6 -96 11 -153 12 -56 1 -92
4 -80 8 38 10 166 9 237 -3z m971 1 c0 -5 -4 -10 -10 -10 -5 0 -10 5 -10 10 0
6 5 10 10 10 6 0 10 -4 10 -10z m-2368 -30 c-33 -31 -52 -38 -52 -20 0 6 6 10
14 10 8 0 24 9 37 20 37 30 38 23 1 -10z m2829 -8 c28 -43 18 -41 -16 4 -16
20 -23 35 -16 33 7 -3 21 -19 32 -37z m-1821 18 c-34 -11 -60 -11 -35 0 11 5
29 8 40 8 16 0 15 -2 -5 -8z m1264 -19 c16 -9 32 -23 34 -30 2 -7 -14 -1 -37
14 -57 38 -54 50 3 16z m-2593 -22 c-13 -10 -32 -19 -42 -19 -11 0 -22 -7 -25
-15 -4 -9 -16 -21 -28 -27 l-21 -11 20 23 c24 27 107 81 115 74 3 -3 -6 -14
-19 -25z m333 -27 c-93 -87 -115 -105 -120 -99 -5 5 156 147 166 147 3 0 -18
-22 -46 -48z m803 32 c-3 -3 -12 -4 -19 -1 -8 3 -5 6 6 6 11 1 17 -2 13 -5z
m-1430 -46 c-34 -32 -176 -194 -211 -243 -16 -22 -31 -42 -33 -45 -4 -5 -23
20 -23 31 0 18 114 145 175 196 39 31 79 65 89 75 11 10 22 16 24 13 2 -2 -7
-14 -21 -27z m538 12 c-3 -5 -16 -10 -28 -10 -18 0 -19 2 -7 10 20 13 43 13
35 0z m1315 0 c137 -18 317 -50 360 -64 148 -48 443 -198 537 -273 168 -135
218 -177 225 -187 3 -6 53 -58 110 -116 95 -98 124 -134 247 -319 87 -130 98
-148 159 -272 54 -111 152 -352 152 -375 0 -5 9 -38 20 -74 25 -85 62 -246 66
-290 1 -19 5 -71 9 -115 4 -44 13 -136 21 -205 19 -165 11 -390 -21 -565 -14
-71 -27 -147 -31 -168 -3 -20 -11 -40 -17 -44 -7 -4 -8 7 -3 33 7 39 10 58 21
144 3 25 10 59 15 75 16 54 25 407 14 520 -3 28 -7 86 -10 130 -2 44 -8 103
-13 130 -6 28 -17 86 -24 130 -60 329 -208 686 -404 973 -141 206 -210 283
-440 490 -145 130 -253 203 -323 217 -19 4 -44 15 -55 25 -11 10 -49 30 -85
45 -36 15 -69 31 -75 35 -5 4 -40 17 -77 28 -65 20 -132 21 -144 1 -3 -5 -11
-9 -17 -9 -7 0 -6 4 3 10 13 9 13 11 0 20 -20 13 -36 7 -32 -14 3 -19 -19 -21
-36 -4 -61 61 -383 81 -622 39 -167 -29 -260 -58 -260 -79 0 -14 -2 -14 -9 -3
-7 11 -21 9 -78 -13 -38 -14 -92 -42 -122 -61 -62 -41 -79 -46 -30 -9 38 30
255 136 327 161 26 9 76 17 112 19 36 2 103 12 150 23 93 21 267 26 380 11z
m-1000 -21 c0 -17 -49 -59 -66 -57 -10 1 -38 -4 -61 -11 -39 -13 -43 -17 -43
-46 0 -18 -7 -39 -16 -46 -15 -12 -16 -11 -9 10 5 16 3 26 -6 32 -11 7 -9 12
9 25 18 12 21 19 11 30 -8 9 -8 14 -1 14 6 0 19 8 29 19 10 10 33 19 52 19 18
0 38 5 43 10 10 10 58 11 58 1z m2230 -19 c12 -16 17 -30 11 -30 -6 0 -17 14
-26 30 -9 17 -13 30 -11 30 3 0 14 -13 26 -30z m-2958 -55 c-17 -14 -53 -50
-81 -81 -28 -31 -51 -51 -51 -45 0 14 88 112 119 133 39 25 46 21 13 -7z
m3293 15 c3 -5 -1 -10 -9 -10 -8 0 -18 5 -21 10 -3 6 1 10 9 10 8 0 18 -4 21
-10z m-2775 -15 c-7 -8 -18 -15 -24 -15 -6 0 -2 7 8 15 25 19 32 19 16 0z
m2830 -30 c7 -9 8 -15 2 -15 -5 0 -12 7 -16 15 -3 8 -4 15 -2 15 2 0 9 -7 16
-15z m-1237 -27 c32 -11 56 -22 54 -24 -7 -7 -136 36 -143 48 -5 8 -1 9 12 4
10 -5 45 -17 77 -28z m-1818 -30 c-27 -29 -50 -55 -52 -57 -2 -2 -3 0 -3 5 0
14 80 104 92 104 6 0 -11 -24 -37 -52z m-261 27 c-4 -8 -9 -15 -13 -15 -4 0
-18 -19 -31 -42 -13 -23 -25 -37 -28 -30 -2 7 13 33 33 57 38 47 48 55 39 30z
m1204 2 c41 -8 67 -19 73 -30 9 -14 5 -17 -21 -17 -16 0 -30 5 -30 10 0 6 -8
10 -18 10 -10 0 -24 6 -30 12 -9 9 -41 12 -98 11 -51 -1 -82 2 -79 8 8 13 127
10 203 -4z m337 3 c25 -11 -71 -11 -165 0 -61 7 -59 7 40 8 58 0 114 -3 125
-8z m202 -14 c71 -15 128 -34 104 -35 -7 -1 -41 6 -75 15 -34 9 -79 14 -101
11 -45 -6 -95 1 -95 14 0 14 91 11 167 -5z m1291 -99 c36 -15 66 -48 177 -201
73 -100 124 -138 138 -103 3 6 6 -1 6 -16 1 -16 6 -37 12 -48 5 -11 9 -27 7
-35 -2 -9 -27 16 -61 60 -33 41 -99 117 -148 168 -49 51 -89 96 -89 100 0 16
-54 68 -70 68 -10 0 -20 3 -22 8 -1 4 -19 19 -39 34 -27 20 -37 34 -35 52 1
23 4 22 43 -23 23 -27 60 -55 81 -64z m-2575 87 c-2 -7 4 -14 14 -16 13 -2 8
-9 -22 -28 -22 -14 -43 -26 -46 -28 -3 -1 -5 17 -5 41 1 41 2 43 32 43 21 0
30 -4 27 -12z m-337 -27 c-7 -12 -16 -33 -20 -47 -7 -29 -52 -87 -61 -78 -9 8
76 159 86 153 5 -4 3 -16 -5 -28z m3249 23 c3 -5 1 -10 -4 -10 -6 0 -11 5 -11
10 0 6 2 10 4 10 3 0 8 -4 11 -10z m-3312 -25 c-3 -9 -8 -14 -10 -11 -3 3 -2
9 2 15 9 16 15 13 8 -4z m1123 0 c-11 -8 -27 -15 -35 -15 -10 1 -7 6 9 15 33
19 50 18 26 0z m1037 -47 c15 -5 27 -14 27 -19 0 -13 1 -13 -84 26 -88 40
-100 52 -23 23 28 -11 64 -24 80 -30z m515 32 c17 -11 32 -22 32 -25 0 -5 -41
15 -70 34 -28 19 5 11 38 -9z m-1303 0 c14 -7 8 -8 -20 -3 -22 3 -42 7 -44 9
-9 8 45 2 64 -6z m-1057 -28 c12 -25 11 -29 -21 -57 -19 -16 -53 -52 -77 -80
-26 -29 -51 -49 -64 -50 -17 0 -21 -6 -21 -37 -1 -20 -4 -40 -8 -44 -4 -4 -7
1 -7 10 0 38 -25 6 -40 -50 -20 -79 -28 -90 -45 -67 -9 11 -10 22 -4 28 14 14
11 25 -8 25 -13 0 -9 8 15 33 18 18 32 39 32 45 0 7 15 28 33 46 28 30 55 60
159 179 16 18 28 35 28 40 0 16 16 5 28 -21z m2307 -10 c-6 -6 -35 18 -35 29
0 5 9 1 20 -8 11 -9 17 -19 15 -21z m-1835 23 c0 -3 -20 -14 -44 -25 -25 -10
-54 -28 -66 -40 -11 -11 -25 -18 -31 -14 -15 9 0 22 68 55 59 29 73 33 73 24z
m1130 -5 c8 -5 11 -10 5 -10 -5 0 -17 5 -25 10 -8 5 -10 10 -5 10 6 0 17 -5
25 -10z m-1838 -77 c-27 -32 -60 -67 -73 -78 -13 -11 4 12 36 50 56 65 75 84
83 85 2 0 -18 -26 -46 -57z m2178 47 c13 -9 13 -10 0 -10 -8 0 -22 5 -30 10
-13 9 -13 10 0 10 8 0 22 -5 30 -10z m1316 -87 c19 -24 31 -43 27 -43 -12 0
-123 106 -123 118 0 23 17 21 38 -5 12 -15 38 -47 58 -70z m-3826 84 c0 -2
-12 -17 -26 -33 -27 -30 -23 -13 4 19 14 16 22 21 22 14z m1281 -31 c18 -3 42
0 58 8 37 19 132 21 265 6 96 -11 111 -11 121 3 7 11 16 12 27 6 9 -5 35 -11
58 -13 24 -3 51 -13 64 -25 12 -11 52 -31 89 -45 37 -13 81 -36 98 -50 17 -14
37 -26 44 -26 8 0 17 -5 20 -11 4 -5 -10 -2 -32 7 -79 35 -122 48 -130 40 -14
-14 49 -55 141 -91 85 -34 204 -87 273 -122 39 -19 99 -78 68 -67 -11 4 -33
17 -50 29 -41 29 -215 116 -300 150 -108 42 -202 97 -180 105 16 5 15 8 -7 22
-19 12 -28 14 -36 6 -9 -9 -16 -7 -30 5 -15 14 -43 18 -133 20 -94 3 -123 7
-164 26 -58 27 -175 35 -197 13 -11 -11 -10 -15 3 -25 13 -10 -6 -12 -95 -13
-98 0 -123 -4 -213 -33 -57 -18 -104 -37 -104 -42 -1 -5 -2 -15 -3 -21 -1 -7
-23 -23 -49 -37 -27 -13 -52 -32 -55 -41 -4 -10 -33 -39 -64 -65 -32 -26 -58
-56 -58 -66 0 -11 -17 -28 -45 -44 -24 -15 -59 -43 -76 -63 -18 -20 -44 -42
-59 -48 -15 -6 -37 -25 -51 -42 -13 -17 -43 -53 -67 -79 -23 -26 -45 -59 -48
-73 -4 -14 -13 -36 -22 -50 -36 -57 -82 -153 -82 -171 0 -21 12 -24 41 -9 26
14 24 6 -6 -26 -14 -15 -25 -36 -25 -47 0 -11 -9 -38 -19 -61 -51 -108 -99
-469 -71 -540 8 -21 6 -27 -11 -37 -16 -8 -19 -17 -14 -37 4 -15 14 -35 22
-44 17 -19 12 -21 -25 -12 -21 6 -23 12 -21 68 0 33 1 97 0 141 0 44 1 106 3
139 7 92 -14 118 -35 46 -8 -25 -16 -37 -21 -32 -6 6 -2 29 10 58 18 45 55
211 73 329 25 169 184 473 343 657 177 206 209 238 226 233 12 -4 37 7 69 30
31 22 51 32 51 23 -1 -13 -79 -68 -97 -68 -6 0 -31 -16 -56 -35 -46 -35 -74
-72 -63 -82 9 -9 54 14 98 49 22 17 41 28 44 25 6 -6 -54 -54 -117 -93 -44
-28 -174 -158 -194 -194 -5 -9 -25 -35 -43 -56 -97 -113 -248 -434 -205 -434
6 0 20 21 32 48 12 26 30 61 39 77 10 17 32 55 50 85 48 83 118 171 206 257
44 43 107 105 140 138 65 64 116 110 207 186 54 45 114 74 278 134 35 13 66
27 70 30 3 4 7 0 9 -8 2 -8 17 -17 33 -21z m1637 15 c3 -8 -1 -12 -9 -9 -7 2
-15 10 -17 17 -3 8 1 12 9 9 7 -2 15 -10 17 -17z m-812 -18 c-6 -6 -36 9 -36
18 0 5 9 4 20 -3 10 -7 18 -14 16 -15z m527 -7 c28 -17 34 -25 25 -33 -9 -7
-28 0 -63 24 -43 28 -46 33 -25 33 14 0 42 -11 63 -24z m-2922 -23 c-11 -16
-30 -39 -42 -53 l-21 -25 19 35 c22 43 43 70 55 70 5 0 0 -12 -11 -27z m2486
-5 c30 -13 42 -23 32 -25 -9 -2 -34 7 -54 21 -46 32 -41 33 22 4z m-2126 -45
c-17 -31 -31 -64 -31 -73 0 -18 -35 -53 -63 -63 -10 -4 -27 -27 -38 -51 -12
-27 -25 -43 -32 -40 -13 5 -41 -43 -82 -142 -12 -27 -31 -60 -42 -71 -12 -12
-26 -37 -32 -55 -22 -75 -50 -143 -58 -140 -4 2 -6 12 -5 24 2 11 -2 24 -9 29
-11 6 -10 11 2 26 9 10 28 42 43 72 26 50 27 58 16 92 -12 34 -10 44 14 101
15 35 40 86 57 113 28 49 29 49 22 15 -3 -19 -9 -37 -14 -40 -15 -11 -59 -135
-59 -169 l0 -36 25 30 c13 17 25 37 25 45 1 14 19 47 65 117 11 16 49 62 85
102 36 40 70 80 75 90 14 24 58 81 63 81 2 0 -10 -26 -27 -57z m2334 47 c3 -5
-1 -10 -9 -10 -8 0 -18 5 -21 10 -3 6 1 10 9 10 8 0 18 -4 21 -10z m-905 -10
c0 -11 -21 -11 -65 0 -27 7 -25 8 18 9 26 0 47 -3 47 -9z m1215 0 c13 -6 15
-9 5 -9 -8 0 -22 4 -30 9 -18 12 -2 12 25 0z m290 0 c3 -5 -1 -10 -9 -10 -9 0
-16 5 -16 10 0 6 4 10 9 10 6 0 13 -4 16 -10z m181 -70 c16 -14 34 -32 39 -40
5 -8 -19 9 -53 38 -34 30 -62 56 -62 59 0 5 25 -14 76 -57z m-3346 46 c0 -3
-4 -8 -10 -11 -5 -3 -10 -1 -10 4 0 6 5 11 10 11 6 0 10 -2 10 -4z m2486 -35
c32 -21 75 -48 94 -59 19 -12 30 -22 24 -22 -11 0 -172 94 -188 111 -23 22 15
6 70 -30z m799 -42 c6 -5 31 -27 58 -49 30 -25 43 -41 36 -46 -7 -4 -30 11
-55 37 -52 52 -70 68 -107 92 -15 10 -25 22 -22 28 6 8 52 -24 90 -62z m-2907
7 c-11 -18 -13 -19 -16 -3 -2 9 -8 17 -14 17 -6 0 -6 6 2 15 20 24 43 0 28
-29z m1312 22 c47 -5 102 -11 123 -13 21 -2 41 -6 45 -10 4 -4 -18 -4 -48 -1
-30 4 -84 8 -120 9 -143 7 -254 20 -235 28 20 9 75 5 235 -13z m-1400 4 c0 -5
-7 -17 -16 -28 -8 -10 -14 -14 -11 -9 2 6 7 18 10 28 7 17 17 23 17 9z m1075
-2 c-28 -12 -47 -12 -40 0 3 6 18 10 33 9 24 0 25 -1 7 -9z m1346 -5 c24 -9
49 -13 56 -11 12 5 133 -71 158 -99 6 -6 27 -24 48 -39 21 -15 36 -30 33 -33
-3 -3 -18 5 -33 17 -81 63 -137 100 -154 100 -10 0 -35 11 -55 25 -20 14 -44
25 -53 25 -16 0 -64 29 -50 30 4 0 26 -7 50 -15z m-1476 -25 c-11 -5 -31 -8
-45 -8 l-25 0 25 8 c14 4 34 8 45 8 l20 1 -20 -9z m2745 -18 c0 -15 -2 -15
-10 -2 -13 20 -13 33 0 25 6 -3 10 -14 10 -23z m-2481 9 c10 -6 -5 -11 -45
-16 -32 -3 -70 -8 -84 -10 -18 -3 -13 2 15 15 43 21 91 25 114 11z m464 -1
c10 0 16 -4 13 -8 -7 -11 -64 -3 -73 11 -4 6 2 8 18 4 13 -4 32 -7 42 -7z
m-2026 -27 c-42 -78 -153 -411 -177 -528 -7 -33 -19 -85 -27 -115 -23 -84 -32
-134 -26 -144 3 -4 0 -11 -6 -15 -7 -5 -12 -40 -14 -88 -2 -64 -4 -77 -14 -64
-8 12 -15 13 -23 5 -13 -13 -18 -56 -19 -199 -1 -72 -5 -105 -11 -95 -14 23 0
247 20 315 24 79 39 202 26 215 -7 7 -2 10 13 10 21 0 23 4 18 30 -4 16 -3 32
2 34 5 3 8 22 8 43 1 61 65 249 164 476 44 101 37 141 -13 75 -26 -35 -118
-217 -118 -234 0 -6 -13 -31 -29 -56 -17 -27 -32 -67 -36 -99 -4 -30 -11 -59
-16 -64 -11 -14 -50 -221 -49 -261 0 -17 -6 -46 -14 -65 -18 -44 -29 -204 -32
-444 -1 -104 -3 -197 -4 -205 0 -8 9 -49 20 -90 44 -153 50 -177 50 -202 0
-38 86 -283 130 -368 21 -41 65 -122 98 -180 33 -58 58 -107 56 -109 -8 -9
-32 22 -54 71 -28 63 -98 186 -118 210 -8 10 -25 46 -37 80 -13 35 -37 101
-55 148 -36 95 -69 235 -70 293 0 48 -26 110 -42 104 -8 -2 -13 -24 -14 -58 0
-30 -6 -65 -12 -79 -10 -23 -11 -20 -11 25 -1 28 0 61 0 75 3 33 2 159 -2 313
-2 97 1 131 14 167 16 41 56 213 77 330 4 25 13 61 19 80 13 40 5 93 -12 87
-7 -2 -20 -24 -29 -49 -9 -25 -28 -62 -42 -83 -14 -21 -26 -44 -26 -52 0 -8
-8 -35 -19 -61 -34 -85 -54 -189 -47 -241 7 -56 -3 -161 -15 -161 -5 0 -9 7
-9 15 0 19 -26 19 -34 0 -5 -15 2 -46 14 -55 4 -3 10 -19 13 -36 5 -29 4 -31
-19 -26 -18 3 -24 11 -26 31 -7 118 1 143 43 139 18 -2 25 2 27 21 5 32 -15
51 -32 29 -8 -11 -21 -14 -39 -11 -15 3 -27 3 -27 0 0 -3 -7 -42 -16 -87 -8
-45 -14 -107 -13 -138 1 -31 -1 -101 -5 -154 -4 -59 -3 -113 3 -136 7 -25 7
-66 1 -122 -9 -75 -8 -86 10 -115 24 -39 38 -125 21 -125 -6 0 -11 16 -11 36
0 39 -12 67 -43 101 -18 20 -19 27 -9 60 23 78 25 140 8 178 -9 19 -21 35 -25
35 -12 0 -21 -52 -21 -119 0 -40 -3 -52 -10 -41 -13 20 -12 95 1 145 6 22 13
51 16 65 3 14 11 30 19 36 9 8 12 43 11 145 -2 133 2 157 39 232 8 16 14 36
14 45 0 10 10 35 22 57 13 24 22 61 23 93 2 37 10 63 28 90 13 20 28 49 31 65
5 22 12 27 35 27 28 0 41 15 41 47 0 9 6 21 13 27 8 6 31 49 52 96 20 47 46
95 56 108 24 31 34 79 19 97 -16 19 7 54 31 48 23 -6 36 22 20 41 -8 10 -1 22
34 54 24 22 47 53 50 69 11 48 21 66 75 126 36 40 59 57 76 57 24 0 25 -1 11
-27z m4191 -85 c28 -53 29 -58 9 -33 -14 17 -39 57 -57 90 -26 49 -27 55 -8
33 13 -15 38 -56 56 -90z m-298 50 c0 -6 -7 -5 -15 2 -8 7 -15 17 -15 22 0 6
7 5 15 -2 8 -7 15 -17 15 -22z m-2072 15 c-10 -2 -26 -2 -35 0 -10 3 -2 5 17
5 19 0 27 -2 18 -5z m1323 -20 l24 -26 -27 19 c-15 10 -28 22 -28 27 0 12 5 8
31 -20z m364 17 c3 -5 2 -10 -4 -10 -5 0 -13 5 -16 10 -3 6 -2 10 4 10 5 0 13
-4 16 -10z m-2175 -10 c-113 -37 -147 -43 -128 -24 10 9 101 32 128 32 l25 0
-25 -8z m1426 -25 c25 -19 41 -35 36 -35 -6 0 -29 16 -52 35 -23 19 -39 35
-36 35 3 0 26 -16 52 -35z m-2413 5 c-3 -11 -10 -23 -16 -27 -5 -3 -8 -2 -5 3
3 5 8 17 11 27 9 24 16 22 10 -3z m1882 10 c7 -12 -2 -12 -30 0 -19 8 -19 9 2
9 12 1 25 -3 28 -9z m-1838 -22 c-3 -8 -6 -5 -6 6 -1 11 2 17 5 13 3 -3 4 -12
1 -19z m1690 16 c-3 -3 -12 -4 -19 -1 -8 3 -5 6 6 6 11 1 17 -2 13 -5z m78
-15 c25 -11 44 -23 42 -26 -6 -5 -97 33 -97 41 0 9 3 8 55 -15z m-1904 -110
c-22 -63 -40 -106 -40 -96 -1 9 12 54 28 100 38 106 43 119 48 114 2 -3 -14
-56 -36 -118z m1169 91 c-20 -13 -63 -13 -55 0 3 6 21 10 38 10 24 0 28 -3 17
-10z m268 3 c-10 -2 -26 -2 -35 0 -10 3 -2 5 17 5 19 0 27 -2 18 -5z m-345
-10 c-7 -2 -21 -2 -30 0 -10 3 -4 5 12 5 17 0 24 -2 18 -5z m-890 -29 c-14
-21 -14 -29 -4 -46 15 -23 -1 -48 -30 -48 -19 0 -39 -28 -39 -54 0 -28 55 -20
75 10 9 14 19 23 22 20 3 -2 -10 -23 -28 -44 -29 -34 -37 -39 -57 -31 -33 13
-45 11 -39 -6 4 -8 0 -27 -8 -42 -8 -15 -15 -36 -15 -46 0 -11 -6 -17 -12 -15
-19 7 -22 57 -4 76 8 10 28 47 44 83 17 37 35 70 41 74 6 3 18 23 27 43 12 30
29 51 42 52 1 0 -5 -12 -15 -26z m1807 16 c8 -5 11 -10 5 -10 -5 0 -17 5 -25
10 -8 5 -10 10 -5 10 6 0 17 -5 25 -10z m93 -21 c-7 -7 -21 -7 -44 -1 -32 10
-32 10 -7 11 15 1 30 6 34 12 4 8 9 8 17 0 8 -8 8 -14 0 -22z m-444 5 c10 -9
-55 -3 -69 6 -10 6 -2 7 25 3 22 -3 42 -7 44 -9z m1325 -9 c15 -14 23 -25 18
-25 -5 0 -19 11 -32 25 -13 14 -21 25 -18 25 3 0 17 -11 32 -25z m-793 -13
c-16 -5 -41 5 -41 17 0 7 10 6 26 -1 15 -7 21 -14 15 -16z m419 2 c0 -2 -9 0
-20 6 -11 6 -20 13 -20 16 0 2 9 0 20 -6 11 -6 20 -13 20 -16z m-1403 0 c-3
-3 -12 -4 -19 -1 -8 3 -5 6 6 6 11 1 17 -2 13 -5z m533 -4 c8 -5 11 -10 5 -10
-5 0 -17 5 -25 10 -8 5 -10 10 -5 10 6 0 17 -5 25 -10z m-305 -9 c11 -5 -10
-6 -50 -3 -38 2 -72 6 -74 8 -8 8 105 2 124 -5z m1441 -23 l29 -33 -32 29
c-31 28 -38 36 -30 36 2 0 16 -15 33 -32z m390 0 l29 -33 -32 29 c-31 28 -38
36 -30 36 2 0 16 -15 33 -32z m-966 -20 c25 -15 41 -28 37 -28 -13 0 -105 49
-112 60 -9 14 22 1 75 -32z m-2379 9 c-10 -9 -11 -8 -5 6 3 10 9 15 12 12 3
-3 0 -11 -7 -18z m3480 -9 l23 -33 -27 24 c-15 14 -27 28 -27 33 0 15 8 8 31
-24z m632 -40 c10 -35 -9 -18 -31 30 l-22 47 24 -29 c14 -16 27 -38 29 -48z
m-2408 46 c92 -3 88 -1 65 -24 -19 -19 -22 -19 -43 -5 -13 8 -46 18 -73 21
-27 4 -56 11 -64 16 -10 6 -1 6 25 2 22 -4 63 -9 90 -10z m1040 -13 l20 -24
-22 12 c-13 6 -23 19 -23 28 0 9 1 14 3 12 1 -2 11 -15 22 -28z m1235 19 c0
-5 -2 -10 -4 -10 -3 0 -8 5 -11 10 -3 6 -1 10 4 10 6 0 11 -4 11 -10z m-3640
-10 c0 -5 -5 -10 -11 -10 -5 0 -7 5 -4 10 3 6 8 10 11 10 2 0 4 -4 4 -10z
m1660 -6 l25 -15 -25 7 c-14 3 -32 10 -40 15 -13 7 -13 8 0 8 8 0 26 -6 40
-15z m1136 -11 c-7 -7 -26 7 -26 19 0 6 6 6 15 -2 9 -7 13 -15 11 -17z m-1262
9 c3 -5 -8 -6 -25 -4 -16 2 -29 6 -29 8 0 8 49 4 54 -4z m-677 -8 c-3 -3 -12
-4 -19 -1 -8 3 -5 6 6 6 11 1 17 -2 13 -5z m2801 -19 c-3 -3 -9 2 -12 12 -6
14 -5 15 5 6 7 -7 10 -15 7 -18z m-1883 -26 c65 -34 109 -62 300 -193 73 -50
205 -170 205 -187 0 -6 -4 -8 -9 -4 -5 3 -12 1 -16 -5 -11 -17 -26 0 -20 21 9
26 -13 51 -36 44 -12 -4 -32 6 -61 32 -24 21 -60 52 -81 68 -21 17 -57 45 -80
63 -23 17 -94 66 -157 109 -161 107 -169 116 -45 52z m624 -164 c112 -113 202
-207 199 -210 -2 -3 -21 13 -42 35 -20 22 -42 38 -47 34 -6 -3 -20 5 -32 18
-71 74 -205 191 -261 229 -36 24 -66 48 -66 53 0 5 8 2 18 -6 9 -9 27 -21 39
-27 35 -18 36 4 2 43 -17 20 -27 36 -22 36 4 0 100 -92 212 -205z m-2759 191
c0 -3 -8 -42 -19 -88 -10 -46 -27 -138 -37 -205 -9 -68 -21 -123 -26 -123 -19
0 -6 90 47 320 8 36 15 73 15 83 0 9 5 17 10 17 6 0 10 -2 10 -4z m1983 -15
c25 -11 48 -24 51 -30 4 -6 -16 0 -44 13 -80 37 -86 51 -7 17z m1477 -43 c0
-15 -18 0 -41 35 l-22 32 31 -29 c18 -17 32 -34 32 -38z m-509 35 c13 -16 12
-17 -3 -4 -10 7 -18 15 -18 17 0 8 8 3 21 -13z m99 7 c0 -5 -2 -10 -4 -10 -3
0 -8 5 -11 10 -3 6 -1 10 4 10 6 0 11 -4 11 -10z m-654 -57 c-5 -6 -85 37 -93
49 -3 6 17 -2 46 -17 28 -16 49 -30 47 -32z m1381 35 c-3 -8 -6 -5 -6 6 -1 11
2 17 5 13 3 -3 4 -12 1 -19z m-207 -28 c18 -23 30 -44 26 -47 -6 -6 -75 66
-76 80 -1 18 21 4 50 -33z m-2790 10 c0 -5 -5 -10 -12 -10 -6 0 -23 -10 -37
-22 -21 -19 -20 -17 3 10 30 32 46 40 46 22z m460 6 c0 -3 -4 -8 -10 -11 -5
-3 -10 -1 -10 4 0 6 5 11 10 11 6 0 10 -2 10 -4z m1683 -75 c-5 -7 -63 52 -63
63 0 6 15 -5 33 -24 18 -19 32 -37 30 -39z m871 54 c3 -8 1 -15 -4 -15 -6 0
-10 7 -10 15 0 8 2 15 4 15 2 0 6 -7 10 -15z m-1681 -32 c24 -21 65 -53 90
-70 26 -18 47 -37 47 -43 0 -12 -4 -10 -65 31 -40 28 -135 119 -123 119 4 0
27 -17 51 -37z m1650 -6 c9 -3 17 -13 17 -21 0 -8 3 -21 6 -30 11 -29 -13 -16
-26 13 -6 16 -20 37 -31 47 -10 9 -19 22 -19 28 1 6 8 2 18 -9 9 -12 25 -24
35 -28z m-3726 -94 c-14 -65 -31 -149 -38 -186 -6 -37 -13 -66 -16 -63 -5 5
15 158 27 206 5 19 14 60 21 90 16 76 19 84 25 77 4 -3 -5 -59 -19 -124z
m2978 116 c11 -17 -1 -21 -15 -4 -8 9 -8 15 -2 15 6 0 14 -5 17 -11z m248 -29
c14 -22 24 -40 22 -40 -2 0 -18 18 -35 40 -17 22 -28 40 -23 40 5 0 21 -18 36
-40z m228 13 c13 -16 12 -17 -3 -4 -10 7 -18 15 -18 17 0 8 8 3 21 -13z m705
-68 c9 -27 27 -68 40 -90 23 -41 68 -165 61 -171 -10 -10 -117 245 -131 311
-9 44 10 12 30 -50z m-3935 8 c-9 -16 -10 -16 -11 -1 0 9 3 25 7 35 7 16 8 17
11 1 2 -10 -1 -25 -7 -35z m1779 21 c0 -2 -9 0 -20 6 -11 6 -20 13 -20 16 0 2
9 0 20 -6 11 -6 20 -13 20 -16z m480 -15 c0 -5 -13 0 -30 13 -16 12 -30 23
-30 25 0 2 14 -3 30 -12 17 -9 30 -20 30 -26z m554 -8 c-7 -7 -34 28 -34 43 1
6 10 0 21 -13 11 -13 17 -27 13 -30z m137 22 c13 -16 12 -17 -3 -4 -10 7 -18
15 -18 17 0 8 8 3 21 -13z m330 -26 c12 -22 12 -22 -10 -3 -11 11 -21 23 -21
28 0 14 19 -1 31 -25z m155 -70 c55 -94 86 -158 80 -164 -3 -3 -13 12 -24 34
-31 62 -73 136 -97 168 -12 17 -25 39 -28 49 -15 40 21 -5 69 -87z m-606 -60
c0 -4 -6 -4 -14 0 -18 11 -126 139 -126 150 1 10 140 -139 140 -150z m-2430
113 c0 -5 -5 -10 -11 -10 -5 0 -7 5 -4 10 3 6 8 10 11 10 2 0 4 -4 4 -10z
m3250 -37 l-1 -48 -20 38 c-20 39 -18 57 7 57 10 0 14 -13 14 -47z m-4440 17
c0 -5 -5 -10 -11 -10 -5 0 -7 5 -4 10 3 6 8 10 11 10 2 0 4 -4 4 -10z m1360
-10 c-14 -11 -29 -20 -35 -20 -5 0 1 9 15 20 14 11 30 20 35 20 6 0 -1 -9 -15
-20z m-1001 -34 c-9 -8 -10 -7 -5 7 3 10 7 24 7 30 1 7 3 4 6 -7 3 -10 -1 -23
-8 -30z m3516 6 c-8 -8 -25 10 -25 26 0 13 2 13 14 -4 8 -10 13 -21 11 -22z
m245 3 c14 -19 14 -19 -2 -6 -10 7 -18 18 -18 24 0 6 1 8 3 6 1 -2 9 -13 17
-24z m-3377 -12 c-10 -16 -24 -33 -31 -38 -8 -6 -17 -27 -21 -45 l-7 -35 -19
23 c-28 32 -35 27 -29 -21 5 -33 2 -47 -10 -60 -9 -9 -20 -39 -23 -67 -5 -41
-3 -50 10 -50 10 0 18 14 22 41 4 22 13 43 21 46 8 3 14 13 14 22 0 9 5 23 11
31 22 31 -2 -65 -30 -120 -15 -31 -31 -74 -35 -95 -4 -22 -12 -45 -18 -52 -5
-7 -6 -17 -2 -24 10 -16 12 -219 2 -225 -4 -3 -8 -4 -9 -2 0 2 -4 56 -9 122
-7 92 -5 128 5 164 9 29 12 67 8 103 -5 54 4 110 39 232 10 34 28 51 28 27 0
-18 32 -11 37 8 4 16 33 37 56 41 4 0 0 -11 -10 -26z m395 5 c-9 -13 -24 -24
-34 -26 -15 -2 -13 2 9 23 35 31 44 32 25 3z m2530 1 c19 -30 8 -34 -12 -4 -9
14 -13 25 -9 25 5 0 14 -9 21 -21z m-804 -36 c87 -89 166 -177 166 -185 0 -4
-4 -8 -10 -8 -5 0 -10 4 -10 9 0 12 -96 111 -108 111 -5 0 -15 13 -22 30 -7
16 -27 38 -46 49 -19 11 -34 25 -34 31 0 20 18 9 64 -37z m923 -15 c75 -103
254 -451 239 -466 -3 -2 -20 29 -38 69 -40 90 -112 231 -142 279 -46 71 -76
116 -96 143 -12 15 -17 27 -12 27 6 0 27 -24 49 -52z m-231 -46 c25 -35 43
-66 42 -68 -5 -4 -111 132 -117 149 -9 25 30 -16 75 -81z m-2506 26 c-12 -13
-36 -47 -52 -75 -16 -29 -33 -53 -37 -53 -5 0 -13 -10 -19 -22 -6 -13 -11 -18
-11 -12 -1 7 14 34 32 60 48 69 69 113 61 125 -11 18 18 29 33 13 12 -12 11
-17 -7 -36z m2185 32 c10 -11 14 -20 8 -20 -5 0 -18 9 -28 20 -10 11 -14 20
-8 20 5 0 18 -9 28 -20z m1219 -23 c4 -19 3 -26 -4 -22 -5 3 -10 18 -10 32 0
32 5 28 14 -10z m-286 -12 c-3 -3 -9 2 -12 12 -6 14 -5 15 5 6 7 -7 10 -15 7
-18z m462 -13 c0 -7 -4 -10 -10 -7 -5 3 -10 16 -10 28 0 18 2 19 10 7 5 -8 10
-21 10 -28z m-4693 -4 c-3 -7 -5 -2 -5 12 0 14 2 19 5 13 2 -7 2 -19 0 -25z
m3411 -42 c23 -16 42 -33 42 -37 0 -5 6 -9 13 -9 6 0 23 -16 37 -36 13 -20 50
-59 81 -87 34 -30 55 -55 52 -64 -3 -9 0 -11 10 -8 10 4 21 -6 34 -32 10 -21
44 -76 74 -123 81 -126 220 -406 240 -485 18 -74 89 -258 111 -292 19 -28 32
-71 47 -158 36 -197 62 -319 71 -329 29 -30 58 50 41 111 -5 16 -5 36 -1 44 5
8 4 37 -1 64 -6 28 -8 62 -5 78 3 15 1 38 -4 52 -5 14 -11 60 -14 103 -2 42
-9 91 -16 107 -7 17 -14 44 -15 60 -3 55 -24 132 -45 169 -11 20 -20 46 -20
58 0 21 -11 59 -34 123 -21 56 -114 243 -125 250 -6 3 -9 11 -5 16 3 6 -1 18
-9 27 -9 9 -19 30 -23 46 -4 16 -15 31 -26 34 -12 3 -17 10 -13 22 3 10 -5 28
-19 43 -14 15 -23 33 -20 41 3 7 -9 29 -25 47 -17 18 -31 37 -31 41 0 5 -7 16
-15 26 -78 87 -96 111 -105 137 -9 28 -8 27 28 -13 20 -24 58 -65 83 -90 26
-26 57 -71 70 -99 13 -29 27 -53 31 -53 5 0 8 -7 8 -16 0 -8 31 -72 68 -142
88 -164 127 -246 144 -302 16 -56 44 -63 41 -10 -2 56 -31 176 -54 231 -23 53
-20 80 4 32 19 -37 64 -196 72 -253 3 -25 15 -81 25 -125 30 -125 58 -280 71
-390 17 -156 23 -422 10 -532 -6 -54 -14 -150 -16 -214 -5 -109 -11 -155 -36
-254 -24 -96 -30 -139 -27 -201 4 -93 21 -102 80 -43 51 50 105 128 114 164 3
13 12 29 20 36 8 6 14 18 14 25 0 7 9 30 21 51 27 47 54 146 82 293 l22 115 3
-60 c2 -42 -6 -95 -27 -175 -37 -146 -28 -122 -138 -348 -51 -106 -93 -198
-93 -205 0 -7 5 -18 12 -25 9 -9 9 -15 1 -23 -8 -8 -14 -5 -23 12 -7 13 -37
49 -67 79 l-55 55 5 70 c3 38 10 108 16 155 5 47 10 164 10 261 1 143 -3 189
-18 250 -11 41 -26 99 -34 129 -8 30 -18 82 -21 115 -14 121 -81 349 -152 512
-8 17 -14 38 -14 46 0 9 -4 18 -9 22 -5 3 -15 22 -22 43 -36 112 -198 417
-284 532 -69 94 -175 219 -219 260 -81 74 -113 106 -92 89 12 -8 40 -28 64
-43z m397 22 l16 -33 -20 25 c-20 24 -26 40 -16 40 2 0 12 -15 20 -32z m-3415
2 c-10 -19 -40 -28 -40 -12 0 13 23 32 37 32 11 0 11 -5 3 -20z m-408 -27 c-5
-10 -7 -24 -4 -32 4 -13 -13 -31 -31 -31 -11 0 2 40 22 67 19 25 27 23 13 -4z
m4489 -12 c6 -22 19 -41 29 -44 9 -2 20 -17 24 -33 11 -48 40 -104 52 -100 7
3 14 -16 18 -48 6 -58 37 -136 61 -156 8 -7 15 -25 15 -41 0 -15 5 -31 10 -34
12 -8 13 -35 1 -35 -5 0 -14 12 -20 28 -6 15 -15 34 -19 42 -16 26 -39 83 -57
140 -20 63 -89 209 -122 259 -24 36 -30 61 -13 61 5 0 14 -18 21 -39z m-4154
-5 c-3 -7 -9 -87 -13 -177 -4 -91 -11 -167 -17 -171 -6 -4 -10 -79 -11 -193
-1 -175 0 -187 19 -201 17 -12 17 -16 6 -24 -12 -7 -13 -15 -4 -44 6 -20 9
-45 6 -56 -4 -14 0 -20 11 -20 19 0 21 -11 5 -27 -8 -8 -6 -29 10 -77 23 -71
26 -90 13 -82 -12 7 -48 151 -62 246 -6 41 -16 92 -21 112 -13 49 -12 277 1
393 5 50 10 108 9 129 0 22 6 43 13 47 10 7 11 12 1 29 -17 26 -16 30 2 30 18
0 20 21 3 38 -9 9 -9 18 0 37 12 25 38 36 29 11z m48 -58 c-4 -29 -12 -60 -17
-68 -6 -10 -8 -5 -4 19 3 18 6 49 6 67 0 19 5 34 11 34 7 0 9 -17 4 -52z m83
-114 c-7 -44 -11 -106 -7 -139 3 -33 2 -119 -2 -192 -3 -72 -3 -151 2 -175 9
-47 12 -144 4 -136 -28 28 -46 450 -24 586 5 31 15 93 22 137 10 68 12 74 15
39 2 -23 -3 -77 -10 -120z m3137 134 c13 -11 22 -25 19 -30 -6 -10 -54 29 -54
44 0 13 8 10 35 -14z m-269 -50 c76 -79 147 -176 149 -202 1 -12 6 -30 10 -41
5 -12 -2 -8 -18 11 -15 18 -27 36 -27 40 0 5 -18 33 -40 61 -23 31 -37 59 -34
68 4 10 0 15 -15 15 -11 0 -25 10 -32 23 -6 12 -25 37 -42 55 -17 17 -27 32
-21 32 5 0 37 -28 70 -62z m1078 46 c3 -8 2 -12 -4 -9 -6 3 -10 10 -10 16 0
14 7 11 14 -7z m345 -84 l-1 -45 -8 35 c-4 19 -10 53 -14 75 l-5 40 14 -30 c8
-16 14 -50 14 -75z m-1496 38 c4 -10 4 -18 2 -18 -6 0 -35 56 -35 67 0 10 25
-27 33 -49z m1187 -14 c0 -8 -4 -12 -10 -9 -5 3 -10 13 -10 21 0 8 5 12 10 9
6 -3 10 -13 10 -21z m-1272 -34 c23 -21 42 -47 42 -57 -1 -13 -14 -3 -45 32
-39 44 -53 65 -42 65 2 0 22 -18 45 -40z m940 4 c-4 -3 -12 5 -18 18 -12 22
-12 22 6 6 10 -10 15 -20 12 -24z m762 -24 c0 -20 -2 -22 -10 -10 -5 8 -10 26
-10 40 0 20 2 22 10 10 5 -8 10 -26 10 -40z m280 20 c6 -11 7 -20 2 -20 -6 0
-12 9 -15 20 -3 11 -3 20 -1 20 2 0 8 -9 14 -20z m-4620 -130 c0 -80 -4 -130
-10 -130 -5 0 -10 -19 -11 -42 0 -36 -2 -39 -9 -20 -6 14 -4 60 6 129 8 59 12
127 8 150 -4 29 -3 43 5 43 7 0 11 -41 11 -130z m3934 114 c11 -28 6 -39 -9
-20 -8 11 -15 23 -15 28 0 14 18 9 24 -8z m-1093 -119 c23 -44 46 -82 50 -85
4 -3 11 -19 15 -35 3 -17 12 -37 19 -45 7 -8 17 -31 24 -50 21 -63 66 -150 80
-155 11 -4 12 6 7 52 -4 39 -3 51 3 38 5 -11 10 -31 10 -45 1 -14 8 -36 17
-49 16 -22 16 -23 -6 -16 -22 7 -23 6 -17 -36 3 -24 15 -66 25 -94 19 -49 46
-136 57 -185 4 -18 3 -21 -4 -10 -14 23 -101 286 -101 307 0 11 -13 37 -28 59
-16 21 -50 89 -76 149 -67 153 -104 230 -130 268 -37 54 -40 63 -13 37 14 -14
44 -61 68 -105z m1398 47 c1 -8 -5 -12 -11 -9 -13 4 -18 34 -9 51 5 10 19 -19
20 -42z m-975 -2 c7 -24 6 -24 -8 -6 -9 11 -16 27 -16 35 0 21 16 2 24 -29z
m756 -158 c0 -12 -3 -12 -15 -2 -8 7 -15 18 -15 24 0 6 -11 38 -25 71 -40 99
-28 107 15 10 22 -49 40 -95 40 -103z m447 156 c-3 -8 -6 -5 -6 6 -1 11 2 17
5 13 3 -3 4 -12 1 -19z m-1731 -71 c14 -26 39 -71 57 -100 38 -60 100 -197 93
-204 -2 -3 -28 41 -56 98 -28 57 -56 110 -63 119 -15 18 -65 114 -78 150 -9
24 -9 24 7 5 8 -11 27 -42 40 -68z m942 -98 c17 -37 33 -84 36 -105 l6 -39
-15 30 c-8 17 -14 36 -15 42 0 7 -14 43 -31 80 -44 97 -50 113 -42 126 3 5 12
-7 18 -29 7 -21 26 -69 43 -105z m809 94 c-3 -10 -5 -4 -5 12 0 17 2 24 5 18
2 -7 2 -21 0 -30z m-47 -20 c0 -13 -20 -19 -20 -5 0 4 -3 18 -6 32 -5 24 -5
24 10 6 9 -11 16 -26 16 -33z m-50 -50 c13 -44 26 -502 15 -491 -5 5 -9 72
-10 150 -2 131 -15 281 -31 351 -10 42 13 33 26 -10z m-1340 -4 c0 -6 -4 -7
-10 -4 -5 3 -10 11 -10 16 0 6 5 7 10 4 6 -3 10 -11 10 -16z m-2971 -83 c1
-32 -17 -5 -19 29 -4 54 2 71 11 30 4 -22 8 -49 8 -59z m4486 84 c3 -5 1 -10
-4 -10 -6 0 -11 5 -11 10 0 6 2 10 4 10 3 0 8 -4 11 -10z m-1537 -77 c-2 -12
-11 -5 -30 25 -36 53 -35 57 3 21 17 -16 29 -36 27 -46z m323 31 c11 -26 17
-49 15 -52 -5 -4 -46 81 -46 94 0 16 14 -3 31 -42z m-3691 4 c0 -21 -3 -29
-10 -22 -5 5 -7 19 -4 32 9 31 14 27 14 -10z m130 7 c0 -8 -4 -15 -10 -15 -5
0 -10 7 -10 15 0 8 5 15 10 15 6 0 10 -7 10 -15z m3298 -21 c7 -14 8 -23 2
-19 -15 9 -32 45 -22 45 5 0 14 -12 20 -26z m972 -54 c6 -25 22 -90 36 -145
35 -139 38 -155 26 -155 -11 0 -27 47 -43 129 -11 57 -34 151 -41 171 -4 8 -9
29 -13 45 -11 51 22 8 35 -45z m467 38 c-3 -7 -5 -2 -5 12 0 14 2 19 5 13 2
-7 2 -19 0 -25z m-4852 -17 c3 -5 1 -12 -5 -16 -5 -3 -10 1 -10 9 0 18 6 21
15 7z m4298 -11 c3 -11 1 -20 -4 -20 -5 0 -9 9 -9 20 0 11 2 20 4 20 2 0 6 -9
9 -20z m-4297 -96 c1 -32 2 -61 3 -64 2 -3 4 -27 6 -55 7 -107 15 -164 28
-206 17 -52 43 -160 51 -209 7 -38 42 -130 86 -225 16 -33 36 -78 45 -100 37
-85 83 -173 116 -220 19 -28 47 -75 62 -107 16 -31 37 -64 48 -74 10 -9 19
-21 19 -26 0 -10 133 -162 190 -218 19 -19 66 -59 103 -89 37 -30 65 -56 62
-59 -10 -10 -187 150 -276 248 -112 125 -249 324 -301 440 -122 267 -168 377
-168 402 0 7 -7 33 -16 58 -28 81 -64 263 -70 355 -10 150 -10 215 1 212 6 -2
11 -30 11 -63z m4824 45 c0 -11 -4 -17 -10 -14 -5 3 -10 13 -10 21 0 8 5 14
10 14 6 0 10 -9 10 -21z m189 -21 c1 -5 -3 -8 -9 -8 -5 0 -10 12 -9 28 0 24 1
25 9 7 5 -11 9 -23 9 -27z m-1199 12 c0 -5 -4 -10 -10 -10 -5 0 -10 5 -10 10
0 6 5 10 10 10 6 0 10 -4 10 -10z m703 -24 c16 -12 16 -17 5 -35 -16 -26 -28
-27 -28 -2 0 11 -3 26 -6 35 -7 19 5 20 29 2z m-449 -22 c9 -23 7 -46 -3 -40
-11 7 -21 56 -11 56 4 0 11 -7 14 -16z m583 -16 c-3 -7 -5 -2 -5 12 0 14 2 19
5 13 2 -7 2 -19 0 -25z m273 -33 c0 -29 -3 -36 -10 -25 -5 8 -10 33 -10 55 0
29 3 36 10 25 5 -8 10 -33 10 -55z m-1403 -8 c-2 -6 -11 2 -20 20 -23 43 -21
51 4 19 11 -14 19 -32 16 -39z m1053 -1 c0 -19 -4 -38 -10 -41 -6 -4 -10 10
-10 34 0 23 5 41 10 41 6 0 10 -15 10 -34z m-1300 -87 c0 -24 -19 -5 -34 34
-23 61 -20 69 9 18 14 -23 25 -47 25 -52z m574 59 c6 -28 2 -48 -8 -37 -8 10
-15 69 -7 69 5 0 11 -14 15 -32z m239 10 c2 -13 14 -59 25 -103 27 -109 40
-185 31 -185 -4 0 -13 26 -19 58 -7 31 -21 91 -32 132 -30 111 -31 120 -20
120 5 0 12 -10 15 -22z m-3976 -10 c-3 -8 -6 -5 -6 6 -1 11 2 17 5 13 3 -3 4
-12 1 -19z m-631 -78 c-10 -39 -16 -50 -21 -38 -4 10 1 41 11 70 22 66 30 42
10 -32z m954 64 c0 -8 -4 -12 -10 -9 -5 3 -10 10 -10 16 0 5 5 9 10 9 6 0 10
-7 10 -16z m-50 -33 c0 -16 11 -65 23 -110 20 -67 21 -81 9 -81 -10 0 -12 -7
-8 -25 4 -14 8 -46 11 -73 l4 -47 -13 50 c-8 28 -15 65 -15 83 -1 18 -6 42
-11 52 -15 28 -25 194 -11 186 6 -4 11 -20 11 -35z m4470 2 c0 -27 -3 -34 -11
-26 -7 7 -9 23 -5 37 9 37 16 32 16 -11z m99 -49 c5 -32 10 -63 11 -69 4 -20
0 -36 -9 -31 -4 3 -12 34 -15 68 -4 35 -10 77 -12 93 -4 23 -3 26 5 14 5 -8
14 -42 20 -75z m-4400 43 c0 -21 -1 -21 -9 -2 -12 28 -12 37 0 30 6 -3 10 -16
9 -28z m3026 -61 c-13 -10 -13 -16 0 -60 16 -52 14 -71 -4 -38 -8 14 -32 162
-31 192 0 3 12 -15 25 -39 22 -38 23 -45 10 -55z m-3275 65 c0 -10 7 -22 16
-25 13 -5 14 -9 4 -21 -9 -10 -10 -31 -6 -68 5 -36 4 -49 -3 -42 -6 6 -15 42
-21 80 -12 88 -12 95 0 95 6 0 10 -9 10 -19z m4253 -11 c5 -18 -8 -49 -16 -40
-3 3 -8 20 -12 37 -5 27 -4 32 8 27 8 -3 17 -14 20 -24z m-1043 -18 c0 -15 -2
-15 -10 -2 -13 20 -13 33 0 25 6 -3 10 -14 10 -23z m-3820 -13 c0 -5 -9 -9
-20 -9 -19 0 -26 11 -14 23 8 8 34 -3 34 -14z m1038 -44 l-12 -40 -4 33 c-4
41 5 69 18 56 6 -6 5 -24 -2 -49z m2752 -9 c22 -49 25 -66 11 -66 -7 0 -41 86
-41 104 0 16 12 1 30 -38z m370 34 c0 -5 -7 -10 -15 -10 -8 0 -15 5 -15 10 0
6 7 10 15 10 8 0 15 -4 15 -10z m-4313 -37 c-3 -10 -5 -4 -5 12 0 17 2 24 5
18 2 -7 2 -21 0 -30z m923 16 c0 -6 -4 -7 -10 -4 -5 3 -10 11 -10 16 0 6 5 7
10 4 6 -3 10 -11 10 -16z m2865 -79 c6 -23 5 -23 -13 5 -11 17 -23 41 -27 55
-6 23 -5 23 13 -5 11 -16 23 -41 27 -55z m1522 33 c-3 -10 -5 -2 -5 17 0 19 2
27 5 18 2 -10 2 -26 0 -35z m-5165 -37 c-2 -25 -8 -46 -13 -46 -10 0 -12 60
-3 84 11 29 19 8 16 -38z m4788 7 c0 -25 -3 -44 -6 -40 -9 9 -22 75 -16 81 15
15 22 2 22 -41z m-4223 5 c-3 -7 -5 -2 -5 12 0 14 2 19 5 13 2 -7 2 -19 0 -25z
m3618 12 c3 -5 1 -10 -4 -10 -6 0 -11 5 -11 10 0 6 2 10 4 10 3 0 8 -4 11 -10z
m-229 -51 c-5 -24 10 -102 44 -229 5 -19 12 -71 15 -115 4 -44 13 -96 22 -116
8 -20 13 -45 11 -55 -3 -15 -8 -10 -21 19 -13 30 -21 37 -35 33 -14 -5 -23 4
-41 39 -12 25 -21 51 -19 57 2 6 10 -3 17 -20 16 -37 38 -42 46 -9 5 20 -27
209 -56 320 -8 33 -8 52 -1 59 6 6 7 21 1 40 -7 26 -6 28 7 17 10 -8 14 -22
10 -40z m-3379 -1 c-3 -8 -6 -5 -6 6 -1 11 2 17 5 13 3 -3 4 -12 1 -19z m4470
-20 c-3 -7 -5 -2 -5 12 0 14 2 19 5 13 2 -7 2 -19 0 -25z m-4394 -40 c4 -29 9
-69 12 -88 l5 -35 -13 35 c-17 43 -31 153 -18 146 4 -3 11 -29 14 -58z m407
15 c0 -27 -18 -12 -22 19 -5 28 -4 29 9 13 7 -11 13 -25 13 -32z m2620 0 c0
-22 -8 -14 -19 20 -10 29 -9 30 4 13 8 -11 15 -26 15 -33z m-3093 -30 c-3 -10
-5 -2 -5 17 0 19 2 27 5 18 2 -10 2 -26 0 -35z m353 21 c0 -8 9 -33 20 -54 11
-22 16 -40 11 -40 -12 0 -51 80 -51 104 0 9 5 14 10 11 6 -3 10 -13 10 -21z
m3863 -24 c3 -14 1 -20 -6 -17 -7 2 -14 14 -15 26 -4 28 13 20 21 -9z m-3969
4 c3 -8 2 -12 -4 -9 -6 3 -10 10 -10 16 0 14 7 11 14 -7z m156 -3 c0 -5 3 -18
7 -28 6 -16 5 -16 -10 -4 -19 15 -23 41 -7 41 6 0 10 -4 10 -9z m2899 -49 c-1
-42 -2 -44 -9 -17 -11 45 -11 77 0 70 6 -3 9 -27 9 -53z m-3079 -24 c13 -35
31 -74 40 -88 39 -59 110 -194 107 -204 -2 -6 -25 31 -52 82 -43 85 -67 114
-81 99 -3 -2 3 -23 12 -45 9 -23 14 -47 11 -54 -7 -22 -40 65 -39 105 1 20 -6
56 -14 78 -13 38 -19 89 -10 89 2 0 14 -28 26 -62z m-213 30 c-3 -8 -6 -5 -6
6 -1 11 2 17 5 13 3 -3 4 -12 1 -19z m-26 -107 c6 -33 9 -65 6 -73 -2 -7 -7 1
-11 17 -3 17 -13 58 -21 92 -8 34 -15 67 -15 75 1 25 29 -52 41 -111z m3222
96 c8 -12 18 -38 21 -57 l7 -35 -19 30 c-16 25 -35 85 -27 85 2 0 9 -10 18
-23z m696 -25 c1 -7 -3 -10 -9 -7 -5 3 -10 18 -9 33 0 24 1 25 9 7 5 -11 9
-26 9 -33z m670 -75 c-5 -17 -9 -57 -9 -88 0 -43 -4 -58 -16 -63 -25 -10 -27
-8 -20 27 4 17 11 66 16 107 5 41 13 91 16 110 l7 35 8 -48 c4 -26 3 -62 -2
-80z m-4552 71 c-3 -8 -6 -5 -6 6 -1 11 2 17 5 13 3 -3 4 -12 1 -19z m267 -4
c3 -8 2 -12 -4 -9 -6 3 -10 10 -10 16 0 14 7 11 14 -7z m2875 -109 c0 -21 -28
57 -33 93 -4 27 -1 22 14 -23 11 -33 20 -64 19 -70z m1071 95 c0 -16 -4 -30
-10 -30 -5 0 -10 14 -10 30 0 17 5 30 10 30 6 0 10 -13 10 -30z m-580 10 c0
-5 -2 -10 -4 -10 -3 0 -8 5 -11 10 -3 6 -1 10 4 10 6 0 11 -4 11 -10z m-4113
-62 c-2 -13 -4 -3 -4 22 0 25 2 35 4 23 2 -13 2 -33 0 -45z m-147 30 c0 -16
-3 -19 -11 -11 -6 6 -8 16 -5 22 11 17 16 13 16 -11z m795 -8 c3 -5 1 -10 -4
-10 -6 0 -11 5 -11 10 0 6 2 10 4 10 3 0 8 -4 11 -10z m4492 -12 c-3 -8 -6 -5
-6 6 -1 11 2 17 5 13 3 -3 4 -12 1 -19z m-4333 -50 c45 -81 56 -113 22 -65
-26 38 -66 111 -66 122 0 15 12 -1 44 -57z m4020 21 c-8 -13 -24 -1 -24 18 0
13 3 13 15 3 8 -7 12 -16 9 -21z m-1124 -17 c0 -7 -4 -10 -10 -7 -5 3 -10 16
-10 28 0 18 2 19 10 7 5 -8 10 -21 10 -28z m-153 -4 c-3 -8 -6 -5 -6 6 -1 11
2 17 5 13 3 -3 4 -12 1 -19z m380 0 c-3 -8 -6 -5 -6 6 -1 11 2 17 5 13 3 -3 4
-12 1 -19z m778 2 c7 -21 0 -40 -16 -40 -5 0 -9 14 -9 30 0 34 15 40 25 10z
m-4786 -37 c-1 -43 -2 -45 -9 -18 -11 44 -11 65 0 65 6 0 9 -21 9 -47z m111
-64 c10 -57 22 -115 26 -128 5 -17 4 -22 -4 -17 -6 4 -14 23 -17 44 -4 20 -10
51 -15 67 -11 40 -24 152 -16 144 3 -3 15 -53 26 -110z m630 61 c7 -19 19 -42
25 -50 7 -8 15 -31 18 -50 4 -19 9 -46 13 -60 5 -19 4 -22 -5 -14 -12 11 -61
144 -76 202 -9 36 8 17 25 -28z m-933 18 c-3 -8 -6 -5 -6 6 -1 11 2 17 5 13 3
-3 4 -12 1 -19z m5203 13 c0 -12 -20 -25 -27 -18 -7 7 6 27 18 27 5 0 9 -4 9
-9z m-1291 -64 c1 -10 -3 -15 -9 -12 -5 3 -10 21 -9 38 0 27 2 29 9 12 5 -11
9 -28 9 -38z m1177 26 c-10 -10 -19 5 -10 18 6 11 8 11 12 0 2 -7 1 -15 -2
-18z m-5165 -273 c23 -189 44 -313 78 -452 5 -20 18 -49 30 -64 11 -15 21 -34
21 -43 0 -9 16 -54 36 -101 19 -47 42 -104 50 -127 8 -22 35 -78 62 -123 26
-44 54 -93 62 -108 29 -52 61 -92 75 -92 8 0 11 -7 9 -18 -13 -48 260 -347
454 -496 88 -67 236 -166 249 -166 10 0 73 -45 103 -74 29 -28 265 -145 327
-162 34 -9 64 -23 67 -30 3 -7 0 -11 -7 -9 -117 36 -175 60 -297 121 -80 40
-160 84 -179 98 -19 14 -40 26 -45 26 -19 0 -137 77 -153 99 -14 21 -67 60
-118 89 -64 35 -362 356 -411 442 -12 22 -34 54 -47 72 -71 93 -231 445 -253
556 -7 36 -28 57 -44 47 -14 -8 -4 -78 16 -117 8 -15 14 -54 14 -86 0 -33 7
-79 15 -102 8 -23 15 -53 15 -66 0 -13 11 -49 25 -80 14 -31 25 -68 25 -83 0
-31 36 -130 56 -152 8 -9 12 -18 9 -21 -6 -6 37 -92 59 -118 7 -8 21 -42 31
-75 21 -68 48 -125 67 -136 7 -5 24 -28 38 -52 40 -71 96 -150 120 -172 12
-11 39 -45 60 -75 47 -69 217 -250 235 -250 8 0 26 -16 42 -35 36 -43 156
-140 206 -166 20 -11 37 -26 37 -34 0 -20 53 -58 140 -99 41 -20 68 -36 60
-36 -40 0 -188 86 -280 161 -25 20 -87 64 -137 99 -51 34 -93 66 -93 71 0 5
-43 51 -96 102 -87 82 -137 144 -269 327 -26 35 -41 49 -43 38 -3 -17 58 -128
83 -148 9 -8 25 -30 35 -50 10 -20 46 -67 79 -103 34 -37 61 -75 61 -85 0 -10
18 -36 40 -57 22 -21 40 -44 40 -50 0 -22 218 -193 320 -251 36 -21 79 -47 96
-60 17 -12 54 -30 82 -39 29 -10 52 -21 52 -25 0 -9 134 -63 185 -76 17 -4 42
-13 57 -21 15 -7 92 -20 170 -28 79 -8 172 -19 207 -24 67 -8 173 7 193 27 20
20 0 39 -50 46 -45 6 -49 8 -45 30 4 19 -1 28 -22 38 -24 13 -22 14 44 14 46
-1 71 -5 71 -12 0 -19 26 -24 119 -24 93 0 188 22 197 45 4 10 15 12 35 8 28
-5 59 9 59 28 0 5 -9 13 -19 18 -14 8 -25 6 -45 -10 l-26 -21 -18 22 c-15 19
-24 21 -51 15 -20 -4 -35 -15 -38 -26 -4 -15 -11 -17 -32 -12 -14 4 -34 6 -43
5 -10 0 -18 3 -18 9 0 5 16 9 35 9 43 0 95 25 95 45 0 20 -70 28 -164 17 -63
-7 -86 -6 -109 6 -24 12 -35 12 -68 2 -35 -12 -40 -11 -56 8 -10 11 -47 33
-83 47 -36 15 -73 34 -83 43 -11 9 -31 22 -45 29 -25 10 -25 11 -5 12 12 1 64
-17 115 -40 63 -27 104 -39 125 -37 18 2 34 -1 36 -6 2 -7 50 -9 129 -7 113 2
131 0 179 -20 62 -27 133 -30 279 -11 52 7 131 15 175 19 44 3 89 12 100 19
11 8 26 14 34 14 18 0 71 49 71 66 0 21 -38 26 -144 19 -67 -5 -107 -12 -118
-22 -14 -13 -19 -13 -31 -2 -10 11 -44 13 -143 11 -71 -1 -162 -3 -202 -3 -40
-1 -75 -5 -78 -10 -8 -13 -43 -11 -109 8 -33 9 -87 19 -120 23 -135 16 -372
74 -495 120 -47 18 -112 42 -145 54 -33 12 -67 26 -75 31 -8 5 -48 27 -88 48
-40 21 -89 49 -109 63 -20 13 -41 24 -47 24 -6 0 -27 17 -46 37 -24 25 -28 32
-13 24 12 -6 25 -16 28 -21 4 -6 29 -23 56 -38 28 -15 75 -40 104 -57 30 -16
78 -43 106 -58 52 -29 270 -106 369 -132 179 -45 310 -69 353 -62 18 2 54 -3
82 -13 77 -28 101 -31 132 -18 28 12 88 17 218 19 38 0 86 7 105 16 26 11 53
13 102 8 56 -5 73 -3 108 15 23 12 44 29 47 38 6 26 62 55 118 61 36 4 51 11
53 23 2 12 -5 19 -22 24 -19 4 -26 13 -26 30 0 35 13 30 49 -21 18 -25 45 -53
59 -63 l26 -17 -44 -7 c-25 -5 -70 -12 -100 -16 -62 -9 -120 -34 -145 -62 -16
-18 -16 -20 -2 -26 9 -3 36 -1 61 4 35 7 52 6 73 -5 27 -14 40 -14 123 3 l35
7 -37 -42 c-21 -22 -38 -45 -38 -50 0 -5 -34 -29 -76 -53 -41 -24 -94 -57
-117 -75 -23 -18 -55 -39 -72 -46 -16 -8 -41 -26 -54 -41 -27 -29 -43 -34 -34
-10 4 12 1 15 -13 12 -11 -2 -19 -12 -19 -22 0 -10 -10 -22 -23 -27 -26 -10
-27 -7 -7 30 15 30 33 41 66 41 19 0 111 64 118 82 4 13 -87 -1 -119 -18 -14
-7 -37 -15 -52 -19 -15 -3 -35 -18 -45 -33 -26 -42 -55 -62 -93 -62 -34 0
-240 -61 -270 -80 -50 -32 86 -78 138 -48 15 9 47 19 72 23 27 5 58 19 78 36
19 17 44 29 59 29 24 0 22 -3 -17 -22 -25 -13 -46 -31 -48 -40 -5 -26 28 -23
72 7 20 14 42 25 47 25 6 0 26 7 45 16 32 15 36 15 53 0 37 -34 60 -12 36 34
-17 33 -11 60 8 41 6 -6 23 -11 38 -11 28 0 144 56 214 103 43 29 165 159 165
176 0 23 23 21 55 -6 117 -94 109 -85 86 -102 -16 -13 -19 -25 -17 -61 2 -33
7 -44 17 -41 8 2 29 6 47 9 35 5 44 30 17 52 -23 19 -18 40 8 40 31 0 40 -10
22 -24 -14 -10 -14 -14 0 -34 20 -27 39 -29 32 -2 -3 11 -1 20 4 20 11 0 39
-54 39 -74 0 -8 6 -19 13 -23 6 -5 28 -26 47 -48 l35 -39 -36 30 c-20 16 -50
41 -68 56 -31 26 -31 26 -92 12 -33 -8 -74 -22 -92 -31 -18 -9 -61 -26 -97
-38 -49 -16 -66 -27 -68 -42 -4 -25 -40 -37 -60 -21 -10 9 -18 9 -32 0 -11 -6
-48 -11 -82 -11 -77 1 -151 -17 -174 -42 -9 -10 -26 -19 -36 -19 -11 0 -40 -9
-66 -19 -26 -11 -67 -22 -92 -25 -25 -4 -74 -15 -110 -25 -136 -38 -249 -61
-345 -70 -55 -5 -102 -8 -105 -6 -3 2 -32 6 -65 9 -70 7 -136 24 -97 25 15 1
26 9 29 22 4 12 11 18 20 15 8 -3 19 -6 24 -6 5 0 8 -5 6 -11 -1 -6 4 -14 11
-16 6 -3 12 2 12 10 0 16 18 21 108 33 47 5 56 3 74 -16 18 -19 27 -21 67 -15
58 8 80 27 61 50 -10 12 -23 15 -47 10 -34 -6 -42 2 -22 22 30 30 -35 45 -81
18 -18 -10 -60 -14 -146 -15 -99 0 -123 -3 -128 -15 -3 -8 -16 -15 -30 -15
-19 0 -23 4 -19 20 4 13 0 20 -9 20 -9 0 -36 3 -62 6 -42 6 -46 5 -46 -14 0
-21 25 -36 41 -26 6 3 17 3 25 0 14 -5 14 -8 0 -22 -15 -14 -26 -12 -123 20
-66 21 -97 35 -80 35 21 1 28 5 25 18 -4 23 -39 29 -50 10 -6 -12 -15 -13 -36
-7 -46 13 -134 55 -186 88 -28 18 -58 32 -69 32 -10 0 -39 12 -65 27 -104 61
-270 168 -312 202 -48 40 -95 71 -106 71 -4 0 -4 -18 0 -41 4 -26 3 -38 -4
-34 -5 3 -10 12 -10 20 0 7 -11 23 -25 33 -15 12 -21 23 -15 27 15 9 12 25 -5
25 -9 0 -18 13 -22 31 -3 18 -14 34 -23 36 -26 7 -65 65 -61 91 1 12 -2 22 -8
22 -5 0 -23 11 -39 25 -16 13 -32 22 -35 19 -7 -7 -91 97 -123 152 -28 48 -35
52 -54 29 -10 -12 -10 -15 4 -15 9 0 16 -7 16 -15 0 -36 -47 -2 -59 43 -9 31
-9 32 15 26 18 -5 24 -2 24 11 0 20 -88 167 -106 178 -8 4 -14 15 -14 23 0 8
-9 22 -19 31 -24 20 -18 35 12 28 12 -3 28 -1 36 4 18 12 4 33 -18 26 -13 -4
-25 11 -54 69 -20 41 -37 87 -37 101 0 14 -7 28 -16 32 -14 5 -74 118 -74 138
0 3 10 5 21 5 18 0 21 4 16 28 -3 15 -9 35 -12 45 -4 9 -3 17 3 17 6 0 14 -10
17 -22 4 -13 12 -36 20 -53 36 -84 45 -107 45 -125 0 -22 95 -207 121 -234 39
-41 29 -2 -34 146 -94 218 -128 327 -162 522 -8 46 -26 106 -41 134 -23 44
-26 63 -29 180 -2 72 -8 139 -13 149 -13 24 -33 385 -28 498 6 148 8 155 17
50 5 -55 14 -143 20 -195z m4069 249 c0 -10 -4 -19 -10 -19 -5 0 -10 12 -10
26 0 14 4 23 10 19 6 -3 10 -15 10 -26z m-3980 -15 c11 -29 3 -54 -11 -33 -9
15 -12 59 -4 59 3 0 10 -12 15 -26z m758 -84 c11 -30 32 -79 46 -107 14 -29
26 -63 26 -75 -1 -17 -8 -9 -25 27 -36 75 -105 246 -105 259 0 18 35 -45 58
-104z m3491 -18 c-1 -20 -36 58 -45 97 -3 14 6 2 20 -27 14 -30 26 -61 25 -70z
m721 84 c0 -19 -4 -37 -9 -40 -11 -7 -25 49 -16 64 13 21 25 9 25 -24z m-5147
-512 c3 -6 11 -53 16 -105 21 -192 32 -239 69 -311 9 -19 -15 -5 -31 17 -20
27 -31 82 -48 230 -6 55 -15 127 -21 160 -16 101 -20 263 -12 405 l9 135 5
-260 c4 -144 9 -266 13 -271z m5324 501 c-4 -8 -11 -15 -17 -15 -7 0 -7 6 0
21 13 23 26 19 17 -6z m-1167 -5 c0 -5 -4 -10 -10 -10 -5 0 -10 5 -10 10 0 6
5 10 10 10 6 0 10 -4 10 -10z m-2950 -103 c0 -23 -30 33 -36 65 -5 31 -4 31
15 -11 12 -24 21 -48 21 -54z m2887 51 c-3 -7 -5 -2 -5 12 0 14 2 19 5 13 2
-7 2 -19 0 -25z m-3910 0 c-3 -8 -6 -5 -6 6 -1 11 2 17 5 13 3 -3 4 -12 1 -19z
m5384 -5 c-8 -15 -10 -15 -11 -2 0 17 10 32 18 25 2 -3 -1 -13 -7 -23z m-1391
-15 c0 -16 -3 -19 -11 -11 -6 6 -8 16 -5 22 11 17 16 13 16 -11z m-3999 -283
c11 -66 27 -156 35 -200 7 -44 16 -91 19 -105 5 -18 3 -22 -4 -15 -6 6 -15 31
-20 55 -5 25 -18 90 -29 145 -38 188 -60 385 -45 407 5 8 11 -25 15 -77 4 -49
17 -144 29 -210z m4968 234 c1 -14 -2 -29 -6 -33 -5 -4 -9 -36 -9 -69 -2 -78
-12 -176 -20 -188 -8 -14 -37 -218 -35 -254 1 -40 -60 -216 -103 -295 -8 -14
-26 -59 -40 -100 -15 -41 -39 -96 -55 -121 -41 -67 -56 -116 -40 -135 10 -13
14 -13 30 2 10 9 25 14 33 11 9 -4 23 4 35 20 22 27 19 48 -5 39 -17 -7 -17
-4 0 39 18 42 28 45 24 8 -4 -36 20 -37 41 -2 9 14 28 43 42 65 14 21 42 70
63 107 20 37 45 82 56 99 10 17 28 74 40 127 12 53 27 114 33 136 6 22 12 54
13 70 5 68 37 197 51 202 23 9 26 -4 10 -54 -8 -26 -18 -69 -21 -95 -3 -26
-10 -56 -15 -65 -14 -29 -31 -110 -31 -152 0 -22 -6 -52 -14 -68 -8 -15 -28
-57 -45 -93 -61 -128 -159 -300 -171 -300 -15 0 -100 -128 -107 -161 l-6 -31
-13 31 c-9 20 -18 29 -28 25 -9 -3 -21 4 -31 19 -13 21 -14 33 -6 64 14 50 14
53 -5 46 -14 -5 -15 -3 -5 15 7 12 20 22 30 22 21 0 48 64 60 142 4 26 15 56
24 66 9 10 17 21 17 24 0 3 18 38 41 79 22 41 44 92 49 114 4 22 16 74 25 115
16 72 28 151 40 269 3 29 7 57 10 60 2 4 7 59 10 122 7 128 13 155 25 124 5
-11 9 -32 9 -46z m-4799 -13 c0 -41 -16 -21 -25 29 -6 37 -5 39 9 20 8 -11 16
-33 16 -49z m3893 44 c-3 -11 -7 -20 -9 -20 -2 0 -4 9 -4 20 0 11 4 20 9 20 5
0 7 -9 4 -20z m-2906 -76 c-7 -8 -57 56 -57 74 0 9 13 -2 31 -26 17 -24 29
-45 26 -48z m3710 64 c-3 -8 -6 -5 -6 6 -1 11 2 17 5 13 3 -3 4 -12 1 -19z
m-4013 -5 c3 -10 27 -52 54 -94 27 -42 52 -87 55 -101 4 -14 27 -54 52 -89 25
-35 57 -81 70 -102 14 -21 40 -54 58 -75 56 -64 62 -79 11 -26 -64 66 -157
194 -194 268 -16 32 -34 64 -39 70 -23 29 -92 166 -83 166 5 0 12 -8 16 -17z
m3090 -90 c10 -60 24 -142 32 -184 8 -42 14 -130 14 -196 0 -91 4 -124 15
-139 15 -19 15 -19 31 1 10 14 14 31 10 55 -3 19 -9 95 -13 168 -4 97 -3 132
5 132 7 0 12 -17 13 -42 2 -154 8 -251 18 -261 16 -16 23 -4 32 54 5 28 11 54
14 57 9 9 17 -6 15 -30 -1 -13 -2 -49 -2 -80 -1 -41 -5 -58 -15 -58 -7 0 -13
-7 -13 -15 0 -16 -12 -18 -67 -15 -32 1 -33 1 -34 -42 l-1 -43 -13 30 c-8 17
-14 46 -15 65 -1 31 -2 33 -14 18 -20 -27 -23 -23 -22 32 1 42 4 50 20 50 18
0 18 6 13 103 -8 134 -30 305 -53 415 -4 19 -2 32 3 32 6 0 18 -48 27 -107z
m1221 97 c4 -6 11 -8 16 -5 5 4 9 0 9 -8 0 -21 -35 -48 -54 -41 -19 7 -19 6
-4 39 12 27 23 32 33 15z m-5105 -30 c0 -25 -18 -36 -26 -16 -8 21 3 49 16 41
5 -3 10 -15 10 -25z m4060 -7 c0 -7 -4 -13 -10 -13 -5 0 -10 12 -10 28 0 21 2
24 10 12 5 -8 10 -21 10 -27z m170 -46 c12 -61 7 -88 -8 -46 -5 13 -12 49 -16
79 -8 69 7 48 24 -33z m-250 -30 c14 -37 20 -67 15 -84 -9 -37 -27 -16 -36 44
-24 152 -23 153 21 40z m1036 44 c-12 -19 -24 -12 -19 10 4 13 9 17 15 11 6
-6 7 -15 4 -21z m253 -114 c-5 -26 -14 -57 -20 -69 -6 -12 -13 -51 -15 -87 -2
-36 -11 -83 -20 -103 -16 -35 -16 -39 0 -63 22 -34 32 -32 56 15 11 22 25 40
31 40 10 0 -4 -30 -53 -111 -15 -25 -37 -83 -48 -130 -18 -72 -39 -133 -80
-234 -15 -36 -10 8 5 53 9 24 20 69 24 100 5 32 16 81 24 109 11 37 13 77 10
133 -4 52 -2 80 4 80 10 0 16 21 29 113 5 30 3 37 -10 37 -9 0 -16 2 -16 4 0
2 -3 12 -6 20 -5 12 -1 16 17 14 19 -3 25 4 35 37 7 22 13 70 13 106 1 36 4
69 9 73 12 13 20 -86 11 -137z m-4250 93 c11 -24 11 -24 -3 -6 -9 11 -16 24
-16 30 0 12 5 7 19 -24z m3082 0 c14 0 11 -19 -10 -48 -11 -15 -22 -49 -26
-76 -5 -34 -10 -45 -17 -38 -8 8 -6 29 6 72 10 33 14 70 10 82 -5 17 -3 20 11
15 9 -4 21 -7 26 -7z m-3812 -40 c11 -23 23 -54 26 -71 4 -17 13 -33 21 -36 8
-3 14 -12 14 -20 0 -8 8 -17 18 -20 16 -4 34 -44 58 -130 2 -7 10 -13 19 -13
11 0 14 -6 9 -24 -5 -23 26 -98 66 -156 9 -14 20 -37 24 -52 3 -15 17 -35 31
-44 14 -9 25 -25 25 -36 0 -12 16 -36 36 -54 19 -19 32 -39 29 -44 -10 -17 38
-74 180 -214 139 -138 146 -152 25 -47 -91 79 -245 260 -272 318 -10 23 -25
46 -32 50 -8 4 -30 37 -49 73 -19 36 -47 85 -61 110 -14 25 -26 54 -26 64 0
11 -11 33 -23 50 -13 17 -27 43 -31 58 -3 15 -20 51 -37 80 -18 29 -35 64 -40
78 -43 134 -45 153 -10 80z m885 -39 c-7 -7 -54 50 -54 64 1 6 14 -5 30 -24
16 -19 27 -37 24 -40z m-1160 28 c-1 -13 5 -28 13 -32 14 -8 9 -27 -7 -27 -13
0 -41 70 -34 82 10 17 29 2 28 -23z m5150 16 c-6 -16 -24 -21 -24 -7 0 11 11
22 21 22 5 0 6 -7 3 -15z m-84 -45 c0 -27 -2 -50 -5 -50 -8 0 -26 80 -20 90
14 23 25 6 25 -40z m-1285 -46 c4 -46 3 -52 -4 -24 -16 66 -22 116 -11 99 5
-9 12 -43 15 -75z m996 40 c-5 -21 -9 -30 -10 -19 -1 24 10 67 15 62 3 -2 0
-22 -5 -43z m-4698 6 c3 -11 1 -20 -4 -20 -11 0 -30 36 -22 43 9 10 20 0 26
-23z m997 21 c0 -5 3 -18 6 -28 5 -16 4 -16 -10 1 -18 23 -20 36 -6 36 6 0 10
-4 10 -9z m3159 -54 c1 -5 -3 -5 -9 -2 -5 3 -10 16 -9 28 0 21 1 21 9 2 5 -11
9 -24 9 -28z m-4099 1 c0 -5 -4 -8 -10 -8 -5 0 -10 10 -10 23 0 18 2 19 10 7
5 -8 10 -18 10 -22z m879 -23 c0 -5 -9 1 -19 14 -11 13 -20 28 -20 35 0 6 9 0
20 -14 11 -14 20 -29 19 -35z m-514 -143 c-3 -3 -9 -1 -14 4 -10 10 -71 160
-70 172 0 4 20 -33 45 -82 25 -48 43 -91 39 -94z m733 138 c17 -27 10 -25 -19
6 -13 14 -17 23 -9 19 9 -3 21 -14 28 -25z m2881 -23 c1 -10 -3 -15 -9 -12 -5
3 -10 21 -9 38 0 27 2 29 9 12 5 -11 9 -28 9 -38z m-3979 -89 c0 -9 9 -37 20
-63 11 -26 20 -52 20 -58 0 -27 -36 43 -63 122 -16 47 -33 90 -37 95 -5 5 -6
15 -3 22 6 16 62 -90 63 -118z m1020 111 c0 -6 -4 -7 -10 -4 -5 3 -10 11 -10
16 0 6 5 7 10 4 6 -3 10 -11 10 -16z m-1151 -39 c7 -25 20 -60 28 -78 7 -19
16 -61 20 -94 4 -39 13 -68 25 -80 10 -10 28 -46 39 -81 12 -34 42 -107 66
-162 24 -55 47 -106 50 -112 3 -7 1 -13 -5 -13 -6 0 -15 14 -21 30 -5 17 -17
30 -25 30 -18 0 -61 89 -70 145 -4 22 -13 54 -20 70 -21 48 -47 126 -57 174
-5 25 -16 55 -24 67 -14 22 -55 131 -55 147 0 5 8 7 18 5 10 -2 22 -20 31 -48z
m670 -64 c89 -135 130 -186 246 -304 103 -106 158 -153 315 -269 61 -45 197
-132 230 -147 8 -3 38 -20 65 -36 28 -16 68 -37 90 -48 67 -32 76 -54 11 -28
-30 12 -61 27 -68 33 -7 6 -67 39 -133 73 -66 34 -129 70 -140 79 -11 10 -38
28 -60 41 -22 13 -71 50 -110 82 -38 32 -85 71 -103 86 -83 68 -290 319 -350
422 -14 25 -31 52 -37 60 -6 8 -16 29 -23 45 -9 24 -9 26 1 11 6 -10 36 -55
66 -100z m4287 66 c-11 -10 -15 4 -8 28 l7 25 3 -23 c2 -13 1 -26 -2 -30z
m-2206 -13 c0 -5 -5 -7 -11 -4 -6 4 -13 -2 -16 -14 -3 -12 -9 -21 -14 -21 -13
0 -11 -64 3 -78 17 -17 2 -15 -27 4 -33 22 -33 63 0 94 14 13 23 30 20 38 -3
8 -3 18 0 23 7 10 45 -26 45 -42z m-1950 26 c0 -8 -2 -15 -4 -15 -2 0 -6 7
-10 15 -3 8 -1 15 4 15 6 0 10 -7 10 -15z m2937 -7 c-3 -8 -6 -5 -6 6 -1 11 2
17 5 13 3 -3 4 -12 1 -19z m90 -10 c-3 -8 -6 -5 -6 6 -1 11 2 17 5 13 3 -3 4
-12 1 -19z m350 -30 c-2 -13 -4 -5 -4 17 -1 22 1 32 4 23 2 -10 2 -28 0 -40z
m-3003 26 c9 -22 -3 -32 -14 -14 -12 19 -12 30 -1 30 5 0 12 -7 15 -16z m80 0
c3 -8 2 -12 -4 -9 -6 3 -10 10 -10 16 0 14 7 11 14 -7z m3510 -11 c-4 -16 -10
-32 -15 -37 -7 -8 -4 17 7 52 7 24 14 11 8 -15z m321 17 c3 -5 1 -10 -4 -10
-6 0 -11 5 -11 10 0 6 2 10 4 10 3 0 8 -4 11 -10z m-5038 -22 c-3 -8 -6 -5 -6
6 -1 11 2 17 5 13 3 -3 4 -12 1 -19z m4229 -157 c7 -80 18 -195 24 -256 6 -60
8 -166 5 -235 -10 -219 -13 -211 75 -303 27 -28 46 -54 43 -57 -10 -10 -164
163 -154 173 6 6 4 23 -5 48 -11 27 -13 43 -6 56 14 25 4 582 -12 703 -5 44
-4 51 5 36 6 -10 18 -85 25 -165z m-486 102 c0 -45 -5 -40 -13 10 -3 22 -2 35
4 32 5 -4 9 -22 9 -42z m52 -72 c-10 -25 -19 37 -13 84 l5 40 7 -54 c4 -30 4
-61 1 -70z m-2722 72 c8 -17 26 -40 40 -51 14 -11 22 -23 18 -27 -10 -11 -98
89 -98 111 0 16 27 -7 40 -33z m2979 -30 c0 -27 -4 -57 -8 -68 -7 -16 -9 -14
-14 14 -12 59 -8 101 8 101 11 0 15 -12 14 -47z m-1303 -83 c4 -8 26 -40 50
-72 41 -52 55 -88 36 -88 -17 0 -52 47 -58 78 -4 18 -13 32 -21 32 -8 0 -11 4
-8 10 3 5 -7 27 -23 47 -17 21 -32 56 -36 78 l-6 40 30 -55 c16 -30 32 -62 36
-70z m-1932 94 c3 -8 2 -12 -4 -9 -6 3 -10 10 -10 16 0 14 7 11 14 -7z m426
-71 c0 -20 -14 -15 -43 15 -39 41 -33 58 8 25 19 -15 35 -34 35 -40z m1340 22
c19 -24 43 -47 53 -50 9 -4 17 -10 17 -15 0 -4 -8 -11 -17 -15 -17 -6 -17 -8
2 -22 19 -15 19 -15 -5 -8 -24 7 -35 16 -65 59 -22 30 -48 13 -43 -28 3 -32 2
-33 -15 -21 -10 7 -26 23 -34 35 -14 19 -13 23 3 35 11 8 27 15 37 15 12 0 17
8 17 30 0 17 3 30 8 30 4 0 23 -20 42 -45z m-2340 -6 c0 -6 -4 -7 -10 -4 -5 3
-10 11 -10 16 0 6 5 7 10 4 6 -3 10 -11 10 -16z m2593 -6 c5 -26 4 -26 -9 -9
-7 10 -11 23 -8 27 8 14 11 11 17 -18z m-2648 -3 c3 -5 2 -10 -4 -10 -5 0 -13
5 -16 10 -3 6 -2 10 4 10 5 0 13 -4 16 -10z m336 -12 c10 -13 19 -30 19 -38 0
-8 9 -28 20 -45 20 -31 28 -57 11 -39 -13 13 -80 144 -74 144 3 0 13 -10 24
-22z m3619 -44 c0 -34 -4 -53 -10 -49 -5 3 -10 31 -10 61 0 34 4 53 10 49 6
-3 10 -31 10 -61z m-4203 34 c-3 -8 -6 -5 -6 6 -1 11 2 17 5 13 3 -3 4 -12 1
-19z m730 -104 c133 -161 314 -326 493 -449 100 -69 100 -69 183 -120 42 -27
77 -52 77 -57 0 -13 -17 -9 -31 8 -7 8 -36 27 -63 41 -28 14 -64 36 -81 48
-16 13 -62 40 -102 62 -128 68 -442 379 -546 540 -40 63 -33 64 13 2 22 -30
48 -64 57 -75z m3033 116 c0 -5 -5 -10 -11 -10 -5 0 -7 5 -4 10 3 6 8 10 11
10 2 0 4 -4 4 -10z m-3431 -45 c0 -5 -6 -1 -14 9 -8 11 -15 24 -15 30 0 5 7 1
15 -10 8 -10 14 -23 14 -29z m180 12 c7 -19 23 -49 37 -68 14 -19 30 -43 36
-54 10 -19 10 -19 -7 -5 -24 20 -95 129 -95 147 0 25 19 13 29 -20z m-376 -1
c4 -10 1 -13 -9 -9 -15 6 -19 23 -5 23 5 0 11 -7 14 -14z m3724 -18 c-3 -8 -6
-5 -6 6 -1 11 2 17 5 13 3 -3 4 -12 1 -19z m-697 -79 c35 -44 69 -83 75 -87
16 -10 45 -59 45 -76 0 -8 7 -19 15 -24 9 -4 34 -30 55 -58 103 -127 347 -377
363 -371 7 2 20 -2 30 -11 28 -25 30 -7 2 26 -23 27 -23 31 -8 37 13 4 32 -9
70 -49 29 -31 53 -60 53 -65 0 -13 60 -55 67 -47 4 4 -11 25 -33 49 -75 80
-80 87 -64 99 13 8 12 9 -1 5 -17 -6 -39 10 -39 26 0 5 6 7 14 4 22 -9 28 5 9
25 -21 24 -10 34 22 20 16 -7 25 -20 25 -34 0 -18 6 -23 26 -25 17 0 43 -17
68 -42 l40 -41 -17 -29 c-33 -56 -15 -103 21 -54 25 35 41 23 18 -13 -17 -24
-17 -27 0 -45 22 -25 28 -24 42 6 10 22 14 24 32 13 21 -14 26 -38 10 -54 -11
-11 18 -76 37 -82 7 -2 15 8 19 22 7 29 25 34 44 11 14 -16 6 -35 -16 -35 -35
0 1 -46 132 -169 16 -15 36 -36 45 -47 9 -10 51 -50 94 -89 43 -38 123 -113
177 -167 54 -53 110 -103 123 -112 26 -17 36 -43 11 -29 -17 9 -214 174 -262
218 -18 17 -47 43 -66 58 -18 15 -40 34 -49 42 -8 8 -35 25 -60 38 -33 18 -45
30 -47 50 -3 25 -7 27 -53 27 -27 0 -49 -3 -49 -6 0 -7 52 -59 135 -135 39
-35 111 -101 160 -146 96 -87 212 -182 334 -276 42 -32 88 -70 102 -85 15 -15
48 -43 74 -62 26 -19 64 -48 84 -65 20 -16 48 -38 62 -47 l24 -17 -24 0 c-34
-1 -77 27 -240 158 -79 64 -164 130 -191 147 -26 18 -76 58 -111 91 -35 32
-76 65 -91 72 -16 8 -48 34 -73 57 -24 24 -54 48 -67 55 -42 23 -100 74 -109
96 -6 15 -14 21 -25 16 -17 -6 -51 28 -79 78 -8 15 -27 31 -43 37 -15 5 -47
34 -72 63 -24 30 -64 70 -88 89 -62 49 -139 128 -168 173 -13 20 -31 37 -39
37 -8 0 -19 10 -26 21 -6 12 -28 39 -48 60 -42 44 -75 83 -99 121 -10 15 -45
56 -77 92 -33 36 -71 80 -85 97 -14 17 -32 39 -41 49 -9 10 -35 44 -57 77 -22
32 -47 65 -57 73 -9 7 -23 29 -30 47 -8 19 -34 58 -58 86 -51 59 -79 107 -63
107 2 0 32 -36 66 -81z m-3000 50 c0 -6 -4 -7 -10 -4 -5 3 -10 11 -10 16 0 6
5 7 10 4 6 -3 10 -11 10 -16z m206 -36 c15 -32 49 -89 74 -128 26 -38 59 -89
74 -112 14 -24 55 -73 89 -110 35 -38 69 -77 74 -87 21 -38 297 -276 321 -276
12 0 22 -3 22 -7 0 -17 69 -83 138 -132 39 -29 72 -54 72 -57 0 -5 -51 15 -65
25 -5 5 -45 27 -88 50 -44 23 -93 56 -110 74 -37 37 -205 182 -251 215 -17 12
-31 28 -31 35 -1 21 -56 101 -106 152 -47 49 -129 162 -129 178 0 5 -19 39
-43 75 -36 56 -77 140 -77 157 0 15 11 -1 36 -52z m2094 47 c0 -5 -4 -10 -10
-10 -5 0 -10 5 -10 10 0 6 5 10 10 10 6 0 10 -4 10 -10z m-1137 -87 c52 -49
119 -104 147 -123 28 -19 69 -51 89 -70 21 -19 57 -50 82 -68 157 -116 197
-145 219 -154 14 -6 20 -12 14 -15 -17 -6 -102 42 -159 90 -27 23 -67 50 -88
60 -42 18 -74 42 -159 119 -29 26 -57 48 -63 48 -8 0 -148 139 -184 183 -35
43 15 9 102 -70z m-1019 24 c26 -47 26 -50 6 -32 -20 18 -50 66 -50 80 0 18
19 -2 44 -48z m4801 1 c-4 -24 -12 -47 -17 -53 -7 -7 -9 -2 -4 15 3 14 6 37 6
53 0 15 5 27 11 27 7 0 8 -14 4 -42z m-4042 -48 c44 -44 76 -80 70 -80 -9 0
-124 108 -152 143 -34 42 9 10 82 -63z m127 17 c0 -6 -9 -2 -20 8 -11 10 -20
23 -20 28 0 6 9 2 20 -8 11 -10 20 -23 20 -28z m1558 18 c-3 -3 -9 2 -12 12
-6 14 -5 15 5 6 7 -7 10 -15 7 -18z m1383 -35 l-9 -45 -1 55 c-1 35 2 51 9 44
6 -6 6 -26 1 -54z m430 19 c-5 -13 -10 -19 -10 -12 -1 15 10 45 15 40 3 -2 0
-15 -5 -28z m339 21 c0 -5 -5 -10 -11 -10 -5 0 -7 5 -4 10 3 6 8 10 11 10 2 0
4 -4 4 -10z m-4690 -22 c0 -7 3 -24 6 -38 5 -17 3 -22 -3 -15 -15 15 -25 65
-13 65 5 0 10 -6 10 -12z m523 -80 c20 -25 37 -52 37 -60 0 -20 61 -107 108
-154 22 -22 44 -53 48 -68 3 -15 17 -32 30 -38 13 -6 24 -18 24 -26 0 -13 -3
-13 -18 1 -25 23 -42 21 -42 -3 0 -23 93 -120 115 -120 8 0 47 -31 86 -70 40
-38 78 -70 84 -70 7 0 30 -13 52 -29 22 -16 60 -39 83 -51 23 -12 40 -23 37
-26 -2 -2 -43 17 -91 43 -48 27 -98 54 -110 60 -13 7 -40 27 -60 45 -20 18
-52 44 -72 58 -46 32 -144 126 -144 137 0 5 -45 55 -101 112 -56 58 -98 108
-95 116 2 7 -15 45 -40 84 -24 39 -44 74 -44 79 0 4 13 -13 29 -38 15 -25 35
-51 44 -58 9 -7 19 -26 22 -42 4 -16 25 -45 47 -66 22 -20 61 -60 86 -88 54
-61 62 -65 62 -33 0 15 -17 44 -43 73 -46 52 -107 137 -107 150 0 9 -45 77
-77 117 -13 16 -23 34 -23 40 0 12 16 -4 73 -75z m-683 44 c0 -15 -2 -15 -10
-2 -13 20 -13 33 0 25 6 -3 10 -14 10 -23z m4125 -78 c-7 -58 -15 -89 -24 -92
-11 -4 -12 2 -6 24 4 16 8 54 10 86 3 57 11 82 23 74 4 -2 3 -44 -3 -92z
m-3814 36 c10 -22 16 -40 14 -40 -5 0 -45 76 -45 86 0 14 13 -6 31 -46z m4529
24 c0 -26 -38 -90 -47 -80 -3 3 4 17 16 32 14 18 19 34 15 50 -4 15 -2 24 5
24 6 0 11 -12 11 -26z m-1802 -27 c23 -23 42 -48 42 -55 0 -21 -16 -13 -31 16
-18 34 -49 61 -71 62 -24 0 -23 20 0 20 10 0 37 -19 60 -43z m-2832 -29 c9
-18 25 -42 35 -53 23 -26 70 -150 63 -168 -7 -19 35 -97 67 -124 14 -12 43
-53 63 -90 20 -38 63 -106 96 -153 33 -47 59 -92 60 -100 0 -8 34 -49 75 -91
67 -69 154 -171 197 -232 18 -26 145 -113 251 -171 37 -20 67 -39 67 -41 0 -2
-26 5 -57 17 -68 26 -152 74 -206 117 -21 16 -47 33 -58 36 -10 4 -19 10 -19
14 0 5 -20 30 -45 56 -24 26 -43 51 -42 54 1 4 -36 48 -82 98 -101 111 -148
180 -269 396 -29 52 -52 78 -63 71 -12 -7 25 -96 66 -157 19 -28 35 -58 35
-65 0 -13 42 -79 87 -135 12 -15 25 -44 29 -65 4 -20 22 -57 42 -82 34 -44 34
-44 -24 11 -109 104 -156 156 -219 240 -22 29 -61 76 -86 103 -54 60 -109 163
-140 264 -13 41 -38 96 -56 124 -18 27 -36 62 -39 76 -4 17 4 8 21 -23 15 -27
37 -61 50 -75 12 -14 37 -64 55 -112 17 -47 45 -101 62 -120 16 -18 27 -25 24
-15 -3 9 -2 17 2 17 11 0 42 -55 42 -74 0 -19 40 -85 64 -105 9 -7 16 -18 16
-24 0 -6 17 -31 38 -56 22 -25 46 -60 55 -78 19 -35 44 -63 58 -63 17 0 9 22
-21 60 -35 44 -180 287 -180 301 0 15 -48 107 -60 114 -16 10 -12 25 6 25 13
0 15 6 9 27 -4 16 -8 54 -10 85 -5 66 -20 102 -41 94 -9 -3 -14 1 -14 12 0 9
-9 32 -20 50 -23 37 -24 42 -10 42 5 0 17 -15 26 -32z m954 22 c0 -5 -2 -10
-4 -10 -3 0 -8 5 -11 10 -3 6 -1 10 4 10 6 0 11 -4 11 -10z m86 -11 c19 -22
19 -22 -3 -10 -24 12 -39 31 -25 31 5 0 17 -10 28 -21z m1078 -18 c-6 -6 -24
19 -24 34 1 6 7 1 15 -9 8 -11 12 -22 9 -25z m609 17 c9 -33 -4 -44 -19 -17
-17 31 -17 39 0 39 7 0 16 -10 19 -22z m977 -110 c0 -10 -40 10 -40 20 0 4
-18 27 -40 52 -63 71 -46 72 20 1 33 -36 60 -68 60 -73z m55 83 c-8 -38 -5
-46 20 -48 11 0 26 -1 33 -2 6 -1 11 -7 10 -13 -2 -7 7 -14 20 -16 25 -4 29
-17 7 -26 -8 -3 -15 -12 -15 -21 0 -22 -13 -19 -44 10 -25 23 -25 25 -7 25 37
0 22 17 -21 26 -50 11 -59 34 -33 84 20 40 40 27 30 -19z m115 -26 c5 -6 5
-17 0 -25 -7 -12 -12 -11 -29 4 -26 23 -27 45 -3 74 l17 21 3 -32 c2 -17 8
-37 12 -42z m-3810 55 c0 -5 -4 -10 -10 -10 -5 0 -10 5 -10 10 0 6 5 10 10 10
6 0 10 -4 10 -10z m4215 -29 c-4 -17 -11 -31 -17 -31 -6 0 -7 8 -3 18 4 9 10
25 12 35 9 29 15 11 8 -22z m-766 -17 c-11 -22 -15 -24 -17 -9 -2 10 2 21 8
25 7 5 9 14 5 21 -6 11 -5 12 5 2 11 -11 11 -17 -1 -39z m1282 3 c-8 -8 -11
-7 -11 4 0 20 13 34 18 19 3 -7 -1 -17 -7 -23z m39 8 c0 -8 -4 -15 -10 -15 -5
0 -10 7 -10 15 0 8 5 15 10 15 6 0 10 -7 10 -15z m-4170 -116 c52 -52 107
-104 123 -113 28 -19 36 -36 15 -36 -6 0 -34 24 -62 54 -28 29 -64 61 -81 71
-16 9 -50 42 -75 73 -88 110 -63 95 80 -49z m340 111 c0 -5 -2 -10 -4 -10 -3
0 -8 5 -11 10 -3 6 -1 10 4 10 6 0 11 -4 11 -10z m1538 -8 c6 -18 -15 -14 -22
4 -4 10 -1 14 6 12 6 -2 14 -10 16 -16z m-2325 -97 c41 -55 87 -115 102 -132
15 -18 22 -33 16 -33 -6 0 -11 -4 -11 -8 0 -38 293 -293 486 -423 115 -79 125
-89 40 -45 -119 63 -311 202 -415 302 -56 53 -101 102 -101 108 -1 19 -62 82
-67 69 -9 -26 -23 -11 -58 60 -43 85 -56 117 -50 117 3 0 17 -19 31 -42 28
-45 113 -138 126 -138 11 0 -21 50 -65 101 -41 48 -117 156 -117 166 0 9 -2
11 83 -102z m2687 70 c0 -8 -2 -15 -4 -15 -2 0 -6 7 -10 15 -3 8 -1 15 4 15 6
0 10 -7 10 -15z m1085 -29 c-4 -17 -7 -44 -6 -59 1 -15 -3 -36 -8 -45 -6 -10
-6 -24 -1 -32 5 -8 3 -22 -6 -34 -8 -11 -14 -30 -14 -41 -1 -20 -1 -20 -15 -1
-19 26 -19 59 1 98 9 17 17 54 17 82 0 53 12 80 29 70 6 -4 7 -20 3 -38z
m-1198 10 c4 -6 8 -18 8 -26 0 -11 9 -14 34 -12 27 3 33 1 28 -11 -3 -8 5 -25
18 -37 13 -13 23 -27 22 -32 -1 -5 34 -44 78 -88 44 -43 76 -83 71 -87 -4 -4
-25 12 -47 37 -32 37 -39 41 -45 27 -7 -18 35 -87 66 -110 8 -7 23 -23 32 -37
54 -84 513 -546 778 -785 36 -32 94 -87 130 -121 73 -69 223 -198 307 -262 31
-24 100 -80 152 -126 53 -45 137 -114 187 -154 50 -39 106 -85 125 -103 19
-18 58 -49 87 -71 28 -21 52 -41 52 -43 0 -14 -25 1 -88 52 -39 32 -113 91
-164 131 -51 40 -140 110 -197 155 -57 45 -122 96 -145 112 -23 17 -53 40 -67
51 -74 65 -218 182 -243 198 -15 10 -42 33 -58 52 -17 19 -44 38 -62 42 -20 5
-36 18 -45 36 -17 37 -112 128 -127 122 -6 -2 -16 6 -23 20 -6 14 -19 24 -31
24 -15 0 -20 7 -20 25 0 14 -4 25 -8 25 -7 0 -100 84 -162 146 -8 8 -26 25
-39 37 -49 45 -77 77 -121 135 -25 33 -57 68 -72 77 -16 9 -28 22 -28 29 0 8
-18 33 -39 57 -32 36 -74 88 -148 184 -42 54 -63 85 -63 93 0 36 -99 162 -127
162 -15 0 -29 21 -61 91 -5 11 48 -3 55 -15z m-343 -52 c3 -9 12 -14 18 -12 7
3 17 -5 23 -16 6 -11 19 -25 30 -31 44 -22 63 -41 69 -71 6 -25 3 -33 -10 -38
-19 -7 -54 19 -54 41 0 16 -42 76 -80 113 -14 14 -36 38 -50 54 l-25 29 37
-27 c20 -15 39 -34 42 -42z m546 -15 c29 -33 70 -83 93 -112 22 -29 71 -83
108 -122 37 -38 79 -85 95 -103 15 -19 45 -45 66 -58 22 -14 38 -32 38 -44 0
-11 18 -32 45 -51 25 -18 45 -37 45 -43 0 -6 17 -24 37 -41 21 -16 85 -77 143
-133 58 -57 137 -133 175 -169 39 -36 100 -93 136 -127 36 -33 94 -86 130
-117 35 -31 96 -85 134 -119 39 -35 86 -74 105 -89 19 -14 47 -37 61 -51 14
-14 41 -37 60 -52 19 -15 73 -60 120 -100 48 -40 115 -95 150 -123 34 -27 86
-70 115 -95 90 -77 146 -116 230 -159 75 -39 142 -91 117 -91 -6 0 -17 7 -24
16 -16 20 -109 74 -127 74 -8 0 -26 9 -40 21 -15 11 -86 66 -158 122 -71 56
-165 129 -208 162 -42 33 -131 105 -197 160 -66 55 -155 126 -197 158 -42 32
-91 71 -107 87 -17 17 -35 30 -40 30 -5 0 -35 27 -66 60 -33 35 -64 60 -76 60
-13 0 -30 15 -47 40 -14 22 -32 40 -40 40 -7 0 -19 7 -26 15 -18 21 -30 19
-30 -7 0 -26 37 -68 59 -68 17 0 81 -71 81 -89 0 -6 7 -11 15 -11 8 0 15 -8
15 -18 0 -10 8 -28 17 -41 12 -18 13 -22 2 -16 -40 24 -408 366 -423 392 -5
10 -23 28 -40 43 -17 14 -76 72 -131 129 -55 58 -133 138 -172 180 -40 41 -73
79 -73 84 0 4 -21 30 -47 58 -25 27 -43 52 -39 56 4 4 41 -31 84 -76 157 -171
308 -311 333 -311 5 0 6 -6 3 -13 -5 -14 67 -87 85 -87 6 0 33 -30 60 -67 54
-74 125 -135 147 -126 21 8 17 33 -6 33 -14 0 -25 12 -37 40 -10 22 -24 40
-32 40 -14 0 -161 146 -161 159 0 3 -18 17 -40 31 -30 18 -40 31 -40 50 0 28
-31 53 -55 44 -11 -5 -17 2 -21 24 -4 22 -16 35 -38 46 -35 17 -65 48 -86 90
-8 15 -30 45 -50 65 -19 20 -48 56 -64 79 -16 23 -32 42 -36 42 -4 0 -24 26
-46 57 -21 32 -57 76 -79 98 -40 39 -85 97 -85 109 0 16 34 -12 80 -65z m494
62 c8 -12 -3 -41 -15 -41 -5 0 -9 7 -9 15 0 8 -7 15 -16 15 -8 0 -12 5 -9 10
8 12 42 13 49 1z m-2398 -22 c10 -12 45 -39 77 -62 56 -39 71 -60 25 -36 -38
20 -138 99 -138 110 0 15 16 10 36 -12z m2660 -133 c84 -85 154 -162 156 -172
1 -11 17 -26 34 -34 26 -12 94 -88 94 -105 0 -3 -10 -5 -21 -5 -20 0 -21 -1
-5 -25 16 -24 16 -25 -4 -25 -24 0 -27 -31 -4 -54 23 -23 31 -20 49 18 13 27
14 39 5 55 -6 12 -8 21 -6 21 12 0 103 -63 126 -88 33 -34 98 -92 127 -112 11
-8 55 -47 96 -85 41 -39 93 -85 116 -104 75 -59 36 -44 -45 18 -43 33 -81 58
-86 55 -4 -3 -8 1 -8 9 0 7 -16 28 -35 46 -19 17 -35 35 -35 40 0 4 -27 25
-59 45 -33 20 -62 44 -65 54 -9 25 -76 66 -88 54 -12 -12 27 -67 82 -119 27
-25 30 -31 14 -27 -28 7 -51 -20 -34 -41 21 -25 2 -31 -21 -7 -11 12 -31 29
-44 38 -14 9 -25 21 -25 28 0 6 -50 60 -110 120 -70 69 -110 117 -110 130 0
12 -5 28 -10 36 -9 13 -12 13 -24 -2 -7 -10 -18 -18 -23 -18 -15 0 -243 237
-243 253 0 14 48 30 74 23 29 -7 106 -74 106 -92 0 -7 8 -15 18 -18 11 -4 30
-18 43 -32 22 -24 23 -26 7 -38 -22 -16 -24 -56 -3 -56 8 0 15 5 15 10 0 6 18
10 40 10 29 0 40 4 40 15 0 17 -194 215 -210 215 -6 0 -15 11 -20 25 -5 14
-16 25 -25 25 -9 0 -20 12 -25 26 -6 14 -16 24 -23 21 -13 -5 -13 -11 -2 -39
5 -14 1 -17 -25 -16 -29 1 -31 3 -25 27 9 35 24 51 48 51 13 0 75 -56 173
-154z m-4016 101 c0 -5 -4 -5 -10 -2 -5 3 -10 14 -10 23 0 15 2 15 10 2 5 -8
10 -19 10 -23z m5000 -24 c0 -16 -14 -53 -30 -83 -17 -30 -37 -71 -45 -90 -31
-72 -90 -180 -102 -185 -22 -8 -15 13 21 66 19 27 38 60 41 72 11 35 46 106
56 113 5 3 9 13 9 23 0 10 7 24 15 31 8 7 15 28 15 46 0 19 5 34 10 34 6 0 10
-12 10 -27z m-5140 -22 c0 -22 11 -71 25 -109 30 -82 32 -100 10 -82 -8 7 -15
23 -15 36 0 13 -9 47 -20 76 -21 56 -27 118 -10 118 6 0 10 -18 10 -39z m219
-142 c27 -65 75 -157 105 -205 31 -49 68 -109 83 -134 16 -25 65 -82 110 -126
45 -45 88 -95 96 -110 8 -16 41 -53 74 -83 32 -29 83 -77 113 -107 30 -30 60
-54 65 -54 6 0 28 -14 49 -30 22 -17 47 -30 57 -30 10 0 21 -4 24 -10 3 -5 -3
-10 -14 -10 -12 0 -21 -4 -21 -9 0 -11 65 -61 79 -61 5 0 36 -25 68 -56 32
-30 81 -66 109 -78 28 -13 55 -29 58 -35 4 -6 14 -11 23 -11 9 0 38 -16 66
-36 55 -40 128 -74 158 -74 10 0 47 -11 81 -24 35 -13 77 -28 93 -32 l30 -8
-40 -6 c-27 -4 -45 -1 -56 8 -10 7 -42 16 -73 19 -62 6 -78 -7 -56 -47 11 -20
10 -21 -8 -11 -11 6 -22 14 -24 18 -6 14 -143 120 -178 138 -39 19 -114 81
-203 165 -32 30 -70 61 -85 69 -15 7 -42 30 -59 50 -24 27 -35 33 -41 23 -5
-7 -16 -10 -25 -6 -29 11 -19 -20 18 -56 40 -39 98 -120 92 -127 -3 -2 -26 23
-52 56 -26 33 -58 67 -70 75 -13 9 -26 29 -30 46 -4 17 -17 43 -29 58 -12 15
-25 35 -29 45 -3 9 -16 17 -28 17 -14 0 -19 5 -16 14 6 15 -57 76 -79 76 -39
0 -23 -51 35 -112 18 -19 25 -39 26 -68 1 -36 7 -47 41 -76 45 -38 30 -46 -22
-10 -46 31 -94 88 -129 154 -16 30 -40 62 -52 72 -57 45 -153 218 -153 276 0
12 -7 27 -15 34 -8 7 -15 17 -15 22 0 6 -18 31 -39 57 -35 42 -38 48 -23 58
16 10 15 14 -4 49 -23 41 -44 55 -44 30 0 -20 -14 -21 -29 -2 -10 11 -8 16 5
24 16 9 16 13 -4 63 -23 58 -92 282 -91 296 0 10 14 -20 78 -168z m3999 120
c58 -64 53 -74 -8 -14 -27 27 -50 53 -50 58 0 15 14 4 58 -44z m90 40 c-2 -6
-8 -10 -13 -10 -5 0 -11 4 -13 10 -2 6 4 11 13 11 9 0 15 -5 13 -11z m624 -11
c-7 -7 -12 -8 -12 -2 0 14 12 26 19 19 2 -3 -1 -11 -7 -17z m-5001 -83 c12
-38 30 -81 40 -94 19 -24 19 -39 1 -27 -18 11 -52 86 -52 114 -1 15 -7 38 -15
52 -8 14 -14 32 -14 40 -1 28 18 -11 40 -85z m3129 65 c6 -11 8 -25 4 -31 -5
-8 -34 32 -34 47 0 12 21 1 30 -16z m950 11 c0 -9 -33 -21 -59 -21 -20 0 -2
17 24 23 32 8 35 7 35 -2z m1171 -34 c-8 -8 -11 -7 -11 4 0 20 13 34 18 19 3
-7 -1 -17 -7 -23z m-265 -14 c-11 -11 -17 4 -9 23 7 18 8 18 11 1 2 -10 1 -21
-2 -24z m-2506 2 c0 -8 -2 -15 -4 -15 -2 0 -6 7 -10 15 -3 8 -1 15 4 15 6 0
10 -7 10 -15z m-629 -53 c48 -23 89 -48 92 -56 3 -8 -23 3 -62 25 -37 21 -82
42 -100 45 -17 4 -36 15 -42 26 -9 17 -8 18 8 10 10 -5 57 -28 104 -50z m1294
28 c3 -5 1 -10 -4 -10 -6 0 -11 5 -11 10 0 6 2 10 4 10 3 0 8 -4 11 -10z
m-2475 -10 c0 -5 -4 -10 -10 -10 -5 0 -10 5 -10 10 0 6 5 10 10 10 6 0 10 -4
10 -10z m3199 -36 c37 -54 37 -56 9 -52 -18 2 -22 9 -20 26 2 13 -4 34 -12 48
-9 13 -14 24 -12 24 3 0 18 -20 35 -46z m1092 -7 c-12 -31 -31 -44 -31 -21 0
17 30 58 37 50 2 -2 -1 -15 -6 -29z m-945 12 c3 -6 1 -16 -5 -22 -6 -6 -11
-19 -11 -28 0 -29 -19 -32 -31 -6 -19 41 24 92 47 56z m-3162 -15 c9 -24 7
-28 -9 -14 -17 14 -20 30 -6 30 5 0 12 -7 15 -16z m491 6 c3 -5 1 -10 -4 -10
-6 0 -11 5 -11 10 0 6 2 10 4 10 3 0 8 -4 11 -10z m1629 -25 c18 -24 23 -35
13 -35 -12 0 -20 12 -45 63 -9 19 8 4 32 -28z m2330 20 c-4 -8 -8 -15 -10 -15
-2 0 -4 7 -4 15 0 8 4 15 10 15 5 0 7 -7 4 -15z m-2049 -15 c10 -11 16 -20 13
-20 -3 0 -13 9 -23 20 -10 11 -16 20 -13 20 3 0 13 -9 23 -20z m1965 5 c0 -8
-4 -15 -10 -15 -5 0 -7 7 -4 15 4 8 8 15 10 15 2 0 4 -7 4 -15z m-3905 -5 c3
-5 1 -10 -4 -10 -6 0 -11 5 -11 10 0 6 2 10 4 10 3 0 8 -4 11 -10z m822 4 c-3
-3 -12 -4 -19 -1 -8 3 -5 6 6 6 11 1 17 -2 13 -5z m2273 -9 c20 -25 4 -29 -21
-6 -18 16 -19 21 -7 21 9 0 21 -7 28 -15z m-3115 -20 c24 -25 24 -27 7 -45
-17 -18 -18 -18 -55 16 -42 39 -46 49 -17 41 11 -3 23 -1 26 4 8 13 10 12 39
-16z m937 4 c24 -11 54 -26 67 -32 26 -13 132 -135 153 -177 15 -28 48 -40 48
-17 0 8 -16 38 -35 66 -20 28 -31 51 -26 51 10 0 81 -114 81 -130 0 -4 12 -18
28 -30 l27 -21 -32 6 c-42 8 -47 -4 -19 -46 13 -19 39 -59 59 -89 19 -30 51
-71 71 -89 20 -19 36 -42 36 -50 0 -10 -21 6 -50 38 -28 29 -50 56 -50 61 0 4
-9 15 -20 25 -11 10 -37 49 -58 87 -24 46 -44 71 -59 74 -13 4 -23 14 -23 23
0 34 -59 133 -101 170 -46 40 -99 71 -122 71 -7 0 -22 7 -33 15 -17 13 -17 14
-2 15 10 0 37 -9 60 -21z m402 5 c3 -8 2 -12 -4 -9 -6 3 -10 10 -10 16 0 14 7
11 14 -7z m594 -71 c48 -49 100 -106 115 -129 37 -54 263 -274 282 -274 8 0
15 4 15 9 0 13 -148 191 -222 269 -12 12 -19 24 -16 27 3 3 11 -1 18 -10 7 -8
17 -15 23 -15 17 0 47 -32 47 -51 0 -10 13 -27 30 -39 16 -12 54 -51 84 -88
89 -109 190 -207 204 -198 5 3 49 -34 97 -82 77 -76 85 -87 66 -92 -20 -5 -21
-6 -5 -28 8 -12 23 -21 32 -20 11 2 18 -5 20 -17 3 -20 58 -65 80 -65 21 0 13
18 -19 40 -16 12 -28 24 -26 27 8 8 49 -20 83 -57 25 -25 30 -37 22 -47 -8
-10 -4 -18 13 -33 27 -22 39 -25 39 -9 0 27 139 -95 141 -123 0 -7 39 -44 86
-83 46 -38 94 -78 105 -87 11 -10 28 -20 38 -23 10 -3 25 -17 34 -30 32 -49
-16 -22 -109 60 -113 99 -165 128 -165 91 0 -18 100 -115 126 -122 12 -3 26
-16 33 -30 6 -13 15 -24 21 -24 5 0 33 -24 62 -52 29 -29 77 -71 107 -93 30
-22 81 -62 113 -90 33 -27 77 -63 98 -80 65 -51 120 -98 169 -144 40 -37 41
-40 11 -20 -19 13 -51 36 -70 51 -127 102 -204 158 -216 158 -8 0 -14 6 -14
14 0 7 -13 19 -30 26 -16 7 -30 16 -30 21 0 5 -24 26 -52 48 -29 22 -75 60
-102 85 -26 25 -53 46 -59 46 -11 0 -67 59 -67 71 0 4 -9 10 -20 14 -11 3 -55
42 -97 86 -56 56 -87 81 -110 85 -24 4 -33 12 -33 25 0 13 -7 19 -23 19 -13 0
-32 9 -41 19 -17 18 -17 19 0 23 16 3 16 4 1 19 -10 10 -26 15 -41 12 -15 -3
-26 -1 -26 6 0 6 -16 25 -35 42 -19 17 -33 36 -32 42 1 6 -9 16 -22 23 -41 21
-111 97 -111 121 0 22 -31 48 -44 36 -10 -10 -47 29 -63 65 -9 21 -20 32 -34
32 -14 0 -19 5 -16 14 8 19 -25 59 -76 95 -23 16 -94 81 -157 145 -63 64 -118
116 -123 116 -14 0 -62 63 -59 78 4 16 -35 62 -52 62 -19 1 -54 35 -75 74 -40
70 -27 64 77 -41z m-2463 62 c1 -26 59 -97 117 -143 34 -27 77 -64 93 -82 52
-55 252 -186 375 -245 41 -20 87 -42 102 -50 21 -11 29 -11 37 -1 7 9 7 16 0
23 -6 6 -7 13 -2 16 17 11 35 -11 37 -44 1 -28 8 -37 36 -51 55 -27 208 -74
285 -88 39 -7 99 -21 134 -31 35 -11 76 -19 92 -19 16 0 29 -4 29 -9 0 -13 20
-19 131 -35 93 -14 139 -13 139 4 0 5 -6 11 -12 13 -7 2 1 2 17 -2 17 -3 93
-6 170 -6 99 0 146 -4 160 -13 19 -13 18 -13 -5 -6 -14 4 -38 6 -55 5 -16 -1
-82 -4 -145 -8 -187 -11 -299 -7 -370 12 -36 9 -85 21 -110 26 -25 4 -67 16
-95 25 -27 9 -66 20 -85 24 -97 21 -237 63 -278 84 -26 13 -66 29 -89 36 -24
7 -43 17 -43 21 0 4 -21 15 -47 25 -27 10 -76 35 -111 56 -35 20 -70 39 -80
40 -45 8 -5 -79 53 -113 19 -12 35 -25 35 -31 0 -5 -15 0 -34 11 -19 12 -39
20 -45 19 -6 -2 -19 13 -29 32 -10 19 -34 44 -52 55 -30 18 -86 66 -162 137
-35 33 -38 62 -5 53 12 -4 -43 56 -123 133 l-145 139 40 -1 c22 -1 40 -5 40
-11z m645 5 c13 -8 13 -10 -2 -10 -9 0 -20 5 -23 10 -8 13 5 13 25 0z m3881
-43 c-8 -8 -11 -3 -11 19 1 25 2 27 11 11 8 -14 8 -22 0 -30z m-3926 13 c3 -5
1 -10 -4 -10 -6 0 -11 5 -11 10 0 6 2 10 4 10 3 0 8 -4 11 -10z m1995 -84 c0
-5 -18 11 -40 35 -21 24 -39 48 -40 53 0 5 18 -11 40 -35 21 -24 39 -48 40
-53z m589 75 c8 -14 7 -20 -3 -24 -17 -7 -40 18 -31 33 10 15 23 12 34 -9z
m-3860 -42 c14 -39 14 -49 1 -49 -5 0 -10 11 -10 24 0 14 -4 28 -10 31 -12 8
-13 25 -1 25 5 0 14 -14 20 -31z m2933 -13 c13 8 56 -33 78 -76 10 -19 28 -44
40 -55 13 -11 40 -44 62 -73 22 -29 64 -77 94 -107 55 -55 61 -66 24 -43 -10
7 -23 9 -27 4 -9 -9 42 -56 61 -56 7 0 41 -33 74 -73 60 -71 111 -117 131
-117 6 0 17 -12 25 -27 27 -52 150 -164 189 -173 20 -4 38 -5 41 -3 3 3 -10
24 -29 46 -19 22 -35 45 -35 51 0 17 -53 66 -72 66 -10 0 -18 6 -18 14 0 13
-17 33 -124 148 -29 32 -59 70 -65 85 -7 16 -32 44 -56 63 -41 32 -44 44 -12
49 4 1 38 -33 74 -76 118 -139 118 -139 243 -250 41 -37 81 -77 88 -90 7 -13
19 -23 26 -23 7 0 46 -38 87 -85 41 -47 78 -85 83 -85 13 0 136 -122 136 -135
1 -11 69 -75 180 -167 106 -89 107 -90 137 -122 68 -72 102 -103 144 -128 24
-15 64 -43 89 -62 25 -19 50 -35 56 -35 6 -1 35 -24 65 -53 98 -94 203 -182
277 -232 39 -26 72 -50 72 -52 0 -6 -107 54 -161 91 -24 16 -71 53 -105 82
-34 29 -66 53 -71 53 -6 0 -17 7 -24 17 -26 31 -194 153 -211 153 -21 0 -3
-28 32 -52 22 -15 40 -32 40 -38 0 -21 -39 -9 -62 19 -25 31 -66 56 -75 47 -9
-8 27 -45 58 -62 32 -16 93 -75 94 -89 0 -13 35 -19 35 -6 0 6 -4 11 -10 11
-13 0 -32 38 -25 50 8 13 35 1 35 -16 0 -8 8 -14 18 -14 10 0 29 -13 42 -28
14 -16 32 -31 40 -34 8 -3 12 -9 8 -13 -4 -4 -22 2 -40 13 -46 29 -71 14 -36
-21 13 -13 30 -26 38 -29 7 -2 11 -10 9 -17 -3 -9 -19 -2 -52 23 -26 20 -52
36 -58 36 -6 0 -32 18 -58 40 -26 22 -52 40 -57 40 -6 0 -23 14 -40 31 -16 17
-65 58 -109 92 -105 79 -121 99 -91 110 8 3 32 -8 52 -24 26 -20 41 -26 48
-19 7 7 6 14 -2 22 -7 7 -12 22 -12 35 0 18 -6 23 -27 23 -33 0 -58 14 -58 32
0 7 -9 14 -19 16 -15 3 -18 0 -13 -18 7 -25 -12 -51 -28 -38 -5 4 -28 22 -50
39 -22 17 -39 37 -37 44 3 16 -52 75 -70 75 -8 0 -25 9 -38 20 -13 11 -29 20
-36 20 -15 0 -53 32 -133 111 -31 30 -64 58 -73 61 -9 4 -25 20 -35 35 -9 15
-67 78 -128 138 -152 153 -232 241 -271 301 -21 33 -43 54 -59 58 -15 4 -31
18 -38 34 -13 30 -18 36 -97 131 -30 36 -72 91 -93 121 -83 121 -102 146 -129
169 -15 13 -28 28 -28 33 0 6 14 -2 31 -16 17 -14 35 -23 41 -20z m1612 3 c18
-21 25 -38 20 -51 -3 -10 0 -26 7 -34 6 -8 10 -17 7 -19 -11 -11 -88 85 -88
110 0 34 22 32 54 -6z m-3227 -42 c65 -43 62 -51 -6 -16 -34 18 -61 38 -61 46
0 15 1 15 67 -30z m952 -43 c14 -12 -12 -13 -40 -1 -19 8 -67 24 -106 36 -40
12 -73 26 -73 30 0 7 208 -55 219 -65z m2883 44 c-7 -7 -12 -8 -12 -2 0 14 12
26 19 19 2 -3 -1 -11 -7 -17z m-5187 -8 c3 -5 1 -10 -4 -10 -6 0 -11 5 -11 10
0 6 2 10 4 10 3 0 8 -4 11 -10z m1210 -30 c3 -5 2 -10 -4 -10 -5 0 -13 5 -16
10 -3 6 -2 10 4 10 5 0 13 -4 16 -10z m1945 -33 c0 -6 -9 -2 -20 8 -11 10 -20
23 -20 28 0 6 9 2 20 -8 11 -10 20 -23 20 -28z m1876 -60 c-20 -31 -40 -58
-46 -62 -15 -9 -12 -55 4 -55 7 0 16 -11 19 -25 5 -30 -13 -29 -28 2 -6 12
-17 28 -24 36 -15 18 -14 19 54 109 59 78 72 74 21 -5z m-3561 53 c3 -5 -1
-10 -9 -10 -8 0 -18 5 -21 10 -3 6 1 10 9 10 8 0 18 -4 21 -10z m282 -12 c12
1 26 -4 30 -11 14 -23 56 -47 83 -47 14 0 45 -10 70 -21 47 -21 203 -59 278
-67 27 -2 41 -8 39 -16 -3 -6 -8 -10 -13 -9 -5 0 -54 10 -109 21 -146 30 -192
36 -180 24 6 -6 26 -15 45 -21 l35 -10 -43 2 c-30 1 -48 8 -64 24 -12 13 -16
23 -10 23 7 0 12 5 12 11 0 7 -12 10 -33 6 -20 -3 -40 0 -51 9 -11 7 -23 11
-28 8 -5 -4 -16 3 -24 15 -8 12 -24 21 -35 21 -11 0 -22 7 -25 15 -4 8 -12 15
-19 15 -8 0 -17 5 -21 11 -4 8 1 9 17 3 13 -4 34 -7 46 -6z m808 -28 c9 -16
13 -30 11 -30 -3 0 -12 14 -21 30 -9 17 -13 30 -11 30 3 0 12 -13 21 -30z
m2156 -19 c-15 -10 -9 -51 12 -73 56 -62 46 -58 -19 7 -57 58 -74 81 -62 83 9
2 22 10 29 18 11 13 15 12 33 -6 17 -17 18 -22 7 -29z m-3181 19 c25 -19 25
-20 3 -20 -12 0 -27 9 -33 20 -13 25 -2 25 30 0z m3410 11 c0 -19 -27 -71 -33
-64 -11 11 -8 48 5 61 14 14 28 16 28 3z m-2300 -54 c0 -13 -29 12 -42 37 -10
19 -8 18 16 -3 14 -14 26 -29 26 -34z m131 20 c12 -22 12 -22 -10 -3 -11 11
-21 23 -21 28 0 14 19 -1 31 -25z m2334 14 c-3 -6 -11 -11 -17 -11 -6 0 -6 6
2 15 14 17 26 13 15 -4z m-3131 0 c4 -5 -3 -7 -14 -4 -23 6 -26 13 -6 13 8 0
17 -4 20 -9z m-624 -11 c0 -5 -2 -10 -4 -10 -3 0 -8 5 -11 10 -3 6 -1 10 4 10
6 0 11 -4 11 -10z m937 -6 c-3 -3 -12 -4 -19 -1 -8 3 -5 6 6 6 11 1 17 -2 13
-5z m2481 -27 c2 -10 -3 -17 -12 -17 -9 0 -16 2 -16 4 0 2 -3 12 -6 21 -5 13
-2 16 12 13 10 -2 20 -11 22 -21z m-3078 -7 c0 -5 -4 -10 -9 -10 -6 0 -13 5
-16 10 -3 6 1 10 9 10 9 0 16 -4 16 -10z m900 -80 c10 -19 39 -55 64 -78 25
-24 46 -50 46 -57 0 -7 16 -30 36 -51 20 -22 54 -65 76 -97 22 -32 46 -61 54
-64 8 -3 30 -29 48 -57 42 -64 182 -225 290 -332 44 -45 93 -94 107 -110 14
-16 48 -50 75 -75 27 -26 71 -70 97 -98 26 -29 60 -56 74 -62 14 -5 23 -12 20
-16 -11 -11 25 -59 57 -77 40 -21 165 -135 149 -136 -6 0 -36 25 -66 55 -35
35 -63 55 -78 55 -12 0 -33 10 -45 21 -13 12 -33 27 -45 33 -12 6 -27 26 -33
44 -7 19 -41 63 -76 98 -64 64 -84 77 -74 49 4 -8 1 -15 -4 -15 -6 0 -13 9
-17 19 -7 24 -114 145 -131 149 -7 2 -16 12 -19 23 -4 10 -52 68 -107 127 -55
59 -130 145 -166 192 -36 47 -88 110 -114 141 -26 31 -48 66 -48 78 0 27 -38
49 -46 26 -10 -25 -21 -8 -28 45 -5 41 -12 53 -32 62 -25 11 -124 147 -124
169 0 19 40 -22 60 -61z m176 -60 c281 -369 321 -415 616 -710 130 -129 242
-241 249 -248 142 -136 421 -423 417 -428 -4 -3 -56 38 -115 91 -59 53 -139
125 -177 159 -136 120 -166 148 -249 233 -29 29 -55 53 -59 53 -13 0 -78 62
-78 74 0 7 -12 24 -27 38 -38 34 -126 129 -138 149 -5 10 -56 67 -112 129 -56
61 -110 130 -121 153 -11 23 -46 74 -79 112 -32 39 -93 118 -136 176 -42 59
-84 112 -92 119 -16 14 -20 30 -6 30 4 0 53 -58 107 -130z m2284 115 c-7 -9
-15 -13 -17 -11 -7 7 7 26 19 26 6 0 6 -6 -2 -15z m-2735 -16 c11 -4 -1 -5
-30 -2 -27 3 -57 10 -65 14 -18 11 65 0 95 -12z m-740 1 c3 -5 2 -10 -4 -10
-5 0 -13 5 -16 10 -3 6 -2 10 4 10 5 0 13 -4 16 -10z m1345 -10 c9 -17 7 -22
-15 -32 -28 -13 -49 -2 -23 13 10 5 15 16 12 24 -9 22 14 18 26 -5z m-2016 4
c9 -3 16 -11 16 -16 0 -10 27 -39 133 -145 30 -31 37 -43 25 -43 -10 0 -30 14
-45 32 -16 18 -47 52 -71 77 -23 26 -52 55 -62 67 -29 30 -27 40 4 28z m356
-14 c0 -5 -4 -10 -10 -10 -5 0 -10 5 -10 10 0 6 5 10 10 10 6 0 10 -4 10 -10z
m1147 4 c-3 -3 -12 -4 -19 -1 -8 3 -5 6 6 6 11 1 17 -2 13 -5z m388 -5 c11
-17 -1 -21 -15 -4 -8 9 -8 15 -2 15 6 0 14 -5 17 -11z m-1119 -20 l19 -22 -35
18 c-45 23 -47 25 -23 25 11 0 28 -10 39 -21z m457 -22 c26 -11 45 -22 43 -25
-3 -2 -26 5 -51 17 -24 11 -50 21 -57 21 -7 0 -20 5 -28 10 -23 16 36 1 93
-23z m257 13 l25 -8 -25 0 c-14 0 -34 3 -45 8 l-20 9 20 -1 c11 0 31 -4 45 -8z
m659 -110 c32 -36 80 -92 108 -125 72 -87 112 -125 132 -125 9 0 39 -22 66
-50 27 -27 53 -50 57 -50 17 0 6 31 -25 72 -24 31 -32 50 -27 63 6 18 9 16 24
-13 10 -19 64 -81 122 -138 57 -58 104 -109 104 -114 0 -5 9 -14 20 -20 11 -6
26 -23 34 -39 9 -17 28 -31 48 -37 20 -6 38 -20 46 -37 7 -15 25 -33 40 -41
35 -18 69 -56 74 -81 2 -11 12 -21 24 -23 12 -2 27 -14 34 -27 7 -14 24 -32
37 -40 26 -18 30 -35 8 -35 -26 0 -16 -19 19 -37 44 -23 201 -173 201 -193 0
-8 7 -15 15 -16 45 -3 94 -41 102 -79 2 -13 10 -19 23 -17 10 2 24 -3 29 -10
6 -8 17 -17 25 -19 8 -3 20 -20 26 -39 8 -24 20 -37 43 -44 19 -7 39 -24 48
-41 8 -17 23 -38 31 -47 9 -10 12 -18 6 -18 -10 0 -61 40 -112 87 -19 18 -44
33 -55 33 -12 0 -52 21 -90 45 -38 25 -72 45 -75 45 -4 0 -15 13 -24 30 -10
16 -28 32 -41 36 -13 3 -33 19 -45 35 -12 16 -28 29 -36 29 -8 0 -21 11 -30
23 -22 34 -85 61 -85 37 0 -16 182 -196 220 -217 21 -12 36 -29 38 -42 2 -14
9 -21 17 -17 8 3 17 1 20 -4 4 -6 -5 -10 -19 -10 -18 0 -32 10 -48 35 -13 19
-31 37 -40 40 -9 3 -65 53 -123 111 -80 78 -112 103 -126 99 -22 -7 -59 27
-59 54 0 26 -74 91 -105 91 -23 0 -48 28 -43 49 5 15 -85 93 -112 96 -25 3
-100 77 -100 99 0 6 -27 31 -60 54 -33 24 -60 47 -60 50 0 4 -27 35 -60 70
-33 35 -60 69 -60 75 0 7 -26 38 -57 70 -133 134 -190 195 -228 245 -22 29
-57 73 -77 98 -21 25 -38 50 -38 56 0 5 18 -12 40 -38 158 -194 203 -245 215
-240 12 4 56 -38 125 -119 19 -22 52 -54 74 -71 23 -18 79 -75 126 -128 80
-90 141 -138 156 -124 3 4 -21 40 -54 80 -33 40 -66 85 -73 99 -8 14 -41 50
-74 79 -33 30 -74 73 -91 95 -18 23 -48 53 -67 68 -20 15 -38 35 -42 46 -5 18
-57 81 -120 146 -74 78 -93 102 -99 125 -7 24 -6 24 19 -5 15 -16 53 -59 84
-95z m1824 114 c9 -9 -4 -35 -14 -28 -5 3 -9 12 -9 20 0 14 12 19 23 8z m247
-14 c-6 -11 -13 -20 -16 -20 -2 0 0 9 6 20 6 11 13 20 16 20 2 0 0 -9 -6 -20z
m-2391 -72 l25 -33 -30 27 c-16 15 -37 42 -47 60 l-19 33 24 -27 c13 -15 34
-42 47 -60z m-1278 56 c17 -8 29 -17 26 -20 -5 -5 -77 24 -77 31 0 9 21 5 51
-11z m2969 -5 c0 -5 -9 -9 -20 -9 -19 0 -26 11 -14 23 8 8 34 -3 34 -14z
m-2330 1 c13 -8 13 -10 -2 -10 -9 0 -20 5 -23 10 -8 13 5 13 25 0z m2848 -1
c-2 -6 -8 -10 -13 -10 -5 0 -11 4 -13 10 -2 6 4 11 13 11 9 0 15 -5 13 -11z
m-3148 -14 c14 -8 21 -14 15 -14 -5 0 -21 6 -35 14 -14 8 -20 14 -15 14 6 0
21 -6 35 -14z m176 -37 c21 -18 90 -39 236 -72 82 -19 184 -55 156 -56 -9 0
-76 16 -148 35 -72 19 -139 35 -148 35 -9 1 -35 9 -57 20 -22 11 -46 19 -52
20 -7 0 -13 5 -13 12 0 6 -8 21 -17 32 -17 20 -17 20 2 6 11 -8 29 -22 41 -32z
m444 22 c39 0 60 -4 55 -9 -11 -10 -244 4 -254 15 -3 4 26 4 64 0 39 -3 99 -6
135 -6z m2267 -25 c15 -13 23 -25 16 -25 -6 0 -15 5 -18 10 -12 20 -25 9 -25
-21 0 -16 -4 -28 -9 -25 -11 7 -12 86 -1 86 5 0 22 -11 37 -25z m-3272 5 c3
-5 2 -10 -4 -10 -5 0 -13 5 -16 10 -3 6 -2 10 4 10 5 0 13 -4 16 -10z m3103
-20 c22 -18 23 -21 7 -37 -16 -16 -18 -16 -27 0 -5 9 -15 17 -23 17 -17 0 -28
17 -20 30 10 16 38 11 63 -10z m417 -10 c19 -36 7 -39 -24 -6 -21 23 -21 26 6
35 1 1 9 -12 18 -29z m-4020 -59 c-7 -6 -65 50 -65 63 0 5 16 -5 35 -24 19
-18 32 -36 30 -39z m335 39 c0 -5 -2 -10 -4 -10 -3 0 -8 5 -11 10 -3 6 -1 10
4 10 6 0 11 -4 11 -10z m630 -32 c10 -6 3 -7 -20 -2 -19 3 -39 10 -45 16 -12
11 42 0 65 -14z m1180 -62 c0 -6 10 -21 23 -34 12 -14 17 -22 10 -19 -6 4 -35
37 -63 75 -49 63 -50 65 -12 27 23 -22 41 -44 42 -49z m-1751 23 c-10 -6 -10
-11 0 -23 8 -9 18 -16 24 -16 6 0 45 -33 88 -72 42 -40 90 -83 105 -96 l29
-22 -40 22 c-22 12 -44 27 -50 34 -5 6 -19 17 -31 25 -11 8 -56 46 -99 86 -54
50 -76 77 -71 88 5 14 8 14 31 -1 19 -12 23 -19 14 -25z m382 23 c-7 -2 -18 1
-23 6 -8 8 -4 9 13 5 13 -4 18 -8 10 -11z m3109 3 c11 -13 10 -14 -4 -9 -16 6
-46 -11 -46 -26 0 -4 11 -24 25 -44 27 -40 17 -39 -27 3 -33 32 -34 33 -5 65
25 30 39 32 57 11z m270 5 c0 -5 -4 -10 -10 -10 -5 0 -10 5 -10 10 0 6 5 10
10 10 6 0 10 -4 10 -10z m-3116 -19 c4 -5 -3 -7 -14 -4 -23 6 -26 13 -6 13 8
0 17 -4 20 -9z m877 -8 c13 -16 12 -17 -3 -4 -10 7 -18 15 -18 17 0 8 8 3 21
-13z m1749 7 c0 -5 -4 -10 -9 -10 -6 0 -13 5 -16 10 -3 6 1 10 9 10 9 0 16 -4
16 -10z m-3390 -10 c0 -5 -2 -10 -4 -10 -3 0 -8 5 -11 10 -3 6 -1 10 4 10 6 0
11 -4 11 -10z m223 -15 c29 -14 59 -30 67 -34 18 -10 116 -55 145 -67 19 -7
19 -8 -4 -12 -13 -2 -28 1 -34 7 -6 6 -23 11 -37 11 -15 0 -35 9 -46 21 -21
23 -85 59 -106 59 -17 1 -67 39 -50 40 7 0 37 -11 65 -25z m584 19 c-3 -3 -12
-4 -19 -1 -8 3 -5 6 6 6 11 1 17 -2 13 -5z m75 -14 c20 -6 63 -15 95 -20 l58
-9 -65 4 c-36 2 -83 11 -105 19 -47 17 -37 20 17 6z m-757 -126 c33 -28 74
-58 91 -67 44 -23 119 -87 101 -87 -9 0 -19 5 -23 11 -3 6 -34 29 -68 50 -59
39 -122 89 -195 158 l-36 33 35 -23 c19 -13 62 -46 95 -75z m1095 86 c18 -6 7
-8 -42 -9 -37 -1 -70 4 -73 9 -7 12 78 12 115 0z m2311 -26 c8 -5 7 -9 -4 -15
-17 -10 -80 18 -72 31 5 8 53 -2 76 -16z m173 7 c3 -5 -3 -11 -14 -14 -13 -3
-20 0 -20 9 0 15 26 19 34 5z m-1974 -36 c13 -14 19 -25 13 -25 -6 0 -18 11
-27 25 -9 14 -15 25 -13 25 2 0 14 -11 27 -25z m-154 -22 c-7 -7 -26 7 -26 19
0 6 6 6 15 -2 9 -7 13 -15 11 -17z m594 17 c0 -5 -4 -10 -9 -10 -6 0 -13 5
-16 10 -3 6 1 10 9 10 9 0 16 -4 16 -10z m-1115 -20 c17 -7 15 -9 -12 -9 -17
-1 -35 4 -38 9 -7 12 22 12 50 0z m-509 -26 c27 -10 60 -25 74 -34 14 -10 53
-28 88 -40 34 -13 61 -25 59 -27 -18 -17 -287 85 -287 109 0 11 11 10 66 -8z
m2255 -21 c13 -15 12 -15 -8 -4 -24 12 -29 21 -14 21 5 0 15 -7 22 -17z m829
7 c0 -13 -28 -25 -38 -16 -3 4 0 11 8 16 20 13 30 12 30 0z m-2290 -104 c36 1
108 3 160 5 102 4 154 -4 147 -24 -5 -17 -344 -28 -372 -12 -33 19 -193 39
-209 26 -13 -11 -26 -5 -26 12 0 5 45 6 118 0 64 -4 146 -7 182 -7z m384 -40
c14 -25 26 -48 26 -53 0 -21 -72 -52 -155 -66 -125 -22 -185 -28 -185 -19 0
10 -82 32 -120 32 -31 0 -53 4 -205 41 -162 38 -183 44 -191 52 -11 10 7 9
134 -12 77 -12 116 -23 125 -34 8 -12 25 -16 57 -15 25 1 86 -4 135 -10 128
-17 255 -16 255 2 0 21 52 27 66 8 6 -9 18 -13 28 -9 21 8 21 53 0 102 -20 48
-3 37 30 -19z m-776 34 c12 0 22 -5 22 -11 0 -12 -55 -3 -80 13 -11 7 -8 8 10
4 14 -3 35 -6 48 -6z m-673 -21 c16 -16 -20 -10 -41 7 -18 14 -18 15 6 8 14
-3 29 -10 35 -15z m542 -5 c13 -4 21 -10 18 -14 -6 -9 -53 -1 -61 11 -6 10 11
11 43 3z m408 -22 c-3 -3 -11 0 -18 7 -9 10 -8 11 6 5 10 -3 15 -9 12 -12z
m-793 -13 c33 -11 66 -18 74 -15 8 3 25 -1 37 -8 12 -8 39 -18 60 -21 34 -7
53 -25 24 -25 -33 0 -147 30 -187 49 -24 11 -49 21 -56 21 -7 0 -16 5 -19 10
-9 14 1 13 67 -11z m-1252 1 c0 -5 -7 -10 -16 -10 -8 0 -12 5 -9 10 3 6 10 10
16 10 5 0 9 -4 9 -10z m2000 -20 c0 -5 -5 -10 -11 -10 -5 0 -7 5 -4 10 3 6 8
10 11 10 2 0 4 -4 4 -10z m2146 -55 c10 -8 14 -15 8 -15 -5 0 -19 7 -30 15
-10 8 -14 15 -8 15 5 0 19 -7 30 -15z m-3666 -30 c13 -14 19 -25 14 -25 -8 1
-50 50 -41 50 2 0 14 -11 27 -25z m3634 -1 c5 -14 4 -15 -9 -4 -17 14 -19 20
-6 20 5 0 12 -7 15 -16z m-2354 -4 c11 -7 8 -10 -15 -9 -16 0 -39 4 -50 9 -16
7 -14 9 15 9 19 0 42 -4 50 -9z m-113 -6 c-3 -3 -12 -4 -19 -1 -8 3 -5 6 6 6
11 1 17 -2 13 -5z m378 -15 c85 0 112 -3 91 -9 -38 -12 -266 -4 -297 10 -19 8
-13 9 31 5 30 -3 109 -5 175 -6z m532 5 c-3 -3 -12 -4 -19 -1 -8 3 -5 6 6 6
11 1 17 -2 13 -5z m2098 -19 c16 -13 27 -26 25 -29 -3 -2 -20 9 -38 25 -39 35
-29 38 13 4z m-3255 -6 c18 -10 4 -11 -39 -3 -17 4 -28 11 -25 16 6 9 36 3 64
-13z m2800 -22 c0 -5 5 -5 11 -1 8 4 7 9 -2 15 -7 4 -10 11 -6 16 5 4 23 -10
42 -32 18 -22 68 -67 110 -100 146 -112 220 -173 270 -222 28 -26 69 -60 91
-75 22 -14 56 -40 75 -58 19 -18 50 -42 69 -55 19 -12 44 -33 55 -46 15 -17 8
-14 -27 11 -26 18 -56 41 -66 50 -10 10 -38 30 -63 45 -45 29 -99 70 -150 115
-15 14 -49 41 -74 60 -41 31 -192 156 -205 170 -18 19 -100 80 -125 93 -17 8
-39 25 -50 37 l-20 22 33 -19 c17 -10 32 -22 32 -26z m-3647 11 c46 -33 99
-78 91 -78 -12 0 -100 59 -119 80 -24 26 -12 25 28 -2z m1885 -8 c-7 -11 -16
-20 -21 -20 -4 0 -3 9 3 20 6 11 15 20 20 20 6 0 5 -9 -2 -20z m-863 0 c3 -6
-1 -7 -9 -4 -18 7 -21 14 -7 14 6 0 13 -4 16 -10z m576 -19 c-41 -7 -51 -26
-19 -34 48 -13 9 -15 -55 -3 -80 15 -118 40 -47 30 25 -3 56 -1 70 5 14 5 39
9 55 9 29 -1 29 -1 -4 -7z m-250 -22 c61 -30 41 -33 -42 -5 -68 23 -71 25 -36
25 21 1 56 -8 78 -20z m-396 2 c19 -8 19 -8 -2 -15 -30 -10 -71 2 -52 15 17
10 27 10 54 0z m861 -21 c21 0 33 -4 29 -10 -3 -5 -26 -10 -51 -10 -34 0 -44
4 -44 16 0 11 5 14 16 10 9 -3 31 -6 50 -6z m81 -6 c-3 -3 -12 -4 -19 -1 -8 3
-5 6 6 6 11 1 17 -2 13 -5z m-212 -13 c27 -6 28 -7 10 -15 -29 -11 -372 -25
-411 -16 -18 4 -44 5 -58 3 -14 -3 -34 -2 -43 2 -33 14 37 26 92 16 28 -5 112
-9 188 -9 112 -1 139 2 144 14 5 15 27 16 78 5z m575 -62 c0 -3 -10 -4 -22 -2
-18 3 -23 11 -23 34 l0 30 22 -28 c13 -15 23 -31 23 -34z m915 -89 c12 -19
-12 -10 -31 11 -19 22 -19 22 3 10 12 -6 25 -16 28 -21z m-2725 -22 c0 -6 -6
-5 -15 2 -8 7 -15 14 -15 16 0 2 7 1 15 -2 8 -4 15 -11 15 -16z m1339 7 c-22
-22 -167 -45 -154 -25 3 6 21 10 38 10 18 1 46 7 62 15 17 7 39 14 50 14 17 1
18 -1 4 -14z m1986 -50 c66 -59 64 -76 -2 -20 -23 19 -46 35 -52 35 -6 0 -11
2 -11 4 0 2 -3 11 -6 20 -11 28 10 17 71 -39z m-2990 -20 c33 -10 70 -25 81
-32 12 -7 52 -16 89 -20 55 -5 64 -8 45 -15 -33 -12 -103 4 -237 53 -69 26
-113 47 -113 56 0 10 8 9 38 -5 20 -11 64 -27 97 -37z m2398 24 c12 -7 38 -28
57 -48 20 -20 61 -55 93 -78 57 -43 70 -63 42 -63 -15 0 -130 83 -137 98 -2 4
-24 23 -50 42 -48 33 -54 41 -41 53 9 9 11 9 36 -4z m-2667 -134 c17 -13 16
-14 -13 -4 -34 11 -42 19 -20 19 7 0 22 -7 33 -15z m3443 -16 c18 -16 31 -33
27 -36 -3 -3 -22 10 -41 30 -43 45 -33 49 14 6z m-3290 -31 c37 -13 21 -17
-32 -7 -66 12 -97 31 -37 23 25 -4 56 -11 69 -16z m2851 -121 c0 -4 -19 3 -42
17 -32 19 -45 34 -49 57 l-7 31 49 -48 c27 -27 49 -52 49 -57z m-2703 77 c-3
-3 -12 -4 -19 -1 -8 3 -5 6 6 6 11 1 17 -2 13 -5z m138 -4 c4 -6 -8 -10 -30
-10 -22 0 -34 4 -30 10 3 6 17 10 30 10 13 0 27 -4 30 -10z m1551 -5 c-11 -8
-25 -15 -30 -15 -6 0 -22 -9 -36 -20 -18 -14 -40 -19 -75 -19 l-50 1 50 13
c28 6 68 21 90 32 49 25 80 30 51 8z m270 -30 c20 -14 30 -25 21 -25 -9 0 -19
5 -22 10 -3 6 -17 10 -31 10 -23 0 -31 10 -17 23 9 10 8 10 49 -18z m-1719 9
c-3 -3 -12 -4 -19 -1 -8 3 -5 6 6 6 11 1 17 -2 13 -5z m1864 -81 c13 -16 12
-17 -3 -4 -17 13 -22 21 -14 21 2 0 10 -8 17 -17z m666 -6 c17 -12 46 -37 64
-55 19 -19 57 -49 86 -68 54 -35 72 -54 54 -54 -6 0 -45 28 -88 63 -43 35 -97
75 -120 90 -23 14 -44 31 -48 37 -11 18 20 11 52 -13z m888 -14 c18 -16 45
-36 60 -46 14 -11 24 -21 21 -24 -6 -6 -27 9 -86 60 -24 20 -40 37 -36 37 5 0
23 -12 41 -27z m-2329 -39 c-11 -8 -27 -14 -35 -14 -9 0 -3 8 14 19 34 21 50
17 21 -5z m2334 -50 c0 -6 -49 21 -72 39 -37 29 -16 27 27 -3 25 -17 45 -33
45 -36z m-3566 11 c26 -20 0 -20 -34 0 -22 13 -23 14 -5 14 11 0 29 -6 39 -14z
m951 -5 c17 -19 17 -20 -1 -20 -10 0 -44 -3 -74 -6 l-55 -5 45 24 c57 31 63
31 85 7z m204 10 c-19 -11 -107 -26 -98 -17 6 7 74 25 99 26 13 0 12 -1 -1 -9z
m2146 -32 c24 -18 44 -37 45 -41 0 -8 -88 51 -96 65 -10 16 8 7 51 -24z m-825
6 c0 -2 -7 -4 -15 -4 -8 0 -15 4 -15 10 0 5 7 7 15 4 8 -4 15 -8 15 -10z m530
-9 c22 -14 40 -29 40 -33 0 -13 -36 -8 -54 7 -14 11 -16 11 -16 -3 0 -14 -4
-15 -22 -5 -13 6 -24 13 -26 15 -3 2 29 41 36 43 1 1 20 -10 42 -24z m-555
-25 c3 -6 -1 -7 -9 -4 -18 7 -21 14 -7 14 6 0 13 -4 16 -10z m1279 4 c21 -8
21 -43 0 -51 -8 -3 -20 -1 -27 6 -8 8 -8 11 2 11 8 0 10 7 6 20 -7 22 -5 23
19 14z m-583 -78 c15 -12 35 -26 45 -33 18 -11 17 -11 -4 -6 -12 3 -25 9 -28
14 -3 5 -13 9 -22 9 -9 0 -33 17 -52 36 l-35 36 35 -17 c19 -10 47 -27 61 -39z
m-207 -5 c-2 -3 -12 3 -22 13 -16 17 -16 18 5 5 12 -7 20 -15 17 -18z m134
-10 c3 -8 -1 -12 -9 -9 -7 2 -15 10 -17 17 -3 8 1 12 9 9 7 -2 15 -10 17 -17z
m72 -51 c12 -8 11 -10 -7 -10 -13 0 -23 5 -23 10 0 13 11 13 30 0z m260 -165
c0 -22 -48 -31 -68 -12 -14 15 -13 16 21 10 24 -4 37 -2 37 6 0 6 2 11 5 11 3
0 5 -7 5 -15z m-180 -108 c0 -13 -48 -57 -62 -57 -7 0 -2 9 12 19 18 15 21 22
13 33 -9 10 -6 13 13 13 13 0 24 -4 24 -8z"/>
<path d="M3972 5198 c-14 -14 -16 -35 -3 -43 14 -8 35 35 24 46 -5 5 -14 4
-21 -3z"/>
<path d="M3920 4970 c0 -11 5 -20 10 -20 6 0 10 9 10 20 0 11 -4 20 -10 20 -5
0 -10 -9 -10 -20z"/>
<path d="M3002 5143 c-10 -19 -8 -80 2 -91 13 -12 38 26 43 67 5 37 3 41 -15
41 -12 0 -25 -8 -30 -17z"/>
<path d="M2966 4968 c-22 -32 -20 -58 4 -58 19 0 26 12 20 35 -2 6 -2 18 -2
28 1 23 -4 22 -22 -5z"/>
<path d="M3126 4813 c-12 -12 -6 -43 9 -43 8 0 15 9 15 19 0 21 -13 34 -24 24z"/>
<path d="M3135 4727 c-4 -10 -5 -21 -1 -24 10 -10 18 4 13 24 -4 17 -4 17 -12
0z"/>
<path d="M7264 4626 c-6 -17 2 -36 17 -36 12 0 12 37 -1 45 -6 3 -13 -1 -16
-9z"/>
<path d="M7280 4562 c0 -19 12 -42 22 -42 14 0 5 43 -9 48 -7 2 -13 -1 -13 -6z"/>
<path d="M7296 4502 c-2 -4 -1 -14 4 -21 10 -17 31 -5 23 14 -6 16 -19 20 -27
7z"/>
<path d="M7430 2950 c0 -5 5 -10 10 -10 6 0 10 5 10 10 0 6 -4 10 -10 10 -5 0
-10 -4 -10 -10z"/>
<path d="M7393 2895 c-3 -9 -3 -18 0 -21 9 -9 27 6 27 22 0 19 -19 18 -27 -1z"/>
<path d="M3040 2305 c0 -4 26 -52 58 -106 31 -55 64 -112 73 -128 8 -16 23
-36 32 -45 9 -10 33 -42 53 -72 20 -29 40 -54 45 -54 18 0 8 27 -25 66 -18 21
-48 64 -65 94 -63 108 -91 150 -131 201 -22 28 -40 48 -40 44z"/>
<path d="M3380 1755 c7 -9 15 -13 17 -11 7 7 -7 26 -19 26 -6 0 -6 -6 2 -15z"/>
<path d="M5373 1654 c-30 -13 -9 -24 42 -24 30 0 55 5 55 10 0 6 -10 10 -22
10 -13 0 -32 2 -43 5 -11 2 -26 2 -32 -1z"/>
<path d="M5970 1555 c-7 -9 -10 -18 -7 -21 10 -10 47 7 47 22 0 19 -24 18 -40
-1z"/>
<path d="M6006 1505 c-44 -15 -58 -32 -52 -58 2 -10 -8 -30 -25 -47 -25 -25
-28 -33 -19 -50 17 -31 52 -24 103 22 56 50 62 73 15 64 -34 -7 -32 0 4 18 24
12 36 43 21 56 -4 5 -26 2 -47 -5z"/>
<path d="M4914 1256 c-9 -22 4 -36 32 -36 21 0 25 4 22 23 -4 26 -45 37 -54
13z"/>
<path d="M5327 1193 c-12 -11 -8 -23 8 -23 8 0 15 7 15 15 0 16 -12 20 -23 8z"/>
<path d="M5200 1180 c0 -5 7 -10 15 -10 8 0 15 5 15 10 0 6 -7 10 -15 10 -8 0
-15 -4 -15 -10z"/>
<path d="M5155 1170 c-3 -5 1 -10 10 -10 9 0 13 5 10 10 -3 6 -8 10 -10 10 -2
0 -7 -4 -10 -10z"/>
<path d="M5077 1153 c-4 -3 -7 -15 -7 -25 0 -28 34 -19 38 10 3 21 -16 31 -31
15z"/>
<path d="M6827 2792 c-15 -16 -14 -20 9 -50 14 -17 29 -32 34 -32 9 0 1 40
-12 56 -4 6 -6 19 -2 28 8 21 -9 20 -29 -2z"/>
<path d="M6728 2705 c-10 -22 -8 -28 16 -50 15 -14 34 -25 42 -25 7 0 14 -4
14 -10 0 -5 9 -10 21 -10 16 0 19 -4 14 -19 -5 -15 9 -35 57 -83 50 -50 69
-63 95 -64 39 -1 41 5 11 32 -23 20 -141 145 -206 217 -38 44 -49 45 -64 12z"/>
<path d="M6930 2578 c0 -18 27 -44 37 -34 4 4 -3 16 -15 29 -18 17 -22 18 -22
5z"/>
<path d="M7000 2500 c0 -5 5 -10 11 -10 5 0 7 5 4 10 -3 6 -8 10 -11 10 -2 0
-4 -4 -4 -10z"/>
<path d="M7080 2432 c0 -12 19 -26 26 -19 2 2 -2 10 -11 17 -9 8 -15 8 -15 2z"/>
<path d="M7047 2413 c-13 -13 -7 -44 11 -50 9 -4 22 -13 28 -22 10 -13 15 -12
38 6 l26 21 -30 12 c-16 7 -35 18 -41 26 -13 15 -22 18 -32 7z"/>
<path d="M6817 3003 c-15 -14 -6 -55 19 -83 32 -35 44 -31 44 14 0 21 -8 40
-23 54 -25 24 -30 26 -40 15z"/>
<path d="M6925 2890 c-9 -15 -1 -23 21 -18 15 3 16 4 1 16 -11 9 -17 10 -22 2z"/>
<path d="M7085 2789 c-4 -6 3 -21 15 -34 22 -24 22 -24 1 -18 -28 7 -29 -26
-1 -58 l19 -24 25 30 c32 39 32 60 0 90 -29 27 -49 31 -59 14z"/>
<path d="M7255 2548 c4 -13 14 -29 24 -36 13 -11 17 -10 19 2 5 22 -16 56 -34
56 -11 0 -14 -6 -9 -22z"/>
<path d="M3210 2470 c0 -21 41 -96 80 -148 22 -29 40 -58 40 -66 0 -20 39 -66
57 -66 10 0 13 6 9 16 -3 9 -6 25 -6 36 0 11 -15 35 -34 54 -36 36 -37 41 -6
24 45 -24 25 14 -43 84 -69 71 -97 90 -97 66z"/>
<path d="M3390 2280 c0 -5 5 -10 10 -10 6 0 10 5 10 10 0 6 -4 10 -10 10 -5 0
-10 -4 -10 -10z"/>
<path d="M6355 2410 c3 -5 13 -10 21 -10 8 0 12 5 9 10 -3 6 -13 10 -21 10 -8
0 -12 -4 -9 -10z"/>
<path d="M6872 1941 c2 -7 7 -12 11 -12 12 1 9 15 -3 20 -7 2 -11 -2 -8 -8z"/>
<path d="M6920 1941 c0 -14 18 -23 31 -15 8 4 7 9 -2 15 -18 11 -29 11 -29 0z"/>
<path d="M6910 1905 c0 -15 34 -55 46 -55 18 0 18 10 -2 38 -13 19 -44 31 -44
17z"/>
<path d="M7000 1840 c-12 -7 -12 -13 -4 -27 15 -24 28 -19 32 12 4 27 -4 31
-28 15z"/>
<path d="M3750 2542 c12 -24 31 -44 54 -55 47 -22 56 -21 56 3 0 22 -83 90
-111 90 -16 0 -16 -2 1 -38z"/>
<path d="M6530 1977 c0 -23 71 -107 91 -107 14 0 23 24 11 28 -7 2 -12 10 -12
17 0 7 -16 23 -35 35 -19 12 -34 26 -32 32 1 6 -4 13 -10 15 -8 3 -13 -4 -13
-20z"/>
<path d="M6633 1846 c-4 -5 2 -15 11 -20 10 -6 40 -28 67 -49 44 -35 69 -41
69 -17 0 5 -18 27 -40 48 -39 39 -94 59 -107 38z"/>
<path d="M6806 1711 c-4 -5 -2 -12 3 -15 5 -4 12 -2 15 3 4 5 2 12 -3 15 -5 4
-12 2 -15 -3z"/>
<path d="M6846 1681 c-14 -16 -15 -23 -6 -41 15 -28 41 -22 53 14 7 21 6 30
-4 37 -20 12 -24 11 -43 -10z"/>
<path d="M7185 1410 c3 -5 8 -10 11 -10 2 0 4 5 4 10 0 6 -5 10 -11 10 -5 0
-7 -4 -4 -10z"/>
<path d="M7160 1322 c0 -5 7 -13 16 -16 10 -4 14 -1 12 6 -5 15 -28 23 -28 10z"/>
<path d="M6030 1998 c0 -17 176 -191 189 -187 12 4 -164 199 -180 199 -5 0 -9
-5 -9 -12z"/>
<path d="M6392 1818 c5 -15 28 -18 29 -3 0 6 -7 12 -17 13 -10 3 -15 -1 -12
-10z"/>
<path d="M6380 1718 c0 -17 24 -57 38 -63 28 -11 26 6 -6 38 -18 17 -32 29
-32 25z"/>
<path d="M6610 1482 c0 -10 33 -42 43 -42 15 0 6 30 -12 40 -24 12 -31 13 -31
2z"/>
<path d="M6610 1416 c0 -2 7 -7 16 -10 8 -3 12 -2 9 4 -6 10 -25 14 -25 6z"/>
</g>
</svg>
